<?xml version="1.0" encoding="UTF-8"?>
<svg id="Layer_1" data-name="Layer 1" xmlns="http://www.w3.org/2000/svg" viewBox="0 0 1920 1080">
  <defs>
    <style>
      .cls-1 {
        fill: #edba57;
      }

      .cls-2 {
        fill: #ebc848;
      }
    </style>
  </defs>
  <g>
    <path class="cls-2" d="M1211.24,887.47v-1.14h-359.14c-.3,0-.59,.12-.8,.33-.21,.21-.33,.5-.33,.8v191.39c0,.3,.12,.59,.33,.8,.21,.21,.5,.33,.8,.33h359.14c.3,0,.59-.12,.8-.33,.21-.21,.33-.5,.33-.8v-191.39c0-.3-.12-.59-.33-.8-.21-.21-.5-.33-.8-.33v1.14h-1.14v190.26h-356.87v-189.12h358v-1.14h0Z"/>
    <path class="cls-2" d="M1193.86,887.47v-1.14h-324.38c-.3,0-.59,.12-.8,.33-.21,.21-.33,.5-.33,.8v191.39c0,.3,.12,.59,.33,.8,.21,.21,.5,.33,.8,.33h324.38c.3,0,.59-.12,.8-.33,.21-.21,.33-.5,.33-.8v-191.39c0-.3-.12-.59-.33-.8-.21-.21-.5-.33-.8-.33v1.14h-1.14v190.26h-322.11v-189.12h323.25s0-1.14,0-1.14h0Z"/>
    <path class="cls-2" d="M1194.7,887.47v-1.14h-324.92v-34.77h323.79v35.91h1.14v0h1.14v-37.04c0-.3-.12-.59-.33-.8s-.5-.33-.8-.33h-326.06c-.3,0-.59,.12-.8,.33-.21,.21-.33,.5-.33,.8v37.04c0,.3,.12,.59,.33,.8s.5,.33,.8,.33h326.06c.3,0,.59-.12,.8-.33,.21-.21,.33-.5,.33-.8h-1.14Z"/>
    <path class="cls-2" d="M1112.29,840.78v-1.14h-160.97c-.3,0-.59,.12-.8,.33-.21,.21-.33,.5-.33,.8v9.65c0,.3,.12,.59,.33,.8,.21,.21,.5,.33,.8,.33h160.97c.3,0,.59-.12,.8-.33s.33-.5,.33-.8v-9.65c0-.3-.12-.59-.33-.8-.21-.21-.5-.33-.8-.33v1.14h-1.14v8.51h-158.7v-7.38h159.83v-1.14h0Z"/>
    <path class="cls-2" d="M1201.79,840.78v-1.14h-18.86c-.3,0-.59,.12-.8,.33-.21,.21-.33,.5-.33,.8v9.65c0,.3,.12,.59,.33,.8s.5,.33,.8,.33h18.86c.3,0,.59-.12,.8-.33s.33-.5,.33-.8v-9.65c0-.3-.12-.59-.33-.8-.21-.21-.5-.33-.8-.33v1.14h-1.14v8.51h-16.59v-7.38h17.73s0-1.14,0-1.14h0Z"/>
    <path class="cls-2" d="M880.42,840.78v-1.14h-18.86c-.3,0-.59,.12-.8,.33-.21,.21-.33,.5-.33,.8v9.65c0,.3,.12,.59,.33,.8s.5,.33,.8,.33h18.86c.3,0,.59-.12,.8-.33,.21-.21,.33-.5,.33-.8v-9.65c0-.3-.12-.59-.33-.8-.21-.21-.5-.33-.8-.33v1.14h-1.14v8.51h-16.59v-7.38h17.73s0-1.14,0-1.14h0Z"/>
    <path class="cls-2" d="M1080.81,887.47v-1.14h-98.28c-.3,0-.59,.12-.8,.33-.21,.21-.33,.5-.33,.8v191.39c0,.3,.12,.59,.33,.8s.5,.33,.8,.33h98.28c.3,0,.59-.12,.8-.33,.21-.21,.33-.5,.33-.8v-191.39c0-.3-.12-.59-.33-.8-.21-.21-.5-.33-.8-.33v1.14h-1.14v190.26h-96.01v-189.12h97.15s0-1.14,0-1.14h0Z"/>
    <path class="cls-2" d="M1057.26,901.36v-1.14h-51.18c-6.42,0-11.62,5.2-11.62,11.62v167.02c0,.3,.12,.59,.33,.8,.21,.21,.5,.33,.8,.33h72.15c.3,0,.59-.12,.8-.33,.21-.21,.33-.5,.33-.8v-167.02c0-6.42-5.2-11.62-11.62-11.62v2.27c2.59,0,4.92,1.04,6.61,2.74,1.69,1.7,2.74,4.03,2.74,6.61v165.88h-69.88v-165.88c0-2.59,1.04-4.92,2.74-6.61,1.7-1.69,4.03-2.74,6.61-2.74h51.18v-1.14Z"/>
    <path class="cls-2" d="M951.32,1078.86v-1.14h-69.74l3.84-158.56h60.91l3.86,159.72,1.14-.03v0l1.14-.03-3.89-160.83c-.02-.62-.52-1.11-1.14-1.11h-63.12c-.62,0-1.12,.49-1.14,1.11l-3.89,160.83c0,.31,.11,.6,.32,.82,.21,.22,.5,.34,.81,.34h70.91c.31,0,.6-.12,.81-.34,.21-.22,.33-.51,.32-.82l-1.14,.03Z"/>
    <path class="cls-2" d="M955.32,898.36v-1.14h-78.9c-.3,0-.59,.12-.8,.33s-.33,.5-.33,.8v19.67c0,.3,.12,.59,.33,.8,.21,.21,.5,.33,.8,.33h78.9c.3,0,.59-.12,.8-.33,.21-.21,.33-.5,.33-.8v-19.67c0-.3-.12-.59-.33-.8s-.5-.33-.8-.33v1.14h-1.14v18.54h-76.63v-17.4h77.77s0-1.14,0-1.14h0Z"/>
    <path class="cls-2" d="M955.32,898.36v-1.14h-78.12l-3.02-7.89h83.38l-3.3,8.62,1.06,.41v0l1.06,.41,3.89-10.16c.13-.35,.09-.74-.12-1.05-.21-.31-.56-.49-.94-.49h-86.69c-.37,0-.72,.19-.94,.49-.21,.31-.26,.7-.12,1.05l3.89,10.16c.17,.44,.59,.73,1.06,.73h78.9c.47,0,.89-.29,1.06-.73l-1.06-.41Z"/>
    <path class="cls-2" d="M955.32,769.23v-1.14h-78.9c-.3,0-.59,.12-.8,.33s-.33,.5-.33,.8v19.67c0,.3,.12,.59,.33,.8,.21,.21,.5,.33,.8,.33h78.9c.3,0,.59-.12,.8-.33s.33-.5,.33-.8v-19.67c0-.3-.12-.59-.33-.8s-.5-.33-.8-.33v1.14h-1.14v18.54h-76.63v-17.4h77.77v-1.14h0Z"/>
    <path class="cls-2" d="M955.32,769.23v-1.14h-78.12l-3.02-7.89h83.38l-3.3,8.62,1.06,.41v0l1.06,.41,3.89-10.16c.13-.35,.09-.74-.12-1.05s-.56-.49-.94-.49h-86.69c-.37,0-.72,.19-.94,.49-.21,.31-.26,.7-.12,1.05l3.89,10.16c.17,.44,.59,.73,1.06,.73h78.9c.47,0,.89-.29,1.06-.73l-1.06-.41Z"/>
    <path class="cls-2" d="M948.59,653.53v-1.14h-65.44c-.3,0-.59,.12-.8,.33-.21,.21-.33,.5-.33,.8v18.95c0,.3,.12,.59,.33,.8s.5,.33,.8,.33h65.44c.3,0,.59-.12,.8-.33,.21-.21,.33-.5,.33-.8v-18.95c0-.3-.12-.59-.33-.8-.21-.21-.5-.33-.8-.33v1.14h-1.14v17.82h-63.17v-16.68h64.31v-1.14h0Z"/>
    <path class="cls-2" d="M948.59,653.53v-1.14h-64.62l-2.48-7.52h68.76l-2.74,8.3,1.08,.36v0l1.08,.36,3.23-9.79c.11-.35,.06-.73-.16-1.02-.21-.3-.56-.47-.92-.47h-71.9c-.36,0-.71,.17-.92,.47-.21,.3-.27,.67-.16,1.02l3.23,9.79c.15,.47,.59,.78,1.08,.78h65.44c.49,0,.92-.31,1.08-.78l-1.08-.36Z"/>
    <path class="cls-2" d="M936.55,1078.86v-1.14h-40.21l3.84-158.56h31.37l3.86,159.72,1.14-.03v0l1.14-.03-3.89-160.83c-.02-.62-.52-1.11-1.14-1.11h-33.59c-.62,0-1.12,.49-1.14,1.11l-3.89,160.83c0,.31,.11,.6,.32,.82,.21,.22,.5,.34,.81,.34h41.37c.31,0,.6-.12,.81-.34,.21-.22,.33-.51,.32-.82l-1.14,.03Z"/>
    <path class="cls-2" d="M951.06,888.06v-1.14h-69.24v-96.88h68.1v98.02h1.14v0h1.14v-99.15c0-.3-.12-.59-.33-.8-.21-.21-.5-.33-.8-.33h-70.37c-.3,0-.59,.12-.8,.33-.21,.21-.33,.5-.33,.8v99.15c0,.3,.12,.59,.33,.8,.21,.21,.5,.33,.8,.33h70.37c.3,0,.59-.12,.8-.33,.21-.21,.33-.5,.33-.8h-1.14Z"/>
    <path class="cls-2" d="M880.63,809.87h70.04c.63,0,1.14-.51,1.14-1.14s-.51-1.14-1.14-1.14h-70.04c-.63,0-1.14,.51-1.14,1.14s.51,1.14,1.14,1.14"/>
    <path class="cls-2" d="M944.41,759.08v-1.14h-55.95v-84.21h54.82v85.34h1.14v0h1.14v-86.48c0-.3-.12-.59-.33-.8-.21-.21-.5-.33-.8-.33h-57.09c-.3,0-.59,.12-.8,.33-.21,.21-.33,.5-.33,.8v86.48c0,.3,.12,.59,.33,.8s.5,.33,.8,.33h57.09c.3,0,.59-.12,.8-.33,.21-.21,.33-.5,.33-.8h-1.14Z"/>
    <path class="cls-2" d="M887.28,691.04h56.82c.63,0,1.14-.51,1.14-1.14s-.51-1.14-1.14-1.14h-56.82c-.63,0-1.14,.51-1.14,1.14s.51,1.14,1.14,1.14"/>
    <path class="cls-2" d="M887.28,708.33h56.82c.63,0,1.14-.51,1.14-1.14s-.51-1.14-1.14-1.14h-56.82c-.63,0-1.14,.51-1.14,1.14s.51,1.14,1.14,1.14"/>
    <path class="cls-2" d="M887.28,725.63h56.82c.63,0,1.14-.51,1.14-1.14s-.51-1.14-1.14-1.14h-56.82c-.63,0-1.14,.51-1.14,1.14s.51,1.14,1.14,1.14"/>
    <path class="cls-2" d="M887.28,742.92h56.82c.63,0,1.14-.51,1.14-1.14s-.51-1.14-1.14-1.14h-56.82c-.63,0-1.14,.51-1.14,1.14s.51,1.14,1.14,1.14"/>
    <path class="cls-2" d="M944.15,611.21v-1.14h-56.56c-.3,0-.59,.12-.8,.33-.21,.21-.33,.5-.33,.8v32.52c0,.3,.12,.59,.33,.8,.21,.21,.5,.33,.8,.33h56.56c.3,0,.59-.12,.8-.33,.21-.21,.33-.5,.33-.8v-32.52c0-.3-.12-.59-.33-.8-.21-.21-.5-.33-.8-.33v1.14h-1.14v31.38h-54.29v-30.25h55.43s0-1.14,0-1.14h0Z"/>
    <path class="cls-2" d="M944.15,611.21v-1.14h-55.43v-1.71c0-7.5,3.04-14.28,7.95-19.2,4.92-4.91,11.7-7.95,19.2-7.95,7.5,0,14.28,3.04,19.2,7.95,4.91,4.92,7.95,11.7,7.95,19.2v2.85h1.14v0h1.14v-2.85c0-16.25-13.17-29.42-29.42-29.42-16.25,0-29.42,13.17-29.42,29.42v2.85c0,.3,.12,.59,.33,.8,.21,.21,.5,.33,.8,.33h56.56c.3,0,.59-.12,.8-.33,.21-.21,.33-.5,.33-.8h-1.14Z"/>
    <path class="cls-2" d="M922.35,573.53h-1.14c0,1.48-.6,2.81-1.57,3.78-.97,.97-2.3,1.57-3.78,1.57-1.48,0-2.81-.6-3.78-1.57-.97-.97-1.57-2.3-1.57-3.78,0-1.48,.6-2.81,1.57-3.78,.97-.97,2.3-1.57,3.78-1.57,1.48,0,2.81,.6,3.78,1.57,.97,.97,1.57,2.3,1.57,3.78h2.27c0-4.21-3.41-7.62-7.62-7.62-4.21,0-7.62,3.41-7.62,7.62,0,4.21,3.41,7.62,7.62,7.62,4.21,0,7.62-3.41,7.62-7.62h-1.14Z"/>
    <path class="cls-2" d="M1182.93,1078.67v-1.14h-69.74l3.84-158.37h60.91l3.86,159.53,1.14-.03v0l1.14-.03-3.89-160.64c-.01-.62-.52-1.11-1.14-1.11h-63.12c-.62,0-1.12,.49-1.14,1.11l-3.89,160.64c0,.31,.11,.6,.32,.82,.22,.22,.5,.34,.81,.34h70.91c.31,0,.6-.12,.81-.34s.33-.51,.32-.82l-1.14,.03Z"/>
    <path class="cls-2" d="M1186.93,898.36v-1.14h-78.9c-.3,0-.59,.12-.8,.33s-.33,.5-.33,.8v19.67c0,.3,.12,.59,.33,.8,.21,.21,.5,.33,.8,.33h78.9c.3,0,.59-.12,.8-.33s.33-.5,.33-.8v-19.67c0-.3-.12-.59-.33-.8s-.5-.33-.8-.33v1.14h-1.14v18.54h-76.63v-17.4h77.77s0-1.14,0-1.14h0Z"/>
    <path class="cls-2" d="M1186.93,898.36v-1.14h-78.12l-3.02-7.89h83.38l-3.3,8.62,1.06,.41v0l1.06,.41,3.89-10.16c.13-.35,.09-.74-.12-1.05-.21-.31-.56-.49-.94-.49h-86.69c-.37,0-.72,.19-.94,.49-.21,.31-.26,.7-.12,1.05l3.89,10.16c.17,.44,.59,.73,1.06,.73h78.9c.47,0,.89-.29,1.06-.73l-1.06-.41Z"/>
    <path class="cls-2" d="M1186.93,769.23v-1.14h-78.9c-.3,0-.59,.12-.8,.33s-.33,.5-.33,.8v19.67c0,.3,.12,.59,.33,.8,.21,.21,.5,.33,.8,.33h78.9c.3,0,.59-.12,.8-.33,.21-.21,.33-.5,.33-.8v-19.67c0-.3-.12-.59-.33-.8s-.5-.33-.8-.33v1.14h-1.14v18.54h-76.63v-17.4h77.77v-1.14h0Z"/>
    <path class="cls-2" d="M1186.93,769.23v-1.14h-78.12l-3.02-7.89h83.38l-3.3,8.62,1.06,.41v0l1.06,.41,3.89-10.16c.13-.35,.09-.74-.12-1.05-.21-.31-.56-.49-.94-.49h-86.69c-.37,0-.72,.19-.94,.49-.21,.31-.26,.7-.12,1.05l3.89,10.16c.17,.44,.59,.73,1.06,.73h78.9c.47,0,.89-.29,1.06-.73l-1.06-.41Z"/>
    <path class="cls-2" d="M1180.2,653.53v-1.14h-65.44c-.3,0-.59,.12-.8,.33s-.33,.5-.33,.8v18.95c0,.3,.12,.59,.33,.8s.5,.33,.8,.33h65.44c.3,0,.59-.12,.8-.33,.21-.21,.33-.5,.33-.8v-18.95c0-.3-.12-.59-.33-.8-.21-.21-.5-.33-.8-.33v1.14h-1.14v17.82h-63.17v-16.68h64.31v-1.14h0Z"/>
    <path class="cls-2" d="M1180.2,653.53v-1.14h-64.62l-2.48-7.52h68.76l-2.74,8.3,1.08,.36v0l1.08,.36,3.23-9.79c.11-.35,.06-.73-.16-1.02-.21-.3-.56-.47-.92-.47h-71.9c-.36,0-.71,.17-.92,.47s-.27,.67-.16,1.02l3.23,9.79c.15,.47,.59,.78,1.08,.78h65.44c.49,0,.92-.31,1.08-.78l-1.08-.36Z"/>
    <path class="cls-2" d="M1168.16,1078.09v-1.14h-40.21l3.84-157.78h31.37l3.86,158.95,1.14-.03v0l1.14-.03-3.89-160.05c-.02-.62-.52-1.11-1.14-1.11h-33.59c-.62,0-1.12,.49-1.14,1.11l-3.89,160.05c0,.31,.11,.6,.32,.82,.22,.22,.51,.34,.81,.34h41.37c.31,0,.6-.12,.81-.34,.21-.22,.33-.51,.32-.82l-1.14,.03Z"/>
    <path class="cls-2" d="M1182.66,888.06v-1.14h-69.24v-96.88h68.1v98.02h1.14v0h1.14v-99.15c0-.3-.12-.59-.33-.8-.21-.21-.5-.33-.8-.33h-70.37c-.3,0-.59,.12-.8,.33-.21,.21-.33,.5-.33,.8v99.15c0,.3,.12,.59,.33,.8,.21,.21,.5,.33,.8,.33h70.37c.3,0,.59-.12,.8-.33,.21-.21,.33-.5,.33-.8h-1.14Z"/>
    <path class="cls-2" d="M1112.24,809.87h70.04c.63,0,1.14-.51,1.14-1.14s-.51-1.14-1.14-1.14h-70.04c-.63,0-1.14,.51-1.14,1.14s.51,1.14,1.14,1.14"/>
    <path class="cls-2" d="M1176.02,759.08v-1.14h-55.95v-84.21h54.82v85.34h1.14v0h1.14v-86.48c0-.3-.12-.59-.33-.8-.21-.21-.5-.33-.8-.33h-57.09c-.3,0-.59,.12-.8,.33-.21,.21-.33,.5-.33,.8v86.48c0,.3,.12,.59,.33,.8s.5,.33,.8,.33h57.09c.3,0,.59-.12,.8-.33s.33-.5,.33-.8h-1.14Z"/>
    <path class="cls-2" d="M1118.89,691.04h56.82c.63,0,1.14-.51,1.14-1.14s-.51-1.14-1.14-1.14h-56.82c-.63,0-1.14,.51-1.14,1.14s.51,1.14,1.14,1.14"/>
    <path class="cls-2" d="M1118.89,708.33h56.82c.63,0,1.14-.51,1.14-1.14s-.51-1.14-1.14-1.14h-56.82c-.63,0-1.14,.51-1.14,1.14s.51,1.14,1.14,1.14"/>
    <path class="cls-2" d="M1118.89,725.63h56.82c.63,0,1.14-.51,1.14-1.14s-.51-1.14-1.14-1.14h-56.82c-.63,0-1.14,.51-1.14,1.14s.51,1.14,1.14,1.14"/>
    <path class="cls-2" d="M1118.89,742.92h56.82c.63,0,1.14-.51,1.14-1.14s-.51-1.14-1.14-1.14h-56.82c-.63,0-1.14,.51-1.14,1.14s.51,1.14,1.14,1.14"/>
    <path class="cls-2" d="M1175.76,611.21v-1.14h-56.56c-.3,0-.59,.12-.8,.33s-.33,.5-.33,.8v32.52c0,.3,.12,.59,.33,.8,.21,.21,.5,.33,.8,.33h56.56c.3,0,.59-.12,.8-.33s.33-.5,.33-.8v-32.52c0-.3-.12-.59-.33-.8s-.5-.33-.8-.33v1.14h-1.14v31.38h-54.29v-30.25h55.43s0-1.14,0-1.14h0Z"/>
    <path class="cls-2" d="M1175.76,611.21v-1.14h-55.43v-1.71c0-7.5,3.04-14.28,7.95-19.2,4.92-4.91,11.7-7.95,19.2-7.95,7.5,0,14.28,3.04,19.2,7.95,4.91,4.92,7.95,11.7,7.95,19.2v2.85h1.14v0h1.14v-2.85c0-16.25-13.17-29.42-29.42-29.42-16.25,0-29.42,13.17-29.42,29.42v2.85c0,.3,.12,.59,.33,.8,.21,.21,.5,.33,.8,.33h56.56c.3,0,.59-.12,.8-.33s.33-.5,.33-.8h-1.14Z"/>
    <path class="cls-2" d="M1153.96,573.53h-1.14c0,1.48-.6,2.81-1.57,3.78-.97,.97-2.3,1.57-3.78,1.57-1.48,0-2.81-.6-3.78-1.57-.97-.97-1.57-2.3-1.57-3.78,0-1.48,.6-2.81,1.57-3.78,.97-.97,2.3-1.57,3.78-1.57,1.48,0,2.81,.6,3.78,1.57,.97,.97,1.57,2.3,1.57,3.78h2.27c0-4.21-3.41-7.62-7.62-7.62-4.21,0-7.62,3.41-7.62,7.62,0,4.21,3.41,7.62,7.62,7.62,4.21,0,7.62-3.41,7.62-7.62h-1.14Z"/>
  </g>
  <g>
    <path class="cls-2" d="M706.61,933.5v-1.15h-45.5c-.3,0-.6,.12-.81,.34-.21,.21-.34,.51-.34,.81v64.55c0,.3,.12,.6,.34,.81,.21,.21,.51,.34,.81,.34h45.5c.31,0,.6-.12,.81-.34s.34-.51,.34-.81v-64.55c0-.3-.12-.6-.34-.81s-.51-.34-.81-.34v1.15h-1.15v63.41h-43.2v-62.26h44.35v-1.15h0Z"/>
    <path class="cls-2" d="M700.19,945.31v-1.15h-32.66c-.3,0-.6,.12-.81,.34-.21,.21-.34,.51-.34,.81v52.75c0,.3,.12,.6,.34,.81s.51,.34,.81,.34h32.66c.31,0,.6-.12,.81-.34,.22-.22,.34-.51,.34-.81v-52.75c0-.3-.12-.6-.34-.81-.21-.21-.51-.34-.81-.34v1.15h-1.15v51.6h-30.36v-50.45h31.51v-1.15h0Z"/>
    <path class="cls-2" d="M737.1,913.03v-1.15h-106.47c-.3,0-.6,.12-.81,.34s-.34,.51-.34,.81v85.02c0,.3,.12,.6,.34,.81s.51,.34,.81,.34h106.47c.31,0,.6-.12,.81-.34,.22-.22,.34-.51,.34-.81v-85.02c0-.3-.12-.6-.34-.81-.21-.21-.51-.34-.81-.34v1.15h-1.15v83.87h-104.17v-82.72h105.32s0-1.15,0-1.15h0Z"/>
    <path class="cls-2" d="M745.28,913.03v-1.15h-121.95l-1.16-4.39h123.39l-1.39,5.25,1.11,.29v0l1.11,.29,1.77-6.69c.09-.35,.02-.71-.2-1s-.55-.45-.91-.45h-126.37c-.36,0-.69,.17-.91,.45-.22,.28-.29,.65-.2,1l1.77,6.69c.13,.5,.59,.86,1.11,.86h122.83c.52,0,.98-.35,1.11-.86l-1.11-.29Z"/>
    <path class="cls-2" d="M832.52,1078.85v-1.15h-296.17v-78.5h295.03v79.65h1.15v0h1.15v-80.8c0-.3-.12-.6-.34-.81-.21-.21-.51-.34-.81-.34h-297.32c-.3,0-.6,.12-.81,.34-.21,.21-.34,.51-.34,.81v80.8c0,.3,.12,.6,.34,.81s.51,.34,.81,.34h297.32c.31,0,.6-.12,.81-.34,.22-.22,.34-.51,.34-.81h-1.15Z"/>
    <path class="cls-2" d="M745.37,1078.85v-1.15h-122.49v-78.5h121.35v79.65h1.15v0h1.15v-80.8c0-.3-.12-.6-.34-.81-.21-.21-.51-.34-.81-.34h-123.64c-.3,0-.6,.12-.81,.34s-.34,.51-.34,.81v80.8c0,.3,.12,.6,.34,.81s.51,.34,.81,.34h123.64c.31,0,.6-.12,.81-.34,.22-.22,.34-.51,.34-.81h-1.15Z"/>
    <path class="cls-2" d="M578.98,1078.85v1.15h42.74c.3,0,.6-.12,.81-.34s.34-.51,.34-.81v-80.8c0-.3-.12-.6-.34-.81s-.51-.34-.81-.34h-42.74c-.3,0-.6,.12-.81,.34-.21,.21-.34,.51-.34,.81v80.8c0,.3,.12,.6,.34,.81s.51,.34,.81,.34v-1.15h1.15v-79.65h40.44v78.5h-41.59v1.15h0Z"/>
    <path class="cls-2" d="M745.37,1078.85v1.15h42.74c.31,0,.6-.12,.81-.34,.22-.22,.34-.51,.34-.81v-80.8c0-.3-.12-.6-.34-.81-.21-.21-.51-.34-.81-.34h-42.74c-.3,0-.6,.12-.81,.34-.21,.21-.34,.51-.34,.81v80.8c0,.3,.12,.6,.34,.81s.51,.34,.81,.34v-1.15h1.15v-79.65h40.44v78.5h-41.59v1.15h0Z"/>
    <path class="cls-2" d="M832.52,1006.71v-1.15h-296.17v-6.36s295.03,0,295.03,0v7.51h1.15v0h1.15v-8.66c0-.3-.12-.6-.34-.81-.21-.21-.51-.34-.81-.34h-297.32c-.3,0-.6,.12-.81,.34-.21,.21-.34,.51-.34,.81v8.66c0,.3,.12,.6,.34,.81s.51,.34,.81,.34h297.32c.31,0,.6-.12,.81-.34,.22-.22,.34-.51,.34-.81h-1.15Z"/>
    <path class="cls-2" d="M737.1,820.92v-1.15h-106.47c-.3,0-.6,.12-.81,.34s-.34,.51-.34,.81v85.02c0,.3,.12,.6,.34,.81s.51,.34,.81,.34h106.47c.31,0,.6-.12,.81-.34,.22-.22,.34-.51,.34-.81v-85.02c0-.3-.12-.6-.34-.81-.21-.21-.51-.34-.81-.34v1.15h-1.15v83.87h-104.17v-82.72h105.32s0-1.15,0-1.15h0Z"/>
    <path class="cls-2" d="M702.23,848.76v-1.15h-36.74c-.3,0-.6,.12-.81,.34-.21,.21-.34,.51-.34,.81v29.34c0,.3,.12,.6,.34,.81s.51,.34,.81,.34h36.74c.31,0,.6-.12,.81-.34,.22-.22,.34-.51,.34-.81v-29.34c0-.3-.12-.6-.34-.81-.21-.21-.51-.34-.81-.34v1.15h-1.15v28.19h-34.44v-27.04s35.59,0,35.59,0v-1.15h0Z"/>
    <path class="cls-2" d="M745.28,820.92v-1.15h-121.95l-1.16-4.39h123.39l-1.39,5.25,1.11,.29v0l1.11,.29,1.77-6.69c.09-.35,.02-.71-.2-1s-.55-.45-.91-.45h-126.37c-.36,0-.69,.17-.91,.45-.22,.28-.29,.65-.2,1l1.77,6.69c.13,.5,.59,.86,1.11,.86h122.83c.52,0,.98-.35,1.11-.86l-1.11-.29Z"/>
    <path class="cls-2" d="M646.43,820.92v61.67c0,.3,.12,.6,.34,.81l3.86,3.86v18.68c0,.63,.51,1.15,1.15,1.15s1.15-.51,1.15-1.15v-19.16c0-.3-.12-.6-.34-.81l-3.86-3.86v-61.19c0-.63-.51-1.15-1.15-1.15s-1.15,.51-1.15,1.15h0Z"/>
    <path class="cls-2" d="M719.19,820.92v61.19l-3.86,3.86c-.21,.21-.34,.51-.34,.81v19.16c0,.63,.51,1.15,1.15,1.15s1.15-.51,1.15-1.15v-18.68s3.86-3.86,3.86-3.86c.21-.21,.34-.51,.34-.81v-61.67c0-.63-.51-1.15-1.15-1.15s-1.15,.51-1.15,1.15h0Z"/>
    <path class="cls-2" d="M737.1,729.24v-1.15h-106.47c-.3,0-.6,.12-.81,.34-.21,.21-.34,.51-.34,.81v85.02c0,.3,.12,.6,.34,.81s.51,.34,.81,.34h106.47c.31,0,.6-.12,.81-.34,.22-.22,.34-.51,.34-.81v-85.02c0-.3-.12-.6-.34-.81-.21-.21-.51-.34-.81-.34v1.15h-1.15v83.87h-104.17v-82.72h105.32v-1.15h0Z"/>
    <path class="cls-2" d="M702.23,757.08v-1.15h-36.74c-.3,0-.6,.12-.81,.34-.21,.21-.34,.51-.34,.81v29.34c0,.3,.12,.6,.34,.81,.21,.21,.51,.34,.81,.34h36.74c.3,0,.6-.12,.81-.34,.21-.21,.34-.51,.34-.81v-29.34c0-.3-.12-.6-.34-.81s-.51-.34-.81-.34v1.15h-1.15v28.19h-34.44v-27.04s35.59,0,35.59,0v-1.15h0Z"/>
    <path class="cls-2" d="M745.28,729.24v-1.15h-121.95l-1.16-4.39h123.39l-1.39,5.25,1.11,.29v0l1.11,.29,1.77-6.69c.09-.35,.02-.71-.2-1-.22-.28-.55-.45-.91-.45h-126.37c-.36,0-.69,.17-.91,.45-.22,.28-.29,.65-.2,1l1.77,6.69c.13,.5,.59,.86,1.11,.86h122.83c.52,0,.98-.35,1.11-.86l-1.11-.29Z"/>
    <path class="cls-2" d="M646.43,729.24v61.67c0,.3,.12,.6,.34,.81l3.86,3.86v18.68c0,.63,.51,1.15,1.15,1.15s1.15-.51,1.15-1.15v-19.16c0-.3-.12-.6-.34-.81l-3.86-3.86v-61.19c0-.63-.51-1.15-1.15-1.15s-1.15,.51-1.15,1.15h0Z"/>
    <path class="cls-2" d="M719.19,729.24v61.19l-3.86,3.86c-.21,.21-.34,.51-.34,.81v19.16c0,.63,.51,1.15,1.15,1.15s1.15-.51,1.15-1.15v-18.68s3.86-3.86,3.86-3.86c.22-.22,.34-.51,.34-.81v-61.67c0-.63-.51-1.15-1.15-1.15s-1.15,.51-1.15,1.15h0Z"/>
    <path class="cls-2" d="M630.63,997.9v-1.15h-74.51v-27.39h73.36v28.54h1.15v0h1.15v-29.68c0-.3-.12-.6-.34-.81-.21-.21-.51-.34-.81-.34h-75.66c-.3,0-.6,.12-.81,.34-.21,.21-.34,.51-.34,.81v29.68c0,.3,.12,.6,.34,.81s.51,.34,.81,.34h75.66c.3,0,.6-.12,.81-.34s.34-.51,.34-.81h-1.15Z"/>
    <path class="cls-2" d="M630.63,976.23v-1.15h-74.51v-5.71h73.36v6.86h1.15v0h1.15v-8.01c0-.3-.12-.6-.34-.81-.21-.21-.51-.34-.81-.34h-75.66c-.3,0-.6,.12-.81,.34-.21,.21-.34,.51-.34,.81v8.01c0,.3,.12,.6,.34,.81,.21,.21,.51,.34,.81,.34h75.66c.3,0,.6-.12,.81-.34,.21-.21,.34-.51,.34-.81h-1.15Z"/>
    <path class="cls-2" d="M612.97,968.12v-1.15h-15.55v-32.32h14.4v33.47h1.15v0h1.15v-34.62c0-.3-.12-.6-.34-.81-.21-.21-.51-.34-.81-.34h-16.7c-.3,0-.6,.12-.81,.34-.21,.21-.34,.51-.34,.81v34.62c0,.3,.12,.6,.34,.81s.51,.34,.81,.34h16.7c.3,0,.6-.12,.81-.34,.21-.21,.34-.51,.34-.81h-1.15Z"/>
    <path class="cls-2" d="M737.1,997.9v1.15h75.66c.31,0,.6-.12,.81-.34,.22-.22,.34-.51,.34-.81v-29.68c0-.3-.12-.6-.34-.81-.21-.21-.51-.34-.81-.34h-75.66c-.3,0-.6,.12-.81,.34-.21,.21-.34,.51-.34,.81v29.68c0,.3,.12,.6,.34,.81,.21,.21,.51,.34,.81,.34v-1.15h1.15v-28.54h73.36v27.39h-74.51v1.15h0Z"/>
    <path class="cls-2" d="M737.1,976.23v1.15h75.66c.31,0,.6-.12,.81-.34,.22-.22,.34-.51,.34-.81v-8.01c0-.3-.12-.6-.34-.81-.21-.21-.51-.34-.81-.34h-75.66c-.3,0-.6,.12-.81,.34-.21,.21-.34,.51-.34,.81v8.01c0,.3,.12,.6,.34,.81,.21,.21,.51,.34,.81,.34v-1.15h1.15v-6.86h73.36v5.71h-74.51v1.15h0Z"/>
    <path class="cls-2" d="M754.75,968.12v1.15h16.7c.31,0,.6-.12,.81-.34,.22-.22,.34-.51,.34-.81v-34.62c0-.3-.12-.6-.34-.81s-.51-.34-.81-.34h-16.7c-.3,0-.6,.12-.81,.34-.21,.21-.34,.51-.34,.81v34.62c0,.3,.12,.6,.34,.81,.21,.21,.51,.34,.81,.34v-1.15h1.15v-33.47h14.4v32.32h-15.55v1.15h0Z"/>
    <path class="cls-2" d="M737.1,722.55v-1.15h-105.32v-116.05s104.17,0,104.17,0v117.2h1.15v0h1.15v-118.34c0-.3-.12-.6-.34-.81-.21-.21-.51-.34-.81-.34h-106.47c-.3,0-.6,.12-.81,.34s-.34,.51-.34,.81v118.34c0,.3,.12,.6,.34,.81,.21,.21,.51,.34,.81,.34h106.47c.3,0,.6-.12,.81-.34,.21-.21,.34-.51,.34-.81h-1.15Z"/>
    <path class="cls-2" d="M711.53,722.55v-1.15h-54.19v-116.05h53.04v117.2h1.15v0h1.15v-118.34c0-.3-.12-.6-.34-.81s-.51-.34-.81-.34h-55.34c-.3,0-.6,.12-.81,.34-.21,.21-.34,.51-.34,.81v118.34c0,.3,.12,.6,.34,.81,.21,.21,.51,.34,.81,.34h55.34c.3,0,.6-.12,.81-.34s.34-.51,.34-.81h-1.15Z"/>
    <path class="cls-2" d="M695.57,687.99v-1.15h-22.26v-47.51h21.11v48.66h1.15v0h1.15v-49.81c0-.3-.12-.6-.34-.81-.21-.21-.51-.34-.81-.34h-23.41c-.3,0-.6,.12-.81,.34-.21,.21-.34,.51-.34,.81v49.81c0,.3,.12,.6,.34,.81,.21,.21,.51,.34,.81,.34h23.41c.3,0,.6-.12,.81-.34,.21-.21,.34-.51,.34-.81h-1.15Z"/>
    <path class="cls-2" d="M630.63,625.27h25.58c.63,0,1.15-.51,1.15-1.15s-.51-1.15-1.15-1.15h-25.58c-.63,0-1.15,.51-1.15,1.15s.51,1.15,1.15,1.15"/>
    <path class="cls-2" d="M630.63,663.55h25.58c.63,0,1.15-.51,1.15-1.15s-.51-1.15-1.15-1.15h-25.58c-.63,0-1.15,.51-1.15,1.15s.51,1.15,1.15,1.15"/>
    <path class="cls-2" d="M630.63,701.82h25.58c.63,0,1.15-.51,1.15-1.15s-.51-1.15-1.15-1.15h-25.58c-.63,0-1.15,.51-1.15,1.15s.51,1.15,1.15,1.15"/>
    <path class="cls-2" d="M711.48,625.27h25.58c.63,0,1.15-.51,1.15-1.15s-.51-1.15-1.15-1.15h-25.58c-.63,0-1.15,.51-1.15,1.15s.51,1.15,1.15,1.15"/>
    <path class="cls-2" d="M711.48,663.55h25.58c.63,0,1.15-.51,1.15-1.15s-.51-1.15-1.15-1.15h-25.58c-.63,0-1.15,.51-1.15,1.15s.51,1.15,1.15,1.15"/>
    <path class="cls-2" d="M711.48,701.82h25.58c.63,0,1.15-.51,1.15-1.15s-.51-1.15-1.15-1.15h-25.58c-.63,0-1.15,.51-1.15,1.15s.51,1.15,1.15,1.15"/>
    <path class="cls-2" d="M742.56,586.04v-1.15h-117.39c-.3,0-.6,.12-.81,.34-.21,.21-.34,.51-.34,.81v18.16c0,.3,.12,.6,.34,.81s.51,.34,.81,.34h117.39c.3,0,.6-.12,.81-.34,.21-.21,.34-.51,.34-.81v-18.16c0-.3-.12-.6-.34-.81s-.51-.34-.81-.34v1.15h-1.15v17.01h-115.09v-15.86h116.24s0-1.15,0-1.15h0Z"/>
    <path class="cls-2" d="M749.46,586.04v-1.15h-130.05v-8.05h128.9v9.2h1.15v0h1.15v-10.35c0-.3-.12-.6-.34-.81s-.51-.34-.81-.34h-131.2c-.3,0-.6,.12-.81,.34-.21,.21-.34,.51-.34,.81v10.35c0,.3,.12,.6,.34,.81,.21,.21,.51,.34,.81,.34h131.2c.3,0,.6-.12,.81-.34,.21-.21,.34-.51,.34-.81h-1.15Z"/>
    <path class="cls-2" d="M735.16,517.89v-1.15h-102.6c-.3,0-.6,.12-.81,.34-.21,.21-.34,.51-.34,.81v57.81c0,.3,.12,.6,.34,.81,.21,.21,.51,.34,.81,.34h102.6c.3,0,.6-.12,.81-.34,.21-.21,.34-.51,.34-.81v-57.81c0-.3-.12-.6-.34-.81-.21-.21-.51-.34-.81-.34v1.15h-1.15v56.66h-100.3v-55.51h101.45v-1.15h0Z"/>
    <path class="cls-2" d="M747.13,517.89v-1.15h-125.39v-12.15h124.24v13.3h1.15v0h1.15v-14.45c0-.3-.12-.6-.34-.81-.21-.21-.51-.34-.81-.34h-126.54c-.3,0-.6,.12-.81,.34-.21,.21-.34,.51-.34,.81v14.45c0,.3,.12,.6,.34,.81,.21,.21,.51,.34,.81,.34h126.54c.3,0,.6-.12,.81-.34,.21-.21,.34-.51,.34-.81h-1.15Z"/>
    <path class="cls-2" d="M736.48,482.93v-1.15h-105.24c-.3,0-.6,.12-.81,.34-.21,.21-.34,.51-.34,.81v20.51c0,.3,.12,.6,.34,.81,.21,.21,.51,.34,.81,.34h105.24c.3,0,.6-.12,.81-.34,.21-.21,.34-.51,.34-.81v-20.51c0-.3-.12-.6-.34-.81-.21-.21-.51-.34-.81-.34v1.15h-1.15v19.36h-102.95v-18.21h104.09v-1.15h0Z"/>
    <path class="cls-2" d="M703.33,482.93v-1.15h-37.78v-15.08h36.63v16.23h1.15v0h1.15v-17.38c0-.3-.12-.6-.34-.81-.21-.21-.51-.34-.81-.34h-38.93c-.3,0-.6,.12-.81,.34-.21,.21-.34,.51-.34,.81v17.38c0,.3,.12,.6,.34,.81,.21,.21,.51,.34,.81,.34h38.93c.3,0,.6-.12,.81-.34s.34-.51,.34-.81h-1.15Z"/>
    <path class="cls-2" d="M720.18,517.89v-1.15h-72.63c-.3,0-.6,.12-.81,.34-.21,.21-.34,.51-.34,.81v57.81c0,.3,.12,.6,.34,.81,.21,.21,.51,.34,.81,.34h72.63c.3,0,.6-.12,.81-.34,.21-.21,.34-.51,.34-.81v-57.81c0-.3-.12-.6-.34-.81-.21-.21-.51-.34-.81-.34v1.15h-1.15v56.66h-70.34v-55.51h71.49v-1.15h0Z"/>
    <path class="cls-2" d="M619.44,517.89v57.76c0,.63,.51,1.15,1.15,1.15s1.15-.51,1.15-1.15v-57.76c0-.63-.51-1.15-1.15-1.15s-1.15,.51-1.15,1.15"/>
    <path class="cls-2" d="M745.7,517.89v57.76c0,.63,.51,1.15,1.15,1.15s1.15-.51,1.15-1.15v-57.76c0-.63-.51-1.15-1.15-1.15s-1.15,.51-1.15,1.15"/>
  </g>
  <g>
    <polygon class="cls-2" points="518.6 1082.49 518.6 1081.39 17.38 1081.39 17.38 1059.38 517.5 1059.38 517.5 1082.49 518.6 1082.49 518.6 1081.39 518.6 1082.49 519.69 1082.49 519.69 1057.19 15.19 1057.19 15.19 1083.58 519.69 1083.58 519.69 1082.49 518.6 1082.49"/>
    <polygon class="cls-2" points="518.6 1058.47 518.6 1057.38 17.38 1057.38 17.38 1036.12 517.5 1036.12 517.5 1058.47 518.6 1058.47 518.6 1057.38 518.6 1058.47 519.69 1058.47 519.69 1033.92 15.19 1033.92 15.19 1059.57 519.69 1059.57 519.69 1058.47 518.6 1058.47"/>
    <path class="cls-2" d="M334.52,808.3v-1.1H201.08v-26.17c0-4.35,1.76-8.28,4.61-11.13,2.85-2.85,6.78-4.61,11.13-4.61h100.87c4.35,0,8.28,1.76,11.13,4.61,2.85,2.85,4.61,6.78,4.61,11.13v27.26h1.1v0h1.1v-27.26c0-9.9-8.03-17.93-17.93-17.93h-100.87c-9.9,0-17.93,8.03-17.93,17.93v27.26c0,.29,.12,.57,.32,.77,.2,.2,.49,.32,.77,.32h134.54c.29,0,.57-.12,.77-.32,.2-.2,.32-.49,.32-.77h-1.1Z"/>
    <path class="cls-2" d="M256.58,742.08h1.1c0-2.7,1.09-5.13,2.86-6.9,1.77-1.77,4.2-2.86,6.9-2.86,2.7,0,5.13,1.09,6.9,2.86,1.77,1.77,2.86,4.2,2.86,6.9,0,2.7-1.09,5.13-2.86,6.9-1.77,1.77-4.2,2.86-6.9,2.86-2.7,0-5.13-1.09-6.9-2.86-1.77-1.77-2.86-4.2-2.86-6.9h-2.19c0,6.6,5.35,11.95,11.95,11.95,6.6,0,11.95-5.35,11.95-11.95,0-6.6-5.35-11.95-11.95-11.95-6.6,0-11.95,5.35-11.95,11.95h1.1Z"/>
    <path class="cls-2" d="M268.54,763.55v-10.53c0-.6-.49-1.1-1.1-1.1s-1.1,.49-1.1,1.1v10.53c0,.6,.49,1.1,1.1,1.1s1.1-.49,1.1-1.1"/>
    <polygon class="cls-2" points="336.31 1034.83 336.31 1033.74 199.67 1033.74 199.67 889.62 335.22 889.62 335.22 1034.83 336.31 1034.83 336.31 1033.74 336.31 1034.83 337.41 1034.83 337.41 887.43 197.47 887.43 197.47 1035.93 337.41 1035.93 337.41 1034.83 336.31 1034.83"/>
    <path class="cls-2" d="M241.66,1046.56v-1.1h-26.26c-2.04,0-3.69,1.65-3.69,3.69v10.23h33.65v-10.23c0-2.04-1.65-3.69-3.69-3.69v2.19c.83,0,1.5,.67,1.5,1.5v8.03h-29.27v-8.03c0-.83,.67-1.5,1.5-1.5h26.26v-1.1Z"/>
    <path class="cls-2" d="M235.05,932.29l1.8,113.18h-16.66l1.71-112.07c0-.6-.47-1.1-1.08-1.11-.6,0-1.1,.47-1.11,1.08l-1.73,113.18c0,.29,.11,.58,.31,.79,.21,.21,.49,.33,.78,.33h18.88c.29,0,.58-.12,.78-.33,.21-.21,.32-.49,.31-.79l-1.82-114.29c0-.6-.51-1.09-1.11-1.08-.6,0-1.09,.51-1.08,1.11h0Z"/>
    <polyline class="cls-2" points="219.96 992.28 237.28 992.28 237.28 990.09 219.96 990.09"/>
    <path class="cls-2" d="M204.83,889.35l8.94,12.51-1.78,3.89c-.11,.24-.13,.51-.06,.76l7.82,27.18c.14,.47,.56,.79,1.05,.79h15.26c.49,0,.92-.32,1.05-.79l7.82-27.18c.07-.25,.05-.52-.06-.76l-1.78-3.89,8.94-12.51c.35-.49,.24-1.18-.25-1.53-.49-.35-1.18-.24-1.53,.25l-9.31,13.03c-.23,.32-.27,.74-.1,1.09l1.88,4.1-7.48,25.99h-13.61l-7.48-25.99,1.88-4.1c.16-.36,.12-.77-.1-1.09l-9.31-13.03c-.35-.49-1.04-.61-1.53-.25-.49,.35-.61,1.04-.25,1.53h0Z"/>
    <polyline class="cls-2" points="215.03 902.84 241.84 902.84 241.84 900.65 215.03 900.65"/>
    <path class="cls-2" d="M183.64,1024.72v-1.1h-21.94c-2.04,0-3.69,1.65-3.69,3.69v8.61h29.32v-8.61c0-2.04-1.65-3.69-3.69-3.69v2.19c.83,0,1.5,.67,1.5,1.5v6.42h-24.94v-6.42c0-.83,.67-1.5,1.5-1.5h21.94v-1.1Z"/>
    <path class="cls-2" d="M178.15,926.16l1.55,97.46h-14.06l1.47-96.51c0-.6-.47-1.1-1.08-1.11-.6,0-1.1,.47-1.11,1.08l-1.49,97.62c0,.29,.11,.58,.31,.79,.21,.21,.49,.33,.78,.33h16.29c.29,0,.58-.12,.78-.33,.21-.21,.32-.49,.31-.79l-1.57-98.58c0-.6-.51-1.09-1.11-1.08-.6,0-1.09,.51-1.08,1.11h0Z"/>
    <polyline class="cls-2" points="165.29 978.05 180.22 978.05 180.22 975.86 165.29 975.86"/>
    <path class="cls-2" d="M152.11,889.21l7.66,10.72-1.5,3.28c-.11,.24-.13,.51-.06,.76l6.74,23.44c.14,.47,.56,.79,1.05,.79h13.17c.49,0,.92-.32,1.05-.79l6.74-23.44c.07-.25,.05-.52-.06-.76l-1.5-3.28,7.66-10.72c.35-.49,.24-1.18-.25-1.53-.49-.35-1.18-.24-1.53,.25l-8.03,11.24c-.23,.32-.27,.74-.1,1.09l1.6,3.48-6.4,22.26h-11.52l-6.4-22.26,1.6-3.48c.16-.36,.12-.77-.1-1.09l-8.03-11.24c-.35-.49-1.04-.61-1.53-.25-.49,.35-.61,1.04-.25,1.53h0Z"/>
    <polyline class="cls-2" points="161.03 900.91 184.15 900.91 184.15 898.72 161.03 898.72"/>
    <path class="cls-2" d="M198.57,887.43h-15.2v-9.99l11.27-11.27h83.31c.6,0,1.1-.49,1.1-1.1s-.49-1.1-1.1-1.1h-83.76c-.29,0-.57,.12-.77,.32l-11.91,11.91c-.2,.2-.32,.49-.32,.77v11.54c0,.29,.12,.57,.32,.77,.2,.2,.49,.32,.77,.32h16.3c.6,0,1.1-.49,1.1-1.1s-.49-1.1-1.1-1.1Z"/>
    <path class="cls-2" d="M182.83,887.43h-38.83v-9.99l11.27-11.27h39.57c.6,0,1.1-.49,1.1-1.1s-.49-1.1-1.1-1.1h-40.02c-.29,0-.57,.12-.77,.32l-11.91,11.91c-.2,.2-.32,.49-.32,.77v11.54c0,.29,.12,.57,.32,.77,.2,.2,.49,.32,.77,.32h39.93c.6,0,1.1-.49,1.1-1.1s-.49-1.1-1.1-1.1Z"/>
    <path class="cls-2" d="M170.36,1033.92H35.2v-184.88H169.26v16.03c0,.61,.49,1.1,1.1,1.1s1.1-.49,1.1-1.1v-17.12c0-.29-.12-.57-.32-.77s-.49-.32-.77-.32H34.1c-.29,0-.57,.12-.77,.32s-.32,.49-.32,.77v187.07c0,.29,.12,.57,.32,.77,.2,.2,.49,.32,.77,.32H170.36c.6,0,1.1-.49,1.1-1.1s-.49-1.1-1.1-1.1Z"/>
    <path class="cls-2" d="M34.29,951.05H165.52c.61,0,1.1-.49,1.1-1.1s-.49-1.1-1.1-1.1H34.29c-.61,0-1.1,.49-1.1,1.1s.49,1.1,1.1,1.1"/>
    <path class="cls-2" d="M34.29,942.67H165.52c.61,0,1.1-.49,1.1-1.1s-.49-1.1-1.1-1.1H34.29c-.61,0-1.1,.49-1.1,1.1s.49,1.1,1.1,1.1"/>
    <path class="cls-2" d="M34.29,934.3H165.52c.61,0,1.1-.49,1.1-1.1s-.49-1.1-1.1-1.1H34.29c-.61,0-1.1,.49-1.1,1.1s.49,1.1,1.1,1.1"/>
    <path class="cls-2" d="M139.83,988.67v-1.1H66.66v-14h72.08v15.1h1.1v0h1.1v-16.19c0-.29-.12-.57-.32-.77s-.49-.32-.77-.32H65.56c-.29,0-.57,.12-.77,.32s-.32,.49-.32,.77v16.19c0,.29,.12,.57,.32,.77,.2,.2,.49,.32,.77,.32h74.27c.29,0,.57-.12,.77-.32,.2-.2,.32-.49,.32-.77h-1.1Z"/>
    <path class="cls-2" d="M117.33,795.74v-1.1h-30.3c-14.94,0-28.47,5.96-38.26,15.61-9.79,9.64-15.86,22.98-15.86,37.7,0,.29,.12,.57,.32,.77,.2,.2,.49,.32,.77,.32H170.36c.29,0,.57-.12,.77-.32s.32-.49,.32-.77c0-14.72-6.06-28.06-15.86-37.7-9.79-9.64-23.33-15.61-38.26-15.61v2.19c14.35,0,27.33,5.72,36.73,14.98,9.4,9.26,15.2,22.03,15.2,36.14h1.1v-1.1H34.01v1.1h1.1c0-14.11,5.81-26.88,15.2-36.14,9.4-9.25,22.38-14.98,36.72-14.98h30.3v-1.1Z"/>
    <path class="cls-2" d="M92.5,778.7h1.1c0-2.25,.91-4.27,2.38-5.74,1.47-1.47,3.5-2.38,5.74-2.38,2.25,0,4.27,.91,5.74,2.38,1.47,1.47,2.38,3.5,2.38,5.74,0,2.25-.91,4.27-2.38,5.74-1.47,1.47-3.5,2.38-5.74,2.38-2.25,0-4.27-.91-5.74-2.38-1.47-1.47-2.38-3.5-2.38-5.74h-2.19c0,5.69,4.62,10.31,10.31,10.31,5.69,0,10.31-4.62,10.31-10.31,0-5.69-4.62-10.31-10.31-10.31-5.69,0-10.31,4.62-10.31,10.31h1.1Z"/>
    <path class="cls-2" d="M102.53,795.18v-7.19c0-.61-.49-1.1-1.1-1.1s-1.1,.49-1.1,1.1v7.19c0,.6,.49,1.1,1.1,1.1s1.1-.49,1.1-1.1"/>
    <path class="cls-2" d="M35.03,841.23H168.87c.61,0,1.1-.49,1.1-1.1s-.49-1.1-1.1-1.1H35.03c-.61,0-1.1,.49-1.1,1.1s.49,1.1,1.1,1.1"/>
    <path class="cls-2" d="M209.11,858v7.07c0,.61,.49,1.1,1.1,1.1s1.1-.49,1.1-1.1v-7.07c0-.61-.49-1.1-1.1-1.1s-1.1,.49-1.1,1.1"/>
    <path class="cls-2" d="M324.68,858v-1.1h-114.48v1.1h1.1c0-13.27,5.38-25.28,14.07-33.97,8.7-8.7,20.7-14.07,33.97-14.07h16.19c13.27,0,25.28,5.38,33.97,14.07,8.7,8.7,14.07,20.7,14.07,33.97h1.1v0h1.1c0-27.75-22.49-50.24-50.24-50.24h-16.19c-27.75,0-50.24,22.49-50.24,50.24,0,.29,.12,.57,.32,.77,.2,.2,.49,.32,.77,.32h114.48c.29,0,.57-.12,.77-.32,.2-.2,.32-.49,.32-.77h-1.1Z"/>
    <path class="cls-2" d="M258.23,790.08h1.1c0-2.25,.91-4.27,2.38-5.74,1.47-1.47,3.5-2.38,5.74-2.38,2.25,0,4.27,.91,5.74,2.38,1.47,1.47,2.38,3.5,2.38,5.74,0,2.25-.91,4.27-2.38,5.74-1.47,1.47-3.5,2.38-5.74,2.38-2.25,0-4.27-.91-5.74-2.38-1.47-1.47-2.38-3.5-2.38-5.74h-2.19c0,5.69,4.62,10.31,10.31,10.31,5.69,0,10.31-4.62,10.31-10.31,0-5.69-4.62-10.31-10.31-10.31-5.69,0-10.31,4.62-10.31,10.31h1.1Z"/>
    <path class="cls-2" d="M268.54,808.3v-8.93c0-.6-.49-1.1-1.1-1.1s-1.1,.49-1.1,1.1v8.93c0,.6,.49,1.1,1.1,1.1s1.1-.49,1.1-1.1"/>
    <path class="cls-2" d="M125.33,1058.66v23.55c0,.6,.49,1.1,1.1,1.1s1.1-.49,1.1-1.1v-23.55c0-.61-.49-1.1-1.1-1.1s-1.1,.49-1.1,1.1"/>
    <path class="cls-2" d="M99.37,848.51v84.6c0,.61,.49,1.1,1.1,1.1s1.1-.49,1.1-1.1v-84.6c0-.61-.49-1.1-1.1-1.1s-1.1,.49-1.1,1.1"/>
    <path class="cls-2" d="M198.89,808.3v56.77c0,.61,.49,1.1,1.1,1.1s1.1-.49,1.1-1.1v-56.77c0-.61-.49-1.1-1.1-1.1s-1.1,.49-1.1,1.1"/>
    <path class="cls-2" d="M199.98,808.3v1.1h134.54c.29,0,.57-.12,.77-.32,.2-.2,.32-.49,.32-.77v-27.26c0-9.9-8.03-17.93-17.93-17.93h-100.87c-9.9,0-17.93,8.03-17.93,17.93v27.26c0,.29,.12,.57,.32,.77,.2,.2,.49,.32,.77,.32v-1.1h1.1v-27.26c0-4.35,1.76-8.28,4.61-11.13,2.85-2.85,6.78-4.61,11.13-4.61h100.87c4.35,0,8.28,1.76,11.13,4.61,2.85,2.85,4.61,6.78,4.61,11.13v26.17H199.98v1.1h0Z"/>
    <path class="cls-2" d="M277.92,742.08h1.1c0-6.6-5.35-11.95-11.95-11.95-6.6,0-11.95,5.35-11.95,11.95,0,6.6,5.35,11.95,11.95,11.95,6.6,0,11.95-5.35,11.95-11.95h-2.19c0,2.7-1.09,5.13-2.86,6.9-1.77,1.77-4.2,2.86-6.9,2.86-2.7,0-5.13-1.09-6.9-2.86-1.77-1.77-2.86-4.2-2.86-6.9,0-2.7,1.09-5.13,2.86-6.9,1.77-1.77,4.2-2.86,6.9-2.86,2.7,0,5.13,1.09,6.9,2.86,1.77,1.77,2.86,4.2,2.86,6.9h1.1Z"/>
    <path class="cls-2" d="M268.15,763.55v-10.53c0-.6-.49-1.1-1.1-1.1s-1.1,.49-1.1,1.1v10.53c0,.6,.49,1.1,1.1,1.1s1.1-.49,1.1-1.1"/>
    <polygon class="cls-2" points="198.19 1034.83 198.19 1035.93 337.02 1035.93 337.02 887.43 197.09 887.43 197.09 1035.93 198.19 1035.93 198.19 1034.83 199.28 1034.83 199.28 889.62 334.83 889.62 334.83 1033.74 198.19 1033.74 198.19 1034.83 199.28 1034.83 198.19 1034.83"/>
    <path class="cls-2" d="M292.84,1046.56v1.1h26.26c.83,0,1.5,.67,1.5,1.5v8.03h-29.27v-8.03c0-.83,.67-1.5,1.5-1.5v-2.19c-2.04,0-3.69,1.65-3.69,3.69v10.23h33.65v-10.23c0-2.04-1.65-3.69-3.69-3.69h-26.26v1.1Z"/>
    <path class="cls-2" d="M297.26,932.25l-1.82,114.29c0,.29,.11,.58,.31,.79,.21,.21,.49,.33,.78,.33h18.88c.29,0,.58-.12,.78-.33,.21-.21,.32-.49,.31-.79l-1.73-113.18c0-.61-.51-1.09-1.11-1.08-.61,0-1.09,.51-1.08,1.11l1.71,112.07h-16.66l1.8-113.18c0-.61-.47-1.1-1.08-1.11-.6,0-1.1,.47-1.11,1.08h0Z"/>
    <polyline class="cls-2" points="314.54 990.09 297.22 990.09 297.22 992.28 314.54 992.28"/>
    <path class="cls-2" d="M327.88,888.08l-9.31,13.03c-.23,.32-.27,.74-.1,1.09l1.88,4.1-7.48,25.99h-13.61l-7.48-25.99,1.88-4.1c.16-.36,.12-.77-.1-1.09l-9.31-13.03c-.35-.49-1.04-.61-1.53-.25-.49,.35-.61,1.04-.25,1.53l8.94,12.51-1.78,3.89c-.11,.24-.13,.51-.06,.76l7.82,27.18c.14,.47,.56,.79,1.05,.79h15.26c.49,0,.92-.32,1.05-.79l7.82-27.18c.07-.25,.05-.52-.06-.76l-1.78-3.89,8.94-12.51c.35-.49,.24-1.18-.25-1.53-.49-.35-1.18-.24-1.53,.25h0Z"/>
    <polyline class="cls-2" points="319.47 900.65 292.66 900.65 292.66 902.84 319.47 902.84"/>
    <path class="cls-2" d="M350.86,1024.72v1.1h21.94c.83,0,1.5,.67,1.5,1.5v6.42h-24.94v-6.42c0-.83,.67-1.5,1.5-1.5v-2.19c-2.04,0-3.69,1.65-3.69,3.69v8.61h29.32v-8.61c0-2.04-1.65-3.69-3.69-3.69h-21.94v1.1Z"/>
    <path class="cls-2" d="M354.16,926.13l-1.57,98.58c0,.29,.11,.58,.31,.79,.21,.21,.49,.33,.78,.33h16.29c.29,0,.58-.12,.78-.33,.21-.21,.32-.49,.31-.79l-1.49-97.62c0-.6-.51-1.09-1.11-1.08-.61,0-1.09,.51-1.08,1.11l1.47,96.51h-14.06l1.55-97.46c0-.6-.47-1.1-1.08-1.11-.6,0-1.1,.47-1.11,1.08h0Z"/>
    <polyline class="cls-2" points="369.21 975.86 354.28 975.86 354.28 978.05 369.21 978.05"/>
    <path class="cls-2" d="M380.6,887.94l-8.03,11.24c-.23,.32-.27,.74-.1,1.09l1.6,3.48-6.4,22.26h-11.52l-6.4-22.26,1.6-3.48c.16-.36,.12-.78-.1-1.09l-8.03-11.24c-.35-.49-1.04-.61-1.53-.25-.49,.35-.61,1.04-.25,1.53l7.66,10.72-1.5,3.28c-.11,.24-.13,.51-.06,.76l6.74,23.44c.14,.47,.56,.79,1.05,.79h13.16c.49,0,.92-.32,1.05-.79l6.74-23.44c.07-.25,.05-.52-.06-.76l-1.5-3.28,7.66-10.72c.35-.49,.24-1.18-.25-1.53-.49-.35-1.18-.24-1.53,.25h0Z"/>
    <polyline class="cls-2" points="373.47 898.72 350.35 898.72 350.35 900.91 373.47 900.91"/>
    <path class="cls-2" d="M335.93,889.62h16.3c.29,0,.57-.12,.77-.32,.2-.2,.32-.49,.32-.77v-11.54c0-.29-.12-.57-.32-.77l-11.91-11.91c-.2-.2-.49-.32-.77-.32h-83.76c-.61,0-1.1,.49-1.1,1.1s.49,1.1,1.1,1.1h83.31s11.27,11.27,11.27,11.27v9.99h-15.2c-.61,0-1.1,.49-1.1,1.1s.49,1.1,1.1,1.1h0Z"/>
    <path class="cls-2" d="M351.67,889.62h39.93c.29,0,.57-.12,.77-.32,.2-.2,.32-.49,.32-.77v-11.54c0-.29-.12-.57-.32-.77l-11.91-11.91c-.2-.2-.49-.32-.77-.32h-40.02c-.61,0-1.1,.49-1.1,1.1s.49,1.1,1.1,1.1h39.57s11.27,11.27,11.27,11.27v9.99h-38.83c-.61,0-1.1,.49-1.1,1.1s.49,1.1,1.1,1.1h0Z"/>
    <path class="cls-2" d="M364.14,1036.12h136.25c.29,0,.57-.12,.77-.32,.2-.2,.32-.49,.32-.77v-187.07c0-.29-.12-.57-.32-.77-.2-.2-.49-.32-.77-.32h-136.25c-.29,0-.57,.12-.77,.32-.2,.2-.32,.49-.32,.77v17.12c0,.61,.49,1.1,1.1,1.1s1.1-.49,1.1-1.1v-16.03s134.06,0,134.06,0v184.88h-135.16c-.61,0-1.1,.49-1.1,1.1s.49,1.1,1.1,1.1h0Z"/>
    <path class="cls-2" d="M500.21,948.86h-131.23c-.61,0-1.1,.49-1.1,1.1s.49,1.1,1.1,1.1h131.23c.61,0,1.1-.49,1.1-1.1s-.49-1.1-1.1-1.1"/>
    <path class="cls-2" d="M500.21,940.48h-131.23c-.61,0-1.1,.49-1.1,1.1s.49,1.1,1.1,1.1h131.23c.61,0,1.1-.49,1.1-1.1s-.49-1.1-1.1-1.1"/>
    <path class="cls-2" d="M500.21,932.11h-131.23c-.61,0-1.1,.49-1.1,1.1s.49,1.1,1.1,1.1h131.23c.61,0,1.1-.49,1.1-1.1s-.49-1.1-1.1-1.1"/>
    <path class="cls-2" d="M394.67,988.67v1.1h74.27c.29,0,.57-.12,.77-.32,.2-.2,.32-.49,.32-.77v-16.19c0-.29-.12-.57-.32-.77-.2-.2-.49-.32-.77-.32h-74.27c-.29,0-.57,.12-.77,.32-.2,.2-.32,.49-.32,.77v16.19c0,.29,.12,.57,.32,.77s.49,.32,.77,.32v-1.1h1.1v-15.1h72.08v14h-73.17v1.1h0Z"/>
    <path class="cls-2" d="M417.17,795.74v1.1h30.3c14.35,0,27.33,5.72,36.73,14.98,9.4,9.26,15.2,22.03,15.2,36.14h1.1v-1.1h-136.35v1.1h1.1c0-14.11,5.81-26.88,15.2-36.14,9.4-9.25,22.38-14.98,36.73-14.98v-2.19c-14.94,0-28.47,5.96-38.26,15.61-9.79,9.64-15.86,22.98-15.86,37.7,0,.29,.12,.57,.32,.77s.49,.32,.77,.32h136.35c.29,0,.57-.12,.77-.32,.2-.2,.32-.49,.32-.77,0-14.72-6.06-28.06-15.86-37.7-9.79-9.64-23.33-15.61-38.26-15.61h-30.3v1.1Z"/>
    <path class="cls-2" d="M442,778.7h1.1c0-5.69-4.62-10.31-10.31-10.31-5.69,0-10.31,4.62-10.31,10.31,0,5.69,4.62,10.31,10.31,10.31,5.69,0,10.31-4.62,10.31-10.31h-2.19c0,2.25-.91,4.27-2.38,5.74-1.47,1.47-3.5,2.38-5.74,2.38-2.25,0-4.27-.91-5.74-2.38-1.47-1.47-2.38-3.5-2.38-5.74,0-2.25,.91-4.27,2.38-5.74,1.47-1.47,3.5-2.38,5.74-2.38,2.25,0,4.27,.91,5.74,2.38,1.47,1.47,2.38,3.5,2.38,5.74h1.1Z"/>
    <path class="cls-2" d="M434.16,795.18v-7.19c0-.61-.49-1.1-1.1-1.1s-1.1,.49-1.1,1.1v7.19c0,.6,.49,1.1,1.1,1.1s1.1-.49,1.1-1.1"/>
    <path class="cls-2" d="M499.47,839.04h-133.83c-.61,0-1.1,.49-1.1,1.1s.49,1.1,1.1,1.1h133.83c.61,0,1.1-.49,1.1-1.1s-.49-1.1-1.1-1.1"/>
    <path class="cls-2" d="M323.2,858v7.07c0,.61,.49,1.1,1.1,1.1s1.1-.49,1.1-1.1v-7.07c0-.61-.49-1.1-1.1-1.1s-1.1,.49-1.1,1.1"/>
    <path class="cls-2" d="M209.82,858v1.1h114.48c.29,0,.57-.12,.77-.32,.2-.2,.32-.49,.32-.77,0-27.75-22.49-50.24-50.24-50.24h-16.19c-27.75,0-50.24,22.49-50.24,50.24,0,.29,.12,.57,.32,.77,.2,.2,.49,.32,.77,.32v-1.1h1.1c0-13.27,5.38-25.28,14.07-33.97,8.7-8.7,20.7-14.07,33.97-14.07h16.19c13.27,0,25.28,5.38,33.97,14.07,8.7,8.7,14.07,20.7,14.07,33.97h1.1v-1.1h-114.48v1.1h0Z"/>
    <path class="cls-2" d="M276.27,790.08h1.1c0-5.69-4.62-10.31-10.31-10.31-5.69,0-10.31,4.62-10.31,10.31,0,5.69,4.62,10.31,10.31,10.31,5.69,0,10.31-4.62,10.31-10.31h-2.19c0,2.25-.91,4.27-2.38,5.74-1.47,1.47-3.5,2.38-5.74,2.38-2.25,0-4.27-.91-5.74-2.38-1.47-1.47-2.38-3.5-2.38-5.74,0-2.25,.91-4.27,2.38-5.74,1.47-1.47,3.5-2.38,5.74-2.38,2.25,0,4.27,.91,5.74,2.38,1.47,1.47,2.38,3.5,2.38,5.74h1.1Z"/>
    <path class="cls-2" d="M268.15,808.3v-8.93c0-.6-.49-1.1-1.1-1.1s-1.1,.49-1.1,1.1v8.93c0,.6,.49,1.1,1.1,1.1s1.1-.49,1.1-1.1"/>
    <path class="cls-2" d="M406.98,1058.66v23.55c0,.6,.49,1.1,1.1,1.1s1.1-.49,1.1-1.1v-23.55c0-.61-.49-1.1-1.1-1.1s-1.1,.49-1.1,1.1"/>
    <path class="cls-2" d="M432.94,848.51v84.6c0,.61,.49,1.1,1.1,1.1s1.1-.49,1.1-1.1v-84.6c0-.61-.49-1.1-1.1-1.1s-1.1,.49-1.1,1.1"/>
    <path class="cls-2" d="M333.42,808.3v56.77c0,.61,.49,1.1,1.1,1.1s1.1-.49,1.1-1.1v-56.77c0-.61-.49-1.1-1.1-1.1s-1.1,.49-1.1,1.1"/>
  </g>
  <path class="cls-1" d="M1211.58,1079.99c-.35,0-.69-.15-.94-.43-.45-.52-.4-1.31,.12-1.76l29.92-26.06v-74.81c0-.91,1.12-1.5,1.87-1.09,7.17,1.37,152.91-.35,208.86-1.14h.02c.33,0,.64,.13,.88,.36,.24,.23,.37,.55,.37,.89v101.81c0,.69-.56,1.25-1.25,1.25s-1.25-.56-1.25-1.25v-100.54c-124.78,1.74-194.27,2.08-207,.99v74.1c0,.36-.16,.7-.43,.94l-30.35,26.43c-.23,.2-.53,.31-.82,.31Z"/>
  <path class="cls-1" d="M1289.9,1079.99c-.69,0-1.25-.56-1.25-1.25v-100.83c0-.69,.56-1.25,1.25-1.25s1.25,.56,1.25,1.25v100.83c0,.69-.56,1.25-1.25,1.25Z"/>
  <path class="cls-1" d="M1335.91,1079.99c-.69,0-1.25-.56-1.25-1.25v-100.83c0-.69,.56-1.25,1.25-1.25s1.25,.56,1.25,1.25v100.83c0,.69-.56,1.25-1.25,1.25Z"/>
  <path class="cls-1" d="M1381.92,1079.99c-.69,0-1.25-.56-1.25-1.25v-100.83c0-.69,.56-1.25,1.25-1.25s1.25,.56,1.25,1.25v100.83c0,.69-.56,1.25-1.25,1.25Z"/>
  <path class="cls-1" d="M1449.96,1035.94h-194.33c-.69,0-1.25-.56-1.25-1.25v-11.75c0-.69,.56-1.25,1.25-1.25h194.33c.69,0,1.25,.56,1.25,1.25s-.56,1.25-1.25,1.25h-193.08v9.25h193.08c.69,0,1.25,.56,1.25,1.25s-.56,1.25-1.25,1.25Z"/>
  <path class="cls-1" d="M1241.93,978.18h-14.69c-.69,0-1.25-.56-1.25-1.25v-12.73c0-.69,.56-1.25,1.25-1.25h311.05v-98.61c0-.69,.56-1.25,1.25-1.25s1.25,.56,1.25,1.25v99.86c0,.69-.56,1.25-1.25,1.25h-311.05v10.23h13.44c.69,0,1.25,.56,1.25,1.25s-.56,1.25-1.25,1.25Z"/>
  <path class="cls-1" d="M1513.1,963.49c-.69,0-1.25-.56-1.25-1.25v-51.61h-221.68v51.61c0,.69-.56,1.25-1.25,1.25s-1.25-.56-1.25-1.25v-52.86c0-.69,.56-1.25,1.25-1.25h224.19c.69,0,1.25,.56,1.25,1.25v52.86c0,.69-.56,1.25-1.25,1.25Z"/>
  <path class="cls-1" d="M1513.1,924.33h-222.23c-.69,0-1.25-.56-1.25-1.25s.56-1.25,1.25-1.25h222.23c.69,0,1.25,.56,1.25,1.25s-.56,1.25-1.25,1.25Z"/>
  <path class="cls-1" d="M1326.13,963.49c-.69,0-1.25-.56-1.25-1.25v-39.16c0-.69,.56-1.25,1.25-1.25s1.25,.56,1.25,1.25v39.16c0,.69-.56,1.25-1.25,1.25Z"/>
  <path class="cls-1" d="M1334.94,963.49c-.69,0-1.25-.56-1.25-1.25v-39.16c0-.69,.56-1.25,1.25-1.25s1.25,.56,1.25,1.25v39.16c0,.69-.56,1.25-1.25,1.25Z"/>
  <path class="cls-1" d="M1372.14,963.49c-.69,0-1.25-.56-1.25-1.25v-39.16c0-.69,.56-1.25,1.25-1.25s1.25,.56,1.25,1.25v39.16c0,.69-.56,1.25-1.25,1.25Z"/>
  <path class="cls-1" d="M1380.95,963.49c-.69,0-1.25-.56-1.25-1.25v-39.16c0-.69,.56-1.25,1.25-1.25s1.25,.56,1.25,1.25v39.16c0,.69-.56,1.25-1.25,1.25Z"/>
  <path class="cls-1" d="M1418.15,963.49c-.69,0-1.25-.56-1.25-1.25v-39.16c0-.69,.56-1.25,1.25-1.25s1.25,.56,1.25,1.25v39.16c0,.69-.56,1.25-1.25,1.25Z"/>
  <path class="cls-1" d="M1426.96,963.49c-.69,0-1.25-.56-1.25-1.25v-39.16c0-.69,.56-1.25,1.25-1.25s1.25,.56,1.25,1.25v39.16c0,.69-.56,1.25-1.25,1.25Z"/>
  <path class="cls-1" d="M1464.16,963.49c-.69,0-1.25-.56-1.25-1.25v-39.16c0-.69,.56-1.25,1.25-1.25s1.25,.56,1.25,1.25v39.16c0,.69-.56,1.25-1.25,1.25Z"/>
  <path class="cls-1" d="M1472.97,963.49c-.69,0-1.25-.56-1.25-1.25v-39.16c0-.69,.56-1.25,1.25-1.25s1.25,.56,1.25,1.25v39.16c0,.69-.56,1.25-1.25,1.25Z"/>
  <path class="cls-1" d="M1430.87,1007.54h-26.43c-.69,0-1.25-.56-1.25-1.25s.56-1.25,1.25-1.25h26.43c.69,0,1.25,.56,1.25,1.25s-.56,1.25-1.25,1.25Z"/>
  <path class="cls-1" d="M1430.87,995.8h-26.43c-.69,0-1.25-.56-1.25-1.25s.56-1.25,1.25-1.25h26.43c.69,0,1.25,.56,1.25,1.25s-.56,1.25-1.25,1.25Z"/>
  <path class="cls-1" d="M1430.87,1007.54h-26.43c-.69,0-1.25-.56-1.25-1.25s.56-1.25,1.25-1.25h26.43c.69,0,1.25,.56,1.25,1.25s-.56,1.25-1.25,1.25Z"/>
  <path class="cls-1" d="M1430.87,995.8h-26.43c-.69,0-1.25-.56-1.25-1.25s.56-1.25,1.25-1.25h26.43c.69,0,1.25,.56,1.25,1.25s-.56,1.25-1.25,1.25Z"/>
  <path class="cls-1" d="M1430.87,1066.32h-26.43c-.69,0-1.25-.56-1.25-1.25s.56-1.25,1.25-1.25h26.43c.69,0,1.25,.56,1.25,1.25s-.56,1.25-1.25,1.25Z"/>
  <path class="cls-1" d="M1430.87,1054.57h-26.43c-.69,0-1.25-.56-1.25-1.25s.56-1.25,1.25-1.25h26.43c.69,0,1.25,.56,1.25,1.25s-.56,1.25-1.25,1.25Z"/>
  <path class="cls-1" d="M1430.87,1066.32h-26.43c-.69,0-1.25-.56-1.25-1.25s.56-1.25,1.25-1.25h26.43c.69,0,1.25,.56,1.25,1.25s-.56,1.25-1.25,1.25Z"/>
  <path class="cls-1" d="M1430.87,1054.57h-26.43c-.69,0-1.25-.56-1.25-1.25s.56-1.25,1.25-1.25h26.43c.69,0,1.25,.56,1.25,1.25s-.56,1.25-1.25,1.25Z"/>
  <path class="cls-1" d="M1372.13,1066.32h-14.67c-.69,0-1.25-.56-1.25-1.25s.56-1.25,1.25-1.25h14.67c.69,0,1.25,.56,1.25,1.25s-.56,1.25-1.25,1.25Z"/>
  <path class="cls-1" d="M1372.13,1054.57h-14.67c-.69,0-1.25-.56-1.25-1.25s.56-1.25,1.25-1.25h14.67c.69,0,1.25,.56,1.25,1.25s-.56,1.25-1.25,1.25Z"/>
  <path class="cls-1" d="M1372.13,1066.32h-14.67c-.69,0-1.25-.56-1.25-1.25s.56-1.25,1.25-1.25h14.67c.69,0,1.25,.56,1.25,1.25s-.56,1.25-1.25,1.25Z"/>
  <path class="cls-1" d="M1372.13,1054.57h-14.67c-.69,0-1.25-.56-1.25-1.25s.56-1.25,1.25-1.25h14.67c.69,0,1.25,.56,1.25,1.25s-.56,1.25-1.25,1.25Z"/>
  <path class="cls-1" d="M1372.13,1007.54h-14.67c-.69,0-1.25-.56-1.25-1.25s.56-1.25,1.25-1.25h14.67c.69,0,1.25,.56,1.25,1.25s-.56,1.25-1.25,1.25Z"/>
  <path class="cls-1" d="M1372.13,995.8h-14.67c-.69,0-1.25-.56-1.25-1.25s.56-1.25,1.25-1.25h14.67c.69,0,1.25,.56,1.25,1.25s-.56,1.25-1.25,1.25Z"/>
  <path class="cls-1" d="M1372.13,1007.54h-14.67c-.69,0-1.25-.56-1.25-1.25s.56-1.25,1.25-1.25h14.67c.69,0,1.25,.56,1.25,1.25s-.56,1.25-1.25,1.25Z"/>
  <path class="cls-1" d="M1372.13,995.8h-14.67c-.69,0-1.25-.56-1.25-1.25s.56-1.25,1.25-1.25h14.67c.69,0,1.25,.56,1.25,1.25s-.56,1.25-1.25,1.25Z"/>
  <path class="cls-1" d="M1313.39,1066.32h-14.68c-.69,0-1.25-.56-1.25-1.25s.56-1.25,1.25-1.25h14.68c.69,0,1.25,.56,1.25,1.25s-.56,1.25-1.25,1.25Z"/>
  <path class="cls-1" d="M1313.39,1054.57h-14.68c-.69,0-1.25-.56-1.25-1.25s.56-1.25,1.25-1.25h14.68c.69,0,1.25,.56,1.25,1.25s-.56,1.25-1.25,1.25Z"/>
  <path class="cls-1" d="M1313.39,1066.32h-14.68c-.69,0-1.25-.56-1.25-1.25s.56-1.25,1.25-1.25h14.68c.69,0,1.25,.56,1.25,1.25s-.56,1.25-1.25,1.25Z"/>
  <path class="cls-1" d="M1313.39,1054.57h-14.68c-.69,0-1.25-.56-1.25-1.25s.56-1.25,1.25-1.25h14.68c.69,0,1.25,.56,1.25,1.25s-.56,1.25-1.25,1.25Z"/>
  <path class="cls-1" d="M1313.39,1007.54h-14.68c-.69,0-1.25-.56-1.25-1.25s.56-1.25,1.25-1.25h14.68c.69,0,1.25,.56,1.25,1.25s-.56,1.25-1.25,1.25Z"/>
  <path class="cls-1" d="M1313.39,995.8h-14.68c-.69,0-1.25-.56-1.25-1.25s.56-1.25,1.25-1.25h14.68c.69,0,1.25,.56,1.25,1.25s-.56,1.25-1.25,1.25Z"/>
  <path class="cls-1" d="M1313.39,1007.54h-14.68c-.69,0-1.25-.56-1.25-1.25s.56-1.25,1.25-1.25h14.68c.69,0,1.25,.56,1.25,1.25s-.56,1.25-1.25,1.25Z"/>
  <path class="cls-1" d="M1313.39,995.8h-14.68c-.69,0-1.25-.56-1.25-1.25s.56-1.25,1.25-1.25h14.68c.69,0,1.25,.56,1.25,1.25s-.56,1.25-1.25,1.25Z"/>
  <path class="cls-1" d="M1480.37,909.65c-.69,0-1.25-.56-1.25-1.25v-117.69h-50.36v117.69c0,.69-.56,1.25-1.25,1.25s-1.25-.56-1.25-1.25v-118.94c0-.69,.56-1.25,1.25-1.25h52.86c.69,0,1.25,.56,1.25,1.25v118.94c0,.69-.56,1.25-1.25,1.25Z"/>
  <path class="cls-1" d="M1499.7,790.8c-.16,0-.32-.03-.47-.09-3.52-.63-56.23-.28-91.05,.09-.55,.12-1.04-.34-1.2-.86-.17-.52,.01-1.08,.46-1.4l10.03-7.17c1.35-2.6,11.3-20.94,27.95-29.46l7.15-14.32c.21-.42,.64-.69,1.12-.69h.49c.47,0,.91,.27,1.12,.69l7.16,14.32c16.65,8.52,26.59,26.86,27.94,29.46l10.03,7.17h0c.09,.05,.13,.1,.17,.13,.46,.46,.49,1.2,.07,1.69-.24,.29-.6,.44-.95,.44Zm-45.77-50.34l-6.47,12.94c-.12,.24-.32,.44-.56,.56-17.03,8.52-27.24,28.61-27.34,28.81-.09,.18-.22,.34-.39,.45l-7.05,5.03c54.77-.57,75.46-.45,83.39-.16l-6.82-4.87c-.17-.12-.3-.27-.39-.45-.1-.2-10.31-20.3-27.34-28.81-.24-.12-.44-.32-.56-.56l-6.47-12.94Z"/>
  <path class="cls-1" d="M1472.53,762.31h-37.2c-.69,0-1.25-.56-1.25-1.25s.56-1.25,1.25-1.25h37.2c.69,0,1.25,.56,1.25,1.25s-.56,1.25-1.25,1.25Z"/>
  <path class="cls-1" d="M1489.42,783.46h-70.98c-.69,0-1.25-.56-1.25-1.25s.56-1.25,1.25-1.25h70.98c.69,0,1.25,.56,1.25,1.25s-.56,1.25-1.25,1.25Z"/>
  <path class="cls-1" d="M1467.92,839.16h-26.85c-.69,0-1.25-.56-1.25-1.25l-.13-25.43h0c0-3.16,4.61-7.74,13.68-13.59l.3-.19c.42-.33,1.09-.33,1.51,0l.3,.19c9.08,5.85,13.68,10.42,13.68,13.58v25.43c0,.69-.56,1.25-1.25,1.25Zm-25.6-2.5h24.35v-24.18c0-1.63-3.22-5.43-12.24-11.29-9.01,5.85-12.23,9.65-12.24,11.28l.12,24.18Z"/>
  <path class="cls-1" d="M1485.69,986.99h-33.29c-.69,0-1.25-.56-1.25-1.25s.56-1.25,1.25-1.25h33.29c.69,0,1.25,.56,1.25,1.25s-.56,1.25-1.25,1.25Z"/>
  <path class="cls-1" d="M1471.99,1079.99h-291.74c-.69,0-1.25-.56-1.25-1.25s.56-1.25,1.25-1.25h290.66l16.49-113.47c.09-.68,.68-1.17,1.42-1.05,.68,.1,1.16,.73,1.05,1.42l-16.64,114.54c-.09,.61-.62,1.07-1.24,1.07Z"/>
  <path class="cls-1" d="M1928.19,1079.99c-.29,0-.59-.1-.82-.31l-30.35-26.43c-.27-.24-.43-.58-.43-.94v-74.1c-12.74,1.08-82.22,.75-207-.99v100.54c0,.69-.56,1.25-1.25,1.25s-1.25-.56-1.25-1.25v-101.81c0-.34,.13-.65,.37-.89,.23-.23,.55-.36,.88-.36h.02c55.95,.79,201.69,2.5,208.86,1.14,.76-.42,1.87,.18,1.87,1.09v74.81l29.93,26.06c.52,.45,.58,1.24,.12,1.76-.25,.28-.6,.43-.94,.43Z"/>
  <path class="cls-1" d="M1849.87,1079.99c-.69,0-1.25-.56-1.25-1.25v-100.83c0-.69,.56-1.25,1.25-1.25s1.25,.56,1.25,1.25v100.83c0,.69-.56,1.25-1.25,1.25Z"/>
  <path class="cls-1" d="M1803.86,1079.99c-.69,0-1.25-.56-1.25-1.25v-100.83c0-.69,.56-1.25,1.25-1.25s1.25,.56,1.25,1.25v100.83c0,.69-.56,1.25-1.25,1.25Z"/>
  <path class="cls-1" d="M1757.84,1079.99c-.69,0-1.25-.56-1.25-1.25v-100.83c0-.69,.56-1.25,1.25-1.25s1.25,.56,1.25,1.25v100.83c0,.69-.56,1.25-1.25,1.25Z"/>
  <path class="cls-1" d="M1884.13,1035.94h-194.32c-.69,0-1.25-.56-1.25-1.25s.56-1.25,1.25-1.25h193.07v-9.25h-193.07c-.69,0-1.25-.56-1.25-1.25s.56-1.25,1.25-1.25h194.32c.69,0,1.25,.56,1.25,1.25v11.75c0,.69-.56,1.25-1.25,1.25Z"/>
  <path class="cls-1" d="M1912.52,978.18h-14.69c-.69,0-1.25-.56-1.25-1.25s.56-1.25,1.25-1.25h13.44v-10.23h-311.05c-.69,0-1.25-.56-1.25-1.25v-98.61h-59.45c-.69,0-1.25-.56-1.25-1.25s.56-1.25,1.25-1.25h60.7c.69,0,1.25,.56,1.25,1.25v98.61h311.05c.69,0,1.25,.56,1.25,1.25v12.73c0,.69-.56,1.25-1.25,1.25Z"/>
  <path class="cls-1" d="M1850.85,963.49c-.69,0-1.25-.56-1.25-1.25v-51.61h-221.68v51.61c0,.69-.56,1.25-1.25,1.25s-1.25-.56-1.25-1.25v-52.86c0-.69,.56-1.25,1.25-1.25h224.19c.69,0,1.25,.56,1.25,1.25v52.86c0,.69-.56,1.25-1.25,1.25Z"/>
  <path class="cls-1" d="M1848.89,924.33h-222.23c-.69,0-1.25-.56-1.25-1.25s.56-1.25,1.25-1.25h222.23c.69,0,1.25,.56,1.25,1.25s-.56,1.25-1.25,1.25Z"/>
  <path class="cls-1" d="M1813.64,963.49c-.69,0-1.25-.56-1.25-1.25v-39.16c0-.69,.56-1.25,1.25-1.25s1.25,.56,1.25,1.25v39.16c0,.69-.56,1.25-1.25,1.25Z"/>
  <path class="cls-1" d="M1804.83,963.49c-.69,0-1.25-.56-1.25-1.25v-39.16c0-.69,.56-1.25,1.25-1.25s1.25,.56,1.25,1.25v39.16c0,.69-.56,1.25-1.25,1.25Z"/>
  <path class="cls-1" d="M1767.63,963.49c-.69,0-1.25-.56-1.25-1.25v-39.16c0-.69,.56-1.25,1.25-1.25s1.25,.56,1.25,1.25v39.16c0,.69-.56,1.25-1.25,1.25Z"/>
  <path class="cls-1" d="M1758.82,963.49c-.69,0-1.25-.56-1.25-1.25v-39.16c0-.69,.56-1.25,1.25-1.25s1.25,.56,1.25,1.25v39.16c0,.69-.56,1.25-1.25,1.25Z"/>
  <path class="cls-1" d="M1721.61,963.49c-.69,0-1.25-.56-1.25-1.25v-39.16c0-.69,.56-1.25,1.25-1.25s1.25,.56,1.25,1.25v39.16c0,.69-.56,1.25-1.25,1.25Z"/>
  <path class="cls-1" d="M1712.8,963.49c-.69,0-1.25-.56-1.25-1.25v-39.16c0-.69,.56-1.25,1.25-1.25s1.25,.56,1.25,1.25v39.16c0,.69-.56,1.25-1.25,1.25Z"/>
  <path class="cls-1" d="M1675.6,963.49c-.69,0-1.25-.56-1.25-1.25v-39.16c0-.69,.56-1.25,1.25-1.25s1.25,.56,1.25,1.25v39.16c0,.69-.56,1.25-1.25,1.25Z"/>
  <path class="cls-1" d="M1666.79,963.49c-.69,0-1.25-.56-1.25-1.25v-39.16c0-.69,.56-1.25,1.25-1.25s1.25,.56,1.25,1.25v39.16c0,.69-.56,1.25-1.25,1.25Z"/>
  <path class="cls-1" d="M1735.33,1007.54h-26.43c-.69,0-1.25-.56-1.25-1.25s.56-1.25,1.25-1.25h26.43c.69,0,1.25,.56,1.25,1.25s-.56,1.25-1.25,1.25Z"/>
  <path class="cls-1" d="M1735.33,995.8h-26.43c-.69,0-1.25-.56-1.25-1.25s.56-1.25,1.25-1.25h26.43c.69,0,1.25,.56,1.25,1.25s-.56,1.25-1.25,1.25Z"/>
  <path class="cls-1" d="M1735.33,1007.54h-26.43c-.69,0-1.25-.56-1.25-1.25s.56-1.25,1.25-1.25h26.43c.69,0,1.25,.56,1.25,1.25s-.56,1.25-1.25,1.25Z"/>
  <path class="cls-1" d="M1735.33,995.8h-26.43c-.69,0-1.25-.56-1.25-1.25s.56-1.25,1.25-1.25h26.43c.69,0,1.25,.56,1.25,1.25s-.56,1.25-1.25,1.25Z"/>
  <path class="cls-1" d="M1735.33,1066.32h-26.43c-.69,0-1.25-.56-1.25-1.25s.56-1.25,1.25-1.25h26.43c.69,0,1.25,.56,1.25,1.25s-.56,1.25-1.25,1.25Z"/>
  <path class="cls-1" d="M1735.33,1054.57h-26.43c-.69,0-1.25-.56-1.25-1.25s.56-1.25,1.25-1.25h26.43c.69,0,1.25,.56,1.25,1.25s-.56,1.25-1.25,1.25Z"/>
  <path class="cls-1" d="M1735.33,1066.32h-26.43c-.69,0-1.25-.56-1.25-1.25s.56-1.25,1.25-1.25h26.43c.69,0,1.25,.56,1.25,1.25s-.56,1.25-1.25,1.25Z"/>
  <path class="cls-1" d="M1735.33,1054.57h-26.43c-.69,0-1.25-.56-1.25-1.25s.56-1.25,1.25-1.25h26.43c.69,0,1.25,.56,1.25,1.25s-.56,1.25-1.25,1.25Z"/>
  <path class="cls-1" d="M1782.31,1066.32h-14.68c-.69,0-1.25-.56-1.25-1.25s.56-1.25,1.25-1.25h14.68c.69,0,1.25,.56,1.25,1.25s-.56,1.25-1.25,1.25Z"/>
  <path class="cls-1" d="M1782.31,1054.57h-14.68c-.69,0-1.25-.56-1.25-1.25s.56-1.25,1.25-1.25h14.68c.69,0,1.25,.56,1.25,1.25s-.56,1.25-1.25,1.25Z"/>
  <path class="cls-1" d="M1782.31,1066.32h-14.68c-.69,0-1.25-.56-1.25-1.25s.56-1.25,1.25-1.25h14.68c.69,0,1.25,.56,1.25,1.25s-.56,1.25-1.25,1.25Z"/>
  <path class="cls-1" d="M1782.31,1054.57h-14.68c-.69,0-1.25-.56-1.25-1.25s.56-1.25,1.25-1.25h14.68c.69,0,1.25,.56,1.25,1.25s-.56,1.25-1.25,1.25Z"/>
  <path class="cls-1" d="M1782.31,1007.54h-14.68c-.69,0-1.25-.56-1.25-1.25s.56-1.25,1.25-1.25h14.68c.69,0,1.25,.56,1.25,1.25s-.56,1.25-1.25,1.25Z"/>
  <path class="cls-1" d="M1782.31,995.8h-14.68c-.69,0-1.25-.56-1.25-1.25s.56-1.25,1.25-1.25h14.68c.69,0,1.25,.56,1.25,1.25s-.56,1.25-1.25,1.25Z"/>
  <path class="cls-1" d="M1782.31,1007.54h-14.68c-.69,0-1.25-.56-1.25-1.25s.56-1.25,1.25-1.25h14.68c.69,0,1.25,.56,1.25,1.25s-.56,1.25-1.25,1.25Z"/>
  <path class="cls-1" d="M1782.31,995.8h-14.68c-.69,0-1.25-.56-1.25-1.25s.56-1.25,1.25-1.25h14.68c.69,0,1.25,.56,1.25,1.25s-.56,1.25-1.25,1.25Z"/>
  <path class="cls-1" d="M1841.05,1066.32h-14.67c-.69,0-1.25-.56-1.25-1.25s.56-1.25,1.25-1.25h14.67c.69,0,1.25,.56,1.25,1.25s-.56,1.25-1.25,1.25Z"/>
  <path class="cls-1" d="M1841.05,1054.57h-14.67c-.69,0-1.25-.56-1.25-1.25s.56-1.25,1.25-1.25h14.67c.69,0,1.25,.56,1.25,1.25s-.56,1.25-1.25,1.25Z"/>
  <path class="cls-1" d="M1841.05,1066.32h-14.67c-.69,0-1.25-.56-1.25-1.25s.56-1.25,1.25-1.25h14.67c.69,0,1.25,.56,1.25,1.25s-.56,1.25-1.25,1.25Z"/>
  <path class="cls-1" d="M1841.05,1054.57h-14.67c-.69,0-1.25-.56-1.25-1.25s.56-1.25,1.25-1.25h14.67c.69,0,1.25,.56,1.25,1.25s-.56,1.25-1.25,1.25Z"/>
  <path class="cls-1" d="M1841.05,1007.54h-14.67c-.69,0-1.25-.56-1.25-1.25s.56-1.25,1.25-1.25h14.67c.69,0,1.25,.56,1.25,1.25s-.56,1.25-1.25,1.25Z"/>
  <path class="cls-1" d="M1841.05,995.8h-14.67c-.69,0-1.25-.56-1.25-1.25s.56-1.25,1.25-1.25h14.67c.69,0,1.25,.56,1.25,1.25s-.56,1.25-1.25,1.25Z"/>
  <path class="cls-1" d="M1841.05,1007.54h-14.67c-.69,0-1.25-.56-1.25-1.25s.56-1.25,1.25-1.25h14.67c.69,0,1.25,.56,1.25,1.25s-.56,1.25-1.25,1.25Z"/>
  <path class="cls-1" d="M1841.05,995.8h-14.67c-.69,0-1.25-.56-1.25-1.25s.56-1.25,1.25-1.25h14.67c.69,0,1.25,.56,1.25,1.25s-.56,1.25-1.25,1.25Z"/>
  <path class="cls-1" d="M1712.26,909.65c-.69,0-1.25-.56-1.25-1.25v-117.69h-50.37v117.69c0,.69-.56,1.25-1.25,1.25s-1.25-.56-1.25-1.25v-118.94c0-.69,.56-1.25,1.25-1.25h52.87c.69,0,1.25,.56,1.25,1.25v118.94c0,.69-.56,1.25-1.25,1.25Z"/>
  <path class="cls-1" d="M1640.06,790.8c-.36,0-.71-.15-.95-.44-.42-.49-.39-1.23,.07-1.69,.04-.04,.08-.08,.17-.12h0s10.03-7.18,10.03-7.18c1.35-2.6,11.3-20.94,27.95-29.46l7.15-14.32c.21-.42,.64-.69,1.12-.69h.49c.47,0,.91,.27,1.12,.69l7.16,14.32c16.65,8.52,26.59,26.86,27.94,29.46l10.03,7.17c.44,.32,.63,.88,.46,1.4-.17,.52-.59,.94-1.2,.86-34.82-.38-87.53-.71-91.05-.09-.15,.06-.31,.09-.47,.09Zm27.49-2.95c13.03,0,32.11,.11,60.09,.41l-7.05-5.03c-.17-.12-.3-.27-.39-.45-.1-.2-10.31-20.3-27.34-28.81-.24-.12-.44-.32-.56-.56l-6.47-12.94-6.47,12.94c-.12,.24-.32,.44-.56,.56-17.03,8.52-27.24,28.61-27.34,28.81-.09,.18-.23,.34-.39,.45l-6.82,4.87c3.87-.14,10.81-.24,23.3-.24Zm-17.21-5.65h0Z"/>
  <path class="cls-1" d="M1704.43,762.31h-37.2c-.69,0-1.25-.56-1.25-1.25s.56-1.25,1.25-1.25h37.2c.69,0,1.25,.56,1.25,1.25s-.56,1.25-1.25,1.25Z"/>
  <path class="cls-1" d="M1721.32,783.46h-70.97c-.69,0-1.25-.56-1.25-1.25s.56-1.25,1.25-1.25h70.97c.69,0,1.25,.56,1.25,1.25s-.56,1.25-1.25,1.25Z"/>
  <path class="cls-1" d="M1698.7,839.16h-26.85c-.69,0-1.25-.56-1.25-1.25v-25.43c0-3.16,4.61-7.73,13.68-13.58l.3-.2c.21-.16,.47-.25,.76-.25s.55,.09,.76,.26l.3,.19c9.08,5.85,13.68,10.42,13.68,13.58h0s-.12,25.43-.12,25.43c0,.69-.56,1.25-1.25,1.25Zm-25.6-2.5h24.35l.12-24.18c0-1.63-3.23-5.44-12.23-11.28-9.01,5.85-12.24,9.66-12.24,11.29v24.18Zm25.72-24.18h0Z"/>
  <path class="cls-1" d="M1687.36,986.99h-33.29c-.69,0-1.25-.56-1.25-1.25s.56-1.25,1.25-1.25h33.29c.69,0,1.25,.56,1.25,1.25s-.56,1.25-1.25,1.25Z"/>
  <path class="cls-1" d="M1668.84,1077.5h259.68v2.5h-260.73c-.65,0-1.15-.45-1.25-1.1l-16.65-114.51c-.1-.7,.4-1.3,1.05-1.4,.75-.15,1.35,.35,1.45,1.05l16.45,113.46Z"/>
  <path class="cls-1" d="M1659.09,843.57h-178.42c-.69,0-1.25-.56-1.25-1.25s.56-1.25,1.25-1.25h178.42c.69,0,1.25,.56,1.25,1.25s-.56,1.25-1.25,1.25Z"/>
  <path class="cls-1" d="M1659.09,836.23h-178.42c-.69,0-1.25-.56-1.25-1.25s.56-1.25,1.25-1.25h178.42c.69,0,1.25,.56,1.25,1.25s-.56,1.25-1.25,1.25Z"/>
  <path class="cls-1" d="M1591.18,965.45l-.18-.02c-2.74-.07-28.61-.49-42.43-.72-.68-.01-1.23-.57-1.23-1.25v-91.78c0-.69,.56-1.25,1.25-1.25h42.59c.69,0,1.25,.56,1.25,1.25v91.95c.13,.16,.13,.34,.13,.57,0,.68-.69,1.24-1.38,1.24Zm-41.34-3.21l20.13,.33c11.55,.19,17.2,.28,19.96,.5v-90.13h-40.09v89.3Z"/>
  <path class="cls-1" d="M1642.94,977.2h-146.12c-.69,0-1.25-.56-1.25-1.25s.56-1.25,1.25-1.25h146.12c.69,0,1.25,.56,1.25,1.25s-.56,1.25-1.25,1.25Z"/>
  <path class="cls-1" d="M1642.94,988.22h-146.12c-.69,0-1.25-.56-1.25-1.25s.56-1.25,1.25-1.25h146.12c.69,0,1.25,.56,1.25,1.25s-.56,1.25-1.25,1.25Z"/>
  <path class="cls-1" d="M1642.94,999.23h-146.12c-.69,0-1.25-.56-1.25-1.25s.56-1.25,1.25-1.25h146.12c.69,0,1.25,.56,1.25,1.25s-.56,1.25-1.25,1.25Z"/>
  <path class="cls-1" d="M1648.82,1010.24h-157.87c-.69,0-1.25-.56-1.25-1.25s.56-1.25,1.25-1.25h157.87c.69,0,1.25,.56,1.25,1.25s-.56,1.25-1.25,1.25Z"/>
  <path class="cls-1" d="M1648.82,1021.26h-157.87c-.69,0-1.25-.56-1.25-1.25s.56-1.25,1.25-1.25h157.87c.69,0,1.25,.56,1.25,1.25s-.56,1.25-1.25,1.25Z"/>
  <path class="cls-1" d="M1648.82,1032.27h-157.87c-.69,0-1.25-.56-1.25-1.25s.56-1.25,1.25-1.25h157.87c.69,0,1.25,.56,1.25,1.25s-.56,1.25-1.25,1.25Z"/>
  <path class="cls-1" d="M1654.69,1043.28h-169.62c-.69,0-1.25-.56-1.25-1.25s.56-1.25,1.25-1.25h169.62c.69,0,1.25,.56,1.25,1.25s-.56,1.25-1.25,1.25Z"/>
  <path class="cls-1" d="M1654.69,1054.3h-169.62c-.69,0-1.25-.56-1.25-1.25s.56-1.25,1.25-1.25h169.62c.69,0,1.25,.56,1.25,1.25s-.56,1.25-1.25,1.25Z"/>
  <path class="cls-1" d="M1654.69,1065.31h-169.62c-.69,0-1.25-.56-1.25-1.25s.56-1.25,1.25-1.25h169.62c.69,0,1.25,.56,1.25,1.25s-.56,1.25-1.25,1.25Z"/>
</svg>