<svg xmlns="http://www.w3.org/2000/svg" viewBox="0 0 474.97 152.32"><defs><style>.cls-1{fill:#ebc848;}</style></defs><g id="Layer_2" data-name="Layer 2"><g id="Layer_1-2" data-name="Layer 1"><path class="cls-1" d="M58.85,151.74H51.28v0l0,0h7.68v-.07Z"/><path class="cls-1" d="M474.64,140.75h-.35v1.42h.33a.32.32,0,0,1,.32.33v-2A.32.32,0,0,1,474.64,140.75Z"/><path class="cls-1" d="M474.62,142.82h-.33v1.73h.33a.32.32,0,0,1,.32.33V142.5A.32.32,0,0,1,474.62,142.82Z"/><path class="cls-1" d="M474.62,145.2h-.33v1.73h.33a.32.32,0,0,1,.32.33v-2.38A.32.32,0,0,1,474.62,145.2Z"/><path class="cls-1" d="M474.62,150h-.33v1.71H350.92V152a.33.33,0,0,1-.33.33H340.3a.28.28,0,0,0,.13,0H474.62a.32.32,0,0,0,.32-.33v-2.35A.32.32,0,0,1,474.62,150Z"/><path class="cls-1" d="M474.62,147.58h-.33v1.73h.33a.32.32,0,0,1,.32.33v-2.38A.32.32,0,0,1,474.62,147.58Z"/><path class="cls-1" d="M377.87,140.75h0Z"/><path class="cls-1" d="M437.19,140.75h0Z"/><path class="cls-1" d="M474.62,142.17H350.92v.65h123.7a.32.32,0,0,0,.32-.32A.32.32,0,0,0,474.62,142.17Z"/><path class="cls-1" d="M474.62,144.55H350.92v.65h123.7a.32.32,0,0,0,.32-.32A.32.32,0,0,0,474.62,144.55Z"/><path class="cls-1" d="M474.62,146.93H350.92v.65h123.7a.32.32,0,0,0,.32-.32A.32.32,0,0,0,474.62,146.93Z"/><path class="cls-1" d="M474.62,149.31H350.92V150h123.7a.32.32,0,0,0,.32-.32A.32.32,0,0,0,474.62,149.31Z"/><path class="cls-1" d="M378.22,111.65h0v6.79a.36.36,0,0,1,0-.09Z"/><path class="cls-1" d="M436.83,118.39l0,.09v-6.83h0Z"/><path class="cls-1" d="M437.16,140.75h0Z"/><rect class="cls-1" x="394.32" y="111.65" width="0.01" height="28.44"/><path class="cls-1" d="M394,140.75a.32.32,0,0,1-.32-.33v-.32H378.22v-18a10.41,10.41,0,0,1,10.39-10.4h-3.7a11.1,11.1,0,0,0-6.69,6.7.36.36,0,0,0,0,.09v22a.33.33,0,0,1-.31.33H394Z"/><path class="cls-1" d="M382.81,132.84h7a.32.32,0,0,0,.32-.33V119.24a.32.32,0,0,0-.32-.32h-7a.32.32,0,0,0-.33.32v13.27A.33.33,0,0,0,382.81,132.84Zm.32-13.27h6.33v12.62h-6.33Z"/><rect class="cls-1" x="420.7" y="111.65" width="0.02" height="28.44"/><path class="cls-1" d="M430.12,111.65h-3.7a10.42,10.42,0,0,1,10.4,10.4v18H421.38v.32a.33.33,0,0,1-.33.33h16.12a.32.32,0,0,1-.31-.32V118.48l0-.09A11.09,11.09,0,0,0,430.12,111.65Z"/><path class="cls-1" d="M425.25,132.84h7a.32.32,0,0,0,.32-.33V119.24a.32.32,0,0,0-.32-.32h-7a.32.32,0,0,0-.33.32v13.27A.33.33,0,0,0,425.25,132.84Zm.32-13.27h6.33v12.62h-6.33Z"/><path class="cls-1" d="M393.67,140.42a.32.32,0,0,0,.32.33h3.19a.33.33,0,0,1-.33-.33v-.32h-2.53V111.65h-.65v28.77Z"/><path class="cls-1" d="M420.7,140.1h-2.51v.32a.32.32,0,0,1-.32.33h3.18a.33.33,0,0,0,.33-.33V111.65h-.65V140.1Z"/><path class="cls-1" d="M397.5,121.12v-9.47h-.65v13.11A10.72,10.72,0,0,1,397.5,121.12Z"/><path class="cls-1" d="M418.19,124.76V111.65h-.65v9.47A10.72,10.72,0,0,1,418.19,124.76Z"/><path class="cls-1" d="M418.19,140.42V124.76a10.67,10.67,0,0,0-21.34,0v15.66a.33.33,0,0,0,.33.33h4.32a.33.33,0,0,1-.33-.33v-.32H397.5V124.76a10,10,0,0,1,20,0V140.1h-3.67v.32a.32.32,0,0,1-.32.33h4.32A.32.32,0,0,0,418.19,140.42Z"/><path class="cls-1" d="M413.87,140.42v-20a.32.32,0,0,0-.32-.32H401.5a.32.32,0,0,0-.33.32v20a.33.33,0,0,0,.33.33h12.05A.32.32,0,0,0,413.87,140.42Zm-12.05-.32V120.72h11.4V140.1Z"/><path class="cls-1" d="M367.5,111h0Z"/><path class="cls-1" d="M358,111.33v.32h1.32v-.17a.41.41,0,0,1-.05-.19l0-.29h-1.52v0A.33.33,0,0,1,358,111.33Z"/><path class="cls-1" d="M367.82,111.33v.32h1.32v0a.28.28,0,0,1-.13-.09.33.33,0,0,1-.08-.25l0-.29H367.5A.32.32,0,0,1,367.82,111.33Z"/><path class="cls-1" d="M348.25,111.31v.34h1.32v-.32a.3.3,0,0,1,.16-.27V111h-1.52l0,.29S348.24,111.3,348.25,111.31Z"/><path class="cls-1" d="M367.17,111.65h0Z"/><path class="cls-1" d="M340.73,124.07V111.65h-.33a.32.32,0,0,1-.24-.11.32.32,0,0,1-.08-.23v12.76Z"/><path class="cls-1" d="M360,140.32a.33.33,0,0,1-.33.33.32.32,0,0,1-.32-.33v-.22H358v.22a.33.33,0,0,1-.33.33.32.32,0,0,1-.32-.33v-.22h-6.47v.65h26.95a.33.33,0,0,0,.31-.33V111.65h-.65V140.1h-7.74v.22a.32.32,0,0,1-.32.33.33.33,0,0,1-.33-.33v-.22h-1.32v.22a.32.32,0,0,1-.32.33.33.33,0,0,1-.33-.33v-.22H360Z"/><path class="cls-1" d="M348.25,111.33v0a.32.32,0,0,1-.33.34h-.32v19.78h.65v-20.1Z"/><path class="cls-1" d="M350,111.65a.32.32,0,0,1-.24-.11.29.29,0,0,1-.08-.25l0-.23a.3.3,0,0,0-.16.27v20.1h.65V111.65Z"/><path class="cls-1" d="M357.39,140.32a.32.32,0,0,0,.32.33.33.33,0,0,0,.33-.33v-29a.33.33,0,0,0-.21-.3l0,.26a.29.29,0,0,1-.08.25.32.32,0,0,1-.24.11h-.15v28.67Z"/><path class="cls-1" d="M359.36,140.32a.32.32,0,0,0,.32.33.33.33,0,0,0,.33-.33V111.65h-.37a.33.33,0,0,1-.25-.11l0-.06v28.84Z"/><path class="cls-1" d="M367.48,111.29a.33.33,0,0,1-.08.25.3.3,0,0,1-.23.11h0v28.67a.33.33,0,0,0,.33.33.32.32,0,0,0,.32-.33v-29a.32.32,0,0,0-.32-.33h-.06Z"/><path class="cls-1" d="M369.14,140.32a.33.33,0,0,0,.33.33.32.32,0,0,0,.32-.33V111.65h-.54l-.11,0v28.69Z"/><path class="cls-1" d="M340.4,111.65h7.52a.32.32,0,0,0,.33-.34s0,0,0,0l0-.29-1-7.83a3.11,3.11,0,0,0-6.17,0l-1,8.12v0a.32.32,0,0,0,.08.23A.32.32,0,0,0,340.4,111.65Zm.37-.65,1-7.75a2.45,2.45,0,0,1,4.87,0l1,7.75Z"/><path class="cls-1" d="M349.7,111.29a.29.29,0,0,0,.08.25.32.32,0,0,0,.24.11h7.52a.32.32,0,0,0,.24-.11.29.29,0,0,0,.08-.25l0-.26v0l-1-7.83a3.1,3.1,0,0,0-6.16,0l-1,7.83v.06Zm.69-.29.95-7.75a2.46,2.46,0,0,1,4.88,0l.95,7.75Z"/><path class="cls-1" d="M359.36,111.48l0,.06a.33.33,0,0,0,.25.11h7.53a.3.3,0,0,0,.23-.11.33.33,0,0,0,.08-.25l0-.28h0l-1-7.83a3.11,3.11,0,0,0-6.17,0l-1,7.83,0,.29A.41.41,0,0,0,359.36,111.48ZM360,111l1-7.75a2.45,2.45,0,0,1,4.87,0l1,7.75Z"/><path class="cls-1" d="M369,111.54a.28.28,0,0,0,.13.09l.11,0h5.65a.32.32,0,0,1-.32-.32V111h-5l1-7.75a2.45,2.45,0,0,1,4.85-.08v-1.56a3.1,3.1,0,0,0-5.5,1.56L369,111l0,.29A.33.33,0,0,0,369,111.54Z"/><path class="cls-1" d="M473.8,111.54a.32.32,0,0,1-.24.11h.76V140.1h-7.74v.22a.33.33,0,0,1-.33.33.32.32,0,0,1-.32-.33v-.22h-1.32v.22a.33.33,0,0,1-.33.33.32.32,0,0,1-.32-.33v-.22h-7.17v.22a.32.32,0,0,1-.32.33.33.33,0,0,1-.33-.33v-.22h-1.32v.22a.32.32,0,0,1-.32.33.33.33,0,0,1-.33-.33v-.22H447v.22a.33.33,0,0,1-.33.33.32.32,0,0,1-.32-.33v-.22H445v.22a.32.32,0,0,1-.32.33.33.33,0,0,1-.33-.33v-.22h-6.87V111.65h-.65v28.77a.32.32,0,0,0,.31.32h37.47a.32.32,0,0,0,.3-.21.24.24,0,0,0,0-.12V111.33a.33.33,0,0,0-.33-.33h-.8l0,.29A.33.33,0,0,1,473.8,111.54Z"/><path class="cls-1" d="M464.28,111h0Z"/><path class="cls-1" d="M445,111.31v.34h1.33v-.32a.32.32,0,0,1,.15-.27V111H445l0,.29Z"/><path class="cls-1" d="M454.82,111.33v.32h1.32v-.17a.31.31,0,0,1,0-.19l0-.29h-1.52v0A.32.32,0,0,1,454.82,111.33Z"/><path class="cls-1" d="M464.61,111.33v.32h1.32v0a.31.31,0,0,1-.14-.09.33.33,0,0,1-.08-.25l0-.29h-1.47A.33.33,0,0,1,464.61,111.33Z"/><path class="cls-1" d="M464,111.65h0Z"/><path class="cls-1" d="M444.38,140.32a.33.33,0,0,0,.33.33.32.32,0,0,0,.32-.33v-29a.29.29,0,0,1-.08.23.32.32,0,0,1-.24.11h-.33v28.67Z"/><path class="cls-1" d="M446.36,140.32a.32.32,0,0,0,.32.33.33.33,0,0,0,.33-.33V111.65h-.2a.33.33,0,0,1-.25-.11.33.33,0,0,1-.08-.25l0-.23a.32.32,0,0,0-.15.27v29Z"/><path class="cls-1" d="M454.17,140.32a.33.33,0,0,0,.33.33.32.32,0,0,0,.32-.33v-29a.32.32,0,0,0-.2-.3l0,.26a.33.33,0,0,1-.08.25.33.33,0,0,1-.25.11h-.15v28.67Z"/><path class="cls-1" d="M456.14,140.32a.33.33,0,0,0,.33.33.32.32,0,0,0,.32-.33V111.65h-.37a.32.32,0,0,1-.24-.11s0,0,0-.06v28.84Z"/><path class="cls-1" d="M464.26,111.29a.29.29,0,0,1-.08.25.28.28,0,0,1-.22.11h0v28.67a.32.32,0,0,0,.32.33.33.33,0,0,0,.33-.33v-29a.33.33,0,0,0-.33-.33h0Z"/><path class="cls-1" d="M465.93,140.32a.32.32,0,0,0,.32.33.33.33,0,0,0,.33-.33V111.65H466l-.11,0v28.69Z"/><path class="cls-1" d="M439.62,101.5a2.42,2.42,0,0,1,1.33-.4,2.47,2.47,0,0,1,2.44,2.15l.95,7.75h-3.87v.33a.32.32,0,0,1-.33.32h4.57a.32.32,0,0,0,.24-.11.29.29,0,0,0,.08-.23v0l0-.29-1-7.83a3.08,3.08,0,0,0-4.41-2.41Z"/><path class="cls-1" d="M446.48,111.29a.33.33,0,0,0,.08.25.33.33,0,0,0,.25.11h7.51a.33.33,0,0,0,.25-.11.33.33,0,0,0,.08-.25l0-.26v0l-1-7.83a3.11,3.11,0,0,0-6.17,0l-1,7.83v.06Zm.69-.29,1-7.75a2.45,2.45,0,0,1,4.87,0l1,7.75Z"/><path class="cls-1" d="M456.14,111.48s0,0,0,.06a.32.32,0,0,0,.24.11H464a.28.28,0,0,0,.22-.11.29.29,0,0,0,.08-.25l0-.28h0l-1-7.83a3.1,3.1,0,0,0-6.16,0l-1,7.83,0,.29A.31.31,0,0,0,456.14,111.48Zm.65-.48.95-7.75a2.46,2.46,0,0,1,4.88,0l.95,7.75Z"/><path class="cls-1" d="M465.79,111.54a.31.31,0,0,0,.14.09l.11,0h7.52a.32.32,0,0,0,.24-.11.33.33,0,0,0,.08-.25l0-.29-1-7.83a3.11,3.11,0,0,0-6.17,0l-1,7.83,0,.29A.33.33,0,0,0,465.79,111.54Zm.62-.54.95-7.75a2.45,2.45,0,0,1,4.87,0l1,7.75Z"/><path class="cls-1" d="M377.53,111.65h62.61a.32.32,0,0,0,.33-.32v-2.22a.32.32,0,0,0-.33-.32h-.52v.37a.33.33,0,0,1-.17.28h.37V111H375.23v-1.56h.36a.34.34,0,0,1-.16-.28v-.37h-.53a.32.32,0,0,0-.32.32v2.22a.32.32,0,0,0,.32.32h2.63Z"/><path class="cls-1" d="M439,92.56v16.28H424.44v.65h14.85a.3.3,0,0,0,.16,0,.33.33,0,0,0,.17-.28V92.48a.32.32,0,0,1-.21.08Z"/><path class="cls-1" d="M375.43,103.17v6a.34.34,0,0,0,.16.28.33.33,0,0,0,.16,0H390.6v-.65H376.08V92.56h-.3a.33.33,0,0,1-.33-.33V92a.51.51,0,0,0,0,.13v11.07Z"/><path class="cls-1" d="M420,84.74A10,10,0,0,1,439.08,89v2.92H424.44v.65h15a.32.32,0,0,0,.21-.08.33.33,0,0,0,.12-.25V89a10.67,10.67,0,0,0-20.45-4.25Z"/><path class="cls-1" d="M375.78,92.56H390.6v-.65H376.11V89a10,10,0,0,1,19.07-4.25h.72A10.67,10.67,0,0,0,375.45,89v3.24A.33.33,0,0,0,375.78,92.56Z"/><path class="cls-1" d="M390.93,111h33.19a.32.32,0,0,0,.32-.32V100.46a.32.32,0,0,1-.32.33h-.33v9.55H391.25v-9.55h-.32a.33.33,0,0,1-.33-.33v10.21A.32.32,0,0,0,390.93,111Z"/><path class="cls-1" d="M390.93,100.79h8.72v-.65h-8.4V87.66h-.65v12.8A.33.33,0,0,0,390.93,100.79Z"/><path class="cls-1" d="M423.79,100.14H415.4v.65h8.72a.32.32,0,0,0,.32-.33V87.66h-.65Z"/><path class="cls-1" d="M395.18,84.74h-6.74a.32.32,0,0,0-.33.32v2.28a.32.32,0,0,0,.33.32h38.17a.32.32,0,0,0,.32-.32V85.06a.32.32,0,0,0-.32-.32h-8.42v.12a.33.33,0,0,1-.33.33H397.18a.32.32,0,0,1-.32-.33v-.12h-1.68Zm31.1.65V87H388.76V85.39Z"/><path class="cls-1" d="M397.18,85.19h20.68a.33.33,0,0,0,.33-.33V81.62a10.67,10.67,0,1,0-21.33,0v3.24A.32.32,0,0,0,397.18,85.19Zm.33-3.57a10,10,0,1,1,20,0v2.92h-20Z"/><path class="cls-1" d="M400,106.71h15.1a.32.32,0,0,0,.33-.32V94h-.65v12H400.3V94h-.65v12.38A.32.32,0,0,0,400,106.71Z"/><path class="cls-1" d="M400.3,94h16a.33.33,0,0,0,.33-.33V91.82a.33.33,0,0,0-.33-.33H398.78a.32.32,0,0,0-.32.33v1.86a.32.32,0,0,0,.32.33h1.52Zm-1.19-1.87h16.83v1.22H399.11Z"/><path class="cls-1" d="M308.28,117.57a.32.32,0,0,1-.32-.32v14.18h.65V117.57Z"/><path class="cls-1" d="M319.51,117.57h-.32v13.86h.65V117.25A.32.32,0,0,1,319.51,117.57Z"/><path class="cls-1" d="M317.93,118.41h-8.06a.33.33,0,0,0-.33.33v12.69h.65V119.06h7.41v12.37h.65V118.74A.32.32,0,0,0,317.93,118.41Z"/><path class="cls-1" d="M308.28,117.57h11.23a.32.32,0,0,0,.33-.32v-1.43a.32.32,0,0,0-.33-.32H308.28a.32.32,0,0,0-.32.32v1.43A.32.32,0,0,0,308.28,117.57Zm.33-1.42h10.58v.77H308.61Z"/><rect class="cls-1" x="326.71" y="111.09" width="0.65" height="12.97"/><rect class="cls-1" x="300.43" y="111.09" width="0.65" height="12.97"/><path class="cls-1" d="M301.08,111.09h28a.32.32,0,0,0,.31-.24l.44-1.65a.35.35,0,0,0-.06-.28.33.33,0,0,0-.26-.13h-2.13V109a.32.32,0,0,1-.32.33H300.76a.33.33,0,0,1-.33-.33v-.23H298.3a.35.35,0,0,0-.26.13.31.31,0,0,0-.05.28l.44,1.65a.3.3,0,0,0,.31.24h2.34Zm28-1.65-.26,1H299l-.26-1Z"/><path class="cls-1" d="M350.92,152V133.89a.33.33,0,0,1-.33.33h-.33v17.42H340v.06a.32.32,0,0,1-.32.32H288a.32.32,0,0,1-.32-.32v-.06H277.53V134.22h-.1v17.55a.32.32,0,0,1-.32.32h-.2a.32.32,0,0,0,.3.2h73.38A.33.33,0,0,0,350.92,152Z"/><rect class="cls-1" x="329.4" y="132.08" width="0.16" height="1.49"/><path class="cls-1" d="M329.55,136.56a.33.33,0,0,1-.15.27v2a.31.31,0,0,1,.15.26.3.3,0,0,1-.15.26v2a.31.31,0,0,1,.15.26.3.3,0,0,1-.15.26v2a.3.3,0,0,1,0,.52v2a.3.3,0,0,1,0,.52v2a.3.3,0,0,1,.15.26.31.31,0,0,1-.15.26v1.75h.16V134.22h-.16v2.08A.31.31,0,0,1,329.55,136.56Z"/><path class="cls-1" d="M328.75,151.7v-.33H298.89v.33a.32.32,0,0,1-.33.32h30.52A.32.32,0,0,1,328.75,151.7Z"/><rect class="cls-1" x="287.69" y="132.08" width="0.65" height="1.49"/><path class="cls-1" d="M287.69,151.7a.32.32,0,0,0,.32.32h10.55a.32.32,0,0,0,.33-.32v-2h-.32a.32.32,0,0,1-.33-.32.33.33,0,0,1,.33-.33h.32v-1.9h-.32a.33.33,0,1,1,0-.66h.32v-1.9h-.32a.33.33,0,1,1,0-.66h.32V142h-.32a.33.33,0,0,1-.33-.33.32.32,0,0,1,.33-.32h.32v-1.91h-.32a.33.33,0,0,1-.33-.33.32.32,0,0,1,.33-.32h.32v-1.91h-.32a.33.33,0,0,1-.33-.33.32.32,0,0,1,.33-.32h.32v-2h-.65v17.15h-9.9V134.22h-.65V151.7Z"/><rect class="cls-1" x="298.24" y="132.08" width="0.65" height="1.49"/><polygon class="cls-1" points="329.4 133.57 329.4 132.08 328.91 132.08 328.75 132.08 328.75 133.57 329.4 133.57"/><path class="cls-1" d="M329.22,136.24a.28.28,0,0,1,.18.06v-2.08h-.65v2Z"/><rect class="cls-1" x="339.3" y="132.08" width="0.65" height="1.49"/><path class="cls-1" d="M329.56,151.37h-.16v-1.75a.28.28,0,0,1-.18.06h-.47v2a.32.32,0,0,0,.33.32h10.55a.32.32,0,0,0,.32-.32V134.22h-.65v17.15Z"/><path class="cls-1" d="M328.75,139.45v1.91h.47a.28.28,0,0,1,.18.06v-2a.29.29,0,0,1-.18.07Z"/><path class="cls-1" d="M328.75,142v1.9h.47a.29.29,0,0,1,.18.07v-2a.29.29,0,0,1-.18.07Z"/><path class="cls-1" d="M328.75,144.57v1.9h.47a.29.29,0,0,1,.18.07v-2a.29.29,0,0,1-.18.07Z"/><path class="cls-1" d="M328.75,136.89v1.91h.47a.28.28,0,0,1,.18.06v-2a.35.35,0,0,1-.18.06Z"/><path class="cls-1" d="M328.75,147.13V149h.47a.29.29,0,0,1,.18.07v-2a.29.29,0,0,1-.18.07Z"/><path class="cls-1" d="M277.43,134.22h73.16a.33.33,0,0,0,.33-.33v-2.14a.32.32,0,0,0-.33-.32H346v.29a.32.32,0,0,1-.32.32H323.25a.32.32,0,0,1-.33-.32v-.29H304.87v.29a.32.32,0,0,1-.32.32H282.09a.32.32,0,0,1-.33-.32v-.29h-4.33Zm10.26-2.14h62.57v1.49H277.53v-1.49Z"/><path class="cls-1" d="M329.22,136.89a.35.35,0,0,0,.18-.06.33.33,0,0,0,.15-.27.31.31,0,0,0-.15-.26.28.28,0,0,0-.18-.06H298.57a.32.32,0,0,0-.33.32.33.33,0,0,0,.33.33h30.65Z"/><path class="cls-1" d="M329.22,139.45a.29.29,0,0,0,.18-.07.3.3,0,0,0,.15-.26.31.31,0,0,0-.15-.26.28.28,0,0,0-.18-.06H298.57a.32.32,0,0,0-.33.32.33.33,0,0,0,.33.33h30.65Z"/><path class="cls-1" d="M329.22,142a.29.29,0,0,0,.18-.07.3.3,0,0,0,.15-.26.31.31,0,0,0-.15-.26.28.28,0,0,0-.18-.06H298.57a.32.32,0,0,0-.33.32.33.33,0,0,0,.33.33h30.65Z"/><path class="cls-1" d="M329.22,144.57a.29.29,0,0,0,.18-.07.3.3,0,0,0,0-.52.29.29,0,0,0-.18-.07H298.57a.33.33,0,1,0,0,.66h30.65Z"/><path class="cls-1" d="M329.22,147.13a.29.29,0,0,0,.18-.07.3.3,0,0,0,0-.52.29.29,0,0,0-.18-.07H298.57a.33.33,0,1,0,0,.66h30.65Z"/><path class="cls-1" d="M329.22,149.68a.28.28,0,0,0,.18-.06.31.31,0,0,0,.15-.26.3.3,0,0,0-.15-.26.29.29,0,0,0-.18-.07H298.57a.33.33,0,0,0-.33.33.32.32,0,0,0,.33.32h30.65Z"/><path class="cls-1" d="M326.71,88.36V108.7h-4.52V109a.33.33,0,0,1-.33.33H327a.32.32,0,0,0,.32-.33V88.36Z"/><path class="cls-1" d="M300.76,109.35H306a.32.32,0,0,1-.32-.33v-.32h-4.58V88.36h-.65V109A.33.33,0,0,0,300.76,109.35Z"/><path class="cls-1" d="M321.54,109v-.32H306.31V109a.33.33,0,0,1-.33.33h15.88A.32.32,0,0,1,321.54,109Z"/><path class="cls-1" d="M309.36,102.47h9.07a.32.32,0,0,0,.33-.32V94.91a.33.33,0,0,0-.33-.33h-9.07a.32.32,0,0,0-.32.33v7.24A.32.32,0,0,0,309.36,102.47Zm.33-7.24h8.42v6.59h-8.42Z"/><rect class="cls-1" x="301.08" y="86.06" width="4.57" height="0.01"/><rect class="cls-1" x="306.31" y="86.06" width="15.23" height="0.01"/><rect class="cls-1" x="322.19" y="86.06" width="4.52" height="0.01"/><path class="cls-1" d="M327.36,86.39a.32.32,0,0,1-.28.32h2l-.26,1H322.9a.33.33,0,0,1,.33.33v.32h5.83a.33.33,0,0,0,.31-.24l.44-1.65a.35.35,0,0,0-.06-.28.33.33,0,0,0-.26-.13h-2.13Z"/><path class="cls-1" d="M305.27,88v.32h17.31V88a.32.32,0,0,1,.32-.33h-18A.33.33,0,0,1,305.27,88Z"/><path class="cls-1" d="M301.08,88.36h3.54V88a.32.32,0,0,1,.32-.33H299l-.26-1h2a.32.32,0,0,1-.29-.32v-.33H298.3a.35.35,0,0,0-.26.13.31.31,0,0,0-.05.28l.44,1.65a.31.31,0,0,0,.31.24h2.34Z"/><path class="cls-1" d="M306.31,109v-4.73a.34.34,0,0,0-.1-.23l-.94-.94V88a.33.33,0,0,0-.33-.33.32.32,0,0,0-.32.33v15.22a.33.33,0,0,0,.09.23l1,.94V109a.32.32,0,0,0,.32.33A.33.33,0,0,0,306.31,109Z"/><path class="cls-1" d="M322.19,109v-4.59l.94-.94a.34.34,0,0,0,.1-.23V88a.33.33,0,0,0-.33-.33.32.32,0,0,0-.32.33v15.08l-.95.94a.33.33,0,0,0-.09.23V109a.32.32,0,0,0,.32.33A.33.33,0,0,0,322.19,109Z"/><path class="cls-1" d="M321.54,86.39v-.32H306.31v.32a.33.33,0,0,1-.33.33h15.88A.32.32,0,0,1,321.54,86.39Z"/><path class="cls-1" d="M326.71,65.73V86.06h-4.52v.32a.33.33,0,0,1-.33.33h5.22a.32.32,0,0,0,.28-.32V65.73Z"/><path class="cls-1" d="M300.43,86.39a.32.32,0,0,0,.29.32H306a.32.32,0,0,1-.32-.33v-.32h-4.58V65.73h-.65V86.39Z"/><path class="cls-1" d="M318.43,72h-9.07a.32.32,0,0,0-.32.33v7.24a.32.32,0,0,0,.32.33h9.07a.33.33,0,0,0,.33-.33V72.28A.33.33,0,0,0,318.43,72Zm-.32,7.25h-8.42V72.61h8.42Z"/><rect class="cls-1" x="321.05" y="63.43" width="5.66"/><path class="cls-1" d="M327.36,63.76a.32.32,0,0,1-.32.32h2l-.26,1H322.9a.33.33,0,0,1,.33.33v.32h5.83a.33.33,0,0,0,.31-.24l.44-1.65a.35.35,0,0,0-.06-.28.33.33,0,0,0-.26-.13h-2.13Z"/><rect class="cls-1" x="301.08" y="63.43" width="5.66"/><path class="cls-1" d="M305.27,65.41v.32h17.31v-.32a.32.32,0,0,1,.32-.33h-18A.33.33,0,0,1,305.27,65.41Z"/><path class="cls-1" d="M301.08,65.73h3.54v-.32a.32.32,0,0,1,.32-.33H299l-.26-1h2a.32.32,0,0,1-.33-.32v-.33H298.3a.35.35,0,0,0-.26.13.31.31,0,0,0-.05.28l.44,1.65a.31.31,0,0,0,.31.24h2.34Z"/><path class="cls-1" d="M306.31,86.39v-.32h0v-4.4a.37.37,0,0,0-.1-.23l-.94-.94V65.41a.33.33,0,0,0-.33-.33.32.32,0,0,0-.32.33V80.63a.33.33,0,0,0,.09.23l1,.94v4.26h0v.32a.32.32,0,0,0,.32.33A.33.33,0,0,0,306.31,86.39Z"/><path class="cls-1" d="M322.58,65.41V80.49l-.95.94a.35.35,0,0,0-.09.23v4.4h0v.32a.32.32,0,0,0,.32.33.33.33,0,0,0,.33-.33v-.32h0V81.8l.94-.94a.34.34,0,0,0,.1-.23V65.41a.33.33,0,0,0-.33-.33A.32.32,0,0,0,322.58,65.41Z"/><path class="cls-1" d="M282.09,132h22.46a.32.32,0,0,0,.32-.32v-5.35a.32.32,0,0,1-.32.32h-.33v4.7H282.41v-4.7h-.32a.32.32,0,0,1-.33-.32v5.35A.32.32,0,0,0,282.09,132Z"/><path class="cls-1" d="M282.09,126.69h22.46a.32.32,0,0,0,.32-.32v-2a.32.32,0,0,0-.32-.32h-7.82v.3a.32.32,0,0,1-.33.32h-4.12a.32.32,0,0,1-.32-.32v-.3h-9.87a.32.32,0,0,0-.33.32v2A.32.32,0,0,0,282.09,126.69Zm22.13-2V126H282.41v-1.32Z"/><path class="cls-1" d="M292.28,124.69h4.12a.32.32,0,0,0,.33-.32v-3a.33.33,0,0,1-.33.33h-.32V124h-3.47v-2.38h-.33a.32.32,0,0,1-.32-.33v3A.32.32,0,0,0,292.28,124.69Z"/><path class="cls-1" d="M292.28,119.1h.33v-.84a1.74,1.74,0,1,1,3.47,0v.84h.32a.33.33,0,0,1,.33.33v-1.17a2.39,2.39,0,1,0-4.77,0v1.17A.32.32,0,0,1,292.28,119.1Z"/><path class="cls-1" d="M292.28,121.66h4.12a.33.33,0,0,0,.33-.33v-1.9a.33.33,0,0,0-.33-.33h-4.12a.32.32,0,0,0-.32.33v1.9A.32.32,0,0,0,292.28,121.66Zm3.8-1.91V121h-3.47v-1.26Z"/><path class="cls-1" d="M345.71,126.69h-.33v4.7H323.57v-4.7h-.32a.32.32,0,0,1-.33-.32v5.35a.32.32,0,0,0,.33.32h22.46a.32.32,0,0,0,.32-.32v-5.35A.32.32,0,0,1,345.71,126.69Z"/><path class="cls-1" d="M326.71,124.07h-3.46a.32.32,0,0,0-.33.32v2a.32.32,0,0,0,.33.32h22.46a.32.32,0,0,0,.32-.32v-2a.32.32,0,0,0-.32-.32h-9.87v.3a.32.32,0,0,1-.32.32h-4.13a.32.32,0,0,1-.32-.32v-.3h-4.36Zm18.67.65V126H323.57v-1.32Z"/><path class="cls-1" d="M331.39,124.69h4.13a.32.32,0,0,0,.32-.32v-3a.32.32,0,0,1-.32.33h-.33V124h-3.47v-2.38h-.33a.32.32,0,0,1-.32-.33v3A.32.32,0,0,0,331.39,124.69Z"/><path class="cls-1" d="M331.39,119.1h.33v-.84a1.74,1.74,0,1,1,3.47,0v.84h.33a.32.32,0,0,1,.32.33v-1.17a2.39,2.39,0,1,0-4.77,0v1.17A.32.32,0,0,1,331.39,119.1Z"/><path class="cls-1" d="M331.39,121.66h4.13a.32.32,0,0,0,.32-.33v-1.9a.32.32,0,0,0-.32-.33h-4.13a.32.32,0,0,0-.32.33v1.9A.32.32,0,0,0,331.39,121.66Zm3.8-1.91V121h-3.47v-1.26Z"/><path class="cls-1" d="M300.43,63.76a.32.32,0,0,0,.33.32H327a.32.32,0,0,0,.32-.32V34.87h-.65v4.27H327a.32.32,0,0,1,.32.32.32.32,0,0,1-.32.33h-.32v8.8H327a.32.32,0,0,1,.32.32.32.32,0,0,1-.32.33h-.32V58H327a.32.32,0,0,1,.32.33.32.32,0,0,1-.32.32h-.32v4.75h-5.66v.18a.32.32,0,0,1-.32.33H307.07a.33.33,0,0,1-.33-.33v-.18h-5.66V58.68h-.32a.32.32,0,0,1-.32-.32.32.32,0,0,1,.32-.33h.32V49.24h-.32a.32.32,0,0,1-.32-.33.32.32,0,0,1,.32-.32h.32v-8.8h-.32a.32.32,0,0,1-.32-.33.32.32,0,0,1,.32-.32h.32V34.87h-.65V63.76Z"/><path class="cls-1" d="M321.05,58.68h-.33a.32.32,0,0,1-.32-.26v4.87h-13v-4.9a.32.32,0,0,1-.32.29h-.33v4.75h0v.18a.33.33,0,0,0,.33.33h13.66a.32.32,0,0,0,.32-.33v-.18h0Z"/><path class="cls-1" d="M307.07,39.14a.32.32,0,0,1,.32.3V34.87h-.65v4.27Z"/><path class="cls-1" d="M320.72,48.59h.33v-8.8h-.33a.32.32,0,0,1-.32-.26v9.32A.32.32,0,0,1,320.72,48.59Z"/><path class="cls-1" d="M320.72,58h.33V49.24h-.33a.33.33,0,0,1-.32-.27v9.32A.33.33,0,0,1,320.72,58Z"/><path class="cls-1" d="M320.72,39.14h.33V34.87h-.65V39.4A.32.32,0,0,1,320.72,39.14Z"/><path class="cls-1" d="M307.07,39.79h-.33v8.8h.33a.32.32,0,0,1,.32.29V39.49A.32.32,0,0,1,307.07,39.79Z"/><path class="cls-1" d="M307.07,49.24h-.33V58h.33a.32.32,0,0,1,.32.3V48.94A.33.33,0,0,1,307.07,49.24Z"/><path class="cls-1" d="M311,55.55h5.78a.32.32,0,0,0,.32-.32V42.93a.32.32,0,0,0-.32-.32H311a.32.32,0,0,0-.33.32v12.3A.32.32,0,0,0,311,55.55Zm.32-12.29h5.13V54.9h-5.13Z"/><path class="cls-1" d="M307.07,39.79a.32.32,0,0,0,.32-.3,0,0,0,0,0,0,0v0a.32.32,0,0,0-.32-.3h-6.31a.32.32,0,0,0-.32.32.32.32,0,0,0,.32.33h6.31Z"/><path class="cls-1" d="M307.07,49.24a.33.33,0,0,0,.32-.3,0,0,0,0,0,0-.06.32.32,0,0,0-.32-.29h-6.31a.32.32,0,0,0-.32.32.32.32,0,0,0,.32.33h6.31Z"/><path class="cls-1" d="M307.07,58.68a.32.32,0,0,0,.32-.29.05.05,0,0,0,0-.06.32.32,0,0,0-.32-.3h-6.31a.32.32,0,0,0-.32.33.32.32,0,0,0,.32.32h6.31Z"/><path class="cls-1" d="M320.72,39.14a.32.32,0,0,0-.32.26s0,0,0,.06,0,0,0,.07a.32.32,0,0,0,.32.26H327a.32.32,0,0,0,.32-.33.32.32,0,0,0-.32-.32h-6.31Z"/><path class="cls-1" d="M320.72,48.59a.32.32,0,0,0-.32.26s0,0,0,.06,0,0,0,.06a.33.33,0,0,0,.32.27H327a.32.32,0,0,0,.32-.33.32.32,0,0,0-.32-.32h-6.31Z"/><path class="cls-1" d="M320.72,58a.33.33,0,0,0-.32.26s0,.05,0,.07,0,0,0,.06a.32.32,0,0,0,.32.26H327a.32.32,0,0,0,.32-.32A.32.32,0,0,0,327,58h-6.31Z"/><path class="cls-1" d="M301.08,34.87h27.3a.32.32,0,0,0,.33-.32V30.39h-.65v3.83H299.74V30.39h-.65v4.16a.32.32,0,0,0,.32.32h1.67Z"/><path class="cls-1" d="M299.74,30.39h30.35a.32.32,0,0,0,.32-.33V27.51a.32.32,0,0,0-.32-.33h-.32v.32a.32.32,0,0,1-.33.32.32.32,0,0,1-.32-.32v-.32h-2.24v.33a.32.32,0,0,1-.32.33h3.2v1.9H298v-1.9h3.21a.33.33,0,0,1-.33-.33v-.33h-2.3v.32a.32.32,0,0,1-.33.32.32.32,0,0,1-.32-.32v-.32h-.25a.33.33,0,0,0-.33.33v2.55a.33.33,0,0,0,.33.33h2Z"/><path class="cls-1" d="M326.23,13.57V27.18h-3v.33a.33.33,0,0,1-.33.33h3.7a.32.32,0,0,0,.32-.33V13.57Z"/><path class="cls-1" d="M304.61,27.51v-.33h-3.05V13.57h-.65V27.51a.33.33,0,0,0,.33.33h3.69A.32.32,0,0,1,304.61,27.51Z"/><path class="cls-1" d="M298.28,12.92a.32.32,0,0,1,.33.32v.33h6v-.33a.32.32,0,0,1,.32-.32h-6.32V10h2.3a.32.32,0,0,1-.33-.32V9.35h-2.3a.32.32,0,0,0-.32.33v3.56A.32.32,0,0,1,298.28,12.92Z"/><path class="cls-1" d="M327.21,9.68a.32.32,0,0,1-.32.32h2.3v2.92h-6.33a.32.32,0,0,1,.33.32v.33h5.93v-.33a.32.32,0,0,1,.32-.32.32.32,0,0,1,.33.32v.19a.29.29,0,0,0,.07-.19V9.68a.33.33,0,0,0-.33-.33h-2.3Z"/><path class="cls-1" d="M300.58,9.68a.32.32,0,0,0,.33.32h26a.32.32,0,0,0,.32-.32V4.62a.32.32,0,0,0-.32-.33H319v.33a.32.32,0,0,1-.33.32h7.86V9.35H301.24V4.94h7.85a.32.32,0,0,1-.32-.32V4.29h-7.86a.33.33,0,0,0-.33.33V9.68Z"/><path class="cls-1" d="M309.09,4.94h9.61a.32.32,0,0,0,.33-.32V.33A.33.33,0,0,0,318.7,0h-9.61a.32.32,0,0,0-.32.33V4.62A.32.32,0,0,0,309.09,4.94Zm.33-.65V.65h9V4.29Z"/><path class="cls-1" d="M304.61,27.51a.32.32,0,0,0,.32.33h17.93a.33.33,0,0,0,.33-.33V13.24a.32.32,0,0,0-.33-.32H304.93a.32.32,0,0,0-.32.32V27.51Zm17.93-13.94V27.18H305.26V13.57Z"/><path class="cls-1" d="M298.28,27.82a.32.32,0,0,0,.33-.32V13.24a.32.32,0,0,0-.33-.32.32.32,0,0,0-.32.32V27.5A.32.32,0,0,0,298.28,27.82Z"/><path class="cls-1" d="M329.44,12.92a.32.32,0,0,0-.32.32V27.5a.32.32,0,0,0,.32.32.32.32,0,0,0,.33-.32V13.24A.32.32,0,0,0,329.44,12.92Z"/><path class="cls-1" d="M187.06,151.77v-.18H161v.25a.32.32,0,0,1-.32.33.33.33,0,0,1-.33-.33v-.25H88.09v.25a.32.32,0,0,1-.32.33.33.33,0,0,1-.33-.33v-.25H59.57v-5.42H87.44V146H59.18v5.39a.31.31,0,0,1-.26.31v.52H189.64v-.15h-2.25A.32.32,0,0,1,187.06,151.77Z"/><rect class="cls-1" x="88.09" y="146.02" width="72.28" height="0.14"/><rect class="cls-1" x="161.02" y="146.02" width="26.04" height="0.14"/><path class="cls-1" d="M184.6,140h2.46v-.65h-2.13v.32A.33.33,0,0,1,184.6,140Z"/><path class="cls-1" d="M144.88,139.3h-2.44v.6H137v0h12.33a.3.3,0,0,1-.16,0h-4.28Z"/><polygon class="cls-1" points="116.93 139.9 116.93 139.95 131.53 139.95 131.53 139.9 116.93 139.9"/><path class="cls-1" d="M111.48,139.9H106v-.6h-2.44v.6H99.3a.3.3,0,0,1-.16,0h12.33Z"/><path class="cls-1" d="M59.18,146H87.44v-.28a.32.32,0,0,1,.33-.32.32.32,0,0,1,.32.32V146h72.28v-.28a.32.32,0,0,1,.33-.32.32.32,0,0,1,.32.32V146h26v-.65h-48.4v.6h-8.8v-.6H118.6v.6h-8.79v-.6H59.57V140h4.29a.33.33,0,0,1-.33-.33v-.32H59.18Z"/><path class="cls-1" d="M142,84.49v.24a.3.3,0,0,0,.1-.24,15.34,15.34,0,0,0-15.32-15.32h-.1A15.34,15.34,0,0,1,142,84.49Z"/><path class="cls-1" d="M127.32,63.77a3.14,3.14,0,0,1-2.71,3.09h0a3.13,3.13,0,0,0-.33-6.24h0A3.14,3.14,0,0,1,127.32,63.77Z"/><path class="cls-1" d="M124.51,66.87v2.3h.1v-2.3h-.1Z"/><rect class="cls-1" x="106.67" y="102.01" width="0.1" height="37.23"/><polygon class="cls-1" points="142.34 139.9 142.44 139.9 142.44 139.3 142.44 102.02 142.34 102.02 142.34 139.9"/><path class="cls-1" d="M117,142.49v.12a.29.29,0,0,1-.09.23.33.33,0,0,1-.23.1H116a2,2,0,0,1,2,2v.4h-7.49v-.4a2,2,0,0,1,2-2h-.69a.33.33,0,0,1-.23-.1.34.34,0,0,1-.1-.23v-.12a2.64,2.64,0,0,0-1.63,2.43V146h8.79v-1.05A2.63,2.63,0,0,0,117,142.49Z"/><path class="cls-1" d="M116.47,113.4a.32.32,0,0,1-.31.23h-.3l.23,14.32h.38v.65h-.37l.17,10.65h.65l-.41-26Z"/><path class="cls-1" d="M115.86,113h0l.06-.22A.33.33,0,0,0,115.86,113Z"/><path class="cls-1" d="M116.28,139.9l0,2.39h-4.23l0-2.39h-.65v0l0,2.54v.12a.34.34,0,0,0,.1.23.33.33,0,0,0,.23.1h4.89a.33.33,0,0,0,.23-.1.29.29,0,0,0,.09-.23v-.12l0-2.54v0Z"/><path class="cls-1" d="M112,128.6V128h.32l.22-14.32h-.33a.33.33,0,0,1-.31-.23v0l-.39,25.89h.65l.16-10.65Z"/><polygon class="cls-1" points="111.99 127.95 111.99 128.6 112.3 128.6 116.1 128.6 116.47 128.6 116.47 127.95 116.09 127.95 112.31 127.95 111.99 127.95"/><path class="cls-1" d="M109.88,106.13a.36.36,0,0,0,0,.23l2,7v0a.33.33,0,0,0,.31.23h4a.32.32,0,0,0,.31-.23l0-.14,2-6.9a.36.36,0,0,0,0-.23l-.46-1,2.24-3.14h-.8l-2,2.78h.17v.65h-.21l.39.85L116,112.77l-.06.22h-3.46l-.1-.33-1.82-6.36.39-.85h-.21v-.65h.17l-2-2.78h-.8l2.24,3.14Z"/><polygon class="cls-1" points="110.71 104.79 110.71 105.44 110.92 105.44 117.44 105.44 117.65 105.44 117.65 104.79 117.48 104.79 110.88 104.79 110.71 104.79"/><path class="cls-1" d="M103.58,139.3v0a2.62,2.62,0,0,0-1.41-2.32.28.28,0,0,1-.09.23.29.29,0,0,1-.23.1h-.91a2,2,0,0,1,2,2H96.55a2,2,0,0,1,2-2h-.91a.3.3,0,0,1-.23-.1.32.32,0,0,1-.09-.23,2.64,2.64,0,0,0-1.41,2.32v0h3.24a.32.32,0,0,1,.33.32.33.33,0,0,1-.17.28h4.28Z"/><path class="cls-1" d="M101.13,111.36h.05l0-.17A.37.37,0,0,0,101.13,111.36Z"/><path class="cls-1" d="M101.77,111.65l0,.12a.32.32,0,0,1-.32.23h-.29l.19,12.26h.37v.65h-.36l.19,11.72H98l.18-11.72h-.31v-.65h.32L98.34,112H98a.32.32,0,0,1-.32-.23v0l0,1.2h.22a.32.32,0,0,1,.32.33.32.32,0,0,1-.32.32h-.23l0,1.52h.25a.32.32,0,0,1,.32.33.32.32,0,0,1-.32.32h-.26l0,1.52h.28a.32.32,0,0,1,.32.33.32.32,0,0,1-.32.32H97.6l-.29,19h0a.32.32,0,0,0,.09.23.3.3,0,0,0,.23.1h4.22a.29.29,0,0,0,.23-.1.28.28,0,0,0,.09-.23h0Z"/><polygon class="cls-1" points="97.83 124.26 97.83 124.91 98.14 124.91 101.33 124.91 101.69 124.91 101.69 124.26 101.32 124.26 98.15 124.26 97.83 124.26"/><path class="cls-1" d="M98,112h3.4a.32.32,0,0,0,.32-.23l0-.12,1.71-6a.36.36,0,0,0,0-.23l-.38-.82L105,102h-.8l-1.62,2.28h.16v.65h-.21l.32.7-1.59,5.55,0,.17H98.26l-.07-.23-1.57-5.48.32-.7h-.21v-.65h.16L95.27,102h-.8l1.88,2.64-.38.82a.36.36,0,0,0,0,.23l1.73,6v0A.32.32,0,0,0,98,112Z"/><polygon class="cls-1" points="96.73 104.29 96.73 104.94 96.94 104.94 102.5 104.94 102.71 104.94 102.71 104.29 102.55 104.29 96.89 104.29 96.73 104.29"/><path class="cls-1" d="M105.81,95.62a.32.32,0,0,1-.33.32h1.33a.32.32,0,0,1-.32-.32v-.33h-1A.33.33,0,0,1,105.81,95.62Z"/><path class="cls-1" d="M101.9,98.7v2.66h.47a.33.33,0,0,1,.33.33.32.32,0,0,1-.33.32H106v-.65h-3.47V98.84l2.9-2.9h-.92L102,98.47A.33.33,0,0,0,101.9,98.7Z"/><path class="cls-1" d="M121.14,95.62a.32.32,0,0,1,.32-.33H109.79v.33a.32.32,0,0,1-.33.32h12A.32.32,0,0,1,121.14,95.62Z"/><path class="cls-1" d="M109.13,95.62v-.33h-2v.33a.32.32,0,0,1-.33.32h2.65A.32.32,0,0,1,109.13,95.62Z"/><path class="cls-1" d="M94.89,95.39,91.8,98.47a.32.32,0,0,0-.09.23v3A.32.32,0,0,0,92,102h10.34a.32.32,0,0,0,.33-.32.33.33,0,0,0-.33-.33h-10V98.84l2.89-2.9h3.89a.32.32,0,0,1-.32-.32v-.33h-3.7A.33.33,0,0,0,94.89,95.39Z"/><path class="cls-1" d="M99.47,95.62a.32.32,0,0,1-.33.32h6.34a.32.32,0,0,0,.33-.32.33.33,0,0,0-.33-.33h-6Z"/><path class="cls-1" d="M99,91.65h-.15v4a.32.32,0,0,0,.32.32.32.32,0,0,0,.33-.32V91.18a.32.32,0,0,0-.19-.29c0,.14,0,.29,0,.44A.32.32,0,0,1,99,91.65Z"/><path class="cls-1" d="M98.63,90.86H64.18s0,.09,0,.14H98.64S98.63,90.91,98.63,90.86Z"/><path class="cls-1" d="M63.86,140H99.14a.3.3,0,0,0,.16,0,.33.33,0,0,0,.17-.28.32.32,0,0,0-.33-.32h-35V117.92h-.27a.32.32,0,0,1-.33-.32.33.33,0,0,1,.33-.33h.27v-1.52h-.27a.32.32,0,0,1-.33-.32.33.33,0,0,1,.33-.33h.27v-1.52h-.27a.32.32,0,0,1-.33-.32.33.33,0,0,1,.33-.33h.27V91.65h-.34a.33.33,0,0,1-.31-.2v48.17A.33.33,0,0,0,63.86,140Z"/><path class="cls-1" d="M97.89,117.92a.32.32,0,0,0,.32-.32.32.32,0,0,0-.32-.33h-34a.33.33,0,0,0-.33.33.32.32,0,0,0,.33.32h34Z"/><path class="cls-1" d="M97.89,115.75a.32.32,0,0,0,.32-.32.32.32,0,0,0-.32-.33h-34a.33.33,0,0,0-.33.33.32.32,0,0,0,.33.32h34Z"/><path class="cls-1" d="M97.89,113.58a.32.32,0,0,0,.32-.32.32.32,0,0,0-.32-.33H81.37v.3a.33.33,0,0,1-.33.33.32.32,0,0,1-.32-.33v-.3H63.91a.33.33,0,0,0-.33.33.32.32,0,0,0,.33.32h34Z"/><path class="cls-1" d="M91.24,123.1H72a.33.33,0,0,0-.33.33v4.19A.33.33,0,0,0,72,128H91.24a.32.32,0,0,0,.32-.33v-4.19A.32.32,0,0,0,91.24,123.1Zm-.33,4.2H72.33v-3.55H90.91Z"/><path class="cls-1" d="M63.84,91.65H80.72v-.32A.32.32,0,0,1,81,91H64.16s0-.09,0-.14a10.41,10.41,0,0,1,.12-1.38h-.2a.32.32,0,0,1-.32-.32.32.32,0,0,1,.32-.33h.31A13.35,13.35,0,0,1,77.5,78h7.81A13.35,13.35,0,0,1,98.4,88.83h.36a.32.32,0,0,1,.32.33.32.32,0,0,1-.32.32h-.25a10.41,10.41,0,0,1,.12,1.38s0,.09,0,.14H81a.33.33,0,0,1,.33.33v.32H99a.32.32,0,0,0,.33-.32c0-.15,0-.3,0-.44a14,14,0,0,0-14-13.55H81.62v.18a.32.32,0,0,1-.32.32.32.32,0,0,1-.33-.32v-.18H77.5a14,14,0,0,0-14,14,.5.5,0,0,0,0,.12A.33.33,0,0,0,63.84,91.65Z"/><path class="cls-1" d="M81.3,75.33a.32.32,0,0,1,.32.33v.28a2.72,2.72,0,1,0-.65,0v-.26A.33.33,0,0,1,81.3,75.33Zm.07,0a2.06,2.06,0,1,1,2.06-2.06A2.06,2.06,0,0,1,81.37,75.31Z"/><path class="cls-1" d="M81.3,77.84a.32.32,0,0,0,.32-.32V75.66a.32.32,0,0,0-.32-.33.33.33,0,0,0-.33.33v1.86A.32.32,0,0,0,81.3,77.84Z"/><path class="cls-1" d="M98.76,89.48a.32.32,0,0,0,.32-.32.32.32,0,0,0-.32-.33H64.1a.32.32,0,0,0-.32.33.32.32,0,0,0,.32.32H98.76Z"/><path class="cls-1" d="M109.79,95.62V94.11h-.43a.36.36,0,0,1-.23-.09v1.6a.33.33,0,0,0,.66,0Z"/><path class="cls-1" d="M139.33,94a.33.33,0,0,0,.1-.24,13,13,0,0,0-3.59-9h-.1a13,13,0,0,1,3.59,9Z"/><path class="cls-1" d="M87.44,151.59v.25a.33.33,0,0,0,.33.33.32.32,0,0,0,.32-.33v-6.1a.32.32,0,0,0-.32-.32.32.32,0,0,0-.33.32v5.85Z"/><path class="cls-1" d="M80.72,113.23a.32.32,0,0,0,.32.33.33.33,0,0,0,.33-.33V91.33A.33.33,0,0,0,81,91a.32.32,0,0,0-.32.33v21.9Z"/><path class="cls-1" d="M106.49,95.62a.32.32,0,0,0,.32.32.32.32,0,0,0,.33-.32V84.82h-.43a.36.36,0,0,1-.22-.09V95.62Z"/><path class="cls-1" d="M106.81,84.82h5.82c.21-.23.43-.44.66-.65H107a14.7,14.7,0,0,1,14.67-14.35h4.94a14.69,14.69,0,0,1,14.67,14.35h-6.25c.23.21.45.42.67.65h5.58v-.33a.32.32,0,0,1,.33-.32.32.32,0,0,1,.32.32,15.34,15.34,0,0,0-15.32-15.32h-2.14v.16a.32.32,0,0,1-.33.32.32.32,0,0,1-.32-.32v-.16h-2.15a15.34,15.34,0,0,0-15.32,15.32.33.33,0,0,0,.1.24.36.36,0,0,0,.22.09Z"/><path class="cls-1" d="M123.86,66.6a.32.32,0,0,1,.32-.33.33.33,0,0,1,.33.33v.27h.1a3.13,3.13,0,0,0-.38-6.23h0a3.13,3.13,0,0,0-.32,6.24Zm-2.17-2.83a2.49,2.49,0,1,1,2.49,2.48A2.5,2.5,0,0,1,121.69,63.77Z"/><path class="cls-1" d="M124.18,69.65a.32.32,0,0,0,.33-.32V66.6a.33.33,0,0,0-.33-.33.32.32,0,0,0-.32.33v2.73A.32.32,0,0,0,124.18,69.65Z"/><path class="cls-1" d="M112.13,139.9h19.4v-.65H106.67V102H128.2l-.06-.08a.33.33,0,1,1,.53-.38l.33.46h10.56l.34-.46a.32.32,0,0,1,.45-.08.33.33,0,0,1,.08.46l-.07.08h1.33v37.24H137v.65h5.35V102H142a.32.32,0,0,1-.33-.32.33.33,0,0,1,.33-.33H106V139.9h6.11Z"/><path class="cls-1" d="M137,142.49v.12a.33.33,0,0,1-.09.23.37.37,0,0,1-.24.1H136a2,2,0,0,1,2,2v.4h-7.5v-.4a2,2,0,0,1,2-2h-.69a.34.34,0,0,1-.23-.1.33.33,0,0,1-.09-.23v-.12a2.64,2.64,0,0,0-1.63,2.43V146h8.8v-1.05A2.65,2.65,0,0,0,137,142.49Z"/><path class="cls-1" d="M132.49,112.77l.06.22h0A.33.33,0,0,0,132.49,112.77Z"/><path class="cls-1" d="M137,139.25l-.4-25.89v0a.33.33,0,0,1-.31.23h-.32l.21,14.32h.33v.65h-.32l.21,13.69h-4.23l.22-13.69H132V128h.38l.23-14.32h-.29a.32.32,0,0,1-.32-.23l0-.14-.41,26v.7l0,2.54v.12a.33.33,0,0,0,.09.23.34.34,0,0,0,.23.1h4.89a.37.37,0,0,0,.24-.1.33.33,0,0,0,.09-.23v-.12l0-2.54v-.7Z"/><polygon class="cls-1" points="131.99 127.95 131.99 128.6 132.36 128.6 136.16 128.6 136.48 128.6 136.48 127.95 136.15 127.95 132.37 127.95 131.99 127.95"/><path class="cls-1" d="M138.58,106.13l-.45-1,2.23-3.14.07-.08a.33.33,0,0,0-.08-.46.32.32,0,0,0-.45.08l-.34.46-2,2.78h.16v.65h-.21l.4.85-1.83,6.36-.1.33h-3.46l-.06-.22-1.86-6.48.39-.85h-.21v-.65H131L129,102l-.33-.46a.33.33,0,1,0-.53.38l.06.08,2.24,3.14-.45,1a.3.3,0,0,0,0,.23l2,6.9,0,.14a.32.32,0,0,0,.32.23h3.95a.33.33,0,0,0,.31-.23v0l2-7A.36.36,0,0,0,138.58,106.13Z"/><polygon class="cls-1" points="130.81 104.79 130.81 105.44 131.02 105.44 137.54 105.44 137.75 105.44 137.75 104.79 137.59 104.79 130.98 104.79 130.81 104.79"/><path class="cls-1" d="M151.16,137a.33.33,0,0,1-.1.23.29.29,0,0,1-.23.1h-.91a2,2,0,0,1,2,2h-6.38a2,2,0,0,1,2-2h-.91a.3.3,0,0,1-.23-.1.32.32,0,0,1-.09-.23,2.64,2.64,0,0,0-1.41,2.32v.63h4.28a.32.32,0,0,1-.16-.28.32.32,0,0,1,.32-.32h3.24v0A2.63,2.63,0,0,0,151.16,137Z"/><path class="cls-1" d="M150.45,112h-.33l.19,12.26h.32v.65h-.31l.18,11.72h-3.56l.19-11.72h-.36v-.65h.37l.2-12.26H147a.31.31,0,0,1-.31-.23l0-.12-.4,25.3h0a.32.32,0,0,0,.09.23.3.3,0,0,0,.23.1h4.22a.29.29,0,0,0,.23-.1.33.33,0,0,0,.1-.23h0l-.3-19h-.29a.32.32,0,0,1-.32-.32.32.32,0,0,1,.32-.33h.28l0-1.52h-.26a.32.32,0,0,1-.32-.32.32.32,0,0,1,.32-.33h.25l0-1.52h-.23a.32.32,0,0,1-.32-.32.32.32,0,0,1,.32-.33h.22l0-1.2v0A.32.32,0,0,1,150.45,112Z"/><path class="cls-1" d="M147.24,111.19l0,.17h.05A.46.46,0,0,0,147.24,111.19Z"/><polygon class="cls-1" points="146.77 124.26 146.77 124.91 147.13 124.91 150.32 124.91 150.63 124.91 150.63 124.26 150.31 124.26 147.14 124.26 146.77 124.26"/><path class="cls-1" d="M145,105.47a.3.3,0,0,0,0,.23l1.71,6,0,.12a.31.31,0,0,0,.31.23h3.41a.32.32,0,0,0,.31-.23v0l1.74-6a.36.36,0,0,0,0-.23l-.38-.82L154,102h-.8l-1.62,2.28h.17v.65h-.21l.32.7-1.58,5.48-.07.23h-2.92l0-.17-1.6-5.55.32-.7h-.21v-.65h.17L144.29,102h-.8l1.89,2.64Z"/><polygon class="cls-1" points="145.75 104.29 145.75 104.94 145.96 104.94 151.53 104.94 151.74 104.94 151.74 104.29 151.57 104.29 145.92 104.29 145.75 104.29"/><path class="cls-1" d="M139.33,95.62a.32.32,0,0,1-.33.32h2.65a.32.32,0,0,1-.33-.32v-.33h-2Z"/><path class="cls-1" d="M138.68,95.62v-.33H121.46a.32.32,0,0,0-.32.33.32.32,0,0,0,.32.32H139A.32.32,0,0,1,138.68,95.62Z"/><path class="cls-1" d="M142,95.62a.32.32,0,0,1-.32.32H143a.32.32,0,0,1-.32-.32.32.32,0,0,1,.32-.33h-1Z"/><path class="cls-1" d="M145.91,101.36H142a.33.33,0,0,0-.33.33.32.32,0,0,0,.33.32h4.07a.32.32,0,0,1-.32-.32.32.32,0,0,1,.32-.33h.47V98.7a.32.32,0,0,0-.09-.23l-2.53-2.53H143l2.89,2.9Z"/><path class="cls-1" d="M156.1,98.84v2.52h-10a.32.32,0,0,0-.32.33.32.32,0,0,0,.32.32h10.34a.32.32,0,0,0,.33-.32v-3a.33.33,0,0,0-.1-.23l-3.08-3.08a.37.37,0,0,0-.23-.1h-3.7v.33a.32.32,0,0,1-.33.32h3.89Z"/><path class="cls-1" d="M142.66,95.62a.32.32,0,0,0,.32.32h6.34a.32.32,0,0,1-.32-.32v-.33h-6A.32.32,0,0,0,142.66,95.62Z"/><path class="cls-1" d="M184.63,91.65h-.35v21.28h.27a.33.33,0,0,1,.33.33.32.32,0,0,1-.33.32h-.27v1.52h.27a.33.33,0,0,1,.33.33.32.32,0,0,1-.33.32h-.27v1.52h.27a.33.33,0,0,1,.33.33.32.32,0,0,1-.33.32h-.27V139.3h-35a.32.32,0,0,0-.32.32.32.32,0,0,0,.16.28.3.3,0,0,0,.16,0H184.6a.33.33,0,0,0,.33-.33V91.45A.33.33,0,0,1,184.63,91.65Z"/><path class="cls-1" d="M184.29,90.86H149.83s0,.09,0,.14H184.3S184.29,90.91,184.29,90.86Z"/><path class="cls-1" d="M149,95.62a.32.32,0,0,0,.32.32.32.32,0,0,0,.33-.32v-4h-.16a.32.32,0,0,1-.33-.32c0-.15,0-.3,0-.44a.3.3,0,0,0-.19.29v4.44Z"/><path class="cls-1" d="M150.57,117.27a.32.32,0,0,0-.32.33.32.32,0,0,0,.32.32h34a.32.32,0,0,0,.33-.32.33.33,0,0,0-.33-.33h-34Z"/><path class="cls-1" d="M150.57,115.1a.32.32,0,0,0-.32.33.32.32,0,0,0,.32.32h34a.32.32,0,0,0,.33-.32.33.33,0,0,0-.33-.33h-34Z"/><path class="cls-1" d="M167.74,113.23a.32.32,0,0,1-.32.33.33.33,0,0,1-.33-.33v-.3H150.57a.32.32,0,0,0-.32.33.32.32,0,0,0,.32.32h34a.32.32,0,0,0,.33-.32.33.33,0,0,0-.33-.33H167.74Z"/><path class="cls-1" d="M157.23,128h19.23a.32.32,0,0,0,.32-.33v-4.19a.32.32,0,0,0-.32-.33H157.23a.33.33,0,0,0-.33.33v4.19A.33.33,0,0,0,157.23,128Zm.32-4.2h18.58v3.55H157.55Z"/><path class="cls-1" d="M149.49,91.65h17.6v-.32a.33.33,0,0,1,.33-.33h-17.6s0-.09,0-.14q0-.7.12-1.38h-.24a.32.32,0,0,1-.33-.32.33.33,0,0,1,.33-.33h.35A13.36,13.36,0,0,1,163.15,78H171a13.35,13.35,0,0,1,13.09,10.84h.31a.33.33,0,0,1,.33.33.32.32,0,0,1-.33.32h-.19q.09.67.12,1.38s0,.09,0,.14H167.42a.32.32,0,0,1,.32.33v.32h16.89a.33.33,0,0,0,.3-.2.5.5,0,0,0,0-.12,14,14,0,0,0-14-14h-3.47v.18a.32.32,0,0,1-.32.32.32.32,0,0,1-.33-.32v-.18h-3.69a14,14,0,0,0-14,13.55c0,.14,0,.29,0,.44A.32.32,0,0,0,149.49,91.65Z"/><path class="cls-1" d="M167.17,75.33a.32.32,0,0,1,.32.33v.26a2.7,2.7,0,1,0-.65,0v-.28A.33.33,0,0,1,167.17,75.33Zm-.08,0a2.06,2.06,0,1,1,2.06-2.06A2.06,2.06,0,0,1,167.09,75.31Z"/><path class="cls-1" d="M167.17,77.84a.32.32,0,0,0,.32-.32V75.66a.32.32,0,0,0-.32-.33.33.33,0,0,0-.33.33v1.86A.32.32,0,0,0,167.17,77.84Z"/><path class="cls-1" d="M184.36,89.48a.32.32,0,0,0,.33-.32.33.33,0,0,0-.33-.33H149.71a.33.33,0,0,0-.33.33.32.32,0,0,0,.33.32h34.65Z"/><path class="cls-1" d="M139.33,95.62V93.78a.33.33,0,0,1-.33.33h-.32v1.51a.32.32,0,0,0,.32.32A.32.32,0,0,0,139.33,95.62Z"/><path class="cls-1" d="M109.13,94a.36.36,0,0,0,.23.09H139a.33.33,0,0,0,.33-.33,13,13,0,0,0-3.59-9c-.22-.23-.44-.44-.67-.65a13,13,0,0,0-8.79-3.44h-1.77v.19a.32.32,0,0,1-.33.32.32.32,0,0,1-.32-.32v-.19h-1.78a13,13,0,0,0-8.79,3.44c-.23.21-.45.42-.66.65a13,13,0,0,0-3.6,9A.33.33,0,0,0,109.13,94Zm17.15-12.63a12.4,12.4,0,0,1,12.39,12.07h-29a12.41,12.41,0,0,1,12.39-12.07h4.2Z"/><path class="cls-1" d="M123.86,78.6a.32.32,0,0,1,.32-.32.32.32,0,0,1,.33.32v.28a2.72,2.72,0,1,0-.65,0Zm-1.74-2.4a2.06,2.06,0,1,1,2.06,2.06A2.06,2.06,0,0,1,122.12,76.2Z"/><path class="cls-1" d="M124.51,78.88V78.6a.32.32,0,0,0-.33-.32.32.32,0,0,0-.32.32v2.32a.32.32,0,0,0,.32.32.32.32,0,0,0,.33-.32v-2Z"/><path class="cls-1" d="M160.37,151.59v.25a.33.33,0,0,0,.33.33.32.32,0,0,0,.32-.33v-6.1a.32.32,0,0,0-.32-.32.32.32,0,0,0-.33.32v5.85Z"/><path class="cls-1" d="M167.09,113.23a.33.33,0,0,0,.33.33.32.32,0,0,0,.32-.33V91.33a.32.32,0,0,0-.32-.33.33.33,0,0,0-.33.33v21.9Z"/><path class="cls-1" d="M141.65,84.17a.32.32,0,0,0-.33.32V95.62a.32.32,0,0,0,.33.32.32.32,0,0,0,.32-.32V84.49A.32.32,0,0,0,141.65,84.17Z"/><path class="cls-1" d="M187.06,140v11.82a.32.32,0,0,0,.33.32h4.34a.32.32,0,0,1-.33-.32v-.33h-3.69V104.28h3.69v0a.33.33,0,0,1-.2-.31v-.32h-3.81a.33.33,0,0,0-.33.32v36Z"/><path class="cls-1" d="M273.3,104a.34.34,0,0,1-.21.31v0h3.69v47.16h-3.69v.33a.32.32,0,0,1-.32.32h4.34a.32.32,0,0,0,.32-.32V104a.32.32,0,0,0-.32-.32H273.3Z"/><path class="cls-1" d="M194.73,151.44h-2.68V104.28h-.53l-.12,0v47.51a.32.32,0,0,0,.33.32h3a.2.2,0,0,1,0-.11Z"/><path class="cls-1" d="M251.7,151.44h-6.85v.33a.32.32,0,0,1-.33.32h7.19a.36.36,0,0,1,0-.11Z"/><path class="cls-1" d="M273.09,151.77V104.26l-.11,0h-.54v47.16h-2.67V152a.36.36,0,0,1,0,.11h3A.32.32,0,0,0,273.09,151.77Z"/><path class="cls-1" d="M219.65,151.77v-.33H212.8V152a.36.36,0,0,1,0,.11H220A.32.32,0,0,1,219.65,151.77Z"/><path class="cls-1" d="M191.52,97.56h.33V95h-.65v2.85A.32.32,0,0,1,191.52,97.56Z"/><path class="cls-1" d="M272.65,95v2.53H273a.32.32,0,0,1,.32.32V95Z"/><rect class="cls-1" x="212.74" y="91.97" width="39.01" height="0.65"/><path class="cls-1" d="M269.71,92.62h4.71v1.75h-4.71V95h5a.32.32,0,0,0,.32-.33V92.29a.32.32,0,0,0-.32-.32h-5Z"/><path class="cls-1" d="M191.85,95h2.93v-.65h-4.71V92.62h4.71V92h-5a.32.32,0,0,0-.33.32V94.7a.33.33,0,0,0,.33.33h2.1Z"/><rect class="cls-1" x="212.74" y="94.37" width="39.01" height="0.65"/><rect class="cls-1" x="212.74" y="97.56" width="39.01" height="0.65"/><path class="cls-1" d="M273,97.56h-3.27v.65h2.94v5.42h-2.94v.65H273l.11,0a.34.34,0,0,0,.21-.31V97.88A.32.32,0,0,0,273,97.56Z"/><path class="cls-1" d="M191.2,104a.33.33,0,0,0,.2.31l.12,0h3.26v-.65h-2.93V98.21h2.93v-.65h-3.26a.32.32,0,0,0-.32.32V104Z"/><rect class="cls-1" x="244.85" y="103.63" width="6.9" height="0.65"/><rect class="cls-1" x="220.3" y="103.63" width="23.9" height="0.65"/><rect class="cls-1" x="212.74" y="103.63" width="6.9" height="0.65"/><path class="cls-1" d="M244.85,151.77V100.29a.32.32,0,0,0-.33-.32H220a.32.32,0,0,0-.32.32v51.48a.32.32,0,0,0,.32.32h3.27a.32.32,0,0,1-.33-.32v-.33H220.3V100.62h23.9v50.82h-2.61v.33a.32.32,0,0,1-.33.32h3.26A.32.32,0,0,0,244.85,151.77Z"/><path class="cls-1" d="M241.59,151.77V116.44a9.34,9.34,0,0,0-18.68,0v35.33a.32.32,0,0,0,.33.32h18A.32.32,0,0,0,241.59,151.77Zm-18-35.33a8.69,8.69,0,1,1,17.37,0v35H223.56Z"/><path class="cls-1" d="M198.35,152v-.32h-3l.95-39.12h-.66l-.93,38.9V152a.2.2,0,0,0,0,.11.24.24,0,0,0,.07.12.29.29,0,0,0,.23.1h3.63a.3.3,0,0,1-.23-.1A.32.32,0,0,1,198.35,152Z"/><path class="cls-1" d="M212.8,151.44l-.94-38.9h-.65l.94,39.12h-3V152a.33.33,0,0,1-.1.23.29.29,0,0,1-.23.1h3.63a.33.33,0,0,0,.24-.1.35.35,0,0,0,.07-.12.36.36,0,0,0,0-.11Z"/><path class="cls-1" d="M194.06,109.49h.32V107.7h-.32a.34.34,0,0,1-.31-.21l0-.06v2.39A.33.33,0,0,1,194.06,109.49Z"/><path class="cls-1" d="M213.47,109.49a.32.32,0,0,1,.32.33v-2.39l0,.06a.34.34,0,0,1-.3.21h-.33v1.79Z"/><path class="cls-1" d="M213.79,112.21v-2.39a.32.32,0,0,0-.32-.33H194.06a.33.33,0,0,0-.33.33v2.39a.33.33,0,0,0,.33.33h5.24v-.34a.31.31,0,0,1,.32-.31h-5.25v-1.75h18.76v1.75h-5.25a.33.33,0,0,1,.33.31v.34h5.24A.32.32,0,0,0,213.79,112.21Z"/><path class="cls-1" d="M192.83,104.69a.32.32,0,0,0,0,.3l.93,2.44,0,.06a.34.34,0,0,0,.31.21h19.41a.34.34,0,0,0,.3-.21l0-.06.94-2.44a.32.32,0,0,0,0-.3.32.32,0,0,0-.27-.14h-1.68v.29a.32.32,0,0,1-.32.32H195.11a.32.32,0,0,1-.33-.32v-.29H193.1A.32.32,0,0,0,192.83,104.69Zm21.12.51-.71,1.85h-19l-.71-1.85Z"/><path class="cls-1" d="M213.47,75.93h-.33v1.8h.33a.32.32,0,0,1,.32.32V75.67l0,0A.32.32,0,0,1,213.47,75.93Z"/><path class="cls-1" d="M194.06,77.73h.32v-1.8h-.32a.33.33,0,0,1-.31-.21l0,0v2.38A.32.32,0,0,1,194.06,77.73Z"/><path class="cls-1" d="M195.11,80.12h17.31a.32.32,0,0,1,.32.33v.32h.73a.32.32,0,0,0,.32-.33V78.05a.32.32,0,0,0-.32-.32H194.06a.32.32,0,0,0-.33.32v2.39a.33.33,0,0,0,.33.33h.72v-.32A.33.33,0,0,1,195.11,80.12Zm-.73-1.74h18.76v1.74H194.38Z"/><rect class="cls-1" x="197.07" y="72.78" width="13.39"/><path class="cls-1" d="M194.06,75.93h19.41a.32.32,0,0,0,.3-.21l0,0,.94-2.45a.32.32,0,0,0,0-.3.32.32,0,0,0-.27-.14h-3.31v.33a.33.33,0,0,1-.31.32H214l-.71,1.85h-19l-.71-1.85h3.15a.33.33,0,0,1-.31-.32v-.33H193.1a.32.32,0,0,0-.3.44l.93,2.45,0,0A.33.33,0,0,0,194.06,75.93Z"/><path class="cls-1" d="M211.81,47.47h-.32v1.71h.32a.32.32,0,0,1,.33.32V47.2l0,0A.32.32,0,0,1,211.81,47.47Z"/><path class="cls-1" d="M195.71,49.18H196V47.47h-.33a.33.33,0,0,1-.31-.22V49.5A.32.32,0,0,1,195.71,49.18Z"/><path class="cls-1" d="M196.74,51.51h14a.33.33,0,0,1,.33.33v.3h.7a.33.33,0,0,0,.33-.33V49.5a.32.32,0,0,0-.33-.32h-16.1a.32.32,0,0,0-.32.32v2.31a.32.32,0,0,0,.32.33h.7v-.3A.33.33,0,0,1,196.74,51.51Zm-.7-1.68h15.45v1.65H196Z"/><path class="cls-1" d="M195.71,47.47h16.1a.32.32,0,0,0,.31-.22l0,0,.77-2.36a.3.3,0,0,0,0-.29.31.31,0,0,0-.26-.14H211v.33a.32.32,0,0,1-.32.32H196.81a.32.32,0,0,1-.33-.32v-.33h-1.56a.31.31,0,0,0-.26.14.3.3,0,0,0,0,.29l.78,2.36v0A.33.33,0,0,0,195.71,47.47Zm16.45-2.4-.58,1.75H196l-.58-1.75Z"/><path class="cls-1" d="M209.18,152v-.32l-.94-39.12v-.34a.33.33,0,0,0-.33-.31h-8.26a.31.31,0,0,0-.32.31v.34l-.94,39.12V152a.32.32,0,0,0,.09.23.3.3,0,0,0,.23.1h10.18a.29.29,0,0,0,.23-.1A.33.33,0,0,0,209.18,152ZM200,112.54h7.63l.94,39.12H199Z"/><path class="cls-1" d="M195.09,85h.34V80.77h16.66V85h.23a.33.33,0,1,1,0,.65h-.23v4.23h.23a.32.32,0,0,1,.33.32.33.33,0,0,1-.33.33h-.23v4.23h.23a.32.32,0,0,1,.33.32.33.33,0,0,1-.33.33h-.23v4.22h.23a.33.33,0,0,1,.33.33.32.32,0,0,1-.33.32h-.23v4.23H195.43v-4.23h-.34a.32.32,0,0,1-.31-.26v4.82a.32.32,0,0,0,.33.32h17.31a.32.32,0,0,0,.32-.32V80.45a.32.32,0,0,0-.32-.33H195.11a.33.33,0,0,0-.33.33v4.82A.32.32,0,0,1,195.09,85Z"/><path class="cls-1" d="M195.09,89.88h.34V85.65h-.34a.33.33,0,0,1-.31-.27v4.76A.32.32,0,0,1,195.09,89.88Z"/><path class="cls-1" d="M195.09,99.63h.34V95.41h-.34a.33.33,0,0,1-.31-.27V99.9A.33.33,0,0,1,195.09,99.63Z"/><path class="cls-1" d="M194.78,92.62V95a.32.32,0,0,1,.31-.26h.34V90.53h-.34a.33.33,0,0,1-.31-.27v2.36Z"/><path class="cls-1" d="M195.09,85.65h17.23a.33.33,0,1,0,0-.65H195.09a.32.32,0,0,0-.31.27s0,0,0,0,0,0,0,.06A.33.33,0,0,0,195.09,85.65Z"/><path class="cls-1" d="M195.09,90.53h17.23a.33.33,0,0,0,.33-.33.32.32,0,0,0-.33-.32H195.09a.32.32,0,0,0-.31.26s0,0,0,.06,0,0,0,.06A.33.33,0,0,0,195.09,90.53Z"/><path class="cls-1" d="M194.78,95.14a.33.33,0,0,0,.31.27h17.23a.33.33,0,0,0,.33-.33.32.32,0,0,0-.33-.32H195.09a.32.32,0,0,0-.31.26h0a.43.43,0,0,0,0,0S194.78,95.12,194.78,95.14Z"/><path class="cls-1" d="M195.09,99.63a.33.33,0,0,0-.31.27s0,0,0,.06,0,0,0,.06a.32.32,0,0,0,.31.26h17.23a.32.32,0,0,0,.33-.32.33.33,0,0,0-.33-.33H195.09Z"/><path class="cls-1" d="M196.73,60h.34v-3.6h-.34a.33.33,0,0,1-.32-.28V60.3A.33.33,0,0,1,196.73,60Z"/><path class="cls-1" d="M196.73,68.53h.34v-3.6h-.34a.33.33,0,0,1-.32-.28v4.16A.33.33,0,0,1,196.73,68.53Z"/><path class="cls-1" d="M196.73,64.28h.34V60.67h-.34a.33.33,0,0,1-.32-.27v4.15A.33.33,0,0,1,196.73,64.28Z"/><path class="cls-1" d="M196.41,73.11a.33.33,0,0,0,.31.32H210.8a.33.33,0,0,0,.31-.32V51.84a.33.33,0,0,0-.33-.33h-14a.33.33,0,0,0-.33.33V56a.33.33,0,0,1,.32-.27h.34V52.16h13.39v3.61h.25a.32.32,0,0,1,.32.32.32.32,0,0,1-.32.33h-.25V60h.25a.32.32,0,0,1,.32.33.32.32,0,0,1-.32.32h-.25v3.61h.25a.32.32,0,0,1,.32.32.32.32,0,0,1-.32.33h-.25v3.6h.25a.32.32,0,0,1,.32.33.32.32,0,0,1-.32.32h-.25v3.6H197.07v-3.6h-.34a.33.33,0,0,1-.32-.27v4.2Z"/><path class="cls-1" d="M196.73,56.42h14a.32.32,0,0,0,.32-.33.32.32,0,0,0-.32-.32h-14a.33.33,0,0,0-.32.27.43.43,0,0,1,0,.05.43.43,0,0,0,0,0A.33.33,0,0,0,196.73,56.42Z"/><path class="cls-1" d="M196.73,60.67h14a.32.32,0,0,0,.32-.32.32.32,0,0,0-.32-.33h-14a.33.33,0,0,0-.32.28.43.43,0,0,0,0,.05s0,0,0,0A.33.33,0,0,0,196.73,60.67Z"/><path class="cls-1" d="M196.73,64.93h14a.32.32,0,0,0,.32-.33.32.32,0,0,0-.32-.32h-14a.33.33,0,0,0-.32.27s0,0,0,0a.43.43,0,0,0,0,.05A.33.33,0,0,0,196.73,64.93Z"/><path class="cls-1" d="M196.73,69.18h14a.32.32,0,0,0,.32-.32.32.32,0,0,0-.32-.33h-14a.33.33,0,0,0-.32.28.43.43,0,0,0,0,0,.43.43,0,0,1,0,0A.33.33,0,0,0,196.73,69.18Z"/><path class="cls-1" d="M196.81,45.06h13.91a.32.32,0,0,0,.32-.32v-8a.32.32,0,0,1-.32.32h-.33v7.35H197.13V37.06h-.32a.32.32,0,0,1-.33-.32v8A.32.32,0,0,0,196.81,45.06Z"/><path class="cls-1" d="M196.81,37.06h13.91a.32.32,0,0,0,.32-.32V36a7.27,7.27,0,0,0-6-7.16,2,2,0,0,1-1.3.51,1.91,1.91,0,0,1-1.29-.51,7.28,7.28,0,0,0-6,7.16v.7A.32.32,0,0,0,196.81,37.06Zm13.58-1v.37H197.13V36a6.63,6.63,0,1,1,13.26,0Z"/><path class="cls-1" d="M203.76,29.39a2,2,0,0,0,1.3-.51,1.9,1.9,0,1,0-1.3.51Zm0-3.19a1.27,1.27,0,1,1-1.27,1.27A1.27,1.27,0,0,1,203.76,26.2Z"/><path class="cls-1" d="M255.32,152v-.32h-3l.94-39.12h-.65l-.94,38.9V152a.36.36,0,0,0,0,.11.24.24,0,0,0,.07.12.3.3,0,0,0,.23.1h3.64a.31.31,0,0,1-.24-.1A.32.32,0,0,1,255.32,152Z"/><path class="cls-1" d="M269.77,151.44l-.94-38.9h-.65l.94,39.12h-3V152a.34.34,0,0,1-.33.33h3.64a.3.3,0,0,0,.23-.1.35.35,0,0,0,.07-.12.36.36,0,0,0,0-.11Z"/><path class="cls-1" d="M251,109.49h.33V107.7H251a.32.32,0,0,1-.3-.21l0-.06v2.39A.33.33,0,0,1,251,109.49Z"/><path class="cls-1" d="M270.44,109.49a.32.32,0,0,1,.32.33v-2.39l0,.06a.34.34,0,0,1-.3.21h-.33v1.79Z"/><path class="cls-1" d="M270.76,112.21v-2.39a.32.32,0,0,0-.32-.33H251a.33.33,0,0,0-.33.33v2.39a.33.33,0,0,0,.33.33h5.24v-.34a.32.32,0,0,1,.32-.31h-5.24v-1.75h18.75v1.75h-5.24a.32.32,0,0,1,.32.31v.34h5.24A.32.32,0,0,0,270.76,112.21Z"/><path class="cls-1" d="M249.8,104.69a.32.32,0,0,0,0,.3l.93,2.44,0,.06a.32.32,0,0,0,.3.21h19.41a.34.34,0,0,0,.3-.21l0-.06.94-2.44a.32.32,0,0,0,0-.3.31.31,0,0,0-.26-.14h-1.69v.29a.32.32,0,0,1-.32.32H252.08a.32.32,0,0,1-.33-.32v-.29h-1.68A.32.32,0,0,0,249.8,104.69Zm21.12.51-.7,1.85h-19l-.71-1.85Z"/><path class="cls-1" d="M251,77.73h.33v-1.8H251a.3.3,0,0,1-.3-.21l0,0v2.38A.32.32,0,0,1,251,77.73Z"/><path class="cls-1" d="M270.44,75.93h-.33v1.8h.33a.32.32,0,0,1,.32.32V75.67l0,0A.32.32,0,0,1,270.44,75.93Z"/><path class="cls-1" d="M252.08,80.12h17.31a.32.32,0,0,1,.32.33v.32h.73a.32.32,0,0,0,.32-.33V78.05a.32.32,0,0,0-.32-.32H251a.32.32,0,0,0-.33.32v2.39a.33.33,0,0,0,.33.33h.72v-.32A.33.33,0,0,1,252.08,80.12Zm-.72-1.74h18.75v1.74H251.36Z"/><rect class="cls-1" x="254.04" y="72.78" width="13.39"/><path class="cls-1" d="M251,75.93h19.41a.32.32,0,0,0,.3-.21l0,0,.94-2.45a.32.32,0,0,0,0-.3.31.31,0,0,0-.26-.14h-3.32v.33a.33.33,0,0,1-.3.32h3.14l-.7,1.85h-19l-.71-1.85h3.15a.32.32,0,0,1-.3-.32v-.33h-3.32a.32.32,0,0,0-.3.44l.93,2.45,0,0A.3.3,0,0,0,251,75.93Z"/><path class="cls-1" d="M268.78,47.47h-.32v1.71h.32a.32.32,0,0,1,.33.32V47.2l0,0A.32.32,0,0,1,268.78,47.47Z"/><path class="cls-1" d="M252.69,49.18H253V47.47h-.32a.32.32,0,0,1-.31-.22l0,0v2.3A.32.32,0,0,1,252.69,49.18Z"/><path class="cls-1" d="M253.71,51.51h14a.33.33,0,0,1,.33.33v.3h.7a.33.33,0,0,0,.33-.33V49.5a.32.32,0,0,0-.33-.32H252.69a.32.32,0,0,0-.33.32v2.31a.33.33,0,0,0,.33.33h.7v-.3A.32.32,0,0,1,253.71,51.51Zm-.7-1.68h15.45v1.65H253Z"/><path class="cls-1" d="M252.69,47.47h16.09a.32.32,0,0,0,.31-.22l0,0,.78-2.36a.33.33,0,0,0-.05-.29.31.31,0,0,0-.26-.14H268v.33a.32.32,0,0,1-.33.32H253.78a.32.32,0,0,1-.33-.32v-.33h-1.56a.31.31,0,0,0-.26.14.33.33,0,0,0,0,.29l.78,2.36,0,0A.32.32,0,0,0,252.69,47.47Zm16.44-2.4-.58,1.75H252.92l-.58-1.75Z"/><path class="cls-1" d="M266.15,152v-.32l-.94-39.12v-.34a.32.32,0,0,0-.32-.31H256.6a.32.32,0,0,0-.32.31v.34l-.94,39.12V152a.32.32,0,0,0,.09.23.31.31,0,0,0,.24.1h10.17a.34.34,0,0,0,.33-.33Zm-9.23-39.44h7.63l.94,39.12H256Z"/><path class="cls-1" d="M252.07,85h.33V80.77h16.66V85h.24a.33.33,0,0,1,0,.65h-.24v4.23h.24a.32.32,0,0,1,.32.32.32.32,0,0,1-.32.33h-.24v4.23h.24a.32.32,0,0,1,.32.32.32.32,0,0,1-.32.33h-.24v4.22h.24a.32.32,0,0,1,.32.33.32.32,0,0,1-.32.32h-.24v4.23H252.4v-4.23h-.33a.32.32,0,0,1-.32-.26v4.82a.32.32,0,0,0,.33.32h17.31a.32.32,0,0,0,.32-.32V80.45a.32.32,0,0,0-.32-.33H252.08a.33.33,0,0,0-.33.33v4.81A.32.32,0,0,1,252.07,85Z"/><path class="cls-1" d="M252.07,89.88h.33V85.65h-.33a.32.32,0,0,1-.32-.26v4.75A.32.32,0,0,1,252.07,89.88Z"/><path class="cls-1" d="M252.07,99.63h.33V95.41h-.33a.33.33,0,0,1-.32-.27V99.9A.33.33,0,0,1,252.07,99.63Z"/><path class="cls-1" d="M251.75,92.62V95a.32.32,0,0,1,.32-.26h.33V90.53h-.33a.33.33,0,0,1-.32-.26v2.35Z"/><path class="cls-1" d="M252.07,85.65H269.3a.33.33,0,0,0,0-.65H252.07a.32.32,0,0,0-.32.26s0,0,0,.06,0,.05,0,.07A.32.32,0,0,0,252.07,85.65Z"/><path class="cls-1" d="M252.07,90.53H269.3a.32.32,0,0,0,.32-.33.32.32,0,0,0-.32-.32H252.07a.32.32,0,0,0-.32.26s0,0,0,.06,0,0,0,.07A.33.33,0,0,0,252.07,90.53Z"/><path class="cls-1" d="M251.74,95.08s0,0,0,.06a.33.33,0,0,0,.32.27H269.3a.32.32,0,0,0,.32-.33.32.32,0,0,0-.32-.32H252.07a.32.32,0,0,0-.32.26h0A.43.43,0,0,0,251.74,95.08Z"/><path class="cls-1" d="M252.07,99.63a.33.33,0,0,0-.32.27s0,0,0,.06,0,0,0,.06a.32.32,0,0,0,.32.26H269.3a.32.32,0,0,0,.32-.32.32.32,0,0,0-.32-.33H252.07Z"/><path class="cls-1" d="M253.7,68.53H254v-3.6h-.34a.31.31,0,0,1-.31-.28v4.16A.31.31,0,0,1,253.7,68.53Z"/><path class="cls-1" d="M253.7,60H254v-3.6h-.34a.31.31,0,0,1-.31-.28V60.3A.31.31,0,0,1,253.7,60Z"/><path class="cls-1" d="M253.7,64.28H254V60.67h-.34a.31.31,0,0,1-.31-.28v4.17A.31.31,0,0,1,253.7,64.28Z"/><path class="cls-1" d="M253.39,73.11a.32.32,0,0,0,.3.32h14.09a.33.33,0,0,0,.3-.32V51.84a.33.33,0,0,0-.33-.33h-14a.32.32,0,0,0-.32.33v4.21a.31.31,0,0,1,.31-.28H254V52.16h13.39v3.61h.25a.32.32,0,0,1,.32.32.32.32,0,0,1-.32.33h-.25V60h.25a.32.32,0,0,1,.32.33.32.32,0,0,1-.32.32h-.25v3.61h.25a.32.32,0,0,1,.32.32.32.32,0,0,1-.32.33h-.25v3.6h.25a.32.32,0,0,1,.32.33.32.32,0,0,1-.32.32h-.25v3.6H254v-3.6h-.34a.31.31,0,0,1-.31-.28v4.21Z"/><path class="cls-1" d="M253.7,56.42h14a.32.32,0,0,0,.32-.33.32.32,0,0,0-.32-.32h-14a.31.31,0,0,0-.31.28.06.06,0,0,0,0,0,.09.09,0,0,0,0,0A.31.31,0,0,0,253.7,56.42Z"/><path class="cls-1" d="M253.7,60.67h14a.32.32,0,0,0,.32-.32.32.32,0,0,0-.32-.33h-14a.31.31,0,0,0-.31.28.09.09,0,0,0,0,.05.06.06,0,0,0,0,0A.31.31,0,0,0,253.7,60.67Z"/><path class="cls-1" d="M253.7,64.93h14a.32.32,0,0,0,.32-.33.32.32,0,0,0-.32-.32h-14a.31.31,0,0,0-.31.28.06.06,0,0,0,0,0,.09.09,0,0,0,0,.05A.31.31,0,0,0,253.7,64.93Z"/><path class="cls-1" d="M253.7,69.18h14a.32.32,0,0,0,.32-.32.32.32,0,0,0-.32-.33h-14a.31.31,0,0,0-.31.28.09.09,0,0,0,0,0,.06.06,0,0,0,0,0A.31.31,0,0,0,253.7,69.18Z"/><path class="cls-1" d="M253.78,45.06h13.91a.32.32,0,0,0,.33-.32v-8a.32.32,0,0,1-.33.32h-.32v7.35H254.1V37.06h-.32a.32.32,0,0,1-.33-.32v8A.32.32,0,0,0,253.78,45.06Z"/><path class="cls-1" d="M253.78,37.06h13.91a.32.32,0,0,0,.33-.32V36a7.28,7.28,0,0,0-6-7.16,1.94,1.94,0,0,1-1.3.51,1.91,1.91,0,0,1-1.29-.51,7.28,7.28,0,0,0-6,7.16v.7A.32.32,0,0,0,253.78,37.06Zm13.59-1v.37H254.1V36a6.64,6.64,0,0,1,13.27,0Z"/><path class="cls-1" d="M260.73,29.39a1.94,1.94,0,0,0,1.3-.51,1.9,1.9,0,1,0-1.3.51ZM262,27.47a1.27,1.27,0,1,1-1.27-1.27A1.27,1.27,0,0,1,262,27.47Z"/><path class="cls-1" d="M224.1,106.77a1.41,1.41,0,1,0-1.41,1.41A1.42,1.42,0,0,0,224.1,106.77Zm-1.41.76a.76.76,0,1,1,.76-.76A.76.76,0,0,1,222.69,107.53Z"/><path class="cls-1" d="M241.81,108.18a1.41,1.41,0,1,0-1.41-1.41A1.41,1.41,0,0,0,241.81,108.18Zm0-2.16a.76.76,0,1,1-.76.75A.76.76,0,0,1,241.81,106Z"/><path class="cls-1" d="M58.85,121h-.32v30.11H51.78v.19a.32.32,0,0,1-.33.32h-.13a.37.37,0,0,1,0,.14h7.57l.07,0a.31.31,0,0,0,.26-.31V120.66A.32.32,0,0,1,58.85,121Z"/><path class="cls-1" d="M7.59,151.57a.32.32,0,0,1-.19-.29v-.19H.65V121H.33a.32.32,0,0,1-.33-.32v30.75a.33.33,0,0,0,.33.33h7.3A.35.35,0,0,1,7.59,151.57Z"/><path class="cls-1" d="M.33,121H7.4v-.32a.33.33,0,0,1,.33-.33H.65V118.4H.33a.32.32,0,0,1-.33-.32v2.58A.32.32,0,0,0,.33,121Z"/><path class="cls-1" d="M58.85,118.4h-.32v1.93H51.45a.33.33,0,0,1,.33.33V121h7.07a.32.32,0,0,0,.33-.32v-2.58A.32.32,0,0,1,58.85,118.4Z"/><path class="cls-1" d="M.33,118.4H23.92c-.06-.21-.1-.43-.14-.65H.65v-.91H.33a.33.33,0,0,1-.33-.32v1.56A.32.32,0,0,0,.33,118.4Z"/><path class="cls-1" d="M58.85,116.84h-.32v.91H35.15c0,.22-.08.44-.14.65H58.85a.32.32,0,0,0,.33-.32v-1.56A.33.33,0,0,1,58.85,116.84Z"/><path class="cls-1" d="M.33,116.84H23.68a1.62,1.62,0,0,1,0-.22H.33a.33.33,0,0,1-.33-.33v.23A.33.33,0,0,0,.33,116.84Z"/><path class="cls-1" d="M58.85,116.62H35.26a1.62,1.62,0,0,1,0,.22h23.6a.33.33,0,0,0,.33-.32v-.23A.33.33,0,0,1,58.85,116.62Z"/><path class="cls-1" d="M.33,116.62H23.67v0c0-.21,0-.42,0-.62H.65v-5.49L29.56,96.22l29,14.26V116H35.23c0,.2,0,.41,0,.62v0H58.85a.33.33,0,0,0,.33-.33v-6A.33.33,0,0,0,59,110L29.7,95.57a.3.3,0,0,0-.29,0L.18,110a.33.33,0,0,0-.18.29v6A.33.33,0,0,0,.33,116.62Z"/><path class="cls-1" d="M51.78,151.28V120.66a.33.33,0,0,0-.33-.33H48.62a.32.32,0,0,1,.32.33V121h2.19v30h0l.22.51a.32.32,0,0,1,0,.14h.13A.32.32,0,0,0,51.78,151.28Z"/><path class="cls-1" d="M10.24,121v-.32a.32.32,0,0,1,.32-.33H7.73a.33.33,0,0,0-.33.33v30.62a.32.32,0,0,0,.19.29.37.37,0,0,1,0-.11c0-.06.18-.44.45-1V121Z"/><path class="cls-1" d="M48.94,120.66a.32.32,0,0,0-.32-.33H34.26c-.12.22-.25.44-.38.65H48.29v25.33c.23.29.45.57.65.86V120.66Z"/><path class="cls-1" d="M25.05,121c-.13-.21-.26-.43-.38-.65H10.56a.32.32,0,0,0-.32.33V146.8c.2-.28.42-.55.65-.82V121Z"/><path class="cls-1" d="M51,151.9a.3.3,0,0,0,.24-.11l0,0v0a.37.37,0,0,0,0-.14.32.32,0,0,0,0-.14l-.22-.51a22.88,22.88,0,0,0-2.15-3.78c-.2-.29-.42-.57-.65-.86a10.23,10.23,0,0,0-3.45-2.91,10.45,10.45,0,0,0-1.22-.47,6.54,6.54,0,0,1-1.37.37h0a7.83,7.83,0,0,1,2.34.69c3.13,1.47,5.31,5.85,5.95,7.26H8.4c.64-1.41,2.82-5.79,5.95-7.26a9.56,9.56,0,0,1,7-.45.32.32,0,0,0,.44-.23l1-4.64a.22.22,0,0,0,0-.08c0-.08-.2-7.72,1.24-11.18.05-.1.09-.2.14-.29-.08-.26-.15-.52-.22-.78a.33.33,0,0,1,0-.24,8.08,8.08,0,0,0-.55,1.06c-.09.22-.18.46-.26.71l.05,0a.33.33,0,0,1,.4.52l-.73.57c-.06.23-.11.47-.15.71l0,.16a49.92,49.92,0,0,0-.56,8.78l-.91,4.25a9.88,9.88,0,0,0-4.28-.29.32.32,0,0,1-.12.62h0a5.26,5.26,0,0,1-1.27-.3,10.63,10.63,0,0,0-1.47.55A9.84,9.84,0,0,0,10.89,146c-.23.27-.45.54-.65.82a22,22,0,0,0-2.19,3.66c-.27.56-.42.94-.45,1a.37.37,0,0,0,0,.11.35.35,0,0,0,0,.17v0l0,0a.32.32,0,0,0,.24.11Z"/><path class="cls-1" d="M25.05,121a7.1,7.1,0,0,0,2.26,2.27A6.76,6.76,0,0,0,24,126.08a.34.34,0,0,1,.19-.14.33.33,0,0,1,.4.23l0,.13a5.81,5.81,0,0,1,3.66-2.66.33.33,0,0,0,.26-.3.32.32,0,0,0-.21-.33c-2.37-.86-4-4.07-4-6.42a5.15,5.15,0,1,1,10.29,0c0,2.35-1.65,5.57-4,6.42a.34.34,0,0,0-.22.34.33.33,0,0,0,.26.29,6,6,0,0,1,4.23,3.77,23.29,23.29,0,0,1,1.2,5.23l.06,0a.32.32,0,1,1,.35.54,2.48,2.48,0,0,1-.31.19c.38,3,.5,5.81.5,5.89l1,4.64a.3.3,0,0,0,.19.23.34.34,0,0,0,.31,0,6.14,6.14,0,0,1,4-.78.32.32,0,0,1,0-.64h0a7.09,7.09,0,0,0-4,.66l-.89-4.15A61.06,61.06,0,0,0,36,128.87l-.66-.52a.32.32,0,0,1,.35-.54c-.08-.23-.16-.45-.24-.65a6.89,6.89,0,0,0-3.86-3.91A6.84,6.84,0,0,0,33.88,121c.13-.21.26-.43.38-.65A9,9,0,0,0,35,118.4c.06-.21.1-.43.14-.65a5.76,5.76,0,0,0,.1-.91,1.62,1.62,0,0,0,0-.22v0c0-.21,0-.42,0-.62a5.8,5.8,0,0,0-11.53,0c0,.2,0,.41,0,.62v0a1.62,1.62,0,0,0,0,.22,5.76,5.76,0,0,0,.1.91c0,.22.08.44.14.65a9,9,0,0,0,.75,1.93C24.79,120.55,24.92,120.77,25.05,121Z"/><path class="cls-1" d="M29.43,134.06a6.57,6.57,0,0,0,2.41.45,9.45,9.45,0,0,0,4.33-1.17,2.48,2.48,0,0,0,.31-.19.32.32,0,1,0-.35-.54l-.06,0c-.44.26-3.48,2-6.41.82-2.31-.9-4-3.32-5-7.16l0-.13a.33.33,0,0,0-.4-.23.34.34,0,0,0-.19.14v0a.33.33,0,0,0,0,.24c.07.26.14.52.22.78C25.29,130.8,27.05,133.14,29.43,134.06Z"/><path class="cls-1" d="M13.2,140.66a3.5,3.5,0,0,0,2.34,2.19,5.26,5.26,0,0,0,1.27.3h0a.32.32,0,0,0,.12-.62l-.09,0s-2.55-.29-3-2,.75-5,9.07-11.56l.73-.57a.33.33,0,0,0-.4-.52l-.05,0C15.77,133.6,12.41,137.9,13.2,140.66Z"/><path class="cls-1" d="M45.81,140.75c.79-2.82-2.6-7.17-10.06-12.92l0,0a.32.32,0,0,0-.35.54l.66.52c8.4,6.6,9.64,10,9.17,11.7s-2.6,2-3,2.07h0a.32.32,0,0,0,0,.64h.08a6.54,6.54,0,0,0,1.37-.37A3.43,3.43,0,0,0,45.81,140.75Z"/></g></g></svg>