<?xml version="1.0" encoding="UTF-8"?>
<svg id="Layer_1" data-name="Layer 1" xmlns="http://www.w3.org/2000/svg" viewBox="0 0 1920 1080">
  <defs>
    <style>
      .cls-1 {
        fill: #ebc848;
      }
    </style>
  </defs>
  <polygon class="cls-1" points="851.24 756.68 851.24 755.68 837.67 755.68 837.67 750.93 850.24 750.93 850.24 756.68 851.24 756.68 851.24 755.68 851.24 756.68 852.24 756.68 852.24 748.92 835.67 748.92 835.67 757.69 852.24 757.69 852.24 756.68 851.24 756.68"/>
  <polygon class="cls-1" points="697.46 862.7 697.46 863.7 715.13 863.7 715.13 853.48 696.46 853.48 696.46 863.7 697.46 863.7 697.46 862.7 698.46 862.7 698.46 855.49 713.12 855.49 713.12 861.69 697.46 861.69 697.46 862.7 698.46 862.7 697.46 862.7"/>
  <polygon class="cls-1" points="766.26 792.33 766.26 793.33 783.93 793.33 783.93 778 765.26 778 765.26 793.33 766.26 793.33 766.26 792.33 767.26 792.33 767.26 780.01 781.92 780.01 781.92 791.32 766.26 791.32 766.26 792.33 767.26 792.33 766.26 792.33"/>
  <polygon class="cls-1" points="920.52 792.33 920.52 791.32 904.86 791.32 904.86 780.01 919.52 780.01 919.52 792.33 920.52 792.33 920.52 791.32 920.52 792.33 921.52 792.33 921.52 778 902.85 778 902.85 793.33 921.52 793.33 921.52 792.33 920.52 792.33"/>
  <polygon class="cls-1" points="628.66 929.59 628.66 930.59 646.33 930.59 646.33 915.26 627.66 915.26 627.66 930.59 628.66 930.59 628.66 929.59 629.67 929.59 629.67 917.27 644.32 917.27 644.32 928.58 628.66 928.58 628.66 929.59 629.67 929.59 628.66 929.59"/>
  <polygon class="cls-1" points="989.32 862.7 989.32 861.69 973.66 861.69 973.66 855.49 988.32 855.49 988.32 862.7 989.32 862.7 989.32 861.69 989.32 862.7 990.32 862.7 990.32 853.48 971.65 853.48 971.65 863.7 990.32 863.7 990.32 862.7 989.32 862.7"/>
  <polygon class="cls-1" points="1058.12 929.59 1058.12 928.58 1042.46 928.58 1042.46 917.27 1057.12 917.27 1057.12 929.59 1058.12 929.59 1058.12 928.58 1058.12 929.59 1059.12 929.59 1059.12 915.26 1040.45 915.26 1040.45 930.59 1059.12 930.59 1059.12 929.59 1058.12 929.59"/>
  <polygon class="cls-1" points="645.33 1000.81 645.33 999.8 630.84 999.8 630.84 977.83 644.33 977.83 644.33 1000.81 645.33 1000.81 645.33 999.8 645.33 1000.81 646.33 1000.81 646.33 975.82 628.83 975.82 628.83 1001.81 646.33 1001.81 646.33 1000.81 645.33 1000.81"/>
  <polygon class="cls-1" points="1057.53 1000.81 1057.53 999.8 1043.04 999.8 1043.04 977.83 1056.53 977.83 1056.53 1000.81 1057.53 1000.81 1057.53 999.8 1057.53 1000.81 1058.54 1000.81 1058.54 975.82 1041.04 975.82 1041.04 1001.81 1058.54 1001.81 1058.54 1000.81 1057.53 1000.81"/>
  <polygon class="cls-1" points="713.54 961.28 713.54 960.27 699.05 960.27 699.05 946.79 712.54 946.79 712.54 961.28 713.54 961.28 713.54 960.27 713.54 961.28 714.54 961.28 714.54 944.78 697.04 944.78 697.04 962.28 714.54 962.28 714.54 961.28 713.54 961.28"/>
  <polygon class="cls-1" points="988.74 961.28 988.74 960.27 974.25 960.27 974.25 946.79 987.73 946.79 987.73 961.28 988.74 961.28 988.74 960.27 988.74 961.28 989.74 961.28 989.74 944.78 972.24 944.78 972.24 962.28 989.74 962.28 989.74 961.28 988.74 961.28"/>
  <polygon class="cls-1" points="782.34 953.53 782.34 952.53 767.85 952.53 767.85 939.04 781.34 939.04 781.34 953.53 782.34 953.53 782.34 952.53 782.34 953.53 783.34 953.53 783.34 937.03 765.84 937.03 765.84 954.53 783.34 954.53 783.34 953.53 782.34 953.53"/>
  <polygon class="cls-1" points="919.72 953.53 919.72 952.53 905.23 952.53 905.23 939.04 918.72 939.04 918.72 953.53 919.72 953.53 919.72 952.53 919.72 953.53 920.73 953.53 920.73 937.03 903.22 937.03 903.22 954.53 920.73 954.53 920.73 953.53 919.72 953.53"/>
  <path class="cls-1" d="M828.38,1001.47h.81v-81.53c0-12.02,2.11-23.93,6.36-34.73l.1-.26c2.71-6.83,5.69-12.32,8.33-16.54l-.64-.61-.55,.74c2.68,3.05,6.53,8.18,9.64,15.8,4.06,9.94,4.89,19.21,5.06,24.34l.81-.04h-.81c0,30.95,0,61.9,0,92.85h.81v-1c-9.97,0-19.95-.01-29.93-.02v1s.81,0,.81,0h-.81v1c9.97,0,19.95,.01,29.93,.02h.81s0-1,0-1v-92.89c-.17-5.3-1.02-14.88-5.23-25.17-3.23-7.9-7.21-13.22-9.99-16.38l-.65-.74-.54,.87c-2.7,4.31-5.74,9.91-8.5,16.88l-.11,.27c-4.37,11.09-6.52,23.29-6.52,35.61v82.53h.81s0-1,0-1Z"/>
  <polygon class="cls-1" points="880.15 828.89 880.15 827.88 807.64 827.88 807.64 819.15 879.14 819.15 879.14 828.89 880.15 828.89 880.15 827.88 880.15 828.89 881.15 828.89 881.15 817.15 805.63 817.15 805.63 829.89 881.15 829.89 881.15 828.89 880.15 828.89"/>
  <polygon class="cls-1" points="811.35 859.49 811.35 858.49 738.84 858.49 738.84 849.75 810.34 849.75 810.34 859.49 811.35 859.49 811.35 858.49 811.35 859.49 812.35 859.49 812.35 847.75 736.83 847.75 736.83 860.49 812.35 860.49 812.35 859.49 811.35 859.49"/>
  <polygon class="cls-1" points="948.94 859.49 948.94 858.49 876.44 858.49 876.44 849.75 947.94 849.75 947.94 859.49 948.94 859.49 948.94 858.49 948.94 859.49 949.95 859.49 949.95 847.75 874.43 847.75 874.43 860.49 949.95 860.49 949.95 859.49 948.94 859.49"/>
  <polygon class="cls-1" points="1017.74 934.96 1017.74 933.95 945.24 933.95 945.24 925.22 1016.74 925.22 1016.74 934.96 1017.74 934.96 1017.74 933.95 1017.74 934.96 1018.75 934.96 1018.75 923.21 943.23 923.21 943.23 935.96 1018.75 935.96 1018.75 934.96 1017.74 934.96"/>
  <polygon class="cls-1" points="742.55 934.96 742.55 933.95 670.04 933.95 670.04 925.22 741.54 925.22 741.54 934.96 742.55 934.96 742.55 933.95 742.55 934.96 743.55 934.96 743.55 923.21 668.04 923.21 668.04 935.96 743.55 935.96 743.55 934.96 742.55 934.96"/>
  <polygon class="cls-1" points="1088.92 965.27 1088.92 964.27 1016.41 964.27 1016.41 955.54 1087.92 955.54 1087.92 965.27 1088.92 965.27 1088.92 964.27 1088.92 965.27 1089.92 965.27 1089.92 953.53 1014.41 953.53 1014.41 966.27 1089.92 966.27 1089.92 965.27 1088.92 965.27"/>
  <polygon class="cls-1" points="673.93 965.27 673.93 964.27 601.43 964.27 601.43 955.54 672.93 955.54 672.93 965.27 673.93 965.27 673.93 964.27 673.93 965.27 674.93 965.27 674.93 953.53 599.42 953.53 599.42 966.27 674.93 966.27 674.93 965.27 673.93 965.27"/>
  <path class="cls-1" d="M1026.6,1001.49h1v-91.44l17.51-33.96c.5-.96,1.2-1.66,2.01-2.14,.81-.47,1.74-.71,2.67-.71,.93,0,1.86,.24,2.67,.71,.81,.47,1.51,1.18,2.01,2.14l17.51,33.96v90.44h-45.38v1h0v1h47.39v-92.93l-17.73-34.39c-.67-1.3-1.65-2.3-2.78-2.95-1.13-.66-2.41-.98-3.68-.98-1.27,0-2.55,.33-3.68,.98-1.13,.66-2.11,1.65-2.78,2.95l-17.73,34.39v92.93h1v-1Z"/>
  <path class="cls-1" d="M957.8,1001.49h1v-140.3l17.2-51.1c.41-1.22,1.13-2.09,2-2.69,.88-.59,1.93-.9,2.98-.89,1.05,0,2.11,.3,2.98,.89,.88,.59,1.59,1.47,2,2.69l17.2,51.1v139.3h-45.38v1h0v1h47.39v-141.64l-17.31-51.41c-.54-1.63-1.55-2.88-2.78-3.71-1.23-.83-2.67-1.24-4.11-1.24-1.44,0-2.88,.41-4.11,1.24-1.23,.83-2.24,2.09-2.78,3.71l-17.31,51.41v141.64h1v-1Z"/>
  <path class="cls-1" d="M889,1001.49h1v-193.67l17.08-69.99c.34-1.37,1.05-2.35,1.96-3.01,.91-.66,2.03-1,3.16-1,1.13,0,2.25,.34,3.16,1,.91,.67,1.62,1.64,1.96,3.01l17.08,69.99v192.67h-45.38v1h0v1h47.39v-194.92l-17.13-70.22c-.44-1.81-1.44-3.23-2.72-4.16-1.28-.93-2.81-1.39-4.34-1.39-1.53,0-3.06,.46-4.34,1.39-1.28,.93-2.28,2.34-2.72,4.16l-17.13,70.22v194.92h1v-1Z"/>
  <path class="cls-1" d="M820.2,1001.49h1v-218.68l17.04-78.87c.31-1.42,1.02-2.43,1.93-3.11,.92-.68,2.06-1.04,3.21-1.04,1.15,0,2.29,.35,3.21,1.04,.92,.69,1.62,1.69,1.93,3.11l17.04,78.87v217.68h-45.38v1h0v1h47.39v-219.9l-17.09-79.08c-.4-1.87-1.4-3.34-2.7-4.3-1.29-.96-2.85-1.43-4.41-1.43-1.56,0-3.12,.47-4.41,1.43-1.29,.96-2.29,2.43-2.69,4.3l-17.09,79.08v219.9h1v-1Z"/>
  <path class="cls-1" d="M751.4,1001.49h1v-193.67l17.08-69.99c.34-1.37,1.05-2.35,1.96-3.01,.91-.66,2.03-1,3.16-1,1.13,0,2.25,.34,3.16,1,.91,.67,1.62,1.64,1.96,3.01l17.08,69.99v192.67h-45.38v1h0v1h47.39v-194.92l-17.13-70.22c-.44-1.81-1.44-3.23-2.72-4.16-1.28-.93-2.81-1.39-4.34-1.39-1.53,0-3.06,.46-4.34,1.39-1.28,.93-2.28,2.34-2.72,4.16l-17.13,70.22v194.92h1v-1Z"/>
  <path class="cls-1" d="M682.6,1001.49h1v-140.3l17.2-51.1c.41-1.22,1.13-2.09,2-2.69,.88-.59,1.93-.9,2.98-.89,1.05,0,2.11,.3,2.98,.89,.88,.59,1.59,1.47,2,2.69l17.2,51.1v139.3h-45.38v1h0v1h47.39v-141.64l-17.31-51.41c-.54-1.63-1.55-2.88-2.78-3.71-1.23-.83-2.67-1.24-4.11-1.24-1.44,0-2.88,.41-4.11,1.24-1.23,.83-2.24,2.09-2.78,3.71l-17.31,51.41v141.64h1v-1Z"/>
  <path class="cls-1" d="M613.8,1001.49h1v-91.44l17.51-33.96c.5-.96,1.2-1.66,2.01-2.14,.81-.47,1.74-.71,2.67-.71,.93,0,1.86,.24,2.67,.71,.81,.47,1.51,1.18,2.01,2.14l17.51,33.96v90.44h-45.38v1h0v1h47.39v-92.93l-17.73-34.39c-.67-1.3-1.65-2.3-2.78-2.95-1.13-.66-2.41-.98-3.68-.98-1.27,0-2.55,.33-3.68,.98-1.13,.66-2.11,1.65-2.78,2.95l-17.73,34.39v92.93h1v-1Z"/>
  <polygon class="cls-1" points="1078.47 1081.39 1078.47 1080.39 608.18 1080.39 608.18 1002.5 1077.47 1002.5 1077.47 1081.39 1078.47 1081.39 1078.47 1080.39 1078.47 1081.39 1079.47 1081.39 1079.47 1000.49 606.17 1000.49 606.17 1082.39 1079.47 1082.39 1079.47 1081.39 1078.47 1081.39"/>
  <polygon class="cls-1" points="445.38 839.6 445.38 838.59 409.28 838.59 409.28 814.07 444.38 814.07 444.38 839.6 445.38 839.6 445.38 838.59 445.38 839.6 446.38 839.6 446.38 812.06 407.27 812.06 407.27 840.6 446.38 840.6 446.38 839.6 445.38 839.6"/>
  <polygon class="cls-1" points="445.38 867.34 445.38 866.29 409.28 866.29 409.28 840.69 444.38 840.69 444.38 867.34 445.38 867.34 445.38 866.29 445.38 867.34 446.38 867.34 446.38 838.59 407.27 838.59 407.27 868.39 446.38 868.39 446.38 867.34 445.38 867.34"/>
  <polygon class="cls-1" points="445.38 896.34 445.38 895.25 409.28 895.25 409.28 868.57 444.38 868.57 444.38 896.34 445.38 896.34 445.38 895.25 445.38 896.34 446.38 896.34 446.38 866.38 407.27 866.38 407.27 897.43 446.38 897.43 446.38 896.34 445.38 896.34"/>
  <polygon class="cls-1" points="445.38 922.96 445.38 921.96 409.28 921.96 409.28 897.43 444.38 897.43 444.38 922.96 445.38 922.96 445.38 921.96 445.38 922.96 446.38 922.96 446.38 895.43 407.27 895.43 407.27 923.96 446.38 923.96 446.38 922.96 445.38 922.96"/>
  <polygon class="cls-1" points="445.38 951.92 445.38 950.83 409.28 950.83 409.28 924.14 444.38 924.14 444.38 951.92 445.38 951.92 445.38 950.83 445.38 951.92 446.38 951.92 446.38 921.96 407.27 921.96 407.27 953.01 446.38 953.01 446.38 951.92 445.38 951.92"/>
  <polygon class="cls-1" points="445.38 978.54 445.38 977.53 409.28 977.53 409.28 953.01 444.38 953.01 444.38 978.54 445.38 978.54 445.38 977.53 445.38 978.54 446.38 978.54 446.38 951 407.27 951 407.27 979.54 446.38 979.54 446.38 978.54 445.38 978.54"/>
  <polygon class="cls-1" points="445.38 1007.49 445.38 1006.4 409.28 1006.4 409.28 979.72 444.38 979.72 444.38 1007.49 445.38 1007.49 445.38 1006.4 445.38 1007.49 446.38 1007.49 446.38 977.53 407.27 977.53 407.27 1008.58 446.38 1008.58 446.38 1007.49 445.38 1007.49"/>
  <polygon class="cls-1" points="445.38 1035.33 445.38 1034.28 409.28 1034.28 409.28 1008.67 444.38 1008.67 444.38 1035.33 445.38 1035.33 445.38 1034.28 445.38 1035.33 446.38 1035.33 446.38 1006.58 407.27 1006.58 407.27 1036.37 446.38 1036.37 446.38 1035.33 445.38 1035.33"/>
  <polygon class="cls-1" points="445.38 1061.9 445.38 1060.9 409.28 1060.9 409.28 1036.37 444.38 1036.37 444.38 1061.9 445.38 1061.9 445.38 1060.9 445.38 1061.9 446.38 1061.9 446.38 1034.37 407.27 1034.37 407.27 1062.9 446.38 1062.9 446.38 1061.9 445.38 1061.9"/>
  <polygon class="cls-1" points="445.38 1089.64 445.38 1088.6 409.28 1088.6 409.28 1062.99 444.38 1062.99 444.38 1089.64 445.38 1089.64 445.38 1088.6 445.38 1089.64 446.38 1089.64 446.38 1060.9 407.27 1060.9 407.27 1090.69 446.38 1090.69 446.38 1089.64 445.38 1089.64"/>
  <polygon class="cls-1" points="463.93 1089.69 463.93 1088.68 446.38 1088.68 446.38 814.07 462.93 814.07 462.93 1089.69 463.93 1089.69 463.93 1088.68 463.93 1089.69 464.94 1089.69 464.94 812.06 444.38 812.06 444.38 1090.69 464.94 1090.69 464.94 1089.69 463.93 1089.69"/>
  <polygon class="cls-1" points="445.38 701.92 445.38 700.91 427.83 700.91 427.83 676.39 444.38 676.39 444.38 701.92 445.38 701.92 445.38 700.91 445.38 701.92 446.38 701.92 446.38 674.38 425.82 674.38 425.82 702.92 446.38 702.92 446.38 701.92 445.38 701.92"/>
  <polygon class="cls-1" points="445.38 730.87 445.38 729.78 427.83 729.78 427.83 703.1 444.38 703.1 444.38 730.87 445.38 730.87 445.38 729.78 445.38 730.87 446.38 730.87 446.38 700.91 425.82 700.91 425.82 731.96 446.38 731.96 446.38 730.87 445.38 730.87"/>
  <polygon class="cls-1" points="445.38 757.49 445.38 756.49 427.83 756.49 427.83 731.96 444.38 731.96 444.38 757.49 445.38 757.49 445.38 756.49 445.38 757.49 446.38 757.49 446.38 729.96 425.82 729.96 425.82 758.49 446.38 758.49 446.38 757.49 445.38 757.49"/>
  <polygon class="cls-1" points="445.38 786.62 445.38 785.53 427.83 785.53 427.83 758.68 444.38 758.68 444.38 786.62 445.38 786.62 445.38 785.53 445.38 786.62 446.38 786.62 446.38 756.49 425.82 756.49 425.82 787.72 446.38 787.72 446.38 786.62 445.38 786.62"/>
  <polygon class="cls-1" points="445.38 813.07 445.38 812.06 427.83 812.06 427.83 787.54 444.38 787.54 444.38 813.07 445.38 813.07 445.38 812.06 445.38 813.07 446.38 813.07 446.38 785.53 425.82 785.53 425.82 814.07 446.38 814.07 446.38 813.07 445.38 813.07"/>
  <polygon class="cls-1" points="463.93 813.07 463.93 812.06 446.38 812.06 446.38 675.76 462.93 675.76 462.93 813.07 463.93 813.07 463.93 812.06 463.93 813.07 464.94 813.07 464.94 673.75 444.38 673.75 444.38 814.07 464.94 814.07 464.94 813.07 463.93 813.07"/>
  <polygon class="cls-1" points="526.09 839.6 526.09 840.6 564.2 840.6 564.2 812.06 525.09 812.06 525.09 840.6 526.09 840.6 526.09 839.6 527.1 839.6 527.1 814.07 562.19 814.07 562.19 838.59 526.09 838.59 526.09 839.6 527.1 839.6 526.09 839.6"/>
  <polygon class="cls-1" points="526.09 867.34 526.09 868.39 564.2 868.39 564.2 838.59 525.09 838.59 525.09 868.39 526.09 868.39 526.09 867.34 527.1 867.34 527.1 840.69 562.19 840.69 562.19 866.29 526.09 866.29 526.09 867.34 527.1 867.34 526.09 867.34"/>
  <polygon class="cls-1" points="526.09 895.17 526.09 896.18 564.2 896.18 564.2 867.64 525.09 867.64 525.09 896.18 526.09 896.18 526.09 895.17 527.1 895.17 527.1 869.65 562.19 869.65 562.19 894.17 526.09 894.17 526.09 895.17 527.1 895.17 526.09 895.17"/>
  <polygon class="cls-1" points="526.09 922.96 526.09 923.96 564.2 923.96 564.2 895.43 525.09 895.43 525.09 923.96 526.09 923.96 526.09 922.96 527.1 922.96 527.1 897.43 562.19 897.43 562.19 921.96 526.09 921.96 526.09 922.96 527.1 922.96 526.09 922.96"/>
  <polygon class="cls-1" points="526.09 950.75 526.09 951.75 564.2 951.75 564.2 923.21 525.09 923.21 525.09 951.75 526.09 951.75 526.09 950.75 527.1 950.75 527.1 925.22 562.19 925.22 562.19 949.75 526.09 949.75 526.09 950.75 527.1 950.75 526.09 950.75"/>
  <polygon class="cls-1" points="526.09 978.54 526.09 979.54 564.2 979.54 564.2 951 525.09 951 525.09 979.54 526.09 979.54 526.09 978.54 527.1 978.54 527.1 953.01 562.19 953.01 562.19 977.53 526.09 977.53 526.09 978.54 527.1 978.54 526.09 978.54"/>
  <polygon class="cls-1" points="526.09 1006.32 526.09 1007.33 564.2 1007.33 564.2 978.79 525.09 978.79 525.09 1007.33 526.09 1007.33 526.09 1006.32 527.1 1006.32 527.1 980.8 562.19 980.8 562.19 1005.32 526.09 1005.32 526.09 1006.32 527.1 1006.32 526.09 1006.32"/>
  <polygon class="cls-1" points="526.09 1034.11 526.09 1035.12 564.2 1035.12 564.2 1006.58 525.09 1006.58 525.09 1035.12 526.09 1035.12 526.09 1034.11 527.1 1034.11 527.1 1008.58 562.19 1008.58 562.19 1033.11 526.09 1033.11 526.09 1034.11 527.1 1034.11 526.09 1034.11"/>
  <polygon class="cls-1" points="526.09 1061.9 526.09 1062.9 564.2 1062.9 564.2 1034.37 525.09 1034.37 525.09 1062.9 526.09 1062.9 526.09 1061.9 527.1 1061.9 527.1 1036.37 562.19 1036.37 562.19 1060.9 526.09 1060.9 526.09 1061.9 527.1 1061.9 526.09 1061.9"/>
  <polygon class="cls-1" points="526.09 1089.69 526.09 1090.69 564.2 1090.69 564.2 1062.15 525.09 1062.15 525.09 1090.69 526.09 1090.69 526.09 1089.69 527.1 1089.69 527.1 1064.16 562.19 1064.16 562.19 1088.68 526.09 1088.68 526.09 1089.69 527.1 1089.69 526.09 1089.69"/>
  <polygon class="cls-1" points="507.54 1089.69 507.54 1090.69 527.1 1090.69 527.1 812.06 506.54 812.06 506.54 1090.69 507.54 1090.69 507.54 1089.69 508.54 1089.69 508.54 814.07 525.09 814.07 525.09 1088.68 507.54 1088.68 507.54 1089.69 508.54 1089.69 507.54 1089.69"/>
  <polygon class="cls-1" points="526.09 701.92 526.09 702.92 545.65 702.92 545.65 674.38 525.09 674.38 525.09 702.92 526.09 702.92 526.09 701.92 527.1 701.92 527.1 676.39 543.64 676.39 543.64 700.91 526.09 700.91 526.09 701.92 527.1 701.92 526.09 701.92"/>
  <polygon class="cls-1" points="526.09 731.01 526.09 732.11 545.65 732.11 545.65 700.91 525.09 700.91 525.09 732.11 526.09 732.11 526.09 731.01 527.1 731.01 527.1 703.11 543.64 703.11 543.64 729.92 526.09 729.92 526.09 731.01 527.1 731.01 526.09 731.01"/>
  <polygon class="cls-1" points="526.09 758.7 526.09 759.75 545.65 759.75 545.65 729.96 525.09 729.96 525.09 759.75 526.09 759.75 526.09 758.7 527.1 758.7 527.1 732.05 543.64 732.05 543.64 757.66 526.09 757.66 526.09 758.7 527.1 758.7 526.09 758.7"/>
  <polygon class="cls-1" points="526.09 785.28 526.09 786.28 545.65 786.28 545.65 757.74 525.09 757.74 525.09 786.28 526.09 786.28 526.09 785.28 527.1 785.28 527.1 759.75 543.64 759.75 543.64 784.28 526.09 784.28 526.09 785.28 527.1 785.28 526.09 785.28"/>
  <polygon class="cls-1" points="526.09 813.02 526.09 814.07 545.65 814.07 545.65 784.28 525.09 784.28 525.09 814.07 526.09 814.07 526.09 813.02 527.1 813.02 527.1 786.37 543.64 786.37 543.64 811.97 526.09 811.97 526.09 813.02 527.1 813.02 526.09 813.02"/>
  <polygon class="cls-1" points="507.54 813.07 507.54 814.07 527.1 814.07 527.1 673.75 506.54 673.75 506.54 814.07 507.54 814.07 507.54 813.07 508.54 813.07 508.54 675.76 525.09 675.76 525.09 812.06 507.54 812.06 507.54 813.07 508.54 813.07 507.54 813.07"/>
  <polygon class="cls-1" points="507.54 1089.69 507.54 1088.68 464.94 1088.68 464.94 675.76 506.54 675.76 506.54 1089.69 507.54 1089.69 507.54 1088.68 507.54 1089.69 508.54 1089.69 508.54 673.75 462.93 673.75 462.93 1090.69 508.54 1090.69 508.54 1089.69 507.54 1089.69"/>
  <polygon class="cls-1" points="548.01 641.56 548.01 640.56 424.47 640.56 424.47 632.2 547.01 632.2 547.01 641.56 548.01 641.56 548.01 640.56 548.01 641.56 549.01 641.56 549.01 630.19 422.46 630.19 422.46 642.56 549.01 642.56 549.01 641.56 548.01 641.56"/>
  <polygon class="cls-1" points="538.82 674.76 538.82 673.75 435.61 673.75 435.61 642.56 537.82 642.56 537.82 674.76 538.82 674.76 538.82 673.75 538.82 674.76 539.82 674.76 539.82 640.56 433.6 640.56 433.6 675.76 539.82 675.76 539.82 674.76 538.82 674.76"/>
  <polygon class="cls-1" points="495.48 596.3 496.49 596.3 496.49 560.39 489.76 560.39 489.76 525.49 479.42 525.49 479.42 560.39 472.7 560.39 472.7 595.29 458.29 595.29 458.29 632.2 513.18 632.2 513.18 595.29 495.48 595.29 495.48 596.3 496.49 596.3 495.48 596.3 495.48 597.3 511.17 597.3 511.17 630.19 460.3 630.19 460.3 597.3 474.71 597.3 474.71 562.4 481.43 562.4 481.43 527.5 487.76 527.5 487.76 562.4 494.48 562.4 494.48 597.3 495.48 597.3 495.48 596.3"/>
  <path class="cls-1" d="M485.62,526.08v-99.27h-2.01v98.23c0,.35,0,.69,0,1.04h2.01Z"/>
  <path class="cls-1" d="M80.78,884.81v-1.14H17.54v-6.93c0-5.53,2.24-10.53,5.86-14.16,3.63-3.62,8.62-5.86,14.16-5.86h22.07c5.53,0,10.53,2.24,14.16,5.86,3.62,3.63,5.86,8.62,5.86,14.16v8.06h1.14v0h1.14v-8.06c0-12.31-9.98-22.29-22.29-22.29h-22.07c-12.31,0-22.29,9.98-22.29,22.29v8.06c0,.3,.12,.59,.33,.8,.21,.21,.5,.33,.8,.33H80.78c.3,0,.59-.12,.8-.33,.21-.21,.33-.5,.33-.8h-1.14Z"/>
  <path class="cls-1" d="M80.78,895.22v-1.14H17.54v-8.34h62.1v9.47h1.14v0h1.14v-10.61c0-.3-.12-.59-.33-.8-.21-.21-.5-.33-.8-.33H16.4c-.3,0-.59,.12-.8,.33-.21,.21-.33,.5-.33,.8v10.61c0,.3,.12,.59,.33,.8,.21,.21,.5,.33,.8,.33H80.78c.3,0,.59-.12,.8-.33,.21-.21,.33-.5,.33-.8h-1.14Z"/>
  <path class="cls-1" d="M80.78,931.33v-1.14H17.54v-33.14h62.1v34.27h1.14v0h1.14v-35.41c0-.3-.12-.59-.33-.8-.21-.21-.5-.33-.8-.33H16.4c-.3,0-.59,.12-.8,.33-.21,.21-.33,.5-.33,.8v35.41c0,.3,.12,.59,.33,.8,.21,.21,.5,.33,.8,.33H80.78c.3,0,.59-.12,.8-.33,.21-.21,.33-.5,.33-.8h-1.14Z"/>
  <path class="cls-1" d="M58.32,855.7v-1.02h-17.47v-47.59h16.33v48.61h1.14v0h1.14v-49.64c0-.27-.12-.53-.33-.72-.21-.19-.5-.3-.8-.3h-18.6c-.3,0-.59,.11-.8,.3s-.33,.45-.33,.72v49.64c0,.27,.12,.53,.33,.72,.21,.19,.5,.3,.8,.3h18.6c.3,0,.59-.11,.8-.3,.21-.19,.33-.45,.33-.72h-1.14Z"/>
  <path class="cls-1" d="M354.81,884.81v-1.14h-63.24v-6.93c0-5.53,2.24-10.53,5.86-14.16,3.63-3.62,8.62-5.86,14.16-5.86h22.07c5.53,0,10.53,2.24,14.16,5.86,3.62,3.63,5.86,8.62,5.86,14.16v8.06h1.14v0h1.14v-8.06c0-12.31-9.98-22.29-22.29-22.29h-22.07c-12.31,0-22.29,9.98-22.29,22.29v8.06c0,.3,.12,.59,.33,.8,.21,.21,.5,.33,.8,.33h64.37c.3,0,.59-.12,.8-.33,.21-.21,.33-.5,.33-.8h-1.14Z"/>
  <path class="cls-1" d="M354.81,895.22v-1.14h-63.24v-8.34h62.1s0,9.47,0,9.47h1.14v0h1.14v-10.61c0-.3-.12-.59-.33-.8-.21-.21-.5-.33-.8-.33h-64.37c-.3,0-.59,.12-.8,.33-.21,.21-.33,.5-.33,.8v10.61c0,.3,.12,.59,.33,.8,.21,.21,.5,.33,.8,.33h64.37c.3,0,.59-.12,.8-.33,.21-.21,.33-.5,.33-.8h-1.14Z"/>
  <path class="cls-1" d="M354.81,931.33v-1.14h-63.24v-33.14h62.1v34.27h1.14v0h1.14v-35.41c0-.3-.12-.59-.33-.8-.21-.21-.5-.33-.8-.33h-64.37c-.3,0-.59,.12-.8,.33-.21,.21-.33,.5-.33,.8v35.41c0,.3,.12,.59,.33,.8,.21,.21,.5,.33,.8,.33h64.37c.3,0,.59-.12,.8-.33,.21-.21,.33-.5,.33-.8h-1.14Z"/>
  <path class="cls-1" d="M194.28,714.71v-1.14h-22.71v-13.52h21.57v14.66h1.14v0h1.14v-15.79c0-.3-.12-.59-.33-.8-.21-.21-.5-.33-.8-.33h-23.84c-.3,0-.59,.12-.8,.33-.21,.21-.33,.5-.33,.8v15.79c0,.3,.12,.59,.33,.8,.21,.21,.5,.33,.8,.33h23.84c.3,0,.59-.12,.8-.33,.21-.21,.33-.5,.33-.8h-1.14Z"/>
  <path class="cls-1" d="M206.01,730.5v-1.14h-46.17v-13.52h45.03v14.66h1.14v0h1.14v-15.79c0-.3-.12-.59-.33-.8-.21-.21-.5-.33-.8-.33h-47.3c-.3,0-.59,.12-.8,.33s-.33,.5-.33,.8v15.79c0,.3,.12,.59,.33,.8,.21,.21,.5,.33,.8,.33h47.3c.3,0,.59-.12,.8-.33,.21-.21,.33-.5,.33-.8h-1.14Z"/>
  <path class="cls-1" d="M332.35,855.7v-1.02h-17.47v-47.59h16.33v48.61h1.14v0h1.14v-49.64c0-.27-.12-.53-.33-.72-.21-.19-.5-.3-.8-.3h-18.6c-.3,0-.59,.11-.8,.3-.21,.19-.33,.45-.33,.72v49.64c0,.27,.12,.53,.33,.72,.21,.19,.5,.3,.8,.3h18.6c.3,0,.59-.11,.8-.3,.21-.19,.33-.45,.33-.72h-1.14Z"/>
  <path class="cls-1" d="M198.49,775.6v-1.14h-31.12v-42.83h29.99v43.96h1.14v0h1.14v-45.1c0-.3-.12-.59-.33-.8-.21-.21-.5-.33-.8-.33h-32.26c-.3,0-.59,.12-.8,.33-.21,.21-.33,.5-.33,.8v45.1c0,.3,.12,.59,.33,.8,.21,.21,.5,.33,.8,.33h32.26c.3,0,.59-.12,.8-.33,.21-.21,.33-.5,.33-.8h-1.14Z"/>
  <path class="cls-1" d="M118.12,834.81l1.13,.15c1.06-7.89,5.3-31.82,25.02-51.94,1.09-1.11,2.19-2.17,3.29-3.18,10.66-9.78,23.96-14.69,37.17-14.69,14.16,0,28.21,5.64,38.82,17,.15,.16,.3,.32,.44,.48,19.33,21.04,21.19,46.22,21.47,52.97l1.13-.05v-1.14c-42.82-.25-85.65-.49-128.47-.74v1.14s1.12,.15,1.12,.15l-1.13-.15v1.14c42.82,.25,85.65,.49,128.47,.74,.31,0,.61-.12,.82-.35,.22-.22,.33-.52,.32-.84-.3-6.95-2.17-32.73-22.07-54.41-.15-.17-.3-.33-.46-.49-11.04-11.83-25.72-17.72-40.48-17.72-13.77,0-27.63,5.12-38.71,15.29-1.13,1.04-2.26,2.13-3.37,3.27-20.25,20.67-24.56,45.13-25.65,53.22-.04,.32,.06,.65,.27,.9,.21,.24,.53,.39,.85,.39v-1.14Z"/>
  <path class="cls-1" d="M262.8,868.26v-1.14H110.4v-6.18h151.27v7.31h1.14v0h1.14v-8.45c0-.3-.12-.59-.33-.8-.21-.21-.5-.33-.8-.33H109.26c-.3,0-.59,.12-.8,.33-.21,.21-.33,.5-.33,.8v8.45c0,.3,.12,.59,.33,.8,.21,.21,.5,.33,.8,.33h153.54c.3,0,.59-.12,.8-.33,.21-.21,.33-.5,.33-.8h-1.14Z"/>
  <path class="cls-1" d="M262.8,906.33v-1.14H110.4v-35.8h151.27v36.94h1.14v0h1.14v-38.07c0-.3-.12-.59-.33-.8-.21-.21-.5-.33-.8-.33H109.26c-.3,0-.59,.12-.8,.33-.21,.21-.33,.5-.33,.8v38.07c0,.3,.12,.59,.33,.8,.21,.21,.5,.33,.8,.33h153.54c.3,0,.59-.12,.8-.33,.21-.21,.33-.5,.33-.8h-1.14Z"/>
  <path class="cls-1" d="M262.8,918.83v-1.14H110.4v-10.23h151.27v11.36h1.14v0h1.14v-12.5c0-.3-.12-.59-.33-.8-.21-.21-.5-.33-.8-.33H109.26c-.3,0-.59,.12-.8,.33-.21,.21-.33,.5-.33,.8v12.5c0,.3,.12,.59,.33,.8,.21,.21,.5,.33,.8,.33h153.54c.3,0,.59-.12,.8-.33,.21-.21,.33-.5,.33-.8h-1.14Z"/>
  <path class="cls-1" d="M269.78,859.81v-1.14H101.91v-6.18h166.74v7.31h1.14v0h1.14v-8.45c0-.3-.12-.59-.33-.8-.21-.21-.5-.33-.8-.33H100.77c-.3,0-.59,.12-.8,.33-.21,.21-.33,.5-.33,.8v8.45c0,.3,.12,.59,.33,.8,.21,.21,.5,.33,.8,.33h169.01c.3,0,.59-.12,.8-.33,.21-.21,.33-.5,.33-.8h-1.14Z"/>
  <path class="cls-1" d="M246.52,851.36v-1.14H119.34v-13.73h126.05v14.87h1.14v0h1.14v-16c0-.3-.12-.59-.33-.8s-.5-.33-.8-.33H118.2c-.3,0-.59,.12-.8,.33-.21,.21-.33,.5-.33,.8v16c0,.3,.12,.59,.33,.8,.21,.21,.5,.33,.8,.33H246.52c.3,0,.59-.12,.8-.33,.21-.21,.33-.5,.33-.8h-1.14Z"/>
  <path class="cls-1" d="M277.64,931.33v-1.14H94.46v-10.23h182.04v11.36h1.14v0h1.14v-12.5c0-.3-.12-.59-.33-.8-.21-.21-.5-.33-.8-.33H93.33c-.3,0-.59,.12-.8,.33-.21,.21-.33,.5-.33,.8v12.5c0,.3,.12,.59,.33,.8,.21,.21,.5,.33,.8,.33h184.31c.3,0,.59-.12,.8-.33,.21-.21,.33-.5,.33-.8h-1.14Z"/>
  <path class="cls-1" d="M100.77,1087.11v-1.14h-6.45v-20.71h5.32v21.84h1.14v0h1.14v-22.98c0-.3-.12-.59-.33-.8-.21-.21-.5-.33-.8-.33h-7.59c-.3,0-.59,.12-.8,.33-.21,.21-.33,.5-.33,.8v22.98c0,.3,.12,.59,.33,.8s.5,.33,.8,.33h7.59c.3,0,.59-.12,.8-.33s.33-.5,.33-.8h-1.14Z"/>
  <path class="cls-1" d="M100.77,1064.14v-1.14h-6.45v-64.77h5.32v65.91h1.14v0h1.14v-67.04c0-.3-.12-.59-.33-.8-.21-.21-.5-.33-.8-.33h-7.59c-.3,0-.59,.12-.8,.33-.21,.21-.33,.5-.33,.8v67.04c0,.3,.12,.59,.33,.8,.21,.21,.5,.33,.8,.33h7.59c.3,0,.59-.12,.8-.33,.21-.21,.33-.5,.33-.8h-1.14Z"/>
  <path class="cls-1" d="M106.56,997.09v-1.14h-19.83v-41.26h18.69v42.39h1.14v0h1.14v-43.53c0-.3-.12-.59-.33-.8-.21-.21-.5-.33-.8-.33h-20.97c-.3,0-.59,.12-.8,.33-.21,.21-.33,.5-.33,.8v43.53c0,.3,.12,.59,.33,.8,.21,.21,.5,.33,.8,.33h20.97c.3,0,.59-.12,.8-.33,.21-.21,.33-.5,.33-.8h-1.14Z"/>
  <path class="cls-1" d="M136.53,1087.11v-1.14h-6.45v-20.71h5.32v21.84h1.14v0h1.14v-22.98c0-.3-.12-.59-.33-.8-.21-.21-.5-.33-.8-.33h-7.59c-.3,0-.59,.12-.8,.33-.21,.21-.33,.5-.33,.8v22.98c0,.3,.12,.59,.33,.8s.5,.33,.8,.33h7.59c.3,0,.59-.12,.8-.33s.33-.5,.33-.8h-1.14Z"/>
  <path class="cls-1" d="M136.53,1064.14v-1.14h-6.45v-64.77h5.32v65.91h1.14v0h1.14v-67.04c0-.3-.12-.59-.33-.8-.21-.21-.5-.33-.8-.33h-7.59c-.3,0-.59,.12-.8,.33-.21,.21-.33,.5-.33,.8v67.04c0,.3,.12,.59,.33,.8,.21,.21,.5,.33,.8,.33h7.59c.3,0,.59-.12,.8-.33,.21-.21,.33-.5,.33-.8h-1.14Z"/>
  <path class="cls-1" d="M142.32,997.09v-1.14h-19.83v-41.26h18.69v42.39h1.14v0h1.14v-43.53c0-.3-.12-.59-.33-.8-.21-.21-.5-.33-.8-.33h-20.97c-.3,0-.59,.12-.8,.33-.21,.21-.33,.5-.33,.8v43.53c0,.3,.12,.59,.33,.8,.21,.21,.5,.33,.8,.33h20.97c.3,0,.59-.12,.8-.33,.21-.21,.33-.5,.33-.8h-1.14Z"/>
  <path class="cls-1" d="M172.29,1087.11v-1.14h-6.45v-20.71h5.32v21.84h1.14v0h1.14v-22.98c0-.3-.12-.59-.33-.8-.21-.21-.5-.33-.8-.33h-7.59c-.3,0-.59,.12-.8,.33-.21,.21-.33,.5-.33,.8v22.98c0,.3,.12,.59,.33,.8s.5,.33,.8,.33h7.59c.3,0,.59-.12,.8-.33s.33-.5,.33-.8h-1.14Z"/>
  <path class="cls-1" d="M172.29,1064.14v-1.14h-6.45v-64.77h5.32v65.91h1.14v0h1.14v-67.04c0-.3-.12-.59-.33-.8-.21-.21-.5-.33-.8-.33h-7.59c-.3,0-.59,.12-.8,.33-.21,.21-.33,.5-.33,.8v67.04c0,.3,.12,.59,.33,.8,.21,.21,.5,.33,.8,.33h7.59c.3,0,.59-.12,.8-.33,.21-.21,.33-.5,.33-.8h-1.14Z"/>
  <path class="cls-1" d="M178.09,997.09v-1.14h-19.83v-41.26h18.69v42.39h1.14v0h1.14v-43.53c0-.3-.12-.59-.33-.8-.21-.21-.5-.33-.8-.33h-20.97c-.3,0-.59,.12-.8,.33-.21,.21-.33,.5-.33,.8v43.53c0,.3,.12,.59,.33,.8,.21,.21,.5,.33,.8,.33h20.97c.3,0,.59-.12,.8-.33,.21-.21,.33-.5,.33-.8h-1.14Z"/>
  <path class="cls-1" d="M208.06,1087.11v-1.14h-6.45v-20.71h5.32v21.84h1.14v0h1.14v-22.98c0-.3-.12-.59-.33-.8-.21-.21-.5-.33-.8-.33h-7.59c-.3,0-.59,.12-.8,.33-.21,.21-.33,.5-.33,.8v22.98c0,.3,.12,.59,.33,.8s.5,.33,.8,.33h7.59c.3,0,.59-.12,.8-.33s.33-.5,.33-.8h-1.14Z"/>
  <path class="cls-1" d="M208.06,1064.14v-1.14h-6.45v-64.77h5.32v65.91h1.14v0h1.14v-67.04c0-.3-.12-.59-.33-.8-.21-.21-.5-.33-.8-.33h-7.59c-.3,0-.59,.12-.8,.33-.21,.21-.33,.5-.33,.8v67.04c0,.3,.12,.59,.33,.8,.21,.21,.5,.33,.8,.33h7.59c.3,0,.59-.12,.8-.33,.21-.21,.33-.5,.33-.8h-1.14Z"/>
  <path class="cls-1" d="M213.85,997.09v-1.14h-19.83v-41.26h18.69v42.39h1.14v0h1.14v-43.53c0-.3-.12-.59-.33-.8-.21-.21-.5-.33-.8-.33h-20.97c-.3,0-.59,.12-.8,.33s-.33,.5-.33,.8v43.53c0,.3,.12,.59,.33,.8,.21,.21,.5,.33,.8,.33h20.97c.3,0,.59-.12,.8-.33,.21-.21,.33-.5,.33-.8h-1.14Z"/>
  <path class="cls-1" d="M243.82,1087.11v-1.14h-6.45v-20.71h5.32v21.84h1.14v0h1.14v-22.98c0-.3-.12-.59-.33-.8-.21-.21-.5-.33-.8-.33h-7.59c-.3,0-.59,.12-.8,.33-.21,.21-.33,.5-.33,.8v22.98c0,.3,.12,.59,.33,.8s.5,.33,.8,.33h7.59c.3,0,.59-.12,.8-.33,.21-.21,.33-.5,.33-.8h-1.14Z"/>
  <path class="cls-1" d="M243.82,1064.14v-1.14h-6.45v-64.77h5.32v65.91h1.14v0h1.14v-67.04c0-.3-.12-.59-.33-.8-.21-.21-.5-.33-.8-.33h-7.59c-.3,0-.59,.12-.8,.33-.21,.21-.33,.5-.33,.8v67.04c0,.3,.12,.59,.33,.8,.21,.21,.5,.33,.8,.33h7.59c.3,0,.59-.12,.8-.33,.21-.21,.33-.5,.33-.8h-1.14Z"/>
  <path class="cls-1" d="M249.61,997.09v-1.14h-19.83v-41.26h18.69v42.39h1.14v0h1.14v-43.53c0-.3-.12-.59-.33-.8-.21-.21-.5-.33-.8-.33h-20.97c-.3,0-.59,.12-.8,.33-.21,.21-.33,.5-.33,.8v43.53c0,.3,.12,.59,.33,.8,.21,.21,.5,.33,.8,.33h20.97c.3,0,.59-.12,.8-.33,.21-.21,.33-.5,.33-.8h-1.14Z"/>
  <path class="cls-1" d="M279.58,1087.11v-1.14h-6.45v-20.71h5.32v21.84h1.14v0h1.14v-22.98c0-.3-.12-.59-.33-.8s-.5-.33-.8-.33h-7.59c-.3,0-.59,.12-.8,.33-.21,.21-.33,.5-.33,.8v22.98c0,.3,.12,.59,.33,.8,.21,.21,.5,.33,.8,.33h7.59c.3,0,.59-.12,.8-.33,.21-.21,.33-.5,.33-.8h-1.14Z"/>
  <path class="cls-1" d="M279.58,1064.14v-1.14h-6.45v-64.77h5.32v65.91h1.14v0h1.14v-67.04c0-.3-.12-.59-.33-.8-.21-.21-.5-.33-.8-.33h-7.59c-.3,0-.59,.12-.8,.33-.21,.21-.33,.5-.33,.8v67.04c0,.3,.12,.59,.33,.8,.21,.21,.5,.33,.8,.33h7.59c.3,0,.59-.12,.8-.33,.21-.21,.33-.5,.33-.8h-1.14Z"/>
  <path class="cls-1" d="M285.37,997.09v-1.14h-19.83v-41.26h18.69v42.39h1.14v0h1.14v-43.53c0-.3-.12-.59-.33-.8-.21-.21-.5-.33-.8-.33h-20.97c-.3,0-.59,.12-.8,.33-.21,.21-.33,.5-.33,.8v43.53c0,.3,.12,.59,.33,.8,.21,.21,.5,.33,.8,.33h20.97c.3,0,.59-.12,.8-.33,.21-.21,.33-.5,.33-.8h-1.14Z"/>
  <path class="cls-1" d="M73.68,1003.78v-1.14H24.64v-4.42h47.91v5.55h1.14v0h1.14v-6.69c0-.3-.12-.59-.33-.8-.21-.21-.5-.33-.8-.33H23.5c-.3,0-.59,.12-.8,.33s-.33,.5-.33,.8v6.69c0,.3,.12,.59,.33,.8,.21,.21,.5,.33,.8,.33h50.18c.3,0,.59-.12,.8-.33,.21-.21,.33-.5,.33-.8h-1.14Z"/>
  <path class="cls-1" d="M56.84,997.09v-1.14h-15.36v-28.84h14.23v29.98h1.14v0h1.14v-31.11c0-.3-.12-.59-.33-.8-.21-.21-.5-.33-.8-.33h-16.5c-.3,0-.59,.12-.8,.33s-.33,.5-.33,.8v31.11c0,.3,.12,.59,.33,.8,.21,.21,.5,.33,.8,.33h16.5c.3,0,.59-.12,.8-.33,.21-.21,.33-.5,.33-.8h-1.14Z"/>
  <path class="cls-1" d="M56.84,1087.11v-1.14h-15.36v-43.68h14.23v44.82h1.14v0h1.14v-45.96c0-.3-.12-.59-.33-.8-.21-.21-.5-.33-.8-.33h-16.5c-.3,0-.59,.12-.8,.33-.21,.21-.33,.5-.33,.8v45.96c0,.3,.12,.59,.33,.8,.21,.21,.5,.33,.8,.33h16.5c.3,0,.59-.12,.8-.33,.21-.21,.33-.5,.33-.8h-1.14Z"/>
  <path class="cls-1" d="M56.84,1029.23v-1.14h-15.36v-23.18h14.23v24.32h1.14v0h1.14v-25.45c0-.3-.12-.59-.33-.8-.21-.21-.5-.33-.8-.33h-16.5c-.3,0-.59,.12-.8,.33s-.33,.5-.33,.8v25.45c0,.3,.12,.59,.33,.8,.21,.21,.5,.33,.8,.33h16.5c.3,0,.59-.12,.8-.33,.21-.21,.33-.5,.33-.8h-1.14Z"/>
  <path class="cls-1" d="M64.57,1041.16v-1.14h-30.83v-35.11h29.69s0,36.24,0,36.24h1.14v0h1.14v-37.38c0-.3-.12-.59-.33-.8-.21-.21-.5-.33-.8-.33h-31.96c-.3,0-.59,.12-.8,.33s-.33,.5-.33,.8v37.38c0,.3,.12,.59,.33,.8,.21,.21,.5,.33,.8,.33h31.96c.3,0,.59-.12,.8-.33s.33-.5,.33-.8h-1.14Z"/>
  <path class="cls-1" d="M349.19,1003.78v-1.14h-49.05v-4.42h47.91v5.55h1.14v0h1.14v-6.69c0-.3-.12-.59-.33-.8-.21-.21-.5-.33-.8-.33h-50.18c-.3,0-.59,.12-.8,.33-.21,.21-.33,.5-.33,.8v6.69c0,.3,.12,.59,.33,.8,.21,.21,.5,.33,.8,.33h50.18c.3,0,.59-.12,.8-.33,.21-.21,.33-.5,.33-.8h-1.14Z"/>
  <path class="cls-1" d="M332.35,997.09v-1.14h-15.36v-28.84h14.23v29.98h1.14v0h1.14v-31.11c0-.3-.12-.59-.33-.8-.21-.21-.5-.33-.8-.33h-16.5c-.3,0-.59,.12-.8,.33-.21,.21-.33,.5-.33,.8v31.11c0,.3,.12,.59,.33,.8,.21,.21,.5,.33,.8,.33h16.5c.3,0,.59-.12,.8-.33,.21-.21,.33-.5,.33-.8h-1.14Z"/>
  <path class="cls-1" d="M332.35,1087.11v-1.14h-15.36v-43.68h14.23v44.82h1.14v0h1.14v-45.96c0-.3-.12-.59-.33-.8-.21-.21-.5-.33-.8-.33h-16.5c-.3,0-.59,.12-.8,.33-.21,.21-.33,.5-.33,.8v45.96c0,.3,.12,.59,.33,.8,.21,.21,.5,.33,.8,.33h16.5c.3,0,.59-.12,.8-.33,.21-.21,.33-.5,.33-.8h-1.14Z"/>
  <path class="cls-1" d="M332.35,1029.23v-1.14h-15.36v-23.18h14.23v24.32h1.14v0h1.14v-25.45c0-.3-.12-.59-.33-.8-.21-.21-.5-.33-.8-.33h-16.5c-.3,0-.59,.12-.8,.33-.21,.21-.33,.5-.33,.8v25.45c0,.3,.12,.59,.33,.8,.21,.21,.5,.33,.8,.33h16.5c.3,0,.59-.12,.8-.33,.21-.21,.33-.5,.33-.8h-1.14Z"/>
  <path class="cls-1" d="M340.08,1041.16v-1.14h-30.83v-35.11h29.69v36.24h1.14v0h1.14v-37.38c0-.3-.12-.59-.33-.8-.21-.21-.5-.33-.8-.33h-31.96c-.3,0-.59,.12-.8,.33-.21,.21-.33,.5-.33,.8v37.38c0,.3,.12,.59,.33,.8,.21,.21,.5,.33,.8,.33h31.96c.3,0,.59-.12,.8-.33,.21-.21,.33-.5,.33-.8h-1.14Z"/>
  <path class="cls-1" d="M297.28,953.57v-1.14H74.82v-8.85h221.33v9.98h1.14v0h1.14v-11.12c0-.3-.12-.59-.33-.8-.21-.21-.5-.33-.8-.33H73.68c-.3,0-.59,.12-.8,.33-.21,.21-.33,.5-.33,.8v11.12c0,.3,.12,.59,.33,.8,.21,.21,.5,.33,.8,.33h223.6c.3,0,.59-.12,.8-.33,.21-.21,.33-.5,.33-.8h-1.14Z"/>
  <path class="cls-1" d="M290.43,942.45v-1.14H80.8v-8.85h208.5v9.98h1.14v0h1.14v-11.12c0-.3-.12-.59-.33-.8-.21-.21-.5-.33-.8-.33H79.66c-.3,0-.59,.12-.8,.33-.21,.21-.33,.5-.33,.8v11.12c0,.3,.12,.59,.33,.8,.21,.21,.5,.33,.8,.33h210.77c.3,0,.59-.12,.8-.33,.21-.21,.33-.5,.33-.8h-1.14Z"/>
  <path class="cls-1" d="M362.36,1087.11v-1.14H8.87v-153.51s352.35,0,352.35,0v154.65h1.14v0h1.14v-155.78c0-.3-.12-.59-.33-.8-.21-.21-.5-.33-.8-.33H7.74c-.3,0-.59,.12-.8,.33-.21,.21-.33,.5-.33,.8v155.78c0,.3,.12,.59,.33,.8,.21,.21,.5,.33,.8,.33H362.36c.3,0,.59-.12,.8-.33,.21-.21,.33-.5,.33-.8h-1.14Z"/>
  <polygon class="cls-1" points="1382.07 783.31 1381.66 782.37 1200.88 859.89 1549.93 859.89 1382.08 782.19 1381.66 782.37 1382.07 783.31 1381.64 784.23 1540.64 857.84 1210.84 857.84 1382.47 784.25 1382.07 783.31 1381.64 784.23 1382.07 783.31"/>
  <polygon class="cls-1" points="1545.29 858.87 1545.29 857.84 1210.74 857.84 1234.39 847.47 1518.24 847.47 1544.86 859.79 1545.29 858.87 1545.29 857.84 1545.29 858.87 1545.72 857.94 1518.69 845.42 1233.96 845.42 1200.98 859.89 1549.93 859.89 1545.72 857.94 1545.29 858.87"/>
  <polygon class="cls-1" points="1561.82 871.28 1561.82 870.26 1189.09 870.26 1189.09 859.89 1560.79 859.89 1560.79 871.28 1561.82 871.28 1561.82 870.26 1561.82 871.28 1562.84 871.28 1562.84 857.84 1187.04 857.84 1187.04 872.31 1562.84 872.31 1562.84 871.28 1561.82 871.28"/>
  <polygon class="cls-1" points="1561.82 983.41 1561.82 982.38 1189.09 982.38 1189.09 972.01 1560.79 972.01 1560.79 983.41 1561.82 983.41 1561.82 982.38 1561.82 983.41 1562.84 983.41 1562.84 969.97 1187.04 969.97 1187.04 984.43 1562.84 984.43 1562.84 983.41 1561.82 983.41"/>
  <polygon class="cls-1" points="1510.13 1088.87 1510.13 1087.84 1248.08 1087.84 1248.08 1070.24 1509.11 1070.24 1509.11 1088.87 1510.13 1088.87 1510.13 1087.84 1510.13 1088.87 1511.15 1088.87 1511.15 1068.2 1246.04 1068.2 1246.04 1089.89 1511.15 1089.89 1511.15 1088.87 1510.13 1088.87"/>
  <polygon class="cls-1" points="1314.88 902 1314.88 900.98 1285.18 900.98 1285.18 872.31 1313.86 872.31 1313.86 902 1314.88 902 1314.88 900.98 1314.88 902 1315.9 902 1315.9 870.26 1283.14 870.26 1283.14 903.02 1315.9 903.02 1315.9 902 1314.88 902"/>
  <polygon class="cls-1" points="1307.14 970.99 1307.14 969.97 1292.92 969.97 1292.92 903.02 1306.12 903.02 1306.12 970.99 1307.14 970.99 1307.14 969.97 1307.14 970.99 1308.17 970.99 1308.17 900.98 1290.87 900.98 1290.87 972.01 1308.17 972.01 1308.17 970.99 1307.14 970.99"/>
  <path class="cls-1" d="M1283.96,1069.22v-1.02h-20.94v-60.04c0-1.5,.61-2.85,1.59-3.84,.99-.98,2.34-1.59,3.84-1.59h9.06c1.5,0,2.85,.61,3.84,1.59,.98,.99,1.59,2.34,1.59,3.84v61.06h1.02v0h1.02v-61.06c0-4.13-3.35-7.48-7.48-7.48h-9.06c-4.13,0-7.48,3.35-7.48,7.48v62.08h24.01v-1.02h-1.02Z"/>
  <path class="cls-1" d="M1326.21,1069.22v-1.02h-20.94v-60.04c0-1.5,.61-2.85,1.59-3.84,.99-.98,2.34-1.59,3.84-1.59h9.06c1.5,0,2.85,.61,3.84,1.59,.98,.99,1.59,2.34,1.59,3.84v61.06h1.02v0h1.02v-61.06c0-4.13-3.35-7.48-7.48-7.48h-9.06c-4.13,0-7.48,3.35-7.48,7.48v62.08h24.01v-1.02h-1.02Z"/>
  <path class="cls-1" d="M1368.46,1069.22v-1.02h-20.94v-60.04c0-1.5,.61-2.85,1.59-3.84,.99-.98,2.34-1.59,3.84-1.59h9.06c1.5,0,2.85,.61,3.84,1.59,.98,.99,1.59,2.34,1.59,3.84v61.06h1.02v0h1.02v-61.06c0-4.13-3.35-7.48-7.48-7.48h-9.06c-4.13,0-7.48,3.35-7.48,7.48v62.08h24.01v-1.02h-1.02Z"/>
  <path class="cls-1" d="M1410.7,1069.22v-1.02h-20.94v-60.04c0-1.5,.61-2.85,1.59-3.84,.99-.98,2.34-1.59,3.84-1.59h9.06c1.5,0,2.85,.61,3.84,1.59,.98,.99,1.59,2.34,1.59,3.84v61.06h1.02v0h1.02v-61.06c0-4.13-3.35-7.48-7.48-7.48h-9.06c-4.13,0-7.48,3.35-7.48,7.48v62.08h24.01v-1.02h-1.02Z"/>
  <path class="cls-1" d="M1452.95,1069.22v-1.02h-20.94v-60.04c0-1.5,.61-2.85,1.59-3.84,.99-.98,2.34-1.59,3.84-1.59h9.06c1.5,0,2.85,.61,3.84,1.59,.98,.99,1.59,2.34,1.59,3.84v61.06h1.02v0h1.02v-61.06c0-4.13-3.35-7.48-7.48-7.48h-9.06c-4.13,0-7.48,3.35-7.48,7.48v62.08h24.01v-1.02h-1.02Z"/>
  <path class="cls-1" d="M1495.2,1069.22v-1.02h-20.94v-60.04c0-1.5,.61-2.85,1.59-3.84,.99-.98,2.34-1.59,3.84-1.59h9.06c1.5,0,2.85,.61,3.84,1.59,.98,.99,1.59,2.34,1.59,3.84v61.06h1.02v0h1.02v-61.06c0-4.13-3.35-7.48-7.48-7.48h-9.06c-4.13,0-7.48,3.35-7.48,7.48v62.08h24.01v-1.02h-1.02Z"/>
  <polygon class="cls-1" points="1360.95 970.99 1360.95 969.97 1346.72 969.97 1346.72 903.02 1359.93 903.02 1359.93 970.99 1360.95 970.99 1360.95 969.97 1360.95 970.99 1361.97 970.99 1361.97 900.98 1344.68 900.98 1344.68 972.01 1361.97 972.01 1361.97 970.99 1360.95 970.99"/>
  <polygon class="cls-1" points="1414.76 970.99 1414.76 969.97 1400.53 969.97 1400.53 903.02 1413.73 903.02 1413.73 970.99 1414.76 970.99 1414.76 969.97 1414.76 970.99 1415.78 970.99 1415.78 900.98 1398.48 900.98 1398.48 972.01 1415.78 972.01 1415.78 970.99 1414.76 970.99"/>
  <polygon class="cls-1" points="1468.56 970.99 1468.56 969.97 1454.34 969.97 1454.34 903.02 1467.54 903.02 1467.54 970.99 1468.56 970.99 1468.56 969.97 1468.56 970.99 1469.58 970.99 1469.58 900.98 1452.29 900.98 1452.29 972.01 1469.58 972.01 1469.58 970.99 1468.56 970.99"/>
  <polygon class="cls-1" points="1368.68 902 1368.68 900.98 1338.99 900.98 1338.99 872.31 1367.66 872.31 1367.66 902 1368.68 902 1368.68 900.98 1368.68 902 1369.71 902 1369.71 870.26 1336.94 870.26 1336.94 903.02 1369.71 903.02 1369.71 902 1368.68 902"/>
  <polygon class="cls-1" points="1422.49 902 1422.49 900.98 1392.8 900.98 1392.8 872.31 1421.47 872.31 1421.47 902 1422.49 902 1422.49 900.98 1422.49 902 1423.51 902 1423.51 870.26 1390.75 870.26 1390.75 903.02 1423.51 903.02 1423.51 902 1422.49 902"/>
  <polygon class="cls-1" points="1476.3 902 1476.3 900.98 1446.6 900.98 1446.6 872.31 1475.27 872.31 1475.27 902 1476.3 902 1476.3 900.98 1476.3 902 1477.32 902 1477.32 870.26 1444.55 870.26 1444.55 903.02 1477.32 903.02 1477.32 902 1476.3 902"/>
  <polygon class="cls-1" points="1551.33 970.99 1551.33 969.97 1511.15 969.97 1511.15 872.31 1550.31 872.31 1550.31 970.99 1551.33 970.99 1551.33 969.97 1551.33 970.99 1552.36 970.99 1552.36 870.26 1509.11 870.26 1509.11 972.01 1552.36 972.01 1552.36 970.99 1551.33 970.99"/>
  <polygon class="cls-1" points="1247.06 970.99 1247.06 969.97 1206.88 969.97 1206.88 872.31 1246.04 872.31 1246.04 970.99 1247.06 970.99 1247.06 969.97 1247.06 970.99 1248.08 970.99 1248.08 870.26 1204.84 870.26 1204.84 972.01 1248.08 972.01 1248.08 970.99 1247.06 970.99"/>
  <polygon class="cls-1" points="1551.33 1088.87 1551.33 1087.84 1511.15 1087.84 1511.15 984.43 1550.31 984.43 1550.31 1088.87 1551.33 1088.87 1551.33 1087.84 1551.33 1088.87 1552.36 1088.87 1552.36 982.38 1509.11 982.38 1509.11 1089.89 1552.36 1089.89 1552.36 1088.87 1551.33 1088.87"/>
  <polygon class="cls-1" points="1247.06 1089.85 1247.06 1088.83 1206.88 1088.83 1206.88 984.43 1246.04 984.43 1246.04 1089.85 1247.06 1089.85 1247.06 1088.83 1247.06 1089.85 1248.08 1089.85 1248.08 982.38 1204.84 982.38 1204.84 1090.88 1248.08 1090.88 1248.08 1089.85 1247.06 1089.85"/>
  <path class="cls-1" d="M1596.68,961.14v-1.02h-26.12v-42.33c0-1.92,.78-3.65,2.04-4.92,1.26-1.26,2.99-2.04,4.92-2.04h11.19c1.92,0,3.65,.78,4.92,2.04,1.26,1.26,2.04,2.99,2.04,4.92v43.35h1.02v0h1.02v-43.35c0-4.97-4.03-9-9-9h-11.19c-4.97,0-9,4.03-9,9v44.38h29.19v-1.02h-1.02Z"/>
  <polygon class="cls-1" points="1650.7 983.41 1650.7 982.38 1562.84 982.38 1562.84 972.01 1649.67 972.01 1649.67 983.41 1650.7 983.41 1650.7 982.38 1650.7 983.41 1651.72 983.41 1651.72 969.97 1560.79 969.97 1560.79 984.43 1651.72 984.43 1651.72 983.41 1650.7 983.41"/>
  <polygon class="cls-1" points="1650.7 970.99 1650.7 969.97 1609.02 969.97 1609.02 898.69 1649.67 898.69 1649.67 970.99 1650.7 970.99 1650.7 969.97 1650.7 970.99 1651.72 970.99 1651.72 896.64 1606.97 896.64 1606.97 972.01 1651.72 972.01 1651.72 970.99 1650.7 970.99"/>
  <polygon class="cls-1" points="1648.64 884.38 1648.64 883.35 1552.35 883.35 1552.35 874.89 1647.62 874.89 1647.62 884.38 1648.64 884.38 1648.64 883.35 1648.64 884.38 1649.66 884.38 1649.66 872.84 1550.31 872.84 1550.31 885.4 1649.66 885.4 1649.66 884.38 1648.64 884.38"/>
  <polygon class="cls-1" points="1650.7 897.67 1650.7 896.64 1552.35 896.64 1552.35 885.4 1649.67 885.4 1649.67 897.67 1650.7 897.67 1650.7 896.64 1650.7 897.67 1651.72 897.67 1651.72 883.35 1550.31 883.35 1550.31 898.69 1651.72 898.69 1651.72 897.67 1650.7 897.67"/>
  <polygon class="cls-1" points="1650.7 970.99 1650.7 969.97 1552.35 969.97 1552.35 898.69 1649.67 898.69 1649.67 970.99 1650.7 970.99 1650.7 969.97 1650.7 970.99 1651.72 970.99 1651.72 896.64 1550.31 896.64 1550.31 972.01 1651.72 972.01 1651.72 970.99 1650.7 970.99"/>
  <polygon class="cls-1" points="1650.7 996.7 1650.7 995.67 1552.35 995.67 1552.35 984.43 1649.67 984.43 1649.67 996.7 1650.7 996.7 1650.7 995.67 1650.7 996.7 1651.72 996.7 1651.72 982.38 1550.31 982.38 1550.31 997.72 1651.72 997.72 1651.72 996.7 1650.7 996.7"/>
  <polygon class="cls-1" points="1650.7 1088.87 1650.7 1087.84 1552.36 1087.84 1552.36 997.72 1649.67 997.72 1649.67 1088.87 1650.7 1088.87 1650.7 1087.84 1650.7 1088.87 1651.72 1088.87 1651.72 995.67 1550.31 995.67 1550.31 1089.89 1651.72 1089.89 1651.72 1088.87 1650.7 1088.87"/>
  <polygon class="cls-1" points="1650.7 1088.87 1650.7 1087.84 1609.02 1087.84 1609.02 997.72 1649.67 997.72 1649.67 1088.87 1650.7 1088.87 1650.7 1087.84 1650.7 1088.87 1651.72 1088.87 1651.72 995.67 1606.97 995.67 1606.97 1089.89 1651.72 1089.89 1651.72 1088.87 1650.7 1088.87"/>
  <path class="cls-1" d="M1160.51,961.14v1.02h28.17v-44.38c0-4.97-4.03-9-9-9h-11.19c-4.97,0-9,4.03-9,9v44.38h1.02v-1.02h1.02v-43.35c0-1.92,.78-3.65,2.04-4.92,1.26-1.26,2.99-2.04,4.92-2.04h11.19c1.92,0,3.65,.78,4.92,2.04,1.26,1.26,2.04,2.99,2.04,4.92v42.33h-26.12v1.02h0Z"/>
  <polygon class="cls-1" points="1106.49 983.41 1106.49 984.43 1196.4 984.43 1196.4 969.97 1105.47 969.97 1105.47 984.43 1106.49 984.43 1106.49 983.41 1107.52 983.41 1107.52 972.01 1194.35 972.01 1194.35 982.38 1106.49 982.38 1106.49 983.41 1107.52 983.41 1106.49 983.41"/>
  <polygon class="cls-1" points="1106.49 970.99 1106.49 972.01 1150.22 972.01 1150.22 896.64 1105.47 896.64 1105.47 972.01 1106.49 972.01 1106.49 970.99 1107.52 970.99 1107.52 898.69 1148.18 898.69 1148.18 969.97 1106.49 969.97 1106.49 970.99 1107.52 970.99 1106.49 970.99"/>
  <polygon class="cls-1" points="1108.55 884.38 1108.55 885.4 1206.88 885.4 1206.88 872.84 1107.53 872.84 1107.53 885.4 1108.55 885.4 1108.55 884.38 1109.57 884.38 1109.57 874.89 1204.84 874.89 1204.84 883.35 1108.55 883.35 1108.55 884.38 1109.57 884.38 1108.55 884.38"/>
  <polygon class="cls-1" points="1106.49 897.67 1106.49 898.69 1206.88 898.69 1206.88 883.35 1105.47 883.35 1105.47 898.69 1106.49 898.69 1106.49 897.67 1107.52 897.67 1107.52 885.4 1204.84 885.4 1204.84 896.64 1106.49 896.64 1106.49 897.67 1107.52 897.67 1106.49 897.67"/>
  <polygon class="cls-1" points="1106.49 970.99 1106.49 972.01 1206.88 972.01 1206.88 896.64 1105.47 896.64 1105.47 972.01 1106.49 972.01 1106.49 970.99 1107.52 970.99 1107.52 898.69 1204.84 898.69 1204.84 969.97 1106.49 969.97 1106.49 970.99 1107.52 970.99 1106.49 970.99"/>
  <polygon class="cls-1" points="1106.49 996.7 1106.49 997.72 1206.88 997.72 1206.88 982.38 1105.47 982.38 1105.47 997.72 1106.49 997.72 1106.49 996.7 1107.52 996.7 1107.52 984.43 1204.84 984.43 1204.84 995.67 1106.49 995.67 1106.49 996.7 1107.52 996.7 1106.49 996.7"/>
  <polygon class="cls-1" points="1106.5 1089.85 1106.5 1090.88 1206.88 1090.88 1206.88 995.67 1105.47 995.67 1105.47 1090.88 1106.5 1090.88 1106.5 1089.85 1107.52 1089.85 1107.52 997.72 1204.84 997.72 1204.84 1088.83 1106.5 1088.83 1106.5 1089.85 1107.52 1089.85 1106.5 1089.85"/>
  <polygon class="cls-1" points="1106.49 1089.85 1106.49 1090.88 1150.22 1090.88 1150.22 995.67 1105.47 995.67 1105.47 1090.88 1106.49 1090.88 1106.49 1089.85 1107.52 1089.85 1107.52 997.72 1148.18 997.72 1148.18 1088.83 1106.49 1088.83 1106.49 1089.85 1107.52 1089.85 1106.49 1089.85"/>
  <path class="cls-1" d="M1160.51,1060.17v1.02h28.17v-44.38c0-4.97-4.03-9-9-9h-11.19c-4.97,0-9,4.03-9,9v44.38h1.02v-1.02h1.02v-43.35c0-1.92,.78-3.65,2.04-4.92,1.26-1.26,2.99-2.04,4.92-2.04h11.19c1.92,0,3.65,.78,4.92,2.04,1.26,1.26,2.04,2.99,2.04,4.92v42.33h-26.12v1.02h0Z"/>
  <path class="cls-1" d="M1566.73,1060.17v1.02h28.17v-44.38c0-4.97-4.03-9-9-9h-11.19c-4.97,0-9,4.03-9,9v44.38h1.02v-1.02h1.02v-43.35c0-1.92,.78-3.65,2.04-4.92,1.26-1.26,2.99-2.04,4.92-2.04h11.19c1.92,0,3.65,.78,4.92,2.04,1.26,1.26,2.04,2.99,2.04,4.92v42.33h-26.12v1.02h0Z"/>
  <polygon class="cls-1" points="1729.57 1079.04 1729.57 1078.02 1707.26 1078.02 1707.26 979.57 1728.55 979.57 1728.55 1079.04 1729.57 1079.04 1729.57 1078.02 1729.57 1079.04 1730.6 1079.04 1730.6 977.52 1705.21 977.52 1705.21 1080.07 1730.6 1080.07 1730.6 1079.04 1729.57 1079.04"/>
  <polygon class="cls-1" points="1883.79 1079.04 1883.79 1078.02 1861.47 1078.02 1861.47 979.57 1882.76 979.57 1882.76 1079.04 1883.79 1079.04 1883.79 1078.02 1883.79 1079.04 1884.81 1079.04 1884.81 977.52 1859.43 977.52 1859.43 1080.07 1884.81 1080.07 1884.81 1079.04 1883.79 1079.04"/>
  <polygon class="cls-1" points="1820.29 1079.04 1820.29 1078.02 1769.64 1078.02 1769.64 979.57 1819.27 979.57 1819.27 1079.04 1820.29 1079.04 1820.29 1078.02 1820.29 1079.04 1821.32 1079.04 1821.32 977.52 1767.6 977.52 1767.6 1080.07 1821.32 1080.07 1821.32 1079.04 1820.29 1079.04"/>
  <polygon class="cls-1" points="1850.07 651.55 1850.07 650.53 1737.82 650.53 1737.82 643.15 1849.05 643.15 1849.05 651.55 1850.07 651.55 1850.07 650.53 1850.07 651.55 1851.09 651.55 1851.09 641.11 1735.78 641.11 1735.78 652.58 1851.09 652.58 1851.09 651.55 1850.07 651.55"/>
  <polygon class="cls-1" points="1841.71 660.98 1841.71 659.96 1747.96 659.96 1747.96 652.58 1840.69 652.58 1840.69 660.98 1841.71 660.98 1841.71 659.96 1841.71 660.98 1842.74 660.98 1842.74 650.53 1745.91 650.53 1745.91 662 1842.74 662 1842.74 660.98 1841.71 660.98"/>
  <polygon class="cls-1" points="1841.71 682.32 1841.71 681.29 1747.96 681.29 1747.96 662 1840.69 662 1840.69 682.32 1841.71 682.32 1841.71 681.29 1841.71 682.32 1842.74 682.32 1842.74 659.96 1745.91 659.96 1745.91 683.34 1842.74 683.34 1842.74 682.32 1841.71 682.32"/>
  <polygon class="cls-1" points="1817.53 682.32 1817.53 681.29 1774.63 681.29 1774.63 662 1816.51 662 1816.51 682.32 1817.53 682.32 1817.53 681.29 1817.53 682.32 1818.55 682.32 1818.55 659.96 1772.58 659.96 1772.58 683.34 1818.55 683.34 1818.55 682.32 1817.53 682.32"/>
  <polygon class="cls-1" points="1802.06 682.32 1802.06 681.29 1786.72 681.29 1786.72 670.18 1801.04 670.18 1801.04 682.32 1802.06 682.32 1802.06 681.29 1802.06 682.32 1803.08 682.32 1803.08 668.14 1784.68 668.14 1784.68 683.34 1803.08 683.34 1803.08 682.32 1802.06 682.32"/>
  <polygon class="cls-1" points="1850.07 642.13 1850.07 641.11 1838.45 641.11 1838.45 612.25 1849.05 612.25 1849.05 642.13 1850.07 642.13 1850.07 641.11 1850.07 642.13 1851.09 642.13 1851.09 610.2 1836.41 610.2 1836.41 643.15 1851.09 643.15 1851.09 642.13 1850.07 642.13"/>
  <polygon class="cls-1" points="1749.44 642.13 1749.44 641.11 1737.82 641.11 1737.82 612.25 1748.42 612.25 1748.42 642.13 1749.44 642.13 1749.44 641.11 1749.44 642.13 1750.46 642.13 1750.46 610.2 1735.78 610.2 1735.78 643.15 1750.46 643.15 1750.46 642.13 1749.44 642.13"/>
  <polygon class="cls-1" points="1868.96 695.12 1868.96 694.1 1718.93 694.1 1718.93 683.57 1867.94 683.57 1867.94 695.12 1868.96 695.12 1868.96 694.1 1868.96 695.12 1869.99 695.12 1869.99 681.53 1716.88 681.53 1716.88 696.14 1869.99 696.14 1869.99 695.12 1868.96 695.12"/>
  <polygon class="cls-1" points="1857.82 707.69 1857.82 706.66 1732.45 706.66 1732.45 696.14 1856.8 696.14 1856.8 707.69 1857.82 707.69 1857.82 706.66 1857.82 707.69 1858.84 707.69 1858.84 694.1 1730.4 694.1 1730.4 708.71 1858.84 708.71 1858.84 707.69 1857.82 707.69"/>
  <polygon class="cls-1" points="1857.82 736.14 1857.82 735.12 1732.45 735.12 1732.45 708.71 1856.8 708.71 1856.8 736.14 1857.82 736.14 1857.82 735.12 1857.82 736.14 1858.84 736.14 1858.84 706.66 1730.4 706.66 1730.4 737.17 1858.84 737.17 1858.84 736.14 1857.82 736.14"/>
  <polygon class="cls-1" points="1825.57 736.14 1825.57 735.12 1768.02 735.12 1768.02 708.71 1824.54 708.71 1824.54 736.14 1825.57 736.14 1825.57 735.12 1825.57 736.14 1826.59 736.14 1826.59 706.66 1765.97 706.66 1765.97 737.17 1826.59 737.17 1826.59 736.14 1825.57 736.14"/>
  <polygon class="cls-1" points="1804.94 736.14 1804.94 735.12 1784.14 735.12 1784.14 719.62 1803.91 719.62 1803.91 736.14 1804.94 736.14 1804.94 735.12 1804.94 736.14 1805.96 736.14 1805.96 717.57 1782.1 717.57 1782.1 737.17 1805.96 737.17 1805.96 736.14 1804.94 736.14"/>
  <polygon class="cls-1" points="1889.7 752.4 1889.7 751.37 1698.19 751.37 1698.19 737.4 1888.68 737.4 1888.68 752.4 1889.7 752.4 1889.7 751.37 1889.7 752.4 1890.73 752.4 1890.73 735.35 1696.14 735.35 1696.14 753.42 1890.73 753.42 1890.73 752.4 1889.7 752.4"/>
  <polygon class="cls-1" points="1875.5 768.42 1875.5 767.39 1715.42 767.39 1715.42 753.42 1874.47 753.42 1874.47 768.42 1875.5 768.42 1875.5 767.39 1875.5 768.42 1876.52 768.42 1876.52 751.37 1713.37 751.37 1713.37 769.44 1876.52 769.44 1876.52 768.42 1875.5 768.42"/>
  <polygon class="cls-1" points="1875.5 804.69 1875.5 803.66 1715.42 803.66 1715.42 769.44 1874.47 769.44 1874.47 804.69 1875.5 804.69 1875.5 803.66 1875.5 804.69 1876.52 804.69 1876.52 767.39 1713.37 767.39 1713.37 805.71 1876.52 805.71 1876.52 804.69 1875.5 804.69"/>
  <polygon class="cls-1" points="1834.39 804.69 1834.39 803.66 1760.76 803.66 1760.76 769.44 1833.37 769.44 1833.37 804.69 1834.39 804.69 1834.39 803.66 1834.39 804.69 1835.41 804.69 1835.41 767.39 1758.71 767.39 1758.71 805.71 1835.41 805.71 1835.41 804.69 1834.39 804.69"/>
  <polygon class="cls-1" points="1808.09 804.69 1808.09 803.66 1781.31 803.66 1781.31 783.34 1807.07 783.34 1807.07 804.69 1808.09 804.69 1808.09 803.66 1808.09 804.69 1809.12 804.69 1809.12 781.3 1779.26 781.3 1779.26 805.71 1809.12 805.71 1809.12 804.69 1808.09 804.69"/>
  <polygon class="cls-1" points="1919.6 825.91 1919.6 824.89 1668.29 824.89 1668.29 805.94 1918.58 805.94 1918.58 825.91 1919.6 825.91 1919.6 824.89 1919.6 825.91 1920.62 825.91 1920.62 803.9 1666.25 803.9 1666.25 826.94 1920.62 826.94 1920.62 825.91 1919.6 825.91"/>
  <polygon class="cls-1" points="1900.98 846.91 1900.98 845.88 1690.87 845.88 1690.87 826.94 1899.96 826.94 1899.96 846.91 1900.98 846.91 1900.98 845.88 1900.98 846.91 1902.01 846.91 1902.01 824.89 1688.83 824.89 1688.83 847.93 1902.01 847.93 1902.01 846.91 1900.98 846.91"/>
  <polygon class="cls-1" points="1900.98 894.44 1900.98 893.42 1690.87 893.42 1690.87 847.93 1899.96 847.93 1899.96 894.44 1900.98 894.44 1900.98 893.42 1900.98 894.44 1902.01 894.44 1902.01 845.88 1688.83 845.88 1688.83 895.47 1902.01 895.47 1902.01 894.44 1900.98 894.44"/>
  <polygon class="cls-1" points="1847.11 894.44 1847.11 893.42 1750.29 893.42 1750.29 847.93 1846.09 847.93 1846.09 894.44 1847.11 894.44 1847.11 893.42 1847.11 894.44 1848.13 894.44 1848.13 845.88 1748.24 845.88 1748.24 895.47 1848.13 895.47 1848.13 894.44 1847.11 894.44"/>
  <polygon class="cls-1" points="1812.65 894.44 1812.65 893.42 1777.23 893.42 1777.23 866.15 1811.62 866.15 1811.62 894.44 1812.65 894.44 1812.65 893.42 1812.65 894.44 1813.67 894.44 1813.67 864.11 1775.18 864.11 1775.18 895.47 1813.67 895.47 1813.67 894.44 1812.65 894.44"/>
  <polygon class="cls-1" points="1919.6 915.67 1919.6 914.65 1668.29 914.65 1668.29 895.7 1918.58 895.7 1918.58 915.67 1919.6 915.67 1919.6 914.65 1919.6 915.67 1920.62 915.67 1920.62 893.65 1666.25 893.65 1666.25 916.69 1920.62 916.69 1920.62 915.67 1919.6 915.67"/>
  <polygon class="cls-1" points="1900.98 932.76 1900.98 931.74 1690.87 931.74 1690.87 916.69 1899.96 916.69 1899.96 932.76 1900.98 932.76 1900.98 931.74 1900.98 932.76 1902.01 932.76 1902.01 914.65 1688.83 914.65 1688.83 933.79 1902.01 933.79 1902.01 932.76 1900.98 932.76"/>
  <polygon class="cls-1" points="1900.98 1079.04 1900.98 1078.02 1690.87 1078.02 1690.87 934.02 1899.96 934.02 1899.96 1079.04 1900.98 1079.04 1900.98 1078.02 1900.98 1079.04 1902.01 1079.04 1902.01 931.97 1688.83 931.97 1688.83 1080.07 1902.01 1080.07 1902.01 1079.04 1900.98 1079.04"/>
  <polygon class="cls-1" points="1841.71 1079.04 1841.71 1078.02 1747.96 1078.02 1747.96 934.02 1840.69 934.02 1840.69 1079.04 1841.71 1079.04 1841.71 1078.02 1841.71 1079.04 1842.74 1079.04 1842.74 931.97 1745.91 931.97 1745.91 1080.07 1842.74 1080.07 1842.74 1079.04 1841.71 1079.04"/>
</svg>