<svg xmlns="http://www.w3.org/2000/svg" viewBox="0 0 514.54 163.91"><defs><style>.cls-1{fill:#ebc848;}</style></defs><g id="Layer_2" data-name="Layer 2"><g id="Layer_1-2" data-name="Layer 1"><path class="cls-1" d="M53.09,139.39h.67v.67a.28.28,0,0,0,.28.28.29.29,0,0,0,.28-.28v-.67H55a.28.28,0,0,0,0-.56h-.67v-.67a.29.29,0,0,0-.28-.28.28.28,0,0,0-.28.28v.67h-.67a.28.28,0,1,0,0,.56Z"/><path class="cls-1" d="M57.41,139.39h.67v.67a.28.28,0,0,0,.28.28.29.29,0,0,0,.28-.28v-.67h.67a.28.28,0,0,0,0-.56h-.67v-.67a.29.29,0,0,0-.28-.28.28.28,0,0,0-.28.28v.67h-.67a.28.28,0,1,0,0,.56Z"/><path class="cls-1" d="M55,142.25h-.67v-.67a.29.29,0,0,0-.28-.28.28.28,0,0,0-.28.28v.67h-.67a.28.28,0,0,0,0,.56h.67v.67a.28.28,0,0,0,.28.28.29.29,0,0,0,.28-.28v-.67H55a.28.28,0,0,0,0-.56Z"/><path class="cls-1" d="M48.91,142.25h-.66v-.67a.29.29,0,0,0-.28-.28.28.28,0,0,0-.28.28v.67H47a.29.29,0,0,0-.28.28.28.28,0,0,0,.28.28h.67v.67a.28.28,0,0,0,.28.28.29.29,0,0,0,.28-.28v-.67h.66a.28.28,0,0,0,0-.56Z"/><path class="cls-1" d="M57.41,142.81h.67v.67a.28.28,0,0,0,.28.28.29.29,0,0,0,.28-.28v-.67h.67a.28.28,0,0,0,0-.56h-.67v-.67a.29.29,0,0,0-.28-.28.28.28,0,0,0-.28.28v.67h-.67a.28.28,0,0,0,0,.56Z"/><path class="cls-1" d="M61.18,142.81h.67v.67a.29.29,0,0,0,.28.28.28.28,0,0,0,.28-.28v-.67h.67a.28.28,0,0,0,0-.56h-.67v-.67a.28.28,0,0,0-.28-.28.29.29,0,0,0-.28.28v.67h-.67a.28.28,0,0,0,0,.56Z"/><path class="cls-1" d="M51.91,129.13h.67v.67a.28.28,0,0,0,.55,0v-.67h.67a.28.28,0,0,0,.28-.28.27.27,0,0,0-.28-.28h-.67v-.67a.28.28,0,1,0-.55,0v.67h-.67a.27.27,0,0,0-.28.28A.28.28,0,0,0,51.91,129.13Z"/><path class="cls-1" d="M56.23,129.13h.67v.67a.28.28,0,0,0,.55,0v-.67h.67a.28.28,0,0,0,.28-.28.27.27,0,0,0-.28-.28h-.67v-.67a.28.28,0,1,0-.55,0v.67h-.67a.27.27,0,0,0-.28.28A.28.28,0,0,0,56.23,129.13Z"/><path class="cls-1" d="M53.8,132h-.67v-.67a.28.28,0,1,0-.55,0V132h-.67a.27.27,0,0,0-.28.28.28.28,0,0,0,.28.28h.67v.67a.28.28,0,0,0,.55,0v-.67h.67a.28.28,0,0,0,.28-.28A.27.27,0,0,0,53.8,132Z"/><path class="cls-1" d="M56.23,132.55h.67v.67a.28.28,0,0,0,.55,0v-.67h.67a.28.28,0,0,0,.28-.28.27.27,0,0,0-.28-.28h-.67v-.67a.28.28,0,1,0-.55,0V132h-.67a.27.27,0,0,0-.28.28A.28.28,0,0,0,56.23,132.55Z"/><path class="cls-1" d="M60,132.55h.67v.67a.27.27,0,0,0,.28.27.28.28,0,0,0,.28-.27v-.67h.67a.29.29,0,0,0,.28-.28.29.29,0,0,0-.28-.28h-.67v-.67A.29.29,0,0,0,61,131a.28.28,0,0,0-.28.28V132H60a.28.28,0,0,0-.28.28A.29.29,0,0,0,60,132.55Z"/><path class="cls-1" d="M31.37,139.39H32v.67a.28.28,0,0,0,.56,0v-.67h.67a.28.28,0,1,0,0-.56H32.6v-.67a.28.28,0,1,0-.56,0v.67h-.67a.28.28,0,1,0,0,.56Z"/><path class="cls-1" d="M27.05,139.39h.67v.67a.29.29,0,0,0,.28.28.28.28,0,0,0,.28-.28v-.67H29a.28.28,0,1,0,0-.56h-.67v-.67a.28.28,0,0,0-.28-.28.29.29,0,0,0-.28.28v.67h-.67a.28.28,0,0,0,0,.56Z"/><path class="cls-1" d="M31.37,142.81H32v.67a.28.28,0,1,0,.56,0v-.67h.67a.28.28,0,1,0,0-.56H32.6v-.67a.28.28,0,1,0-.56,0v.67h-.67a.28.28,0,0,0,0,.56Z"/><path class="cls-1" d="M37.44,142.81h.67v.67a.29.29,0,0,0,.28.28.28.28,0,0,0,.28-.28v-.67h.67a.28.28,0,1,0,0-.56h-.67v-.67a.28.28,0,0,0-.28-.28.29.29,0,0,0-.28.28v.67h-.67a.28.28,0,0,0,0,.56Z"/><path class="cls-1" d="M27.05,142.81h.67v.67a.29.29,0,0,0,.28.28.28.28,0,0,0,.28-.28v-.67H29a.28.28,0,0,0,0-.56h-.67v-.67a.28.28,0,0,0-.28-.28.29.29,0,0,0-.28.28v.67h-.67a.28.28,0,0,0,0,.56Z"/><path class="cls-1" d="M25.17,142.25h-.66v-.67a.29.29,0,0,0-.28-.28.28.28,0,0,0-.28.28v.67h-.67a.28.28,0,0,0,0,.56H24v.67a.28.28,0,0,0,.28.28.29.29,0,0,0,.28-.28v-.67h.66a.28.28,0,0,0,0-.56Z"/><path class="cls-1" d="M32.56,129.13h.66v.67a.28.28,0,0,0,.28.27.27.27,0,0,0,.28-.27v-.67h.67a.29.29,0,0,0,.28-.28.28.28,0,0,0-.28-.28h-.67v-.67a.28.28,0,0,0-.28-.28.29.29,0,0,0-.28.28v.67h-.66a.27.27,0,0,0-.28.28A.28.28,0,0,0,32.56,129.13Z"/><path class="cls-1" d="M28.24,129.13h.67v.67a.28.28,0,0,0,.55,0v-.67h.67a.28.28,0,0,0,.28-.28.27.27,0,0,0-.28-.28h-.67v-.67a.28.28,0,1,0-.55,0v.67h-.67a.27.27,0,0,0-.28.28A.28.28,0,0,0,28.24,129.13Z"/><path class="cls-1" d="M32.56,132.55h.66v.67a.28.28,0,0,0,.28.27.27.27,0,0,0,.28-.27v-.67h.67a.29.29,0,0,0,.28-.28.28.28,0,0,0-.28-.28h-.67v-.67a.28.28,0,0,0-.28-.28.29.29,0,0,0-.28.28V132h-.66a.27.27,0,0,0-.28.28A.28.28,0,0,0,32.56,132.55Z"/><path class="cls-1" d="M28.24,132.55h.67v.67a.28.28,0,0,0,.55,0v-.67h.67a.28.28,0,0,0,.28-.28.27.27,0,0,0-.28-.28h-.67v-.67a.28.28,0,1,0-.55,0V132h-.67a.27.27,0,0,0-.28.28A.28.28,0,0,0,28.24,132.55Z"/><path class="cls-1" d="M24.46,132.55h.67v.67a.28.28,0,0,0,.56,0v-.67h.67a.29.29,0,0,0,.28-.28.28.28,0,0,0-.28-.28h-.67v-.67a.28.28,0,0,0-.56,0V132h-.67a.28.28,0,0,0-.28.28A.29.29,0,0,0,24.46,132.55Z"/><path class="cls-1" d="M176.07,60.23a.28.28,0,0,0,.28-.28V58.61a.28.28,0,0,0-.28-.28.29.29,0,0,0-.28.28V60A.29.29,0,0,0,176.07,60.23Z"/><path class="cls-1" d="M176.07,62.55a.27.27,0,0,0,.28-.28V60.93a.28.28,0,0,0-.28-.28.29.29,0,0,0-.28.28v1.34A.28.28,0,0,0,176.07,62.55Z"/><path class="cls-1" d="M175.12,60.23a.28.28,0,0,0,.28-.28V58.61a.28.28,0,0,0-.28-.28.29.29,0,0,0-.28.28V60A.29.29,0,0,0,175.12,60.23Z"/><path class="cls-1" d="M175.12,62.55a.27.27,0,0,0,.28-.28V60.93a.28.28,0,0,0-.28-.28.29.29,0,0,0-.28.28v1.34A.28.28,0,0,0,175.12,62.55Z"/><path class="cls-1" d="M174.17,60.23a.28.28,0,0,0,.28-.28V58.61a.28.28,0,1,0-.55,0V60A.28.28,0,0,0,174.17,60.23Z"/><path class="cls-1" d="M174.17,62.55a.27.27,0,0,0,.28-.28V60.93a.28.28,0,1,0-.55,0v1.34A.27.27,0,0,0,174.17,62.55Z"/><path class="cls-1" d="M324.53,65.71h1.61a.27.27,0,0,0,.28-.28V63.82a.28.28,0,0,0-.28-.28h-1.61a.29.29,0,0,0-.28.28v1.61A.28.28,0,0,0,324.53,65.71Zm1.33-.56h-1.05V64.1h1.05Z"/><path class="cls-1" d="M324.53,69.2h1.61a.27.27,0,0,0,.28-.28V67.31a.28.28,0,0,0-.28-.28h-1.61a.29.29,0,0,0-.28.28v1.61A.28.28,0,0,0,324.53,69.2Zm1.33-.55h-1.05V67.59h1.05Z"/><path class="cls-1" d="M324.53,72.7h1.61a.28.28,0,0,0,.28-.28V70.81a.27.27,0,0,0-.28-.28h-1.61a.28.28,0,0,0-.28.28v1.61A.29.29,0,0,0,324.53,72.7Zm1.33-.56h-1.05V71.08h1.05Z"/><path class="cls-1" d="M324.53,76.19h1.61a.28.28,0,0,0,.28-.28V74.3a.27.27,0,0,0-.28-.28h-1.61a.28.28,0,0,0-.28.28v1.61A.29.29,0,0,0,324.53,76.19Zm1.33-.56h-1.05v-1h1.05Z"/><path class="cls-1" d="M324.53,79.68h1.61a.27.27,0,0,0,.28-.28V77.79a.28.28,0,0,0-.28-.28h-1.61a.29.29,0,0,0-.28.28V79.4A.28.28,0,0,0,324.53,79.68Zm1.33-.55h-1.05V78.07h1.05Z"/><path class="cls-1" d="M324.53,83.18h1.61a.28.28,0,0,0,.28-.28V81.28a.27.27,0,0,0-.28-.27h-1.61a.28.28,0,0,0-.28.27V82.9A.29.29,0,0,0,324.53,83.18Zm1.33-.56h-1.05V81.56h1.05Z"/><path class="cls-1" d="M324.53,86.67h1.61a.28.28,0,0,0,.28-.28V84.78a.27.27,0,0,0-.28-.28h-1.61a.28.28,0,0,0-.28.28v1.61A.29.29,0,0,0,324.53,86.67Zm1.33-.56h-1.05v-1h1.05Z"/><path class="cls-1" d="M324.53,90.16h1.61a.27.27,0,0,0,.28-.28V88.27a.28.28,0,0,0-.28-.28h-1.61a.29.29,0,0,0-.28.28v1.61A.28.28,0,0,0,324.53,90.16Zm1.33-.56h-1.05v-1h1.05Z"/><path class="cls-1" d="M324.53,93.66h1.61a.29.29,0,0,0,.28-.28V91.76a.27.27,0,0,0-.28-.27h-1.61a.28.28,0,0,0-.28.27v1.62A.29.29,0,0,0,324.53,93.66Zm1.33-.56h-1.05V92h1.05Z"/><path class="cls-1" d="M324.53,97.15h1.61a.28.28,0,0,0,.28-.28V95.26a.27.27,0,0,0-.28-.28h-1.61a.28.28,0,0,0-.28.28v1.61A.29.29,0,0,0,324.53,97.15Zm1.33-.56h-1.05v-1h1.05Z"/><path class="cls-1" d="M324.53,104.13h1.61a.27.27,0,0,0,.28-.27v-1.62a.28.28,0,0,0-.28-.28h-1.61a.29.29,0,0,0-.28.28v1.62A.28.28,0,0,0,324.53,104.13Zm1.33-.55h-1.05v-1.06h1.05Z"/><path class="cls-1" d="M324.53,107.63h1.61a.28.28,0,0,0,.28-.28v-1.61a.27.27,0,0,0-.28-.28h-1.61a.28.28,0,0,0-.28.28v1.61A.29.29,0,0,0,324.53,107.63Zm1.33-.56h-1.05v-1h1.05Z"/><path class="cls-1" d="M324.53,111.12h1.61a.27.27,0,0,0,.28-.28v-1.61a.28.28,0,0,0-.28-.28h-1.61a.29.29,0,0,0-.28.28v1.61A.28.28,0,0,0,324.53,111.12Zm1.33-.56h-1.05v-1h1.05Z"/><path class="cls-1" d="M324.53,114.61h1.61a.27.27,0,0,0,.28-.27v-1.62a.28.28,0,0,0-.28-.28h-1.61a.29.29,0,0,0-.28.28v1.62A.28.28,0,0,0,324.53,114.61Zm1.33-.55h-1.05V113h1.05Z"/><path class="cls-1" d="M324.53,118.11h1.61a.28.28,0,0,0,.28-.28v-1.61a.27.27,0,0,0-.28-.28h-1.61a.28.28,0,0,0-.28.28v1.61A.29.29,0,0,0,324.53,118.11Zm1.33-.56h-1.05v-1.06h1.05Z"/><path class="cls-1" d="M324.53,121.6h1.61a.27.27,0,0,0,.28-.28v-1.61a.28.28,0,0,0-.28-.28h-1.61a.28.28,0,0,0-.28.28v1.61A.28.28,0,0,0,324.53,121.6Zm1.33-.56h-1.05V120h1.05Z"/><path class="cls-1" d="M324.53,128.59h1.61a.28.28,0,0,0,.28-.28V126.7a.27.27,0,0,0-.28-.28h-1.61a.28.28,0,0,0-.28.28v1.61A.29.29,0,0,0,324.53,128.59Zm1.33-.56h-1.05V127h1.05Z"/><path class="cls-1" d="M318.28,62.22h3.84a.28.28,0,0,0,.28-.28V60.33a.27.27,0,0,0-.28-.28h-3.84a.27.27,0,0,0-.28.28v1.61A.28.28,0,0,0,318.28,62.22Zm3.56-.56h-3.29V60.6h3.29Z"/><path class="cls-1" d="M318.28,65.71h3.84a.27.27,0,0,0,.28-.28V63.82a.28.28,0,0,0-.28-.28h-3.84a.28.28,0,0,0-.28.28v1.61A.27.27,0,0,0,318.28,65.71Zm3.56-.56h-3.29V64.1h3.29Z"/><path class="cls-1" d="M318.28,69.2h3.84a.27.27,0,0,0,.28-.28V67.31a.28.28,0,0,0-.28-.28h-3.84a.28.28,0,0,0-.28.28v1.61A.27.27,0,0,0,318.28,69.2Zm3.56-.55h-3.29V67.59h3.29Z"/><path class="cls-1" d="M318.28,72.7h3.84a.28.28,0,0,0,.28-.28V70.81a.27.27,0,0,0-.28-.28h-3.84a.27.27,0,0,0-.28.28v1.61A.28.28,0,0,0,318.28,72.7Zm3.56-.56h-3.29V71.08h3.29Z"/><path class="cls-1" d="M318.28,79.68h3.84a.27.27,0,0,0,.28-.28V77.79a.28.28,0,0,0-.28-.28h-3.84a.28.28,0,0,0-.28.28V79.4A.27.27,0,0,0,318.28,79.68Zm3.56-.55h-3.29V78.07h3.29Z"/><path class="cls-1" d="M318.28,83.18h3.84a.28.28,0,0,0,.28-.28V81.28a.27.27,0,0,0-.28-.27h-3.84a.27.27,0,0,0-.28.27V82.9A.28.28,0,0,0,318.28,83.18Zm3.56-.56h-3.29V81.56h3.29Z"/><path class="cls-1" d="M318.28,86.67h3.84a.28.28,0,0,0,.28-.28V84.78a.27.27,0,0,0-.28-.28h-3.84a.27.27,0,0,0-.28.28v1.61A.28.28,0,0,0,318.28,86.67Zm3.56-.56h-3.29v-1h3.29Z"/><path class="cls-1" d="M318.28,90.16h3.84a.27.27,0,0,0,.28-.28V88.27a.28.28,0,0,0-.28-.28h-3.84a.28.28,0,0,0-.28.28v1.61A.27.27,0,0,0,318.28,90.16Zm3.56-.56h-3.29v-1h3.29Z"/><path class="cls-1" d="M318.28,93.66h3.84a.29.29,0,0,0,.28-.28V91.76a.27.27,0,0,0-.28-.27h-3.84a.27.27,0,0,0-.28.27v1.62A.29.29,0,0,0,318.28,93.66Zm3.56-.56h-3.29V92h3.29Z"/><path class="cls-1" d="M324.9,58.08h3.64a.28.28,0,0,0,.28-.27V50.62a.28.28,0,0,0-.28-.28H324.9a.28.28,0,0,0-.28.28v7.19A.28.28,0,0,0,324.9,58.08Zm.28-.55V50.9h3.08v6.63Z"/><path class="cls-1" d="M321.81,50.34h-3.64a.28.28,0,0,0-.28.28v7.19a.28.28,0,0,0,.28.27h3.64a.28.28,0,0,0,.28-.27V50.62A.28.28,0,0,0,321.81,50.34Zm-.28,7.19h-3.08V50.9h3.08Z"/><path class="cls-1" d="M327.14,31.39h1.33a.29.29,0,0,0,.28-.28V29.79a.29.29,0,0,0-.28-.28h-1.33a.28.28,0,0,0-.28.28v1.32A.28.28,0,0,0,327.14,31.39Zm.28-1.33h.77v.77h-.77Z"/><path class="cls-1" d="M327.14,34.69h1.33a.28.28,0,0,0,.28-.27V33.09a.29.29,0,0,0-.28-.28h-1.33a.29.29,0,0,0-.28.28v1.33A.28.28,0,0,0,327.14,34.69Zm.28-1.32h.77v.77h-.77Z"/><path class="cls-1" d="M327.14,38h1.33a.29.29,0,0,0,.28-.28V36.39a.29.29,0,0,0-.28-.28h-1.33a.29.29,0,0,0-.28.28v1.33A.29.29,0,0,0,327.14,38Zm.28-1.33h.77v.77h-.77Z"/><path class="cls-1" d="M331.65,15.47H333a.28.28,0,1,0,0-.56h-1.39a.28.28,0,0,0,0,.56Z"/><path class="cls-1" d="M331.65,14.26H333a.28.28,0,1,0,0-.55h-1.39a.28.28,0,0,0,0,.55Z"/><path class="cls-1" d="M331.65,13.06H333a.28.28,0,1,0,0-.56h-1.39a.28.28,0,0,0,0,.56Z"/><path class="cls-1" d="M331.65,11.85H333a.28.28,0,1,0,0-.55h-1.39a.28.28,0,0,0,0,.55Z"/><path class="cls-1" d="M332.35,8a.28.28,0,0,0,.27-.28V.28a.28.28,0,1,0-.55,0V7.69A.28.28,0,0,0,332.35,8Z"/><path class="cls-1" d="M338.55,62.22h1.61a.28.28,0,0,0,.28-.28V60.33a.27.27,0,0,0-.28-.28h-1.61a.28.28,0,0,0-.28.28v1.61A.29.29,0,0,0,338.55,62.22Zm.28-.56V60.6h1.05v1.06Z"/><path class="cls-1" d="M338.55,65.71h1.61a.27.27,0,0,0,.28-.28V63.82a.28.28,0,0,0-.28-.28h-1.61a.29.29,0,0,0-.28.28v1.61A.28.28,0,0,0,338.55,65.71Zm.28-.56V64.1h1.05v1.05Z"/><path class="cls-1" d="M338.55,69.2h1.61a.27.27,0,0,0,.28-.28V67.31a.28.28,0,0,0-.28-.28h-1.61a.29.29,0,0,0-.28.28v1.61A.28.28,0,0,0,338.55,69.2Zm.28-.55V67.59h1.05v1.06Z"/><path class="cls-1" d="M338.55,72.7h1.61a.28.28,0,0,0,.28-.28V70.81a.27.27,0,0,0-.28-.28h-1.61a.28.28,0,0,0-.28.28v1.61A.29.29,0,0,0,338.55,72.7Zm.28-.56V71.08h1.05v1.06Z"/><path class="cls-1" d="M338.55,76.19h1.61a.28.28,0,0,0,.28-.28V74.3a.27.27,0,0,0-.28-.28h-1.61a.28.28,0,0,0-.28.28v1.61A.29.29,0,0,0,338.55,76.19Zm.28-.56v-1h1.05v1Z"/><path class="cls-1" d="M338.55,83.18h1.61a.28.28,0,0,0,.28-.28V81.28a.27.27,0,0,0-.28-.27h-1.61a.28.28,0,0,0-.28.27V82.9A.29.29,0,0,0,338.55,83.18Zm.28-.56V81.56h1.05v1.06Z"/><path class="cls-1" d="M338.55,86.67h1.61a.28.28,0,0,0,.28-.28V84.78a.27.27,0,0,0-.28-.28h-1.61a.28.28,0,0,0-.28.28v1.61A.29.29,0,0,0,338.55,86.67Zm.28-.56v-1h1.05v1Z"/><path class="cls-1" d="M338.55,90.16h1.61a.27.27,0,0,0,.28-.28V88.27a.28.28,0,0,0-.28-.28h-1.61a.29.29,0,0,0-.28.28v1.61A.28.28,0,0,0,338.55,90.16Zm.28-.56v-1h1.05v1Z"/><path class="cls-1" d="M338.55,97.15h1.61a.28.28,0,0,0,.28-.28V95.26a.27.27,0,0,0-.28-.28h-1.61a.28.28,0,0,0-.28.28v1.61A.29.29,0,0,0,338.55,97.15Zm.28-.56v-1h1.05v1Z"/><path class="cls-1" d="M338.55,100.64h1.61a.27.27,0,0,0,.28-.28V98.75a.28.28,0,0,0-.28-.28h-1.61a.29.29,0,0,0-.28.28v1.61A.28.28,0,0,0,338.55,100.64Zm1.33-.56h-1.05V99h1.05Z"/><path class="cls-1" d="M338.55,104.13h1.61a.27.27,0,0,0,.28-.27v-1.62a.28.28,0,0,0-.28-.28h-1.61a.29.29,0,0,0-.28.28v1.62A.28.28,0,0,0,338.55,104.13Zm1.33-.55h-1.05v-1.06h1.05Z"/><path class="cls-1" d="M338.55,107.63h1.61a.28.28,0,0,0,.28-.28v-1.61a.27.27,0,0,0-.28-.28h-1.61a.28.28,0,0,0-.28.28v1.61A.29.29,0,0,0,338.55,107.63Zm1.33-.56h-1.05v-1h1.05Z"/><path class="cls-1" d="M338.55,111.12h1.61a.27.27,0,0,0,.28-.28v-1.61a.28.28,0,0,0-.28-.28h-1.61a.29.29,0,0,0-.28.28v1.61A.28.28,0,0,0,338.55,111.12Zm1.33-.56h-1.05v-1h1.05Z"/><path class="cls-1" d="M338.55,114.61h1.61a.27.27,0,0,0,.28-.27v-1.62a.28.28,0,0,0-.28-.28h-1.61a.29.29,0,0,0-.28.28v1.62A.28.28,0,0,0,338.55,114.61Zm.28-.55V113h1.05v1.06Z"/><path class="cls-1" d="M338.55,118.11h1.61a.28.28,0,0,0,.28-.28v-1.61a.27.27,0,0,0-.28-.28h-1.61a.28.28,0,0,0-.28.28v1.61A.29.29,0,0,0,338.55,118.11Zm1.33-.56h-1.05v-1.06h1.05Z"/><path class="cls-1" d="M340.16,121.6a.27.27,0,0,0,.28-.28v-1.61a.27.27,0,0,0-.28-.28h-1.61a.29.29,0,0,0-.28.28v1.61a.28.28,0,0,0,.28.28Zm-1.33-.56V120h1.05V121Z"/><path class="cls-1" d="M346.41,60.05h-3.84a.28.28,0,0,0-.28.28v1.61a.29.29,0,0,0,.28.28h3.84a.28.28,0,0,0,.28-.28V60.33A.27.27,0,0,0,346.41,60.05Zm-.27,1.61h-3.29V60.6h3.29Z"/><path class="cls-1" d="M346.41,63.54h-3.84a.29.29,0,0,0-.28.28v1.61a.28.28,0,0,0,.28.28h3.84a.27.27,0,0,0,.28-.28V63.82A.28.28,0,0,0,346.41,63.54Zm-.27,1.61h-3.29V64.1h3.29Z"/><path class="cls-1" d="M346.41,70.53h-3.84a.28.28,0,0,0-.28.28v1.61a.29.29,0,0,0,.28.28h3.84a.28.28,0,0,0,.28-.28V70.81A.27.27,0,0,0,346.41,70.53Zm-.27,1.61h-3.29V71.08h3.29Z"/><path class="cls-1" d="M346.41,74h-3.84a.28.28,0,0,0-.28.28v1.61a.29.29,0,0,0,.28.28h3.84a.28.28,0,0,0,.28-.28V74.3A.27.27,0,0,0,346.41,74Zm-.27,1.61h-3.29v-1h3.29Z"/><path class="cls-1" d="M346.41,77.51h-3.84a.29.29,0,0,0-.28.28V79.4a.28.28,0,0,0,.28.28h3.84a.27.27,0,0,0,.28-.28V77.79A.28.28,0,0,0,346.41,77.51Zm-.27,1.62h-3.29V78.07h3.29Z"/><path class="cls-1" d="M346.41,81h-3.84a.28.28,0,0,0-.28.27V82.9a.29.29,0,0,0,.28.28h3.84a.28.28,0,0,0,.28-.28V81.28A.27.27,0,0,0,346.41,81Zm-.27,1.61h-3.29V81.56h3.29Z"/><path class="cls-1" d="M346.41,84.5h-3.84a.28.28,0,0,0-.28.28v1.61a.29.29,0,0,0,.28.28h3.84a.28.28,0,0,0,.28-.28V84.78A.27.27,0,0,0,346.41,84.5Zm-.27,1.61h-3.29v-1h3.29Z"/><path class="cls-1" d="M346.41,88h-3.84a.29.29,0,0,0-.28.28v1.61a.28.28,0,0,0,.28.28h3.84a.27.27,0,0,0,.28-.28V88.27A.28.28,0,0,0,346.41,88Zm-.27,1.61h-3.29v-1h3.29Z"/><path class="cls-1" d="M346.41,91.49h-3.84a.28.28,0,0,0-.28.27v1.62a.29.29,0,0,0,.28.28h3.84a.29.29,0,0,0,.28-.28V91.76A.27.27,0,0,0,346.41,91.49Zm-.27,1.61h-3.29V92h3.29Z"/><path class="cls-1" d="M346.41,95h-3.84a.28.28,0,0,0-.28.28v1.61a.29.29,0,0,0,.28.28h3.84a.28.28,0,0,0,.28-.28V95.26A.27.27,0,0,0,346.41,95Zm-.27,1.61h-3.29v-1h3.29Z"/><path class="cls-1" d="M346.41,98.47h-3.84a.29.29,0,0,0-.28.28v1.61a.28.28,0,0,0,.28.28h3.84a.27.27,0,0,0,.28-.28V98.75A.28.28,0,0,0,346.41,98.47Zm-.27,1.61h-3.29V99h3.29Z"/><path class="cls-1" d="M346.41,102h-3.84a.29.29,0,0,0-.28.28v1.62a.28.28,0,0,0,.28.27h3.84a.27.27,0,0,0,.28-.27v-1.62A.28.28,0,0,0,346.41,102Zm-.27,1.62h-3.29v-1.06h3.29Z"/><path class="cls-1" d="M346.41,105.46h-3.84a.28.28,0,0,0-.28.28v1.61a.29.29,0,0,0,.28.28h3.84a.28.28,0,0,0,.28-.28v-1.61A.27.27,0,0,0,346.41,105.46Zm-.27,1.61h-3.29v-1h3.29Z"/><path class="cls-1" d="M346.41,112.44h-3.84a.29.29,0,0,0-.28.28v1.62a.28.28,0,0,0,.28.27h3.84a.27.27,0,0,0,.28-.27v-1.62A.28.28,0,0,0,346.41,112.44Zm-.27,1.62h-3.29V113h3.29Z"/><path class="cls-1" d="M346.41,115.94h-3.84a.28.28,0,0,0-.28.28v1.61a.29.29,0,0,0,.28.28h3.84a.28.28,0,0,0,.28-.28v-1.61A.27.27,0,0,0,346.41,115.94Zm-.27,1.61h-3.29v-1.06h3.29Z"/><path class="cls-1" d="M339.79,50.34h-3.64a.28.28,0,0,0-.28.28v7.19a.28.28,0,0,0,.28.27h3.64a.28.28,0,0,0,.28-.27V50.62A.28.28,0,0,0,339.79,50.34Zm-.28,7.19h-3.08V50.9h3.08Z"/><path class="cls-1" d="M342.6,50.62v7.19a.28.28,0,0,0,.28.27h3.64a.27.27,0,0,0,.28-.27V50.62a.27.27,0,0,0-.28-.28h-3.64A.28.28,0,0,0,342.6,50.62Zm.56.28h3.08v6.63h-3.08Z"/><path class="cls-1" d="M336.22,31.39h1.33a.27.27,0,0,0,.28-.28V29.79a.27.27,0,0,0-.28-.28h-1.33a.27.27,0,0,0-.27.28v1.32A.27.27,0,0,0,336.22,31.39Zm.28-1.33h.77v.77h-.77Z"/><path class="cls-1" d="M336.22,34.69h1.33a.27.27,0,0,0,.28-.27V33.09a.27.27,0,0,0-.28-.28h-1.33a.28.28,0,0,0-.27.28v1.33A.27.27,0,0,0,336.22,34.69Zm.28-1.32h.77v.77h-.77Z"/><path class="cls-1" d="M336.22,38h1.33a.28.28,0,0,0,.28-.28V36.39a.28.28,0,0,0-.28-.28h-1.33a.28.28,0,0,0-.27.28v1.33A.28.28,0,0,0,336.22,38Zm1-.56h-.77v-.77h.77Z"/><path class="cls-1" d="M369.63,129.67h2.68a.27.27,0,0,0,.28-.28v-4a1.62,1.62,0,0,0-3.23,0v4A.27.27,0,0,0,369.63,129.67Zm1.34-5.36a1.06,1.06,0,0,1,1.06,1.06v3.74h-2.12v-3.74A1.07,1.07,0,0,1,371,124.31Z"/><path class="cls-1" d="M372.59,135.05a1.62,1.62,0,1,0-3.23,0v7.23a.28.28,0,0,0,.27.28h2.68a.28.28,0,0,0,.28-.28ZM371,134a1.05,1.05,0,0,1,1.06,1.06V142h-2.12v-6.95A1.06,1.06,0,0,1,371,134Z"/><path class="cls-1" d="M332.46,144.05h2.68a.28.28,0,0,0,.28-.28V139a1.62,1.62,0,0,0-3.24,0v4.73A.27.27,0,0,0,332.46,144.05ZM333.8,138a1.07,1.07,0,0,1,1.06,1.06v4.45h-2.12V139A1.06,1.06,0,0,1,333.8,138Z"/><path class="cls-1" d="M325.49,144.05h2.68a.27.27,0,0,0,.28-.28V139a1.62,1.62,0,1,0-3.23,0v4.73A.27.27,0,0,0,325.49,144.05Zm1.34-6.07a1.06,1.06,0,0,1,1.06,1.06v4.45h-2.12V139A1.07,1.07,0,0,1,326.83,138Z"/><path class="cls-1" d="M312.34,131.19h1.53a.28.28,0,0,0,.27-.28v-2.7a1,1,0,0,0-2.08,0v2.7A.28.28,0,0,0,312.34,131.19Zm.28-3a.47.47,0,0,1,.48-.48.48.48,0,0,1,.49.48v2.42h-1Z"/><path class="cls-1" d="M326.83,150.57a2.81,2.81,0,0,0-2.8,2.8v7.13a.29.29,0,0,0,.28.28h5.05a.28.28,0,0,0,.27-.28v-7.13A2.8,2.8,0,0,0,326.83,150.57Zm2.25,4.83h-2v-1.75h2Zm0,2.3h-2V156h2Zm-4.49.55h2v2h-2Zm0-4.6h2v1.75h-2Zm2-2.49v1.94h-1.93A2.21,2.21,0,0,1,326.55,151.16Zm0,4.79v1.75h-2V156Zm2.53,2.3v2h-2v-2Zm-2-5.15v-1.94a2.23,2.23,0,0,1,1.94,1.94Z"/><path class="cls-1" d="M384.25,142.56h2.68a.29.29,0,0,0,.28-.28v-7.23a1.62,1.62,0,0,0-3.24,0v7.23A.28.28,0,0,0,384.25,142.56Zm.28-7.51a1.06,1.06,0,0,1,2.12,0V142h-2.12Z"/><path class="cls-1" d="M366.12,123.76a1.21,1.21,0,0,0-1.21,1.21v4.42a.28.28,0,0,0,.28.28h1.86a.27.27,0,0,0,.28-.28V125A1.21,1.21,0,0,0,366.12,123.76Zm-.65,1.21a.66.66,0,0,1,.65-.66.67.67,0,0,1,.66.66v4.14h-1.31Z"/><path class="cls-1" d="M374.89,129.67h1.87a.28.28,0,0,0,.28-.28V125a1.22,1.22,0,0,0-2.43,0v4.42A.28.28,0,0,0,374.89,129.67Zm.28-4.7a.67.67,0,0,1,.66-.66.66.66,0,0,1,.65.66v4.14h-1.31Z"/><path class="cls-1" d="M363.64,115.85a.28.28,0,1,0,.55,0v-1.37a.28.28,0,1,0-.55,0Z"/><path class="cls-1" d="M365.33,116.13a.29.29,0,0,0,.28-.28v-1.37a.29.29,0,0,0-.28-.28.28.28,0,0,0-.28.28v1.37A.28.28,0,0,0,365.33,116.13Z"/><path class="cls-1" d="M366.74,116.13a.29.29,0,0,0,.28-.28v-1.37a.29.29,0,0,0-.28-.28.28.28,0,0,0-.28.28v1.37A.28.28,0,0,0,366.74,116.13Z"/><path class="cls-1" d="M369.56,116.13a.28.28,0,0,0,.28-.28v-1.37a.28.28,0,0,0-.28-.28.29.29,0,0,0-.28.28v1.37A.29.29,0,0,0,369.56,116.13Z"/><path class="cls-1" d="M371,116.13a.28.28,0,0,0,.28-.28v-1.37a.28.28,0,1,0-.55,0v1.37A.28.28,0,0,0,371,116.13Z"/><path class="cls-1" d="M372.39,116.13a.28.28,0,0,0,.27-.28v-1.37a.28.28,0,1,0-.55,0v1.37A.28.28,0,0,0,372.39,116.13Z"/><path class="cls-1" d="M375.21,116.13a.29.29,0,0,0,.28-.28v-1.37a.28.28,0,1,0-.56,0v1.37A.29.29,0,0,0,375.21,116.13Z"/><path class="cls-1" d="M376.62,116.13a.29.29,0,0,0,.28-.28v-1.37a.28.28,0,0,0-.56,0v1.37A.29.29,0,0,0,376.62,116.13Z"/><path class="cls-1" d="M378,116.13a.28.28,0,0,0,.28-.28v-1.37a.28.28,0,0,0-.28-.28.29.29,0,0,0-.28.28v1.37A.29.29,0,0,0,378,116.13Z"/><path class="cls-1" d="M259.35,130.68a1.74,1.74,0,0,0-1.74,1.74v9.29a.27.27,0,0,0,.28.28h2.92a.28.28,0,0,0,.28-.28v-9.29A1.74,1.74,0,0,0,259.35,130.68Zm0,.55a1.18,1.18,0,0,1,1.18,1.19v9h-2.37v-9A1.2,1.2,0,0,1,259.35,131.23Z"/><path class="cls-1" d="M253.33,123.33a.28.28,0,0,0,.56,0v-1.11a.28.28,0,0,0-.56,0Z"/><path class="cls-1" d="M254.76,123.61a.28.28,0,0,0,.28-.28v-1.11a.28.28,0,0,0-.28-.28.27.27,0,0,0-.28.28v1.11A.27.27,0,0,0,254.76,123.61Z"/><path class="cls-1" d="M255.9,123.61a.27.27,0,0,0,.28-.28v-1.11a.28.28,0,1,0-.55,0v1.11A.27.27,0,0,0,255.9,123.61Z"/><path class="cls-1" d="M258.2,123.61a.28.28,0,0,0,.28-.28v-1.11a.28.28,0,1,0-.56,0v1.11A.28.28,0,0,0,258.2,123.61Z"/><path class="cls-1" d="M259.35,123.61a.28.28,0,0,0,.28-.28v-1.11a.28.28,0,0,0-.28-.28.27.27,0,0,0-.28.28v1.11A.27.27,0,0,0,259.35,123.61Z"/><path class="cls-1" d="M260.49,123.61a.27.27,0,0,0,.28-.28v-1.11a.28.28,0,1,0-.55,0v1.11A.27.27,0,0,0,260.49,123.61Z"/><path class="cls-1" d="M262.79,123.61a.28.28,0,0,0,.28-.28v-1.11a.28.28,0,0,0-.56,0v1.11A.28.28,0,0,0,262.79,123.61Z"/><path class="cls-1" d="M263.94,123.61a.28.28,0,0,0,.28-.28v-1.11a.28.28,0,0,0-.28-.28.27.27,0,0,0-.28.28v1.11A.27.27,0,0,0,263.94,123.61Z"/><path class="cls-1" d="M265.09,123.61a.27.27,0,0,0,.27-.28v-1.11a.28.28,0,1,0-.55,0v1.11A.27.27,0,0,0,265.09,123.61Z"/><path class="cls-1" d="M439,133.43h-3.68a.29.29,0,0,0-.28.28v8.57a.29.29,0,0,0,.28.28H439a.29.29,0,0,0,.28-.28v-8.57A.28.28,0,0,0,439,133.43Zm-.28,8.57h-1.28v-8h1.28Zm-3.12,0v-8h1.28v8Z"/><path class="cls-1" d="M395.38,142.56h8.93a.29.29,0,0,0,.28-.28v-8.57a.28.28,0,0,0-.28-.28h-8.93a.28.28,0,0,0-.28.28v8.57A.29.29,0,0,0,395.38,142.56Zm2.7-8.57v8h-2.42v-8Zm3,8h-2.42v-8h2.42Zm3,0h-2.42v-8H404Z"/><path class="cls-1" d="M404.59,147.58a.28.28,0,0,0-.28-.28h-8.93a.28.28,0,0,0-.28.28v3.3a.28.28,0,0,0,.28.28h8.93a.28.28,0,0,0,.28-.28Zm-3,3v-2.74H404v2.74Zm-3-2.74h2.41v2.74h-2.41Zm-3,0h2.42v2.74h-2.42Z"/><path class="cls-1" d="M346.16,142.56h8.93a.29.29,0,0,0,.28-.28v-8.57a.28.28,0,0,0-.28-.28h-8.93a.27.27,0,0,0-.28.28v8.57A.28.28,0,0,0,346.16,142.56Zm2.7-8.57v8h-2.42v-8Zm.55,8v-8h2.42v8Zm5.4,0h-2.42v-8h2.42Z"/><path class="cls-1" d="M355.37,147.58a.28.28,0,0,0-.28-.28h-8.93a.27.27,0,0,0-.28.28v3.3a.27.27,0,0,0,.28.28h8.93a.28.28,0,0,0,.28-.28Zm-3,3v-2.74h2.42v2.74Zm-.56-2.74v2.74h-2.42v-2.74Zm-5.39,0h2.42v2.74h-2.42Z"/><path class="cls-1" d="M195.3,136.82h-8.93a.28.28,0,0,0-.28.28v16a.27.27,0,0,0,.28.28h8.93a.28.28,0,0,0,.28-.28v-16A.29.29,0,0,0,195.3,136.82Zm-.28.56v2.56H192.6v-2.56Zm0,8.07H192.6v-5H195Zm-5.4.56H192v6.83h-2.42Zm-3,0h2.42v6.83h-2.42Zm0-5.52h2.42v5h-2.42Zm5.39,5h-2.42v-5H192Zm-2.42-5.51v-2.56H192v2.56Zm-3,0v-2.56h2.42v2.56ZM195,146v6.83H192.6V146Z"/><path class="cls-1" d="M417.33,142.56h8.93a.29.29,0,0,0,.28-.28v-8.57a.28.28,0,0,0-.28-.28h-8.93a.28.28,0,0,0-.28.28v8.57A.29.29,0,0,0,417.33,142.56ZM420,134v8h-2.42v-8Zm3,8h-2.41v-8H423Zm3,0h-2.42v-8H426Z"/><path class="cls-1" d="M426.54,147.58a.28.28,0,0,0-.28-.28h-8.93a.28.28,0,0,0-.28.28v3.3a.28.28,0,0,0,.28.28h8.93a.28.28,0,0,0,.28-.28Zm-3,3v-2.74H426v2.74Zm-3-2.74H423v2.74h-2.42Zm-3,0H420v2.74h-2.42Z"/><path class="cls-1" d="M231.86,130.68a1.74,1.74,0,0,0-1.74,1.74v9.29a.28.28,0,0,0,.28.28h2.92a.27.27,0,0,0,.28-.28v-9.29A1.74,1.74,0,0,0,231.86,130.68Zm0,.55a1.19,1.19,0,0,1,1.19,1.19v9h-2.37v-9A1.18,1.18,0,0,1,231.86,131.23Z"/><path class="cls-1" d="M221.17,144.15a1.74,1.74,0,0,0-1.74,1.74v3.92a.27.27,0,0,0,.27.27h2.93a.28.28,0,0,0,.28-.27v-3.92A1.74,1.74,0,0,0,221.17,144.15Zm0,.55a1.2,1.2,0,0,1,1.18,1.19v3.64H220v-3.64A1.2,1.2,0,0,1,221.17,144.7Z"/><path class="cls-1" d="M214.38,144.15a1.74,1.74,0,0,0-1.74,1.74v3.92a.27.27,0,0,0,.28.27h2.92a.28.28,0,0,0,.28-.27v-3.92A1.74,1.74,0,0,0,214.38,144.15Zm0,.55a1.2,1.2,0,0,1,1.18,1.19v3.64H213.2v-3.64A1.2,1.2,0,0,1,214.38,144.7Z"/><path class="cls-1" d="M237.6,123.61a.27.27,0,0,0,.28-.28v-1.11a.27.27,0,0,0-.28-.28.28.28,0,0,0-.28.28v1.11A.28.28,0,0,0,237.6,123.61Z"/><path class="cls-1" d="M236.45,123.61a.27.27,0,0,0,.28-.28v-1.11a.28.28,0,1,0-.55,0v1.11A.27.27,0,0,0,236.45,123.61Z"/><path class="cls-1" d="M235,123.33a.28.28,0,1,0,.55,0v-1.11a.28.28,0,1,0-.55,0Z"/><path class="cls-1" d="M233,121.94a.28.28,0,0,0-.28.28v1.11a.28.28,0,0,0,.28.28.27.27,0,0,0,.28-.28v-1.11A.27.27,0,0,0,233,121.94Z"/><path class="cls-1" d="M231.86,121.94a.27.27,0,0,0-.27.28v1.11a.28.28,0,1,0,.55,0v-1.11A.27.27,0,0,0,231.86,121.94Z"/><path class="cls-1" d="M230.72,121.94a.27.27,0,0,0-.28.28v1.11a.28.28,0,1,0,.55,0v-1.11A.27.27,0,0,0,230.72,121.94Z"/><path class="cls-1" d="M228.42,121.94a.28.28,0,0,0-.28.28v1.11a.28.28,0,0,0,.56,0v-1.11A.28.28,0,0,0,228.42,121.94Z"/><path class="cls-1" d="M227.27,121.94a.28.28,0,0,0-.28.28v1.11a.28.28,0,0,0,.28.28.27.27,0,0,0,.28-.28v-1.11A.27.27,0,0,0,227.27,121.94Z"/><path class="cls-1" d="M226.13,121.94a.27.27,0,0,0-.28.28v1.11a.28.28,0,1,0,.55,0v-1.11A.27.27,0,0,0,226.13,121.94Z"/><path class="cls-1" d="M323.32,145.65h13.81a.28.28,0,1,0,0-.55H323.32a.28.28,0,1,0,0,.55Z"/><path class="cls-1" d="M356.1,145.38a.27.27,0,0,0-.28-.28H345.6a.28.28,0,1,0,0,.55h10.22A.27.27,0,0,0,356.1,145.38Z"/><path class="cls-1" d="M405.24,145.38a.28.28,0,0,0-.28-.28H394.73a.28.28,0,1,0,0,.55H405A.28.28,0,0,0,405.24,145.38Z"/><path class="cls-1" d="M391,145.38a.27.27,0,0,0-.28-.28H380.48a.28.28,0,1,0,0,.55H390.7A.27.27,0,0,0,391,145.38Z"/><path class="cls-1" d="M427.19,145.38a.28.28,0,0,0-.28-.28H416.68a.28.28,0,1,0,0,.55h10.23A.28.28,0,0,0,427.19,145.38Z"/><path class="cls-1" d="M127,96.54a.28.28,0,0,0,.28-.28v-3A.28.28,0,0,0,127,93a.27.27,0,0,0-.28.28v3A.27.27,0,0,0,127,96.54Z"/><path class="cls-1" d="M102.81,139.07h6.09a.28.28,0,1,0,0-.55h-6.09a.28.28,0,0,0,0,.55Z"/><path class="cls-1" d="M84.69,96.54a.27.27,0,0,0,.27-.28v-3a.28.28,0,1,0-.55,0v3A.27.27,0,0,0,84.69,96.54Z"/><path class="cls-1" d="M482.22,127.64a1.37,1.37,0,1,0-1.37-1.37A1.36,1.36,0,0,0,482.22,127.64Zm0-2.17a.81.81,0,1,1-.81.8A.8.8,0,0,1,482.22,125.47Z"/><path class="cls-1" d="M493.74,121.19a.27.27,0,0,0,.27-.27v-3.13a.28.28,0,1,0-.55,0v3.13A.27.27,0,0,0,493.74,121.19Z"/><path class="cls-1" d="M492.3,121.19a.27.27,0,0,0,.27-.27v-3.13a.28.28,0,1,0-.55,0v3.13A.27.27,0,0,0,492.3,121.19Z"/><path class="cls-1" d="M490.86,121.19a.27.27,0,0,0,.27-.27v-3.13a.28.28,0,1,0-.55,0v3.13A.27.27,0,0,0,490.86,121.19Z"/><path class="cls-1" d="M489.42,121.19a.27.27,0,0,0,.27-.27v-3.13a.28.28,0,1,0-.55,0v3.13A.27.27,0,0,0,489.42,121.19Z"/><path class="cls-1" d="M488,121.19a.27.27,0,0,0,.27-.27v-3.13a.28.28,0,1,0-.55,0v3.13A.27.27,0,0,0,488,121.19Z"/><path class="cls-1" d="M486.54,121.19a.27.27,0,0,0,.27-.27v-3.13a.28.28,0,1,0-.55,0v3.13A.27.27,0,0,0,486.54,121.19Z"/><path class="cls-1" d="M485.1,121.19a.28.28,0,0,0,.28-.27v-3.13a.29.29,0,0,0-.28-.28.28.28,0,0,0-.28.28v3.13A.27.27,0,0,0,485.1,121.19Z"/><path class="cls-1" d="M483.66,121.19a.28.28,0,0,0,.28-.27v-3.13a.29.29,0,0,0-.28-.28.28.28,0,0,0-.28.28v3.13A.27.27,0,0,0,483.66,121.19Z"/><path class="cls-1" d="M510.57,128.45a.29.29,0,0,0-.28.28v1.56a.28.28,0,0,0,.28.28.27.27,0,0,0,.28-.28v-1.56A.28.28,0,0,0,510.57,128.45Z"/><path class="cls-1" d="M509.13,128.45a.29.29,0,0,0-.28.28v1.56a.28.28,0,0,0,.28.28.27.27,0,0,0,.28-.28v-1.56A.28.28,0,0,0,509.13,128.45Z"/><path class="cls-1" d="M507.69,128.45a.29.29,0,0,0-.28.28v1.56a.28.28,0,0,0,.28.28.27.27,0,0,0,.28-.28v-1.56A.28.28,0,0,0,507.69,128.45Z"/><path class="cls-1" d="M506.25,128.45a.29.29,0,0,0-.28.28v1.56a.28.28,0,0,0,.28.28.27.27,0,0,0,.28-.28v-1.56A.28.28,0,0,0,506.25,128.45Z"/><path class="cls-1" d="M504.81,128.45a.29.29,0,0,0-.28.28v1.56a.28.28,0,0,0,.28.28.27.27,0,0,0,.28-.28v-1.56A.28.28,0,0,0,504.81,128.45Z"/><path class="cls-1" d="M503.37,128.45a.29.29,0,0,0-.28.28v1.56a.28.28,0,0,0,.28.28.27.27,0,0,0,.28-.28v-1.56A.28.28,0,0,0,503.37,128.45Z"/><path class="cls-1" d="M501.93,128.45a.29.29,0,0,0-.28.28v1.56a.28.28,0,0,0,.28.28.27.27,0,0,0,.28-.28v-1.56A.28.28,0,0,0,501.93,128.45Z"/><path class="cls-1" d="M509.05,123.09a.29.29,0,0,0-.28.28v.81a.28.28,0,0,0,.28.27.27.27,0,0,0,.28-.27v-.81A.28.28,0,0,0,509.05,123.09Z"/><path class="cls-1" d="M507.61,123.09a.29.29,0,0,0-.28.28v.81a.28.28,0,0,0,.28.27.27.27,0,0,0,.28-.27v-.81A.28.28,0,0,0,507.61,123.09Z"/><path class="cls-1" d="M506.17,123.09a.28.28,0,0,0-.27.28v.81a.28.28,0,0,0,.55,0v-.81A.28.28,0,0,0,506.17,123.09Z"/><path class="cls-1" d="M504.73,123.09a.28.28,0,0,0-.27.28v.81a.28.28,0,0,0,.55,0v-.81A.28.28,0,0,0,504.73,123.09Z"/><path class="cls-1" d="M503.29,123.09a.28.28,0,0,0-.27.28v.81a.28.28,0,0,0,.55,0v-.81A.28.28,0,0,0,503.29,123.09Z"/><path class="cls-1" d="M501.85,123.09a.28.28,0,0,0-.27.28v.81a.28.28,0,0,0,.55,0v-.81A.28.28,0,0,0,501.85,123.09Z"/><path class="cls-1" d="M484.34,96.1a.28.28,0,0,0,.28-.28v-.67a.28.28,0,0,0-.28-.27.27.27,0,0,0-.28.27v.67A.27.27,0,0,0,484.34,96.1Z"/><path class="cls-1" d="M483.19,96.1a.27.27,0,0,0,.28-.28v-.67a.27.27,0,0,0-.28-.27.28.28,0,0,0-.28.27v.67A.28.28,0,0,0,483.19,96.1Z"/><path class="cls-1" d="M502.89,139.12a3.41,3.41,0,0,0,.69,1.82,1.83,1.83,0,0,0-.78,1.31,3.4,3.4,0,0,1-.34.92.77.77,0,0,1-.72.37.28.28,0,0,0-.28.28.29.29,0,0,0,.28.28H503v3.19h-.62a.29.29,0,0,0-.28.28V149h-.52a.28.28,0,1,0,0,.55h.52v.75a.28.28,0,0,0,.28.28H503v1.11a.28.28,0,0,0,.27.28h1a.28.28,0,0,0,.27-.28v-1.11h1.88v1.11a.29.29,0,0,0,.28.28h1a.29.29,0,0,0,.28-.28v-1.11h.61a.27.27,0,0,0,.28-.28v-.75h.39a.28.28,0,1,0,0-.55h-.39v-1.42a.28.28,0,0,0-.28-.28H508V144.1h1.28a.28.28,0,0,0,.28-.28.27.27,0,0,0-.28-.28.79.79,0,0,1-.72-.37,3.41,3.41,0,0,1-.33-.92,1.9,1.9,0,0,0-.78-1.31,3.49,3.49,0,0,0,.69-1.82,2.4,2.4,0,0,0-1.24-1.84c-.58-.45-1.09-.84-1.09-1.54a.27.27,0,0,0-.28-.28.28.28,0,0,0-.28.28c0,.7-.5,1.09-1.09,1.54A2.39,2.39,0,0,0,502.89,139.12Zm4.51,12.28H507v-.83h.41Zm-3.4,0h-.42v-.83H504Zm3.68-7.86h-4.81a3.58,3.58,0,0,0,.47-1.15,3,3,0,0,1,.27-.77.43.43,0,0,1,.39-.24h3a.44.44,0,0,1,.4.24,3.5,3.5,0,0,1,.27.77,3.37,3.37,0,0,0,.47,1.15Zm-5,5.45v-1.14h5.6V149Zm3.16-4.89v3.19H505V144.1Zm.56,3.19V144.1h1v3.19Zm.11-9.56c.56.42,1,.79,1,1.41a3.19,3.19,0,0,1-.72,1.68h-2.65a3.14,3.14,0,0,1-.73-1.68c0-.62.46-1,1-1.41a4,4,0,0,0,1-1A4.12,4.12,0,0,0,506.52,137.73Zm-2.94,6.37h.86v3.19h-.86Zm4.71,5.91h-5.6v-.47h5.6Z"/><path class="cls-1" d="M470.7,121.19a.28.28,0,0,0,.28-.27v-3.13a.29.29,0,0,0-.28-.28.28.28,0,0,0-.28.28v3.13A.27.27,0,0,0,470.7,121.19Z"/><path class="cls-1" d="M472.14,121.19a.28.28,0,0,0,.28-.27v-3.13a.29.29,0,0,0-.28-.28.28.28,0,0,0-.28.28v3.13A.27.27,0,0,0,472.14,121.19Z"/><path class="cls-1" d="M473.58,121.19a.28.28,0,0,0,.28-.27v-3.13a.29.29,0,0,0-.28-.28.28.28,0,0,0-.28.28v3.13A.27.27,0,0,0,473.58,121.19Z"/><path class="cls-1" d="M475,121.19a.28.28,0,0,0,.28-.27v-3.13a.29.29,0,0,0-.28-.28.28.28,0,0,0-.28.28v3.13A.27.27,0,0,0,475,121.19Z"/><path class="cls-1" d="M476.46,121.19a.28.28,0,0,0,.28-.27v-3.13a.29.29,0,0,0-.28-.28.28.28,0,0,0-.28.28v3.13A.27.27,0,0,0,476.46,121.19Z"/><path class="cls-1" d="M477.9,121.19a.28.28,0,0,0,.28-.27v-3.13a.29.29,0,0,0-.28-.28.28.28,0,0,0-.28.28v3.13A.27.27,0,0,0,477.9,121.19Z"/><path class="cls-1" d="M479.34,121.19a.28.28,0,0,0,.28-.27v-3.13a.29.29,0,0,0-.28-.28.28.28,0,0,0-.28.28v3.13A.27.27,0,0,0,479.34,121.19Z"/><path class="cls-1" d="M480.78,121.19a.28.28,0,0,0,.28-.27v-3.13a.29.29,0,0,0-.28-.28.28.28,0,0,0-.28.28v3.13A.27.27,0,0,0,480.78,121.19Z"/><path class="cls-1" d="M453.86,130.57a.27.27,0,0,0,.28-.28v-1.56a.28.28,0,0,0-.28-.28.29.29,0,0,0-.28.28v1.56A.28.28,0,0,0,453.86,130.57Z"/><path class="cls-1" d="M455.3,130.57a.27.27,0,0,0,.28-.28v-1.56a.28.28,0,0,0-.28-.28.29.29,0,0,0-.28.28v1.56A.28.28,0,0,0,455.3,130.57Z"/><path class="cls-1" d="M456.74,130.57a.27.27,0,0,0,.28-.28v-1.56a.28.28,0,0,0-.28-.28.29.29,0,0,0-.28.28v1.56A.28.28,0,0,0,456.74,130.57Z"/><path class="cls-1" d="M458.18,130.57a.27.27,0,0,0,.28-.28v-1.56a.28.28,0,0,0-.28-.28.29.29,0,0,0-.28.28v1.56A.28.28,0,0,0,458.18,130.57Z"/><path class="cls-1" d="M459.62,130.57a.27.27,0,0,0,.28-.28v-1.56a.28.28,0,0,0-.28-.28.29.29,0,0,0-.28.28v1.56A.28.28,0,0,0,459.62,130.57Z"/><path class="cls-1" d="M461.06,130.57a.27.27,0,0,0,.28-.28v-1.56a.28.28,0,0,0-.28-.28.29.29,0,0,0-.28.28v1.56A.28.28,0,0,0,461.06,130.57Z"/><path class="cls-1" d="M462.5,130.57a.27.27,0,0,0,.28-.28v-1.56a.28.28,0,0,0-.28-.28.29.29,0,0,0-.28.28v1.56A.28.28,0,0,0,462.5,130.57Z"/><path class="cls-1" d="M455.38,124.45a.28.28,0,0,0,.28-.27v-.81a.28.28,0,1,0-.56,0v.81A.28.28,0,0,0,455.38,124.45Z"/><path class="cls-1" d="M456.82,124.45a.28.28,0,0,0,.28-.27v-.81a.28.28,0,1,0-.56,0v.81A.28.28,0,0,0,456.82,124.45Z"/><path class="cls-1" d="M458.26,124.45a.28.28,0,0,0,.28-.27v-.81a.28.28,0,1,0-.56,0v.81A.28.28,0,0,0,458.26,124.45Z"/><path class="cls-1" d="M459.7,124.45a.28.28,0,0,0,.28-.27v-.81a.28.28,0,1,0-.56,0v.81A.28.28,0,0,0,459.7,124.45Z"/><path class="cls-1" d="M461.14,124.45a.28.28,0,0,0,.28-.27v-.81a.28.28,0,1,0-.56,0v.81A.28.28,0,0,0,461.14,124.45Z"/><path class="cls-1" d="M462.58,124.45a.28.28,0,0,0,.28-.27v-.81a.28.28,0,1,0-.56,0v.81A.28.28,0,0,0,462.58,124.45Z"/><path class="cls-1" d="M482.22,121.19a.28.28,0,0,0,.28-.27v-3.13a.29.29,0,0,0-.28-.28.28.28,0,0,0-.28.28v3.13A.27.27,0,0,0,482.22,121.19Z"/><path class="cls-1" d="M480.1,96.1a.27.27,0,0,0,.27-.28v-.67a.28.28,0,0,0-.55,0v.67A.27.27,0,0,0,480.1,96.1Z"/><path class="cls-1" d="M481.24,96.1a.27.27,0,0,0,.28-.28v-.67a.27.27,0,0,0-.28-.27.28.28,0,0,0-.28.27v.67A.28.28,0,0,0,481.24,96.1Z"/><path class="cls-1" d="M459.22,135.74a.27.27,0,0,0-.28-.28.28.28,0,0,0-.28.28c0,.7-.5,1.09-1.09,1.54a2.39,2.39,0,0,0-1.23,1.84,3.41,3.41,0,0,0,.69,1.82,1.83,1.83,0,0,0-.78,1.31,3.77,3.77,0,0,1-.34.92.78.78,0,0,1-.72.37.28.28,0,0,0-.28.28.29.29,0,0,0,.28.28h1.29v3.19h-.62a.29.29,0,0,0-.28.28V149h-.39a.28.28,0,1,0,0,.55h.39v.75a.28.28,0,0,0,.28.28h.62v1.11a.28.28,0,0,0,.27.28h1a.29.29,0,0,0,.28-.28v-1.11h1.88v1.11a.29.29,0,0,0,.28.28h1a.29.29,0,0,0,.28-.28v-1.11H462a.27.27,0,0,0,.28-.28v-.75h.53a.28.28,0,0,0,0-.55h-.53v-1.42a.28.28,0,0,0-.28-.28h-.61V144.1h1.28a.28.28,0,0,0,.28-.28.27.27,0,0,0-.28-.28.79.79,0,0,1-.72-.37,3.41,3.41,0,0,1-.33-.92,1.9,1.9,0,0,0-.78-1.31,3.49,3.49,0,0,0,.69-1.82,2.4,2.4,0,0,0-1.24-1.84C459.73,136.83,459.22,136.44,459.22,135.74Zm1.63,15.66h-.41v-.83h.41Zm-3.4,0H457v-.83h.42Zm3.68-7.86h-4.81a3.82,3.82,0,0,0,.47-1.15,2.7,2.7,0,0,1,.27-.77.43.43,0,0,1,.39-.24h3a.44.44,0,0,1,.4.24,3.5,3.5,0,0,1,.27.77,3.37,3.37,0,0,0,.47,1.15Zm-5,5.45v-1.14h5.6V149ZM460,137.73c.56.42,1,.79,1,1.41a3.19,3.19,0,0,1-.72,1.68h-2.65a3.14,3.14,0,0,1-.73-1.68c0-.62.46-1,1-1.41a4,4,0,0,0,1-1A4,4,0,0,0,460,137.73Zm-.54,6.37v3.19h-.85V144.1Zm.56,3.19V144.1h.86v3.19Zm-3-3.19h1v3.19h-1Zm4.71,5.91h-5.6v-.47h5.6Z"/><path class="cls-1" d="M514.54,142.28a.26.26,0,0,0-.2-.24v-11h0l0,0v0h0l-2.57-3.07h1.72l.19-.14.06,0-.07-.26v0L511,125.3l-.7-1.59c0-.47,0-.78,0-1h1.73l.2-.15.06,0-.12-.27v0l-1.9-1a5.09,5.09,0,0,0,.35-1h.44a.28.28,0,1,0,0-.55h-.37v-.11c0-1.67-1.39-2.67-2.71-3.62s-2.7-2-3-3.59v0l-.2-.17-.07-.05-.24.2,0,0v0c-.28,1.63-1.64,2.62-3,3.59s-2.71,2-2.71,3.62c0,.06,0,.13,0,.19h-.38a.29.29,0,0,0-.28.28.28.28,0,0,0,.28.28h.47a4.69,4.69,0,0,0,.33,1l-1.9,1-.1.23,0,.07.24.18,0,0h1.72v.79H499a1.4,1.4,0,0,0-1.4,1.4,1.38,1.38,0,0,0,.45,1l-.55,1.16-1.59-2.79h.17l.16-.09.05,0,0-.21v0l-.88-2.7v-5c.77-1.37,1.12-2,1.28-2.3h.83l.18-.11.05,0v-.26l-.74-1.17-.17-.09h-3.6v-1.64a.28.28,0,0,0-.28-.28h-.12l1.1-3.59,0-.18v0l-.19-.1H493a4.8,4.8,0,0,0,.19-1.29c0-2.33-1.75-4.44-3.56-6h.51a.28.28,0,1,0,0-.56h-1.17c-.27-.22-.54-.41-.8-.6h.53a.28.28,0,1,0,0-.56h-1.32c-.76-.51-1.36-.86-1.63-1V94.17a.28.28,0,0,0-.28-.28h-.54c0-.22,0-.55,0-1.06V91.49a.29.29,0,0,0-.28-.28h-.46a13.59,13.59,0,0,0,.27-2.77c0-.36.19-.45.45-.6a.8.8,0,0,0,.47-.48,3,3,0,0,0,.09-.68,1.23,1.23,0,0,0-.51-1.09,1.13,1.13,0,0,0-.63-.18,1.37,1.37,0,0,0-.52.1,1.64,1.64,0,0,0-.77.66,1.81,1.81,0,0,0-.5-.93l.16,0-.3-.06-.25-.11,0,.07h0l-.09,0h0a1.58,1.58,0,0,0-.63,1,1.64,1.64,0,0,0-.77-.66,1.32,1.32,0,0,0-.51-.1,1.17,1.17,0,0,0-.64.18,1.25,1.25,0,0,0-.51,1.09,3,3,0,0,0,.09.68.81.81,0,0,0,.48.48c.26.15.43.24.44.6a12.71,12.71,0,0,0,.28,2.77h-.46a.28.28,0,0,0-.28.28v2.4H479a.29.29,0,0,0-.28.28v2.25c-.26.14-.87.49-1.63,1h-1.31a.28.28,0,0,0,0,.56h.52c-.26.19-.52.38-.8.6h-1.17a.28.28,0,0,0,0,.56h.51c-1.81,1.57-3.55,3.68-3.56,6a4.5,4.5,0,0,0,.2,1.29h-.77l-.16.08-.05,0,0,.2v0l1.11,3.59h-.13a.27.27,0,0,0-.27.28v1.64h-3.58l-.18.09h0l-.74,1.17v.26l.21.13h.84l1.3,2.3v5l-.89,2.7,0,.19v0l.19.09,0,0h.17l-1.6,2.78-.54-1.16a1.39,1.39,0,0,0-1-2.41h-.12v-.79H467l.2-.15.06,0-.11-.27,0,0-1.9-1a4.15,4.15,0,0,0,.33-1H466a.27.27,0,0,0,.28-.28.29.29,0,0,0-.28-.28h-.38a1.21,1.21,0,0,0,0-.19c0-1.67-1.39-2.67-2.71-3.62s-2.7-2-3-3.59v0l-.21-.17-.06-.05-.24.2,0,0v0c-.29,1.63-1.64,2.62-3,3.59s-2.71,2-2.71,3.62v.11h-.37a.28.28,0,1,0,0,.55h.45a4.11,4.11,0,0,0,.35,1l-1.9,1-.1.23,0,.07.23.18,0,0h1.73c0,.22,0,.53,0,1l-.71,1.59-2.57,2.16-.06.23v.07l.22.16,0,0h1.71L450.15,131l0,0h0v0h0l0,.09h0v31.59H437.45V151l3.71-5.45v0l0-.09h0V130.83h.51a.28.28,0,0,0,.28-.28.29.29,0,0,0-.28-.28h-.51v-3.48l2.05-3.31v0h0l0-.08v-6.59a.27.27,0,0,0-.28-.28h-2.33a.28.28,0,0,0-.28.28v3.89h-1.77v-3.89a.28.28,0,0,0-.28-.28H436a.27.27,0,0,0-.27.28v3.89H434v-3.89a.28.28,0,0,0-.28-.28h-2.33a.27.27,0,0,0-.28.28v5.44h-2.21a.28.28,0,0,0-.28.28v2.26h-2.26v-2.26a.28.28,0,0,0-.28-.28h-2.82a.27.27,0,0,0-.28.28v2.26h-2.27v-2.26a.27.27,0,0,0-.28-.28h-2.82a.28.28,0,0,0-.28.28v2.26H415v-2.26a.29.29,0,0,0-.28-.28h-2.83a.28.28,0,0,0-.28.28v2.26h-2.26v-2.26a.28.28,0,0,0-.28-.28h-2.82a.27.27,0,0,0-.28.28v2.26h-2.27v-2.26a.27.27,0,0,0-.28-.28h-2.82a.28.28,0,0,0-.28.28v2.26h-2.27v-2.26a.27.27,0,0,0-.27-.28H395a.28.28,0,0,0-.28.28v2.26h-2.26v-2.26a.28.28,0,0,0-.28-.28h-2.82a.27.27,0,0,0-.28.28v2.26h-2.27v-2.26a.27.27,0,0,0-.28-.28h-2.82a.28.28,0,0,0-.28.28v2.26h-2.27v-2.26a.27.27,0,0,0-.27-.28h-2.58c0-.39,0-1.83,0-2.23h1.54l.17-.1,0,0v-.25l-.86-1.73,1.86-1.42.08-.16v-8.38a.28.28,0,0,0-.27-.28H378a.29.29,0,0,0-.28.28v4.76h-2.26v-4.76a.29.29,0,0,0-.28-.28h-2.82a.28.28,0,0,0-.28.28v4.76h-2.27v-4.76a.28.28,0,0,0-.28-.28h-2.82a.28.28,0,0,0-.28.28v4.76h-2.27v-4.76a.28.28,0,0,0-.27-.28h-2.83a.29.29,0,0,0-.28.28v8.36l.08.16v0l1.87,1.42-.87,1.73v.25l.2.11,0,0h1.53v2.23h-2.54a.27.27,0,0,0-.28.28v2.26h-2.27v-2.26a.27.27,0,0,0-.28-.28h-2.82a.28.28,0,0,0-.28.28v2.26h-2.27v-2.3l-.13-.16V35.92c0-4.55-2.38-5.07-2.52-5.08h-5.62l-.07,0h0l-.07.07h0L343,33.67h-1.31V33.1c0-13-3.09-21.06-9.26-24h-.23c-6.17,2.91-9.26,11-9.26,24v.57h-1.31L320.23,31h0l-.06-.07h-.06l-.07,0h-5.62c-.14,0-2.53.53-2.52,5.08V93.66h-4.11a.28.28,0,0,0-.28.28V99h0v0h0v2.28a3.73,3.73,0,0,0,1.14,2.86v.9a.28.28,0,0,0,.28.28h1v2.72h-1a.28.28,0,0,0-.28.28V123.2L296.89,118h-.18l-14.43,6.34-.12.23,0,.07.24.2,0,0h2V129h-2.55a.28.28,0,0,0-.27.28v2.26H279.3v-2.26A.28.28,0,0,0,279,129H276.2a.28.28,0,0,0-.28.28v2.26h-2.27v-2.26a.28.28,0,0,0-.28-.28h-2.82a.29.29,0,0,0-.28.28v3.93h-4.93v-6.44h1.19l.18-.1.05,0v-.25l-.68-1.37,1.48-1.13.08-.17V116.9a.28.28,0,0,0-.28-.28h-2.29a.27.27,0,0,0-.28.28v3.81h-1.74V116.9a.28.28,0,0,0-.28-.28h-2.3a.27.27,0,0,0-.27.28v3.81h-1.74V116.9a.28.28,0,0,0-.28-.28h-2.3a.27.27,0,0,0-.27.28v3.81h-1.74V116.9a.28.28,0,0,0-.28-.28h-2.3a.27.27,0,0,0-.27.28v6.79l.08.17v0l1.48,1.13-.69,1.37v.25l.2.11,0,0h1.2v3H237.85c0-.46,0-2.44,0-3h1.21l.18-.1,0,0v-.25L238.6,125l1.49-1.13.08-.17V116.9a.28.28,0,0,0-.28-.28h-2.3a.28.28,0,0,0-.28.28v3.81h-1.74V116.9a.27.27,0,0,0-.27-.28H233a.28.28,0,0,0-.28.28v3.81H231V116.9a.27.27,0,0,0-.27-.28h-2.3a.28.28,0,0,0-.28.28v3.81H226.4V116.9a.27.27,0,0,0-.27-.28h-2.3a.28.28,0,0,0-.28.28v6.79l.08.17v0l1.48,1.13-.68,1.37v.25l.2.11,0,0h1.19v3h-2.29v-2.26a.27.27,0,0,0-.28-.28h-2.82a.27.27,0,0,0-.28.28v2.26h-2.27v-2.26a.27.27,0,0,0-.27-.28h-2.83a.28.28,0,0,0-.28.28v2.26h-2.26v-2.26a.28.28,0,0,0-.28-.28h-2.82a.27.27,0,0,0-.28.28v2.26h-2.27v-2.26a.27.27,0,0,0-.28-.28h-2.82a.27.27,0,0,0-.28.28v2.26H201v-2.26a.27.27,0,0,0-.27-.28h-2.83a.28.28,0,0,0-.28.28v2.26h-2.26v-2.26a.28.28,0,0,0-.28-.28h-2.83a.27.27,0,0,0-.27.28v2.26H190.4v-31l1.29-2.22v-.26l-.21-.12,0,0H188V85l1.29-2.22V82.5l-.2-.12H188v-7l1.29-2.22v-.26l-.2-.12H185.4V70.92h1a.27.27,0,0,0,.28-.28.28.28,0,0,0-.28-.28h-1V69.3l.44-1,0-.2v0l-.19-.11H182.7V63.42l0-.1v0l0,0h0l-.06-.06h0A7.84,7.84,0,0,1,178.48,57V53.88a.27.27,0,0,0-.28-.28h-.43V50.89a.28.28,0,0,0-.28-.28h-.19V47.9a.28.28,0,0,0-.28-.28h-.31V45.2h0l-1.3-4.43V32.49a.28.28,0,0,0-.28-.28.29.29,0,0,0-.28.28v8.27l-1.29,4.43v.06h0v2.37h-.32a.27.27,0,0,0-.27.28s0,2.17,0,2.71h-.2a.27.27,0,0,0-.28.28s0,2.17,0,2.71H172a.28.28,0,0,0-.28.28V57a7.8,7.8,0,0,1-4.06,6.16h0l-.06.06h0l0,0v0l0,.1h0v4.51h-2.89l-.17.09,0,0,0,.22v0l.43,1v1.07h-1a.29.29,0,0,0-.28.28.28.28,0,0,0,.28.28h1V72.8h-3.66l-.17.1,0,0v.26l1.28,2.22v7h-1.06l-.17.1,0,0v.27L162.24,85V96.13h-3.46l-.17.11-.05,0v.26l1.28,2.22v50.72h-2.45l-.18.1-.05,0v.27l1.29,2.22v10.67h-6.06v-1.2H153a.28.28,0,0,0,0-.55h-.57v-5.24H153a.28.28,0,0,0,.27-.28.27.27,0,0,0-.27-.28h-.57v-1.09a.28.28,0,0,0-.28-.28h-9.88v-5.25l1.26-.89v0l0-.05h0l0,0v0l0-.09h0v-2.1a.28.28,0,0,0-.28-.28h-2.62v-3.56a.27.27,0,0,0-.27-.27h-3.88v-3.9a.27.27,0,0,0-.28-.28h-.32V119.35a.27.27,0,0,0-.27-.28H135v-2.65a.27.27,0,0,0-.28-.28H134v-2.65a.28.28,0,0,0-.28-.28h-.67v-2.66a.28.28,0,0,0-.28-.27h-.68v-2.66a.28.28,0,0,0-.27-.28h-.69c0-.24,0-.61,0-1.18v-1.47a.28.28,0,0,0-.28-.28h-.59a5.22,5.22,0,0,0,.29-1.58,2.75,2.75,0,0,0-1.65-2.46,2.7,2.7,0,0,1-1.64-2.57.29.29,0,0,0-.28-.28.28.28,0,0,0-.28.28,2.71,2.71,0,0,1-1.64,2.57,2.74,2.74,0,0,0-1.65,2.46,5.49,5.49,0,0,0,.28,1.58h-.58a.28.28,0,0,0-.28.28v1.19h-10l-1.16-1.16v-1.51s0-.49,0-1.19a17.84,17.84,0,0,1,.52-4.86v0l-.07-.23,0-.07h-.31l0,0a7,7,0,0,0-1.63,1.42h-.28V97.07a.28.28,0,1,0-.55,0v1.19h-.78V97.07a.28.28,0,1,0-.56,0v1.19h-.28l-1.63-5.86a.28.28,0,0,0-.27-.19.28.28,0,0,0-.27.19L104,98.26h-.29V97.07a.28.28,0,0,0-.28-.28.29.29,0,0,0-.28.28v1.19h-.77V97.07a.28.28,0,1,0-.56,0v1.19h-.27a7.44,7.44,0,0,0-1.64-1.42l0,0h-.31l-.08.27v.06A17.89,17.89,0,0,1,100,102c0,.71,0,1.18,0,1.21v1.49l-1.17,1.16h-10v-1.19a.29.29,0,0,0-.28-.28H88a5.55,5.55,0,0,0,.29-1.58,2.76,2.76,0,0,0-1.66-2.46A2.71,2.71,0,0,1,85,97.8a.28.28,0,1,0-.55,0,2.71,2.71,0,0,1-1.64,2.57,2.76,2.76,0,0,0-1.66,2.46,5.55,5.55,0,0,0,.29,1.58h-.59a.29.29,0,0,0-.28.28s0,2.12,0,2.65h-.68a.28.28,0,0,0-.28.28v2.66h-.67a.27.27,0,0,0-.28.27v2.66H78a.28.28,0,0,0-.28.28v2.65H77a.28.28,0,0,0-.28.28s0,2.12,0,2.65h-.68a.27.27,0,0,0-.28.28v17.38c-4.72-2.17-11.16-5.1-12.25-5.59v-1l.62-.54,0,0,.07-.19v0l-.14-.18v0l-20.63-8.9v-.71a.68.68,0,0,1,.25-.65h0a1.4,1.4,0,0,0,.44-1.19.27.27,0,0,0-.28-.28.28.28,0,0,0-.28.28c0,.54-.12.63-.28.8l-.13.15-.13-.15c-.16-.17-.28-.26-.29-.8a.28.28,0,1,0-.55,0,1.4,1.4,0,0,0,.44,1.19.72.72,0,0,1,.25.65v.71l-20.63,8.9-.12.16,0,0,.08.21v0l.64.56v1l-8.92,4.1v0h0v0l-.74.34v0h0l0,0-.61.28,0,0-.18.08,0,0-.45.21,0,0-.32.15,0,0-.27.12,0,0-.42.19,0,0-.3.14,0,0-.41.19,0,0-.24.11,0,0-.45.21,0,0-.15.07,0,0-.46.22v0l-.15.07,0,0-.44.2v0l-.12.06,0,0-.41.19,0,0-.12.06v0l-.39.18v0l-.08,0v0l-.36.17v0l-.07,0v0l-.32.15v0l0,0v0l-.29.14h0l-.24.11h0l-.17.09h0C3,140.43,0,142.56,0,146.74v16H0v1.15H514.51v-.66a.15.15,0,0,0,0-.08Zm-60.26-22.83c0-1.34,1.15-2.19,2.48-3.15a7.92,7.92,0,0,0,2.94-3.06,8,8,0,0,0,2.93,3.06c1.34,1,2.49,1.81,2.48,3.15a1.27,1.27,0,0,1,0,.2h-2.55a.28.28,0,0,0-.27.28.27.27,0,0,0,.27.28H465a4.27,4.27,0,0,1-.3.78h-2.44l-.84-1.21a2.18,2.18,0,0,0,.06-.49,2.64,2.64,0,0,0-1.64-2.19l.18-.19-.41.17h0a2.61,2.61,0,0,0-1.65,2.19,2.18,2.18,0,0,0,.06.49l-.84,1.21H454.7a4.05,4.05,0,0,1-.32-.87h2.47a.28.28,0,1,0,0-.55h-2.56Zm3.54,1.54.6-.87H461l.6.87h-3.76Zm.65-1.7a2,2,0,0,1,1.23-1.64,2,2,0,0,1,1.23,1.64,1.49,1.49,0,0,1,0,.28h-2.4A1.41,1.41,0,0,1,458.47,119.29Zm-3.88,2.26h10.22l1.09.6H453.5ZM477,127a.28.28,0,0,0,.28-.28.29.29,0,0,0-.28-.28h-9.09l1.26-2.18h11.46a4,4,0,0,0-1.6,2.18h-.69a.28.28,0,0,0-.28.28v2.12a1.15,1.15,0,0,0-.67-.23,1.24,1.24,0,0,0-1,.47,1.2,1.2,0,0,0-1.9,0,1.21,1.21,0,0,0-1.91,0,1.2,1.2,0,0,0-1.9,0,1.21,1.21,0,0,0-1.91,0,1.21,1.21,0,0,0-1-.47,1.13,1.13,0,0,0-.67.23v-1.13l.4-.71Zm-5.14-20h6.81a.28.28,0,0,0,.28-.28.27.27,0,0,0-.28-.28h-6.6a4,4,0,0,1-.21-1.26c0-2.3,2-4.49,3.88-6h13c1.91,1.55,3.89,3.74,3.88,6a4,4,0,0,1-.21,1.26h-6.6a.28.28,0,0,0-.28.28.29.29,0,0,0,.28.28h7.55l-1,3.37h-7l-.8-1.54.54-2,.13.09-.13-.29v-.08h0l-.39-.9h.15a.29.29,0,0,0,.28-.25,6.85,6.85,0,0,0,0-.77,5.11,5.11,0,0,0-1.9-3.93,2.78,2.78,0,0,1-.65-.76v-.14h0a.25.25,0,0,0-.13-.22v0l-.11,0,0,0h-.06a.27.27,0,0,0-.28.28h0l0,.15a3.19,3.19,0,0,1-.65.76,5.12,5.12,0,0,0-1.91,3.93c0,.15,0,.31,0,.46h-.12l.12,0a2.83,2.83,0,0,0,0,.29.27.27,0,0,0,.27.25h.15l-.38.91,0,0v.07l-.12.3.13-.09.53,2-.8,1.54h-7l-1-3.37h.74Zm9.49-15.24h0l0,0,0,0h0l.8-.73.79.73,0,0h0l.08,0h1.18v2.12h-4.27V91.77h1.25Zm.86,2.69h3V96.3h-5.89V94.45h2.92Zm.06,2.41h3.12c.12.07.47.26.94.56h-8.19c.48-.3.82-.49.94-.56Zm0,1.12h4.94l.83.6H476.44c.29-.21.57-.42.84-.6ZM480,105.1c0-.16,0-.31,0-.46a4.56,4.56,0,0,1,1.73-3.53,7.4,7.4,0,0,0,.56-.59,7.16,7.16,0,0,0,.55.59,4.56,4.56,0,0,1,1.74,3.53,3.67,3.67,0,0,1,0,.46H480Zm.5.56H484l.34.78h-4.2Zm1.77,1.34h2.16l-.43,1.58h-3.47l-.42-1.58Zm0,3.37H479.8l.64-1.23H484l.63,1.23Zm-10.32.56h20.79v1.36h-21v-1.36Zm10.29,1.92h14.46l.36.55H467.4l.35-.55h14.47Zm.9,1.11-.9,1.6-.91-1.6h1.81Zm10.45,1.94h-.8l1.1-1.94h.8Zm-1.44,0h-.8l1.09-1.94h.81Zm-1.44,0h-.81L491,114h.8Zm-1.45,0h-.8l1.1-1.94h.8ZM488.9,114l-1.1,1.94H487l1.09-1.94Zm-2.54,1.94h-.81l1.1-1.94h.8Zm-1.45,0h-.8l1.1-1.94h.8Zm-1.44,0h-.81l1.1-1.94h.81Zm-1.7,0H481l-1.1-1.94h.8Zm-1.44,0h-.81l-1.1-1.94h.81Zm-1.45,0h-.8L477,114h.8ZM476.34,114l1.1,1.94h-.81L475.54,114Zm-1.44,0L476,115.9h-.8l-1.1-1.94Zm-.35,1.94h-.8l-1.1-1.94h.8ZM472,114l1.1,1.94h-.81L471.21,114Zm-1.45,0,1.1,1.94h-.8l-1.1-1.94Zm23.65,1.94,1.1-1.94h.8L495,115.9ZM469.12,114l1.1,1.94h-.8l-1.1-1.94Zm.4,7.39v-.06h0v-4.82H494.9v4.88h0l.78,2.37H483.14c-.17-.14-.33-.27-.45-.39l-.15-.16,0,0v0h0a.28.28,0,1,0-.55,0h0a.75.75,0,0,1-.22.25c-.12.12-.27.24-.43.37H468.75Zm17.94,5.11a.28.28,0,0,0-.28.28.27.27,0,0,0,.28.28h9.4l.41.71v1.13a1.16,1.16,0,0,0-.68-.23,1.22,1.22,0,0,0-.95.47,1.2,1.2,0,0,0-1.9,0,1.24,1.24,0,0,0-1-.47,1.22,1.22,0,0,0-.95.47,1.2,1.2,0,0,0-1.9,0,1.24,1.24,0,0,0-1-.47,1.22,1.22,0,0,0-1,.47,1.21,1.21,0,0,0-.95-.47,1.16,1.16,0,0,0-.68.23v-2.12a.28.28,0,0,0-.27-.28h-.69a4.11,4.11,0,0,0-1.6-2.18h11.46l1.25,2.18Zm11.86-7c0-1.34,1.14-2.19,2.48-3.15a7.89,7.89,0,0,0,2.93-3.06,8,8,0,0,0,2.94,3.06c1.34,1,2.48,1.81,2.48,3.15v.12h-2.55a.28.28,0,1,0,0,.55h2.47a4.13,4.13,0,0,1-.33.87h-2.44l-.83-1.21a3,3,0,0,0,.06-.49,2.64,2.64,0,0,0-1.65-2.19h0l-.42-.17.18.19a2.62,2.62,0,0,0-1.64,2.19,2.18,2.18,0,0,0,.06.49l-.83,1.21h-2.45a5.15,5.15,0,0,1-.3-.78h2.45a.28.28,0,0,0,.28-.28.29.29,0,0,0-.28-.28h-2.55A1.27,1.27,0,0,1,499.32,119.45Zm5.41,1.54h-1.88l.6-.87H506l.59.87Zm-1.23-1.7a2,2,0,0,1,1.23-1.64,2,2,0,0,1,1.23,1.64,1.49,1.49,0,0,1,0,.28h-2.4C503.52,119.47,503.5,119.38,503.5,119.29Zm-3.87,2.26h10.21l1.09.61H498.54Zm-33.18,5.83h-2.07l.56-1.19a1.27,1.27,0,0,0,.47.09,1.28,1.28,0,0,0,.48-.09Zm2.62,2.48a.68.68,0,0,1,1.35,0,.28.28,0,0,0,.28.28.29.29,0,0,0,.28-.28.67.67,0,0,1,1.34,0,.29.29,0,0,0,.28.28.28.28,0,0,0,.28-.28.68.68,0,0,1,1.35,0,.28.28,0,0,0,.28.28.29.29,0,0,0,.28-.28.67.67,0,0,1,1.34,0,.29.29,0,0,0,.28.28.28.28,0,0,0,.28-.28.68.68,0,0,1,1.35,0v1H467.17v-1a.67.67,0,0,1,1.34,0,.29.29,0,0,0,.28.28A.28.28,0,0,0,469.07,129.86ZM478.6,127h.66a.27.27,0,0,0,.27-.28c0-.87,1.08-1.77,1.91-2.42a9,9,0,0,0,.78-.68,6.73,6.73,0,0,0,.78.68c.82.65,1.91,1.55,1.9,2.42a.27.27,0,0,0,.28.28h.66v3.89h-.47v-3.25a.28.28,0,1,0-.56,0v3.25h-5.19v-3.25a.28.28,0,1,0-.55,0v3.25h-.47V127Zm9.42,3.12a.29.29,0,0,0,.28-.28.67.67,0,0,1,.67-.67.68.68,0,0,1,.68.67.28.28,0,1,0,.55,0,.69.69,0,0,1,.68-.67.67.67,0,0,1,.67.67.28.28,0,1,0,.56,0,.67.67,0,0,1,.67-.67.68.68,0,0,1,.68.67.28.28,0,1,0,.55,0,.68.68,0,0,1,.68-.67.67.67,0,0,1,.67.67.28.28,0,1,0,.56,0,.67.67,0,0,1,.67-.67.68.68,0,0,1,.68.67v1H486.39v-1a.69.69,0,0,1,.68-.67.67.67,0,0,1,.67.67A.29.29,0,0,0,488,130.14Zm12.61,25.1h-1.16v-1.69a.29.29,0,0,0-.28-.28H499V138.65h0a.27.27,0,0,0,.27-.28v-.61h.2a.28.28,0,0,0,.28-.28v-.57h.35a.27.27,0,0,0,.27-.28v-1.86h1.17v1.58h-.35a.28.28,0,0,0-.27.28v.57h-.2a.28.28,0,0,0-.28.28v.61h0a.28.28,0,0,0-.28.28v15.18a.27.27,0,0,0,.28.28h.17Zm-39.63-21,3.05-2.75h36.34l3,2.75H461Zm37.91,21h-2v-1.41h.17a.28.28,0,0,0,.28-.28V138.37a.29.29,0,0,0-.28-.28h0v-.61a.29.29,0,0,0-.28-.28h-.2v-.57a.28.28,0,0,0-.28-.28H496v-1.58h3.91v1.58h-.35a.29.29,0,0,0-.28.28v.57H499a.28.28,0,0,0-.28.28v.61h0a.28.28,0,0,0-.28.28v15.18a.27.27,0,0,0,.28.28h.17Zm-21.47-18.33v.57a.29.29,0,0,0,.28.28h.2v.61a.27.27,0,0,0,.28.28h0v6.77H474v-6.77h0a.27.27,0,0,0,.28-.28v-.61h.2a.29.29,0,0,0,.28-.28v-.57h2.62ZM474,146h4.18v1.72H474Zm1.4-9.62v-1.58h1.38v1.58Zm-3.62,11.34h-4.16V146h4.16ZM471,136.91v.57a.29.29,0,0,0,.28.28h.2v.61a.27.27,0,0,0,.28.28h0v6.77h-4.18v-6.77h0a.27.27,0,0,0,.28-.28v-.61h.2a.29.29,0,0,0,.28-.28v-.57H471Zm-2-.56v-1.58h1.38v1.58Zm13.55-1.58v1.58h-.75v-1.58h.75Zm3.63,11.2h4.17v1.72h-4.17Zm3.4-9.06v.57a.28.28,0,0,0,.27.28h.2v.61a.28.28,0,0,0,.28.28h0v6.77h-4.17v-6.77h0a.28.28,0,0,0,.28-.28v-.61h.19a.28.28,0,0,0,.28-.28v-.57h2.63Zm-2-.56v-1.58H489v1.58Zm5,9.62h4.17v1.72h-4.17Zm0-7.32h0a.27.27,0,0,0,.27-.28v-.61h.2a.28.28,0,0,0,.28-.28v-.57H496v.57a.29.29,0,0,0,.28.28h.2v.61a.28.28,0,0,0,.28.28h0v6.77h-4.18Zm1.4-2.3v-1.58h1.38v1.58Zm-9.91,17.48h.17a.28.28,0,0,0,.28-.28V138.37a.29.29,0,0,0-.28-.28h0v-.61a.29.29,0,0,0-.28-.28h-.2v-.57a.28.28,0,0,0-.28-.28h-.34v-1.58h3.91v1.58h-.35a.29.29,0,0,0-.28.28v.57h-.19a.28.28,0,0,0-.28.28v.61h0a.28.28,0,0,0-.28.28v15.18a.27.27,0,0,0,.28.28h.17v1.41h-2Zm2.29-.56h-.17v-5h4.17v5h-.17a.28.28,0,0,0-.28.28v1.69h-3.27v-1.69A.29.29,0,0,0,486.39,153.27Zm4.11.56h.17a.28.28,0,0,0,.28-.28V138.37a.29.29,0,0,0-.28-.28h0v-.61a.29.29,0,0,0-.28-.28h-.2v-.57a.28.28,0,0,0-.28-.28h-.34v-1.58h3.91v1.58h-.35a.29.29,0,0,0-.28.28v.57h-.19a.28.28,0,0,0-.28.28v.61h0a.28.28,0,0,0-.28.28v7.24l0,.06h0V148h0l0,.06v5.5a.27.27,0,0,0,.28.28h.17v1.41h-2Zm2.29-.56h-.18v-5h4.18v5h-.17a.28.28,0,0,0-.28.28v1.69h-3.27v-1.69A.29.29,0,0,0,492.79,153.27Zm-27.27.56h.18a.28.28,0,0,0,.28-.28V138.37a.29.29,0,0,0-.28-.28h0v-.61a.29.29,0,0,0-.28-.28h-.2v-.57a.28.28,0,0,0-.28-.28h-.34v-1.58h3.9v1.58h-.34a.29.29,0,0,0-.28.28v.57h-.2a.28.28,0,0,0-.27.28v.61h0a.28.28,0,0,0-.27.28v15.18a.27.27,0,0,0,.27.28h.18v1.41h-2Zm2.3-.56h-.18v-5h4.18v5h-.18a.28.28,0,0,0-.27.28v1.69h-3.28v-1.69A.28.28,0,0,0,467.82,153.27Zm4.1.56h.18a.28.28,0,0,0,.28-.28V148h0v-9.61a.29.29,0,0,0-.28-.28h0v-.61a.29.29,0,0,0-.28-.28h-.2v-.57a.28.28,0,0,0-.28-.28H471v-1.58h3.9v1.58h-.34a.29.29,0,0,0-.28.28v.57h-.2a.29.29,0,0,0-.28.28v.61h0a.29.29,0,0,0-.28.28v15.18a.28.28,0,0,0,.28.28h.18v1.41h-2Zm2.3-.56H474v-5h4.18v5H478a.28.28,0,0,0-.27.28v1.69h-3.28v-1.69A.28.28,0,0,0,474.22,153.27Zm4.1.56h.18a.27.27,0,0,0,.27-.28V138.37a.28.28,0,0,0-.27-.28h0v-.61a.29.29,0,0,0-.28-.28H478v-.57a.29.29,0,0,0-.28-.28h-.34v-1.58h3.9v1.58h-.34a.28.28,0,0,0-.28.28v.57h-.2a.29.29,0,0,0-.28.28v.61h0a.29.29,0,0,0-.28.28v15.18a.28.28,0,0,0,.28.28h.18v1.41h-2Zm2.3-.56h-.18V138.65h0a.27.27,0,0,0,.28-.28v-.61h.2a.29.29,0,0,0,.28-.28v-.57h2v.57a.28.28,0,0,0,.27.28h.2v.61a.28.28,0,0,0,.28.28h0v14.62h-.17a.28.28,0,0,0-.28.28v1.69h-2.65v-1.69A.28.28,0,0,0,480.62,153.27Zm-16.82.56H464a.27.27,0,0,0,.27-.28V138.37a.28.28,0,0,0-.27-.28h0v-.61a.28.28,0,0,0-.27-.28h-.2v-.57a.29.29,0,0,0-.28-.28h-.35v-1.58H464v1.86a.27.27,0,0,0,.28.28h.34v.57a.29.29,0,0,0,.28.28h.2v.61a.27.27,0,0,0,.28.28h0v14.62h-.17a.28.28,0,0,0-.28.28v1.69H463.8Zm18.42,2h19.69v.76H462.52v-.76h19.7Zm-30.32,3.69h.19a3.87,3.87,0,0,0,.92-.11v0l.24-.07.64-.18h-.21a4.27,4.27,0,0,0,1.47-1.07v2.82H451.9Zm59.25-.16h0l.25.07v0a3.74,3.74,0,0,0,.92.11h.19v1.42H509.3v-2.82a4.13,4.13,0,0,0,1.46,1.07h-.2Zm-2.41,1.58h-.69v-3.42h.69Zm-26.52,0H456.94v-1h50.55v1Zm19.69-3.79v.66H462.52v-.66h39.39Zm-45,1.22h50.55v1H456.94Zm50.55-.56h-3.77v-2.56a4.7,4.7,0,0,0,3.77,2.25Zm-5,0v-3.41h.69v3.41Zm-40.5,0h-.7v-3.41h.7v3.41Zm-1.25,0h-3.78v-.31a4.73,4.73,0,0,0,3.78-2.25Zm-4.33,1.8v1.33h-.7v-3.42h.7v2.09Zm56.42-.66h0l-.44,0a3.62,3.62,0,0,1-.77-.09v-27.4h2.21v27.46Zm-15-31h2.39v3h-2.39v-3Zm-31.21,1.92v1h-2.39v-3h2.39ZM451.9,161.47h60.64v1.29H451.9Zm61.19,1.29v-3.28h.7v3.28Zm-1.79-31.85h-8.89a.28.28,0,1,0,0,.55H511v27.23a3.54,3.54,0,0,1-1.73-1.57l.46,0-.71-.14h-1.26a4.36,4.36,0,0,1-4.08-3h0l0-.05,0,0-.15-.06h-1.29a.28.28,0,0,0-.28.28v1.15h-.72v-1.69a.29.29,0,0,0-.28-.28h-.17V138.65h0a.28.28,0,0,0,.28-.28v-.61h.19a.28.28,0,0,0,.28-.28v-.57h.35a.28.28,0,0,0,.28-.28v-1.86h2l.2-.13.05,0-.06-.27v0l-3.59-3.24v-3.12H511l2.48,3Zm-12.75-4.72a1.27,1.27,0,0,0,.47.09,1.23,1.23,0,0,0,.47-.09l.56,1.19H498Zm-34.89,1.75v3.12l-3.59,3.24-.05.23,0,.07.22.15,0,0h2.05v1.86a.27.27,0,0,0,.28.28h.34v.57a.28.28,0,0,0,.28.28h.2v.61a.27.27,0,0,0,.28.28h0v14.62h-.18a.29.29,0,0,0-.28.28v1.69h-.72v-1.15a.27.27,0,0,0-.28-.28H461l-.15.06h0l-.05.08h0a4.38,4.38,0,0,1-4.09,3h-1.3l-.67.13.47,0a3.54,3.54,0,0,1-1.73,1.57V131.46H462a.28.28,0,1,0,0-.55H451l2.49-3Zm-10.8,3.52v27.4a3.71,3.71,0,0,1-.78.09l-.43,0h-1V131.46Zm58.6-4.08H500.67l-.7-1.49a1,1,0,0,0,.14-.15H510.7l1.93,1.63Zm-6.73-2.19h-4.37a1,1,0,0,0,.05-.3,1.4,1.4,0,0,0-.71-1.21v-1h10.07v1.07l0,.09h0l.59,1.31Zm-5.43-1.09h0a.85.85,0,0,1,.56.79.83.83,0,0,1-.35.66h0v0a.85.85,0,0,1-.46.16.8.8,0,0,1-.45-.14h0a.84.84,0,0,1,.47-1.54A.87.87,0,0,1,499.3,124.1Zm-33.42,1.48h0a.83.83,0,0,1-.46.14.79.79,0,0,1-.45-.16l0,0h0a.83.83,0,0,1,.21-1.45h0a.92.92,0,0,1,.28,0,.84.84,0,0,1,.84.84A.82.82,0,0,1,465.88,125.58Zm-11.23-1.7v-.09h0v-1.07h10.06v1a1.4,1.4,0,0,0-.71,1.21,1.45,1.45,0,0,0,.05.3h-10Zm5.05,1.87h4.63a.67.67,0,0,0,.14.15l-.71,1.49h-12l1.93-1.63Zm-8.36,33.73v3.28h-.69v-3.28Zm28.27-72.26a2.41,2.41,0,0,1-.07-.53.72.72,0,0,1,.26-.64.67.67,0,0,1,.33-.09.73.73,0,0,1,.31.07,1.37,1.37,0,0,1,.78,1,28.24,28.24,0,0,0-.25,4.17h-.13a12.17,12.17,0,0,1-.29-2.77,1.19,1.19,0,0,0-.73-1.09l-.16-.09,0,0Zm2.61-1.53a.67.67,0,0,1,.12.21,15,15,0,0,1,.57,4.95l-.53-.48h-.32l-.53.49a24.35,24.35,0,0,1,.31-4.1,4.49,4.49,0,0,1,.25-.86A.63.63,0,0,1,482.22,85.69Zm2.6,1.53a.73.73,0,0,1-.2.13,1.16,1.16,0,0,0-.73,1.09,12.8,12.8,0,0,1-.29,2.77h-.13a29.59,29.59,0,0,0-.26-4.17,1.4,1.4,0,0,1,.78-1,.77.77,0,0,1,.32-.07.57.57,0,0,1,.32.09.72.72,0,0,1,.26.64A2.41,2.41,0,0,1,484.82,87.22ZM159,151.9v0l-.6-1h13.2v11.92h-1v-9.93a.27.27,0,0,0-.28-.28h-8.54a.27.27,0,0,0-.28.28v9.93H159V152ZM173,51.17h4.18V53.6H173Zm.47-3h3.24v2.44H173.5Zm.59-2.63h2.06v2.08h-2.06V45.54Zm1-.56h-.93l.93-3.19.94,3.19Zm0,9.18h2.81v2.61h-5.61V54.16h2.8Zm0,3.17H178a8.54,8.54,0,0,0,3.47,5.82H168.82a8.53,8.53,0,0,0,3.46-5.82Zm0,6.38h7v4.22h-3.67a.29.29,0,0,0-.28.28V72.8h-6.14V68.21a.28.28,0,0,0-.28-.28H168.1V63.71Zm60.19,57.56h2.29a.27.27,0,0,0,.28-.28v-3.82h1.74v6.36l-1.46,1.12H225.57l-1.46-1.12v-6.36h1.74V121a.27.27,0,0,0,.28.28h2.29a.28.28,0,0,0,.28-.28v-3.82h1.74V121a.27.27,0,0,0,.28.28H233a.27.27,0,0,0,.28-.28v-3.82H235V121A.27.27,0,0,0,235.31,121.27Zm-9.66,3.94h12.43l.49,1H225.15Zm28-3.94h2.29a.27.27,0,0,0,.28-.28v-3.82h1.74V121a.28.28,0,0,0,.28.28h2.29a.27.27,0,0,0,.28-.28v-3.82h1.74V121a.28.28,0,0,0,.28.28h2.3a.27.27,0,0,0,.27-.28v-3.82h1.74v6.36l-1.46,1.12H253.05l-1.46-1.12v-6.36h1.74V121A.28.28,0,0,0,253.61,121.27Zm-.48,3.94h12.43l.5,1H252.64Zm43.67-6.62,12,5.29.22.1h0l.81.35h-26.1Zm17.67-87.2h4.45c-.68.59-1.43,1.81-1.49,4.25h-5a5.56,5.56,0,0,1,1-3.56A1.9,1.9,0,0,1,314.47,31.39ZM332.35,9.7c4.49,2.18,7.3,7.35,8.35,15.44-.16-.6-.32-1.17-.51-1.71l0,0L340,23h0l-.06-.17h0q-2.22-5.74-7.39-6.63l0,0h-.3q-5.31.81-7.57,6.67h0l-.07.21-.18.47,0,0c-.18.54-.35,1.12-.5,1.71C325,17.05,327.85,11.88,332.35,9.7Zm10.57,24.52v5h-1.21v-5Zm21,79h2.82A.28.28,0,0,0,367,113v-4.76h2.26V113a.28.28,0,0,0,.28.28h2.83a.27.27,0,0,0,.27-.28v-4.76h2.27V113a.28.28,0,0,0,.28.28H378a.27.27,0,0,0,.28-.28v-4.76h2.27v7.92l-1.84,1.4H363.21l-1.84-1.4v-7.92h2.27V113A.27.27,0,0,0,363.92,113.25Zm-.63,4.84h15.37l.67,1.35H362.61Zm51.45,7.24h2.82a.29.29,0,0,0,.28-.28v-2.26h2.26v2.26a.29.29,0,0,0,.28.28h2.83a.29.29,0,0,0,.28-.28v-2.26h2.26v2.26a.29.29,0,0,0,.28.28h2.82a.28.28,0,0,0,.28-.28v-2.26h1.93v.55h0v.79l.13-.51,1.73,2.79H378.28v-3.64h2.3v2.26a.28.28,0,0,0,.28.28h2.82a.29.29,0,0,0,.28-.28v-2.26h2.26v2.26a.29.29,0,0,0,.28.28h2.83a.28.28,0,0,0,.27-.28v-2.26h2.27v2.26a.29.29,0,0,0,.28.28H395a.28.28,0,0,0,.28-.28v-2.26h2.27v2.26a.28.28,0,0,0,.28.28h2.82a.29.29,0,0,0,.28-.28v-2.26h2.26v2.26a.29.29,0,0,0,.28.28h2.83a.28.28,0,0,0,.27-.28v-2.26h2.27v2.26a.29.29,0,0,0,.28.28h2.82a.28.28,0,0,0,.28-.28v-2.26h2.27v2.26A.28.28,0,0,0,414.74,125.33Zm23.6-4.1h2.33A.28.28,0,0,0,441,121v-3.88h1.78v6H431.61v-6h1.78V121a.28.28,0,0,0,.28.28H436a.27.27,0,0,0,.28-.28v-3.88h1.78V121A.27.27,0,0,0,438.34,121.23ZM171.57,149.47h-.34V130.26h.35c0,.25,0,.6,0,1.15Zm-.89-73.85v6.75h-1.63V75.62Zm8.89,0h1.63v6.75h-1.63Zm6,20.51h-1.63V85.19h1.63Zm-14.89,0h-1.63V85.19h1.63Zm-2.19,0h-1.63V85.19h1.63Zm14.9,0h-1.63V85.19h1.62Zm-2.19,0h-1.63V85.19h1.63Zm.8,31H181a.28.28,0,0,0-.28.28v2.26h-1.1v-3.5h0V99H182Zm2.05,2.54v-2.26a.27.27,0,0,0-.28-.28h-1.22V99H185v30.76Zm-5.37-1.35c0-1,0-1.55,0-1.88H179V129Zm-1.73-4a13.63,13.63,0,0,0-1.15-6.26c2.2,1.32,2.31,4.16,2.32,6.26Zm-.56,0h-2.54a12.73,12.73,0,0,1,1.27-6.34A12.51,12.51,0,0,1,176.39,124.37Zm-3.07-48.45h3.61v42.36a4.71,4.71,0,0,0-1.71-1.07H175a4.71,4.71,0,0,0-1.71,1.07Zm1.13,42.19a13.5,13.5,0,0,0-1.15,6.26h-1.17C172.13,122.27,172.25,119.43,174.45,118.11Zm.67,8.37h3v1.68h-6v-1.68ZM179,98.67v26.49l-.33-.59c0-1.69,0-4-1.2-5.65V75.64a.28.28,0,0,0-.27-.28H173a.29.29,0,0,0-.28.28v43.28c-1.17,1.67-1.19,4-1.19,5.65l-.34.59V73.35H179V98.67Zm-8.33,27.54V130h0v19.47h-2.43V99h2.43v27.24h0Zm1.33-1.28h6.23l.57,1h-7.37Zm-7.34-39.74h1.63V96.13h-1.63Zm6.56,41.29h.34v1.88l-.34.59Zm15.37.69a.27.27,0,0,0-.28.28v2.26h-.78V99H188v28.22Zm-3.22-44.8h-1.62V75.62h1.62Zm2.19,0h-1.63V75.62h1.63ZM165.4,71.16v-.24h6.1V72.8h-6.11C165.4,72.49,165.4,72,165.4,71.16Zm1.46,4.46h1.63v6.75h-1.63Zm-2.19,0h1.63v6.75h-1.63ZM165.26,99h2.43v50.52h-2.43Zm-.56,0v50.52h-2.43V99ZM172,128.72h6.23l.57,1h-7.37Zm2.41,1.54h1.41v32.5h-1.41Zm2,0h1.74v32.5h-1.74Zm2.3,0H181a.27.27,0,0,0,.28-.27v-2.26h2.27V130a.27.27,0,0,0,.27.27h.12v1.59h-1.21a.28.28,0,0,0,0,.56h1.21v30.35h-5.21Zm5.76,2.15h12.78v30.35H184.44ZM179.29,72.8h-.54V70.92h6.1V72.8Zm-5.43,57.46v32.5h-1.73v-32.5Zm28.56,27.15a1.88,1.88,0,0,1,3.75,0v5.35h-3.75Zm17.25.66h-2v-1.74h2Zm0,2.3h-2v-1.74h2Zm-2-4.6v-1.93a2.21,2.21,0,0,1,1.94,1.93Zm-2.49,0a2.22,2.22,0,0,1,1.94-1.93v1.93Zm1.94.56v1.74h-2v-1.74Zm0,2.3v1.74h-2v-1.74Zm-2,2.3h2v1.83h-2Zm2.52,0h2v1.83h-2Zm2.53-.28v-4.6a2.81,2.81,0,0,0-5.61,0v6.71h-5.7V142.64h16.94v20.12h-5.63Zm-11.45-18.56-.62-.9h17.7v.9Zm.14-1.46v-.83h16.94v.83Zm-.14-1.39-.62-.9h17.7v.9ZM321.22,34V39.2H318V35.92c0-3.43,1.37-4.27,1.87-4.47Zm43,88.5V120h3.67v42.76h-3.67Zm53.38,32.37H420v7.88h-2.42Zm3,0H423v7.88h-2.41Zm3,0H426v7.88h-2.42Zm2.7-.56h-8.93a.29.29,0,0,0-.28.28v8.16h-1.64V132.41h12.77v30.35h-1.64V154.6A.29.29,0,0,0,426.26,154.32Zm-30.6.56h2.42v7.88h-2.42Zm3,0h2.42v7.88h-2.42Zm3,0H404v7.88h-2.42Zm2.7-.56h-8.93a.29.29,0,0,0-.28.28v8.16h-1.64V132.41h12.77v30.35h-1.64V154.6A.29.29,0,0,0,404.31,154.32Zm-19.93.56h2.42v7.88h-2.42Zm2.7-.56h-3a.29.29,0,0,0-.28.28v8.16h-5.54V127h13.26l1.28,2-1.35,1.36,0,.22,0,.07.22.14,0,0h1.24v1h-1.21a.28.28,0,0,0,0,.56h1.21v30.35h-5.54V154.6A.29.29,0,0,0,387.08,154.32Zm41.38-24H414.31l.93-.93h13.11l.93.93Zm-6.66.56h6.38v1H415.41v-1Zm6.51-2h-13l-1.13-1.8h15.29Zm-28.46,2h6.38v1H393.46v-1Zm0-.56h-7.49l.93-.93H406.4l.93.93h-7.48Zm6.51-1.48h-13L392.2,127h15.29Zm.43,3.62H408a.28.28,0,0,0,.28-.28.29.29,0,0,0-.28-.28h-1.21v-1H408l.19-.13.06,0,0-.26v0L406.87,129l1.28-2h5.34l1.28,2-1.35,1.36,0,.22,0,.07.22.14,0,0h1.24v1h-1.21a.28.28,0,0,0,0,.56h1.21v30.35h-8.06Zm-29.07-9.9v40.25h-3.67V120h3.67Zm-7.81,33.43a1.06,1.06,0,1,1,2.12,0v6.82h-2.12Zm1.06-1.62a1.62,1.62,0,0,0-1.61,1.62v6.82h-.9V120h5v42.76h-.9v-6.82A1.62,1.62,0,0,0,371,154.32Zm-24.53.56h2.42v7.88h-2.42Zm3,0h2.42v7.88h-2.42Zm3,0h2.42v7.88h-2.42Zm2.7-.56h-8.93a.28.28,0,0,0-.28.28v8.16h-1.65V132.41H357v30.35h-1.64V154.6A.29.29,0,0,0,355.09,154.32ZM318,151.49a3.36,3.36,0,0,1,3.34,3.08h-6.68A3.36,3.36,0,0,1,318,151.49Zm0-.56a3.93,3.93,0,0,0-3.92,3.92v7.91h-2.69v-7.91a3.92,3.92,0,0,0-7.84,0v7.91h-2.79v-7.91a3.92,3.92,0,0,0-7.84,0v7.91h-2.79v-7.91a3.92,3.92,0,1,0-7.84,0v7.91h-2.69v-7.91a3.91,3.91,0,0,0-7.28-2v-6.94l1.63,1.18h0l.11,0h45.53l.12,0h0l1.63-1.18v6.94A3.91,3.91,0,0,0,318,150.93Zm-13.87,3.64a3.35,3.35,0,0,1,6.67,0Zm0,.56h6.73v7.63h-6.73Zm-10.6-.56a3.35,3.35,0,0,1,6.68,0Zm0,.56h6.72v7.63h-6.72Zm-10.6-.56a3.35,3.35,0,0,1,6.67,0Zm0,.56h6.73v7.63h-6.73Zm14-20.15H275.38l9.31-1.54h24.22l9.31,1.54Zm-21.16,16.51a3.36,3.36,0,0,1,3.34,3.08h-6.67A3.35,3.35,0,0,1,275.64,151.49Zm43.81-4.91h-45.3l-1.29-.93h47.88ZM296.8,137a1.79,1.79,0,0,1,1.78,1.78v6.33H295v-6.33A1.78,1.78,0,0,1,296.8,137Zm22.31,8.11h-3.55v-6.33a1.78,1.78,0,1,1,3.55,0Zm-4.1,0h-3.55v-6.33a1.78,1.78,0,1,1,3.55,0Zm-4.11,0h-3.55v-6.33a1.78,1.78,0,1,1,3.55,0Zm-4.11,0h-3.55v-6.33a1.78,1.78,0,1,1,3.55,0Zm-4.11,0h-3.55v-6.33a1.78,1.78,0,1,1,3.55,0Zm-10-8.11a1.78,1.78,0,0,1,1.78,1.78v6.33h-3.55v-6.33A1.78,1.78,0,0,1,292.69,137Zm-4.1,0a1.78,1.78,0,0,1,1.77,1.78v6.33h-3.55v-6.33A1.78,1.78,0,0,1,288.59,137Zm-4.11,0a1.78,1.78,0,0,1,1.77,1.78v6.33H282.7v-6.33A1.78,1.78,0,0,1,284.48,137Zm-4.11,0a1.79,1.79,0,0,1,1.78,1.78v6.33H278.6v-6.33A1.78,1.78,0,0,1,280.37,137ZM278,145.1h-3.55v-6.33a1.78,1.78,0,1,1,3.55,0Zm-6.32-6.35v6.51L265.35,152V145.5Zm47.95,6.35v-6.33a2.32,2.32,0,0,0-4.39-1.07,2.29,2.29,0,0,0-4.1,0,2.3,2.3,0,0,0-4.11,0,2.3,2.3,0,0,0-4.11,0,2.3,2.3,0,0,0-4.11,0,2.29,2.29,0,0,0-4.1,0,2.3,2.3,0,0,0-4.11,0,2.3,2.3,0,0,0-4.11,0,2.3,2.3,0,0,0-4.11,0,2.29,2.29,0,0,0-4.1,0,2.32,2.32,0,0,0-4.39,1.07v6.33h-1.65v-9.56h49v9.56ZM317.54,39.76l.12.05,0,0,.16-.07H323v.78h-8.56l-.47-.78Zm33.08,91.07H357v1H344.23v-1Zm0-.56h-7.48l.93-.93h13.11l.93.93h-7.49Zm6.52-1.48h-13L343,127h15.3Zm-37.08-20.66h-1.21l0-.1a4.5,4.5,0,0,1,.24-1,5.14,5.14,0,0,0,.28-1.31,1,1,0,0,0-.06-.29h.78c0,.27,0,.68,0,1.36Zm-2.94,0h0l0-.1a4.5,4.5,0,0,1,.24-1,5.61,5.61,0,0,0,.28-1.31,1,1,0,0,0-.06-.29h1c.19,0,.19,0,.21.06a.39.39,0,0,1,0,.22,4.18,4.18,0,0,1-.26,1.16,4.5,4.5,0,0,0-.25,1.16v.12Zm-1.77,0h0l0-.1a4.5,4.5,0,0,1,.24-1,5.61,5.61,0,0,0,.28-1.31,1,1,0,0,0-.06-.29h1c.19,0,.19,0,.21.06a.39.39,0,0,1,0,.22,4.57,4.57,0,0,1-.26,1.16,4.5,4.5,0,0,0-.25,1.16v.12Zm-1.77,0h0l0-.1a4.5,4.5,0,0,1,.24-1,5.61,5.61,0,0,0,.28-1.31,1,1,0,0,0-.06-.29h1c.19,0,.19,0,.21.06a.54.54,0,0,1,0,.22,4.57,4.57,0,0,1-.26,1.16,4.5,4.5,0,0,0-.25,1.16v.12Zm-1.77,0h0l0-.1a4.5,4.5,0,0,1,.24-1,5.61,5.61,0,0,0,.28-1.31,1.5,1.5,0,0,0-.06-.29h1c.19,0,.19,0,.21.06a.54.54,0,0,1,0,.22,4.57,4.57,0,0,1-.26,1.16A4.5,4.5,0,0,0,313,108v.12Zm12-78.6,1.59-1.2v1.94l-1.76,1.31C323.68,30.88,323.73,30.19,323.8,29.53Zm-1.92,101.81h2.26v2.26a.28.28,0,0,0,.28.27h2.83a.27.27,0,0,0,.27-.27v-2.26h2.27v2.26a.28.28,0,0,0,.28.27h2.82a.27.27,0,0,0,.28-.27v-2.26h2.27v2.26a.27.27,0,0,0,.28.27h2.54V135H321.88Zm19.22-99c0,.64,0,1.29,0,2l-1.84-1.39V31ZM347,122.23h-2.82a.27.27,0,0,0-.28.28v.41h-1.34a.29.29,0,0,0-.28.28v1.57h-.65v-2.26a.26.26,0,0,0-.18-.24V59.58h6.12v65.19h-.29v-2.26A.28.28,0,0,0,347,122.23Zm-4.16,2.31v-1.06h1.06v1.06Zm-17,7h-1.05v-1.05h1.05ZM347.58,59h-6.12V49.4h6.12ZM328.45,28.6h1.21V40.54H326V28.6Zm4.16,102.46v2h-2.26v-2a.28.28,0,0,0-.28-.28h-.48V129h5.51v1.78h-2.21A.28.28,0,0,0,332.61,131.06ZM336.24,28.6h2.5V40.54H335V28.6h1.21ZM337.52,59H335V49.4h5.88V59ZM329.66,41.1v1.14h-3.23a5.81,5.81,0,0,1,3.2-1.14Zm.55-8.5L332.35,31l2.13,1.59v1.94l-2-1.48h0l.34-.3-.63.3h0l-2,1.48Zm0,2.63,2.14-1.6,2.13,1.6v1.94l-2-1.48h0l.33-.3-.59.28h-.05l-2,1.49Zm4.85,5.87a5.81,5.81,0,0,1,3.2,1.14H335V41.1Zm-11.15,6.1h5.75v.54h-5.81C323.87,47.56,323.88,47.38,323.91,47.2Zm.2-1.1h5.55v.54H324C324,46.46,324.07,46.27,324.11,46.1Zm8.1.09h0l-2,1.48V45.75l2.14-1.6,2.13,1.6v1.93l-2-1.48h0l.34-.31Zm-2-1.47v-1.6l2.14-1.6,2.13,1.6v1.93l-2-1.48h0l.34-.31-.6.29h-.05l-2,1.48Zm4.82,3V47.2h5.75c0,.18,0,.36.06.54Zm0-1.1V46.1h5.55c0,.17.08.36.11.54Zm0-1.1V45h5.21c.07.17.13.35.19.54Zm0-1.1v-.55h4.7c.1.18.19.36.28.55Zm0-1.1v-.55h3.85a4.7,4.7,0,0,1,.45.55Zm-4.82-5.48,2.14-1.6,2.13,1.6v1.93l-2-1.48h0l.33-.3-.59.28h-.05l-2,1.48Zm0,2.63,2.14-1.6,2.13,1.6v1.93l-2-1.48h0l.34-.31-.63.3h0l-2,1.48V40.49Zm-4.4,2.3h3.85v.55h-4.3A6,6,0,0,1,325.81,42.79Zm-.84,1.1h4.69v.55h-5A5.77,5.77,0,0,1,325,43.89ZM324.45,45h5.21v.54h-5.39A4.27,4.27,0,0,1,324.45,45Zm5.76,4.12v-.74l2.14-1.6,2.13,1.6v1.93l-2-1.48h0l.34-.31-.63.3h0l-2,1.48ZM334.48,51h-4.27l2.14-1.6,2.13,1.6Zm-2.13.56h2.13v2h-4.27v-2Zm2.13-19.66-2-1.48h0l.34-.3-.63.3h0l-2,1.48V30l2.14-1.59,2.13,1.6ZM335,48.3h5.85c0,.18,0,.36,0,.54H335Zm-11.22,0h5.85v.54h-5.87C323.8,48.66,323.8,48.48,323.81,48.3Zm8.54,5.77h2.13v5h-4.27v-5Zm2.75,14.11h-5.51V64.1h5.51Zm0,4.63h-5.51V68.73h5.51Zm0,4.64h-5.51V73.37h5.51Zm0,4.63h-5.51V78h5.51Zm0,4.64h-5.51V82.64h5.51Zm0,4.63h-5.51V87.28h5.51Zm0,4.64h-5.51V91.91h5.51Zm0,4.64h-5.51V96.55h5.51Zm0,4.63h-5.51v-4.08h5.51Zm0,4.64h-5.51v-4.08h5.51Zm0,4.63h-5.51v-4.08h5.51Zm0,4.64h-5.51v-4.08h5.51Zm0,4.63h-5.51v-4.07h5.51Zm0,4.64h-5.51v-4.08h5.51Zm-2.75-64.9h-2.76v-4h5.51v4Zm9.1-14.7c0-.22,0-.45,0-.66h0v-.13h0v0l0-.07h0v-.11h0c0-.32-.06-.63-.1-.92h0a9.59,9.59,0,0,0-.19-1h0l0-.16v0h0l0-.06h0v0h0a7.89,7.89,0,0,0-.29-.86h0l-.1-.24h0l0,0h0a8.22,8.22,0,0,0-.54-1,.3.3,0,0,0,0-.1,7,7,0,0,0-.67-.85l0,0-.37-.4h0s0,0-.05,0l0,0h0a6.08,6.08,0,0,0-1.56-1h0a5.74,5.74,0,0,1,3.65,1.49c1.41,1.32,2.15,3.42,2.2,6.25Zm2.41,0c0-3-.83-5.22-2.38-6.66a5.9,5.9,0,0,0-1.61-1.08,5.76,5.76,0,0,1,3.55,1.49c1.41,1.32,2.15,3.42,2.2,6.25Zm-20.28-6.25a5.74,5.74,0,0,1,3.64-1.49h0a6.25,6.25,0,0,0-1.56,1h0l0,0s0,0,0,0h0l-.1.12,0,0,0,0,0,0h0l-.17.18h0a5.45,5.45,0,0,0-.67.85.19.19,0,0,0-.05.1,7.7,7.7,0,0,0-.54,1h0l0,0-.1.25h0c-.11.28-.2.56-.29.86h0v0h0l0,.06h0v0h0l0,.15h0a9.59,9.59,0,0,0-.19,1h0c-.05.29-.08.6-.11.92h0V48h0v.23h0c0,.22,0,.45,0,.67h-1.86C321.43,46,322.17,43.91,323.58,42.59Zm17.57-2.05H339.3V38.85l1.85,1.39Zm-17.94,1.64c-1.55,1.44-2.34,3.69-2.38,6.66h-1.76c.05-2.83.79-4.93,2.2-6.25a5.76,5.76,0,0,1,3.55-1.49A5.9,5.9,0,0,0,323.21,42.18Zm6.45,7.22V59h-5.88V49.4Zm-2.21,10.18H329v71.2h-1.58Zm4.9-33.83,3,2.29h-.64a.27.27,0,0,0-.28.28v1l-2-1.48h0l.34-.3-.63.3h0l-2,1.48v-1a.27.27,0,0,0-.28-.28h-.64ZM336,133.32v-2.26a.27.27,0,0,0-.27-.28h-.06V59.58h1.59v73.74ZM323.54,40.24l1.85-1.39v1.69h-1.85Zm24,8.6h-1.39c-.05-3-.84-5.22-2.39-6.66a5.76,5.76,0,0,0-1.52-1,5.54,5.54,0,0,1,3.1,1.44C346.78,43.91,347.52,46,347.57,48.84Zm-30.46.56h6.12V59h-6.12Zm9.78,10.18v73.74H324.7v-1.24h1.44a.28.28,0,0,0,.28-.28v-1.61a.27.27,0,0,0-.28-.28h-1.61a.28.28,0,0,0-.28.28v.59h-.47V59.58Zm-6-17.4c-1.55,1.44-2.34,3.69-2.38,6.66h-1.4c.05-2.83.79-4.93,2.2-6.25a5.65,5.65,0,0,1,3.1-1.44A5.76,5.76,0,0,0,320.9,42.18Zm17.36,80.33v10.81h-.46V59.58h3.11v62.65h-2.37A.28.28,0,0,0,338.26,122.51Zm2.89-83v.06l-1.85-1.39V36.22l1.85,1.39Zm-1.85-4V33.59L341.15,35v1.93ZM338.91,28h-2.58l-3.83-2.87h0l.33-.3-.59.28h-.05L328.36,28h-2.57l6.56-4.92ZM323.54,35l1.85-1.39v1.93l-1.85,1.39Zm0,2.63,1.85-1.39v1.93l-1.85,1.39V37.61ZM325.39,31v1.93l-1.84,1.39c0-.68,0-1.34.05-2Zm-8.28,28.62h6.12v71.2h-.83v-.59a.27.27,0,0,0-.28-.28h-.24v-1.32h.24a.28.28,0,0,0,.28-.28V126.7a.27.27,0,0,0-.28-.28h-.24v-1.33h.24a.27.27,0,0,0,.28-.28V123.2a.28.28,0,0,0-.28-.28h-.24V121.6h.24a.27.27,0,0,0,.28-.28v-1.61a.28.28,0,0,0-.28-.28h-.24v-1.32h.24a.28.28,0,0,0,.28-.28v-1.61a.27.27,0,0,0-.28-.28h-.24v-1.33h.24a.27.27,0,0,0,.28-.27v-1.62a.28.28,0,0,0-.28-.28h-.24v-1.32h.24a.27.27,0,0,0,.28-.28v-1.61a.28.28,0,0,0-.28-.28h-.24v-.54a.28.28,0,0,0-.28-.28h-1v-2.72h1a.28.28,0,0,0,.28-.28v-.9l.09-.1h.15a.27.27,0,0,0,.28-.27v-.25a4.71,4.71,0,0,0,.63-2.88V93.94a.28.28,0,0,0-.28-.28h-5.1l-.54-2.23Zm32.44,62.93v2.26h-1.41V49.12c0-3.11-.8-5.46-2.39-6.94h0a6.85,6.85,0,0,0-.53-.44,5.37,5.37,0,0,0-.53-.35h0l0,0h0a4.32,4.32,0,0,0-.53-.26h6v81.13h-.32A.28.28,0,0,0,349.55,122.51Zm-2.72-82.75.12.05,0,0,.16-.07h3.59l-.47.78h-8.56v-.78h5.12Zm-7.53-9.49V28.33l1.59,1.2c.07.66.13,1.35.17,2Zm-6.8-7.73h0l.34-.31-.63.3h0l-8.3,6.23c.09-.77.2-1.5.34-2.19l8.12-6.09,8.11,6.09c.14.69.25,1.42.35,2.19Zm0-2.63h0l.34-.31-.63.3h0l-7.77,5.83a19.66,19.66,0,0,1,.72-2.48l7.21-5.4,7.2,5.41a19,19,0,0,1,.72,2.47Zm-.15-3.23c3.07.48,5.31,2.32,6.77,5.57l-6.62-5h0l.33-.3-.59.28h-.05l-6.62,5C327,19,329.27,17.16,332.35,16.68ZM320.57,41.1a5.9,5.9,0,0,0-1.63,1.08c-1.59,1.48-2.39,3.83-2.39,6.94v40l-.3-1.23-.2-.16,0,0h-1.49V41.1Zm18.25,94.16V127h3.49l1.29,2-1.35,1.36-.05.22v.07l.22.14,0,0h1.24v1h-1.21a.28.28,0,1,0,0,.56h1.21v30.35h-4.86Zm18.75-2.85h1.21a.28.28,0,0,0,0-.56h-1.21v-1h1.24l.19-.13.06,0-.06-.26v0L357.65,129l1.28-2h4.74v35.77h-6.1Zm-12.73-101c.5.2,1.87,1,1.87,4.47V39.2h-3.24V34Zm-35.63,73h12.11v.45H309.21Zm2.25,1c.19,0,.19,0,.21.06a.5.5,0,0,1,0,.22,4.57,4.57,0,0,1-.26,1.16,4.5,4.5,0,0,0-.25,1.16v.12h-.74v-2.72ZM296.8,124.89h11.85v.77a.81.81,0,0,0-1,.2.91.91,0,0,0-.64-.29.88.88,0,0,0-.64.29.85.85,0,0,0-1.28,0,.88.88,0,0,0-.64-.29.91.91,0,0,0-.64.29.84.84,0,0,0-1.27,0,.91.91,0,0,0-.64-.29.89.89,0,0,0-.64.29.88.88,0,0,0-.64-.29.91.91,0,0,0-.64.29.84.84,0,0,0-1.27,0,.91.91,0,0,0-.64-.29.88.88,0,0,0-.64.29.89.89,0,0,0-.64-.29.91.91,0,0,0-.64.29.88.88,0,0,0-.64-.29.91.91,0,0,0-.64.29.84.84,0,0,0-1.27,0,.91.91,0,0,0-.64-.29.89.89,0,0,0-.64.29.88.88,0,0,0-.64-.29.91.91,0,0,0-.64.29.84.84,0,0,0-1.27,0,.91.91,0,0,0-.64-.29.88.88,0,0,0-.64.29.89.89,0,0,0-.64-.29.91.91,0,0,0-.64.29.84.84,0,0,0-1.27,0,.91.91,0,0,0-.64-.29.87.87,0,0,0-.36.09v-.77ZM285,129.27v-2.78a.36.36,0,0,1,.36-.36.36.36,0,0,1,.36.36v2a.28.28,0,1,0,.55,0v-2a.36.36,0,0,1,.36-.36.36.36,0,0,1,.36.36v2a.28.28,0,0,0,.28.28.27.27,0,0,0,.28-.28v-2a.36.36,0,1,1,.72,0v2a.28.28,0,1,0,.56,0v-2a.36.36,0,1,1,.72,0v2a.28.28,0,1,0,.55,0v-2a.37.37,0,0,1,.37-.36.36.36,0,0,1,.35.36v2a.29.29,0,0,0,.28.28.27.27,0,0,0,.28-.28v-2a.36.36,0,1,1,.72,0v2a.28.28,0,1,0,.56,0v-2a.36.36,0,1,1,.72,0v2a.27.27,0,0,0,.28.28.28.28,0,0,0,.28-.28v-2a.36.36,0,0,1,.36-.36.36.36,0,0,1,.36.36v2a.28.28,0,1,0,.55,0v-2a.36.36,0,1,1,.72,0v2a.28.28,0,0,0,.28.28.27.27,0,0,0,.28-.28v-2a.36.36,0,1,1,.72,0v2a.27.27,0,0,0,.28.28.28.28,0,0,0,.28-.28v-2a.36.36,0,1,1,.72,0v2a.28.28,0,1,0,.55,0v-2a.37.37,0,0,1,.36-.36.36.36,0,0,1,.36.36v2a.28.28,0,0,0,.28.28.27.27,0,0,0,.28-.28v-2a.36.36,0,1,1,.72,0v2a.28.28,0,1,0,.56,0v-2a.36.36,0,1,1,.72,0v2a.27.27,0,0,0,.28.28.28.28,0,0,0,.28-.28v-2a.36.36,0,0,1,.36-.36.36.36,0,0,1,.36.36v2a.28.28,0,1,0,.55,0v-2a.36.36,0,1,1,.72,0v2a.28.28,0,0,0,.28.28.27.27,0,0,0,.28-.28v-2a.36.36,0,1,1,.72,0v2a.27.27,0,0,0,.28.28.28.28,0,0,0,.28-.28v-2a.36.36,0,1,1,.72,0v2a.28.28,0,1,0,.55,0v-2a.36.36,0,0,1,.36-.36.36.36,0,0,1,.36.36h0v6.39H285Zm-20.16,4.29v29.2h-2.18v-36h2.17v6.8Zm-8.15-6.8h5.42v36h-5.42Zm-2.72,0h2.16v36h-2.16V141.94h0V126.76Zm-.56,5.33v2.24a1.57,1.57,0,0,0-2.39.35,1.57,1.57,0,0,0-2.68,0,1.62,1.62,0,0,0-1.34-.75,1.59,1.59,0,0,0-1.34.75,1.58,1.58,0,0,0-2.69,0,1.57,1.57,0,0,0-2.68,0,1.61,1.61,0,0,0-1.34-.75,1.63,1.63,0,0,0-1.05.4v-2.24h15.51Zm-7.75,12.46h-5.09v-2.36h10.17v2.36Zm-.28-2.91H243.2v-6.09a1.07,1.07,0,0,1,2.13,0Zm4.3-7.15a1.07,1.07,0,0,1,1.06,1.06v6.09h-2.12v-6.09A1.06,1.06,0,0,1,249.63,134.49Zm-2.68,0a1.07,1.07,0,0,1,1.06,1.06v6.09h-2.13v-6.09A1.07,1.07,0,0,1,247,134.49Zm-4.31,7.15h-2.12v-6.09a1.06,1.06,0,1,1,2.12,0Zm-4.79-6.24a1.06,1.06,0,0,1,2.11.15v9.28a.28.28,0,0,0,.28.27H251a.28.28,0,0,0,.28-.27v-9.28a1.06,1.06,0,0,1,2.11-.15v15.33a10.76,10.76,0,0,0-4.24-2.36,31.19,31.19,0,0,0-3.43-1h0l-.33-.07.11.1a33.6,33.6,0,0,0-3.34,1,10.76,10.76,0,0,0-4.24,2.36Zm.88,15.24c1.65-1.3,5.21-2.34,6.88-2.72a29.4,29.4,0,0,1,4.71,1.52,10.07,10.07,0,0,1,2.16,1.2,1.87,1.87,0,0,1,.88,1.33v1.19a10.89,10.89,0,0,0-4.24-2.36,34.13,34.13,0,0,0-3.43-1h-.3l0,0a30.15,30.15,0,0,0-3.33,1,10.89,10.89,0,0,0-4.24,2.36V152A1.9,1.9,0,0,1,238.73,150.64Zm-.88,3.77a1.88,1.88,0,0,1,.88-1.33c1.65-1.31,5.21-2.35,6.88-2.72a29.22,29.22,0,0,1,4.71,1.51,9.66,9.66,0,0,1,2.16,1.21,1.85,1.85,0,0,1,.88,1.33v8.35H237.85Zm-.55-19,0,.16h0v6.39h0l0,.06v20.76h-2.17v-36h2.17v8.62Zm-8.15-8.62h5.42v36h-5.42ZM279,155.13v7.63h-6.73v-7.63Zm35.58,7.63v-7.63h6.73v7.63Zm7.29-27.22h16.38v27.22H321.88V135.54Zm106.86,27.22V132.41H430a.28.28,0,0,0,0-.56h-1.21v-1H430l.19-.13.06,0-.06-.26v0L428.82,129l1.28-2h3v3.28h-.51a.28.28,0,0,0-.27.28.27.27,0,0,0,.27.28h.51v14.44l-.08-.05.1.24h0v0l0,0h0l3.7,5.44v11.79ZM434,145.65h6.44l-3.22,4.74Zm-.25-.55V130.83h6.94V145.1Zm0-14.83V127h6.94v3.28Zm3.47-3.84h-3.59l-1.74-2.8H442.5l-1.73,2.8Zm-73.5,0H338.82v-3.64h2.26v2.26a.29.29,0,0,0,.28.28h2.83a.28.28,0,0,0,.27-.28v-2.26h2.27v2.26a.29.29,0,0,0,.28.28h2.82a.28.28,0,0,0,.28-.28v-2.26h2.27v2.26a.28.28,0,0,0,.28.28h2.82a.29.29,0,0,0,.28-.28v-2.26H358v2.26a.29.29,0,0,0,.28.28h2.83a.28.28,0,0,0,.27-.28v-2.26h2.27Zm-13-4.2V40.89l.77-1.29v-.27l-.21-.12h-4v-3h5v86Zm-3.45-86.59c-.05-2.44-.81-3.66-1.49-4.25h4.44c.19.05,1.94.53,2,4.25ZM323,34.22v5h-1.21v-5Zm-9.64,59.84,0,0,1.4-5.77h1l1.4,5.77.2.16,0,0h5.08c0,.39,0,1.9,0,3.43v.59a.88.88,0,0,0-1.1.2.93.93,0,0,0-.68-.31,1,1,0,0,0-.68.31.93.93,0,0,0-.68-.31,1,1,0,0,0-.68.31.93.93,0,0,0-.68-.31,1,1,0,0,0-.68.31.93.93,0,0,0-.68-.31,1,1,0,0,0-.68.31.93.93,0,0,0-.68-.31,1,1,0,0,0-.68.31.93.93,0,0,0-.68-.31,1,1,0,0,0-.68.31.93.93,0,0,0-.68-.31,1,1,0,0,0-.68.31.93.93,0,0,0-.68-.31,1,1,0,0,0-.68.31.93.93,0,0,0-.68-.31,1,1,0,0,0-.68.31.93.93,0,0,0-.68-.31.87.87,0,0,0-.39.1v-4h5.08Zm-5.28,5a.39.39,0,0,1,.39-.37.4.4,0,0,1,.4.4v2.19a.29.29,0,0,0,.28.28.28.28,0,0,0,.28-.28V99.09a.4.4,0,0,1,.4-.4.42.42,0,0,1,.41.4v2.19a.28.28,0,1,0,.55,0V99.09a.4.4,0,0,1,.4-.4.41.41,0,0,1,.41.4v2.19a.28.28,0,1,0,.55,0V99.09a.4.4,0,0,1,.4-.4.42.42,0,0,1,.41.4v2.19a.28.28,0,1,0,.55,0V99.09a.4.4,0,0,1,.4-.4.42.42,0,0,1,.41.4v2.19a.28.28,0,1,0,.55,0V99.09a.4.4,0,0,1,.4-.4.42.42,0,0,1,.41.4v2.19a.28.28,0,1,0,.55,0V99.09a.41.41,0,0,1,.81,0v2.19a.28.28,0,1,0,.55,0V99.09a.41.41,0,0,1,.81,0v2.19a.28.28,0,1,0,.55,0V99.09a.41.41,0,0,1,.81,0v2.19a.28.28,0,1,0,.55,0V99.09a.41.41,0,0,1,.81,0v2.19a.28.28,0,1,0,.55,0V99.09a.41.41,0,0,1,.81,0v2.23a3.18,3.18,0,0,1-1,2.52H309.05c-.75-.77-1-1.33-1-3.11Zm3.75,9.63h9.51v26.24l-12.11-2v-8h2l.2-.17.07,0-.14-.27,0,0-2.11-.93V108.69h2.6Zm-27.42,24.23L272,135h-.08l0,0h0l0,0h0l0,0h0l0,0h0v.05h0v2.69l-6.37,6.75V133.75h5.2a.27.27,0,0,0,.28-.28v-3.92h2.27v2.26a.28.28,0,0,0,.27.28h2.83a.29.29,0,0,0,.28-.28v-2.26h2.26v2.26a.29.29,0,0,0,.28.28h2.82a.28.28,0,0,0,.28-.28v-2.26h2.27Zm-31-1.39H237.85v-1.27h15.51Zm-24.76-4.77v36h-2.19V142.45l0-.06v0l0-.06V139.6l0-.06v0l0-.05v-9.35l0-.09h0v-3.23Zm-2.74,11h-16.4v-10h2.27V130a.27.27,0,0,0,.28.27h2.82a.27.27,0,0,0,.28-.27v-2.26h2.27V130a.27.27,0,0,0,.28.27h2.82a.28.28,0,0,0,.28-.27v-2.26H223V130a.28.28,0,0,0,.28.27h2.56Zm-17,0H207.6l-.18.12-.06,0,0,.24v0l1,1.41v1h-.76l-.18.11-.06,0,0,.25v0l1,1.4v20.31h-1.64v-5.35a2.43,2.43,0,1,0-4.86,0v5.35h-4.08V132.41H199a.28.28,0,0,0,0-.56h-1.21v-1.59h.11a.27.27,0,0,0,.28-.27v-2.26h2.27V130a.27.27,0,0,0,.28.27h2.82a.28.28,0,0,0,.28-.27v-2.26h2.26V130a.28.28,0,0,0,.28.27h2.55Zm-11.69-5.93H184.44v-1.59h2.16a.28.28,0,0,0,.28-.27v-2.26h2.26V130a.28.28,0,0,0,.28.27h2.82a.27.27,0,0,0,.28-.27v-2.26h2.27V130a.27.27,0,0,0,.28.27h2.15Zm-9.74-47.07,0,.11h0V96.13h-1.32V84.91a.29.29,0,0,0-.28-.28h-6.28v-1.7h9Zm0-9.57,0,.1v7.06h-1.32v-7a.28.28,0,0,0-.28-.28h-6.28v-1.7h9Zm-2.61-6.08h0v.09h0v1.13h-6.1V68.49h6.4Zm-13.37-.64v1.87h-6.1V69.23l0-.08h0l-.28-.65h6.4Zm-.82,4.87v1.7H164.4a.28.28,0,0,0-.28.28v7H162.8V75.32l0-.1h0l-1.08-1.86h9Zm-8.16,9.57h8.16v1.7H164.4a.28.28,0,0,0-.28.28V96.13H162.8V84.9l0-.1v0l-1.08-1.85Zm0,13.76h8.16V98.4H162a.27.27,0,0,0-.28.27v50.8H160.4V98.66l0-.1h0l-1.08-1.86ZM160.12,150h11.45v.25H158.05l-.15-.25Zm1.86,3.08h1.52v9.65H162Zm2.07,0h3.85v9.65h-3.85Zm4.41,0H170v9.65h-1.51Zm96.89,9.65v-9.93l6.37-6.75v16.68Zm-75.65-33v-2.26a.27.27,0,0,0-.28-.28h-.89V98.67a.28.28,0,0,0-.28-.27h-8.68V96.69H191l-1.07,1.85,0,.11h0v31.05ZM312.45,36.19h5v3h-4l-.18.1-.05,0v.27l.77,1.3V89.1l-1.1,4.56h-.44ZM.57,152.86a5.21,5.21,0,0,1,2.71-4.73A8.27,8.27,0,0,1,7,147h.4a7.67,7.67,0,0,1,3.87,1.18,5.26,5.26,0,0,1,2.58,4.22c0,.14,0,.29,0,.44a.28.28,0,0,0,.28.28h0a.28.28,0,0,0,.27-.28c0-.15,0-.3,0-.44a5.28,5.28,0,0,1,2.45-4.15A7.66,7.66,0,0,1,20.58,147v4.08a.28.28,0,1,0,.55,0,5.23,5.23,0,0,1,2.72-4.73,8.2,8.2,0,0,1,3.75-1.11H28a8.23,8.23,0,0,1,3.75,1.11,5.21,5.21,0,0,1,2.71,4.73.29.29,0,0,0,.28.28.28.28,0,0,0,.28-.28,5.23,5.23,0,0,1,2.71-4.73,8.27,8.27,0,0,1,3.75-1.11h3.39a8.2,8.2,0,0,1,3.75,1.11,5.23,5.23,0,0,1,2.72,4.73.28.28,0,1,0,.55,0,5.23,5.23,0,0,1,2.72-4.73,8.2,8.2,0,0,1,3.75-1.11h.4a8.23,8.23,0,0,1,3.75,1.11,5.21,5.21,0,0,1,2.71,4.73v0l.12.18,0,0,.12,0h0a.28.28,0,0,0,.28-.28V147a7.86,7.86,0,0,1,2.36.55h0l0,0h0l0,.05h0l1.26.9v5.25H59.6a.28.28,0,0,0-.27.28v1.09h-.57a.27.27,0,0,0-.28.28.28.28,0,0,0,.28.28h.57V161h-.57a.28.28,0,1,0,0,.55h.57v1.2H51.89v-8.47a.28.28,0,1,0-.55,0v8.47H35v-8.47a.28.28,0,0,0-.28-.28.29.29,0,0,0-.28.28v8.47H21.13v-8.47a.28.28,0,1,0-.55,0v8.47H14.44v-7a.29.29,0,0,0-.29-.28v0l-.19.09-.07.19v7H.57Zm0-6.57c0-.11,0-.22,0-.32s0-.23.05-.35a2.72,2.72,0,0,1,0-.3c0-.11.05-.22.08-.33s0-.19.07-.28.07-.2.11-.31l.09-.26h0c0-.09.08-.19.13-.29h0l.11-.24c.05-.09.1-.18.16-.27h0l.13-.23.17-.25h0l.15-.22.2-.24.1-.12.06-.07.21-.23.11-.12.07-.06.22-.21h0l.19-.18.24-.19.08-.07.12-.1.25-.18.21-.15.25-.17.22-.15.26-.16.22-.14.27-.15h0l.23-.13h0l.48-.27,17-7.8v.8c-1.5.69-13,5.95-14.08,6.51-2.54,1.34-5.48,3.41-5.61,7.41H.58a1.09,1.09,0,0,1,0-.18Zm75.74-26.66h3a.29.29,0,0,0,.28-.28.28.28,0,0,0-.28-.28H77.28V116.7h3.64a.28.28,0,0,0,.28-.28.27.27,0,0,0-.28-.28H78.23v-2.38h4.28a.28.28,0,1,0,0-.55H79.18v-2.38h5.09a.28.28,0,1,0,0-.55H80.14V107.9h5.91a.27.27,0,0,0,.28-.28.28.28,0,0,0-.28-.28h-5V105h7.19v.6l0,0h0v0L77.69,123.71l0-.39,0,.27-.1-.47v1h0v.21l-.1.06h.1v.71h0v0l.06.3,0-.11,1.11,1.47v4.74l-1.17,1.71h0l0,0-.07.23,0,0v2.58l-.57,1h-.62Zm7.42-17.18.08.07a1.25,1.25,0,0,1,1.71,0,1.5,1.5,0,0,1,.26,1,5.47,5.47,0,0,1-.1.92h-2a5.47,5.47,0,0,1-.1-.92,1.5,1.5,0,0,1,.26-1Zm2.51,2a5.36,5.36,0,0,0,.1-.92,2.09,2.09,0,0,0-.38-1.32,1.82,1.82,0,0,0-2.59,0,2.09,2.09,0,0,0-.38,1.32,5.36,5.36,0,0,0,.1.92H82a5.29,5.29,0,0,1-.31-1.57c0-1.1.63-1.5,1.4-2a3.88,3.88,0,0,0,1.62-1.66,3.81,3.81,0,0,0,1.61,1.66c.77.5,1.39.9,1.4,2a5.29,5.29,0,0,1-.31,1.57Zm19.6-6.15h-1.34c.13-.43.35-1.21.76-2.68l.58-2.06c.28,1,1.12,4,1.33,4.74Zm0,.55h4.51l.17-.09h0l0,0h0a5.34,5.34,0,0,1,1-.93,22.11,22.11,0,0,0-.35,4.21c0,.42,0,.75,0,1h-2.78a3.28,3.28,0,0,0-1.84-3.16,1.86,1.86,0,0,1-.35-.21l-.08-.12a.29.29,0,0,0-.28-.28.28.28,0,0,0-.28.28l-.09.12a2.09,2.09,0,0,1-.34.21A3.3,3.3,0,0,0,103.3,103h-2.78c0-.23,0-.56,0-1a21.22,21.22,0,0,0-.36-4.2,9.19,9.19,0,0,1,.7.61c.18.2.26.31.26.31v0l.17.09h4.54Zm20.16,5.6a4.67,4.67,0,0,1-.11-.92,1.56,1.56,0,0,1,.26-1l-.08-.07.08.07a1.26,1.26,0,0,1,1.72,0,1.57,1.57,0,0,1,.25,1,4.6,4.6,0,0,1-.1.92Zm2.59,0a5.37,5.37,0,0,0,.09-.92,2,2,0,0,0-.38-1.32h0a1.81,1.81,0,0,0-2.58,0,2,2,0,0,0-.38,1.32,5.28,5.28,0,0,0,.09.92h-1.12a5.05,5.05,0,0,1-.32-1.57c0-1.1.64-1.5,1.4-2A3.77,3.77,0,0,0,127,99.18a3.77,3.77,0,0,0,1.62,1.66c.76.5,1.39.9,1.39,2a5.29,5.29,0,0,1-.31,1.57Zm-4.46.56h6.47v2.37h-5a.29.29,0,0,0-.28.28.28.28,0,0,0,.28.28h5.92v2.38h-4.14a.28.28,0,0,0,0,.55h5.09c0,.41,0,2,0,2.38H129.2a.28.28,0,1,0,0,.55h4.28v2.38h-2.69a.28.28,0,0,0-.28.28.29.29,0,0,0,.28.28h3.64v2.37h-2.08a.27.27,0,0,0-.27.28.28.28,0,0,0,.27.28h3V137.1h-.63l-.56-1V133.5l0,0-.08-.26h0L133,131.53v-4.74l1.11-1.47,0,.11.07-.31h0v0h0v-.71h.09l-.09-.06v-.21h0v0h0v0h0l-.14-.68,0,.38-10.53-18.09-.06-.05V105h.72ZM136,141.28H120.73v-3.62H136Zm4.17,3.83H121.28l-.55-1.15v-2.13h19.41C140.14,142.32,140.14,144.56,140.15,145.11ZM23.33,129.86v0l-.4-.35L35.65,124v9.07l-3,1.39H23.4v-3.14h0V130Zm83-29.58a2.72,2.72,0,0,1,1.55,2.67h-4a2.72,2.72,0,0,1,1.56-2.67,2.79,2.79,0,0,0,.44-.29A2.1,2.1,0,0,0,106.3,100.28ZM100.44,105l.06-.14v0s0-.81,0-1.34H111.2v1.36l.06.14v0l.86.86H99.58Zm51.39,50.19H124.29a.28.28,0,0,0-.28.28.29.29,0,0,0,.28.28h3l1.18.84V161h-6.28v-5.24h.53l.17-.1,0,0v-.25l-.48-1h29.38ZM12.49,139.55c.61-.32,8.54-4,10.36-4.8a.27.27,0,0,0,.27.26h1.29c-2.48,1.15-8.17,3.77-8.7,4.05-2.54,1.34-5.47,3.41-5.61,7.41H7.18C7.31,142.8,9.91,140.92,12.49,139.55Zm8.09,6.92h-3c.13-3.67,2.72-5.55,5.31-6.92l.21-.1A7.15,7.15,0,0,0,20.58,145Zm-1.39-7.41c-2.54,1.34-5.47,3.41-5.61,7.41H10.66c.13-3.67,2.72-5.55,5.31-6.92.64-.33,9.21-4.28,9.78-4.54h2.14C25.4,136.16,19.71,138.78,19.19,139.06Zm-8.82,8H13.9v3.28A6.61,6.61,0,0,0,10.17,147Zm4.08,0h3.68a6.61,6.61,0,0,0-3.68,3.2ZM9,139.55c1-.52,11.64-5.39,13.82-6.38v1c-1.22.56-9.77,4.48-10.61,4.92-2.54,1.34-5.47,3.41-5.61,7.41H3.7C3.83,142.8,6.43,140.92,9,139.55Zm12.11,9v-3.26h3.71A6.57,6.57,0,0,0,21.13,148.54Zm19.66-19.71h0V129c-1.74.33-2.87.51-3,.51a.68.68,0,1,1,0-1.36c.1,0,.69.07,3.06.51Zm-2.66-2.12a.65.65,0,0,1-.32-.41l0-.18a.59.59,0,0,1,.1-.34.66.66,0,0,1,.41-.32l.18,0a.72.72,0,0,1,.34.09c.08,0,.56.4,2.4,2a2.75,2.75,0,0,0-.17.29C38.76,127,38.21,126.76,38.13,126.71Zm6.38.16-.29-.17c.8-2.28,1-2.83,1.09-2.91a.69.69,0,0,1,.41-.32l.18,0a.68.68,0,0,1,.68.68.72.72,0,0,1-.09.34C46.44,124.56,46.09,125,44.51,126.87Zm-1.32-.42H43c-.44-2.37-.51-3-.51-3.06a.68.68,0,1,1,1.36,0c0,.1-.07.69-.51,3.06Zm-3.32-2a.72.72,0,0,1-.09-.34.68.68,0,0,1,.68-.68.69.69,0,0,1,.59.34c.05.08.28.63,1.09,2.91l-.29.17C40.27,125,39.92,124.56,39.87,124.47Zm5.45,3.33a2.75,2.75,0,0,0-.17-.29c1.84-1.58,2.31-1.93,2.4-2a.69.69,0,0,1,.34-.09l.18,0a.68.68,0,0,1,.5.66l0,.18a.69.69,0,0,1-.32.41C48.15,126.76,47.6,127,45.32,127.8Zm.24.87c2.37-.44,3-.51,3.06-.51a.68.68,0,0,1,0,1.36c-.18,0-1.31-.18-3-.51v-.17h0Zm5.78,5.27v10.78h-.77V139.2a7.39,7.39,0,0,0-14.78,0v5.52H35V134l.07,0,5.66-2.6,2.43-1.11.11.05,0,.33.06-.29,1.77.8h0l.31.14h0ZM63.24,135a.27.27,0,0,0,.27-.26c1.82.84,9.74,4.48,10.35,4.8.44.23.88.49,1.31.75v1h-1.3a14.17,14.17,0,0,0-3.22-2.22c-.65-.34-3.58-1.7-8.7-4.05Zm-2.63,0c.57.26,9.14,4.21,9.78,4.54A15.58,15.58,0,0,1,73,141.28H71.3a.27.27,0,0,0-.28.27V142a12.85,12.85,0,0,0-3.85-2.9c-.53-.28-6.22-2.9-8.7-4.05Zm4.61,13.53a6.55,6.55,0,0,0-3.7-3.26h3.7v3.26ZM57.13,135c.57.26,9.14,4.21,9.78,4.54A11.5,11.5,0,0,1,71,142.82v2.29H69.14c-.68-3.13-3.21-4.87-5.45-6.05-.37-.2-1.52-.74-3.42-1.62h-.1c-.68-.34-2.71-1.29-5.15-2.41ZM60,138c2.54,1.34,5.08,3.17,5.21,6.75H51.89V134.19C55.64,135.9,59.31,137.6,60,138Zm-8.12,7.31H55.6a6.57,6.57,0,0,0-3.71,3.26Zm-8.71-.56H41.35V139.2a1.85,1.85,0,0,1,.43-1.17h0v0a1.07,1.07,0,0,1,.19-.18h0a1.81,1.81,0,0,1,2.34,0h0a1.07,1.07,0,0,1,.19.18v0h0A1.85,1.85,0,0,1,45,139.2v.4h0v5.12H43.18Zm-8.72,0H21.14c.13-3.58,2.67-5.41,5.2-6.75.34-.17,4.18-1.95,8.12-3.76Zm6.33-5.53h0v.17c-1.74.32-2.87.51-3,.51a.68.68,0,1,1,0-1.36c.1,0,.69.07,3.06.51Zm.25-1c-2.28-.81-2.83-1-2.91-1.09a.65.65,0,0,1-.32-.42l0-.17a.59.59,0,0,1,.1-.34.66.66,0,0,1,.41-.32l.18,0a.72.72,0,0,1,.34.09c.08.05.56.4,2.4,2A2.75,2.75,0,0,0,41,138.16Zm3.18-1.1c.8-2.28,1-2.83,1.09-2.92a.67.67,0,0,1,.41-.31l.18,0a.59.59,0,0,1,.34.1.66.66,0,0,1,.34.59.72.72,0,0,1-.09.34c-.05.08-.4.56-2,2.4ZM43,136.82c-.44-2.37-.51-3-.51-3.06a.68.68,0,1,1,1.36,0c0,.1-.07.69-.51,3.06H43Zm-1.16.41c-1.58-1.84-1.93-2.32-2-2.4a.72.72,0,0,1-.09-.34.66.66,0,0,1,.34-.59.59.59,0,0,1,.34-.1.71.71,0,0,1,.59.34c.05.09.28.64,1.09,2.92Zm3.3.64c1.84-1.58,2.31-1.93,2.4-2a.69.69,0,0,1,.34-.09l.18,0a.68.68,0,0,1,.5.66l0,.17a.68.68,0,0,1-.32.42c-.08.05-.63.28-2.91,1.09A2.75,2.75,0,0,0,45.15,137.87Zm.41,1.16c2.37-.44,3-.51,3.06-.51a.68.68,0,1,1,0,1.36c-.18,0-1.31-.19-3-.51V139Zm0,.91c1.77.33,2.79.5,3,.5a1.24,1.24,0,0,0,0-2.48,19.17,19.17,0,0,0-1.9.29,18.65,18.65,0,0,0,1.79-.7,1.24,1.24,0,0,0-.3-2.27,1.12,1.12,0,0,0-.32,0,1.14,1.14,0,0,0-.62.17q-.26.15-1.5,1.2A18.48,18.48,0,0,0,47,135.1a1.13,1.13,0,0,0,.17-.61,1.23,1.23,0,0,0-1.24-1.24,1.23,1.23,0,0,0-1.07.62,17.5,17.5,0,0,0-.7,1.79c.19-1.07.29-1.71.29-1.9a1.24,1.24,0,1,0-2.48,0c0,.19.1.83.29,1.9a17.5,17.5,0,0,0-.7-1.79,1.24,1.24,0,0,0-2.31.62,1.13,1.13,0,0,0,.17.61,16.76,16.76,0,0,0,1.2,1.51,17.86,17.86,0,0,0-1.51-1.21,1.18,1.18,0,0,0-.61-.16,1.24,1.24,0,0,0-.33,0,1.27,1.27,0,0,0-.75.58,1.29,1.29,0,0,0-.12.94,1.18,1.18,0,0,0,.58.75,17.5,17.5,0,0,0,1.79.7c-1.07-.19-1.71-.29-1.9-.29a1.24,1.24,0,1,0,0,2.48c.26,0,1.27-.17,3-.5v4.78H36.35V139.2a6.83,6.83,0,1,1,13.66,0v5.52H45.57Zm4.72,5.34h1.05v3.26a6.57,6.57,0,0,0-3.71-3.26Zm-15.83,0v3.26a6.55,6.55,0,0,0-3.7-3.26Zm.56,3.26v-3.26h3.71A6.57,6.57,0,0,0,35,148.54Zm33.1-3.15v1.08H65.78V145a7.15,7.15,0,0,0-2.56-5.55l.21.1c2.25,1.19,4.5,2.77,5.13,5.56H68.4A.29.29,0,0,0,68.12,145.39Zm6-6.33c-.89-.47-6.22-2.92-10.6-4.92v-1c1.75.8,9,4.1,11.65,5.34v1.15C74.82,139.45,74.47,139.24,74.12,139.06Zm-48-1.63h0c-1.92.89-3,1.42-3.41,1.62-2.54,1.34-5.48,3.41-5.61,7.41H14.14c.13-3.67,2.72-5.55,5.31-6.92.64-.34,9.2-4.27,9.78-4.54h2.21l-5.23,2.41Zm90.73-26.74,2.14,3.69h-1.62l-2.15-3.69Zm2.24,0,2.15,3.69h-1.6l-2.15-3.69Zm2.25,0,2.14,3.69h-1.6l-2.14-3.69Zm2.24,0,2.14,3.69h-1.6L122,110.69Zm2.22,0,2.15,3.69h-1.58l-2.14-3.69Zm5.27,45.73V161h-.71v-4.28a.28.28,0,0,0-.28-.28.27.27,0,0,0-.28.28V161H129v-4.57l-.09-.17v0l-.68-.48h3.61l-.68.48Zm5.52,4.59h-5v-4.4l1.18-.84h2.62l1.17.84Zm2.62-4.59V161h-.78v-4.28a.28.28,0,1,0-.55,0V161h-.72v-4.57l-.08-.17,0,0-.68-.48H140l-.68.48Zm4.35-.65,1.18.84V161h-5v-4.4l1.18-.84Zm3.88.48-.09.17V161h-.67v-4.28a.29.29,0,0,0-.28-.28.27.27,0,0,0-.28.28V161h-.82v-4.57l-.08-.17v0l-.68-.48h3.6Zm-77.47-8v0l-.68-.49H71.7l-.68.49-.09.17v5.43h-.87v-5.41Zm35.9-41.82h6.67v3.69h-.39v-2a1.29,1.29,0,0,0-1-1.24h-.32l.06.05a1.28,1.28,0,0,0-.86,1.21v2h-.89v-2a1.28,1.28,0,0,0-1-1.24h-.31l0,.05a1.31,1.31,0,0,0-.86,1.21v2H104.6v-2a1.28,1.28,0,0,0-.86-1.21l.06-.05h-.32a1.28,1.28,0,0,0-1,1.24v2h-.88v-2a1.29,1.29,0,0,0-.86-1.21l.06-.05h-.32a1.28,1.28,0,0,0-1,1.24v2h-.4v-3.69Zm14.46,38.67H91.05l.39-.81h28.83l.39.81Zm-29.71.56h.51v1.53H68.68v-1.53H90.61Zm-5-8.57.46-.81h0l0-.1h0v-2.49h4.3v2.49l0,.1h0l.45.82H85.58Zm6.19-22.16-2.15,3.69H88l2.14-3.69ZM123.5,137.1h-2.64l.45-.81h0l0-.1h0v-2.49h4.29v2.49l0,.1h0l.46.82Zm5.62,10.65,1.18.84v5.25h-9.7v-6.09Zm-11.32,8.67V161h-.71v-4.28a.27.27,0,0,0-.28-.28.28.28,0,0,0-.28.28V161h-.78v-4.57l-.08-.17v0l-.68-.48h3.6l-.68.48ZM115.19,161h-4v-5.24H114l1.18.84Zm3.16-4.4,1.18-.84h2.07V161h-3.25Zm-12.49-3.81h-5.64l.25-.49h10.78l.24.49h-5.63ZM96,156.42V161h-.78v-4.28a.27.27,0,0,0-.28-.28.28.28,0,0,0-.28.28V161h-.71v-4.57l-.09-.17v0l-.68-.48h3.61l-.68.48Zm-6.49-1.21.39-.81h10.68v.81H89.49Zm26.64-9.54,1.17.84v7.33h-2.79v-7.33l1.17-.84Zm-2.08.48-.09.17v7.52h-.49v-7.5l-.08-.16v0l-.68-.48h2Zm4.39,0-.08.17v7.52h-.49v-7.5l-.08-.16,0,0-.68-.48h2Zm-12.58,5.61h-1.51l.25-.49h2.52l.24.49Zm2.12,0-.45-.92-.19-.11,0,0h-2.93l-.18.12h0l-.46.92h-2.61v-6.09h9.47v6.09Zm-27.11-3.35v5.43h-.49v-5.41l-.08-.17,0,0-.68-.49h2l-.68.49Zm10.8-.94V145.7l1.14.81v7.33H91.67Zm4.36-1.8,1.18.84v7.33h-2.8v-7.33l1.18-.84Zm2.32.48-.09.17v7.52h-.48v-7.5l-.09-.16v0h0l-.66-.47h2Zm-4.4,0-.09.17v7.52h-.48v-7.5l-.09-.16v0l-.68-.48h2Zm-12.54,2.44,1.18-.84h8.53v6.09H81.41Zm-1.6,5.25H71.48v-5.25l1.18-.84h6l1.17.84Zm19,0v-7.33l1.18-.84h.57v6.09h-.3l-.18.11h0l-.55,1.1v.25l.2.11,0,0h.81v.48Zm12.34-.48H112l.17-.1,0,0V153l-.54-1.1-.19-.11h-.32v-6.09h.58l1.18.84v7.33h-1.76Zm8.89.48H118.9v-7.33l1.14-.81v8.14Zm-27.86,1.93,1.18.84V161H90.11v-5.24Zm4.35.84,1.18-.84h2.85V161h-4Zm-2.09-12.87H92.72v-3.19a1.21,1.21,0,0,1,.86-1.17,1.25,1.25,0,0,1,.86,1.17Zm1.79-3.19a.9.9,0,1,1,1.73,0v3.19H96.23Zm3.52,0a1.21,1.21,0,0,1,.86-1.17,1.25,1.25,0,0,1,.86,1.17v3.19H99.75Zm5.34.24h1.53v3h-1.53Zm5.15-.24a.9.9,0,1,1,1.73,0v3.19h-1.73Zm3.52,0a.9.9,0,1,1,1.72,0v3.19h-1.72Zm3.51,0a1.23,1.23,0,0,1,.87-1.17,1.25,1.25,0,0,1,.86,1.17v3.19h-1.73ZM126,114.94l2.14,3.69h-1.6l-2.14-3.69ZM86.32,133.12l.93-1.36,0-.12h0V127h1.86v4.65l0,.11v0l.93,1.36h-3.8Zm3-6.7H87.15l-.8-1.07h3.74Zm11.33-19a.72.72,0,0,1,.48.68v2h-1v-2A.72.72,0,0,1,100.61,107.43Zm3,0a.71.71,0,0,1,.47.68v2h-1v-2A.72.72,0,0,1,103.57,107.43Zm4.58,0a.72.72,0,0,1,.48.68v2h-1v-2A.72.72,0,0,1,108.15,107.43Zm2.95,0a.72.72,0,0,1,.48.68v2h-1v-2A.72.72,0,0,1,111.1,107.43Zm-11.24,3.26h13.81v3.69h-.78v-2a1.29,1.29,0,0,0-1-1.24h-.32l.06.05a1.28,1.28,0,0,0-.86,1.21v2h-.89v-2a1.28,1.28,0,0,0-1-1.24h-.31l0,.05a1.31,1.31,0,0,0-.86,1.21v2h-1v-2a1.28,1.28,0,0,0-1-1.24h-.32l.06.05a1.28,1.28,0,0,0-.86,1.21v2h-1v-2a1.28,1.28,0,0,0-.86-1.21l.06-.06-.27,0h0a1.28,1.28,0,0,0-1,1.24v2h-.88v-2a1.29,1.29,0,0,0-.86-1.21l.06-.06-.27,0h0a1.28,1.28,0,0,0-1,1.24v2H98v-3.69h1.82Zm15,4.25v3.69h-.39v-2a1.29,1.29,0,0,0-1-1.24h-.32l.06.05a1.28,1.28,0,0,0-.86,1.21v2h-.89v-2a1.28,1.28,0,0,0-1-1.24h-.31l0,.05a1.29,1.29,0,0,0-.86,1.21v2h-.88v-2a1.28,1.28,0,0,0-.95-1.24h-.32l.06.05a1.28,1.28,0,0,0-.86,1.21v2h-1.34v-2a1.31,1.31,0,0,0-.86-1.21l0-.05h-.32a1.29,1.29,0,0,0-1,1.24v2h-.88v-2a1.28,1.28,0,0,0-.86-1.21l.06-.05h-.32a1.28,1.28,0,0,0-1,1.24v2h-.88v-2a1.29,1.29,0,0,0-.86-1.21l.06-.05h-.32a1.28,1.28,0,0,0-1,1.24v2h-.4v-3.69H114.9ZM118.69,131v6.09h-.61v-3.19a1.81,1.81,0,0,0-1.34-1.73h-.08l-.23,0,0,.06a1.78,1.78,0,0,0-1.24,1.7v3.19h-.68v-3.19a1.79,1.79,0,0,0-1.33-1.73h-.09l-.23,0,.06.06a1.77,1.77,0,0,0-1.25,1.7v3.19h-.67v-3.19a1.81,1.81,0,0,0-1.34-1.73h-.08l-.24,0,.06.06a1.78,1.78,0,0,0-1.24,1.7v3.19h-1v-3.23a.28.28,0,0,0-.28-.28h-2.09a.27.27,0,0,0-.27.28v3.23h-1v-3.19a1.79,1.79,0,0,0-1.25-1.7l.06-.05H102a1.79,1.79,0,0,0-1.33,1.73v3.19H100v-3.19a1.78,1.78,0,0,0-1.24-1.7l.06-.06-.29,0h0a1.8,1.8,0,0,0-1.34,1.73v3.19h-.67v-3.19a1.79,1.79,0,0,0-1.25-1.7l.06-.06-.28,0h0a1.79,1.79,0,0,0-1.33,1.73v3.19H93V131h25.67Zm-1.17,6.09h-1.73v-3.19a.9.9,0,1,1,1.73,0Zm-3.52,0h-1.72v-3.19a.9.9,0,1,1,1.72,0Zm-3.51,0h-1.73v-3.19a.9.9,0,1,1,1.73,0Zm-4.63,0h-.77v-2.95h1.53v2.95Zm-2.91,0h-1.72v-3.19a1.21,1.21,0,0,1,.86-1.17,1.24,1.24,0,0,1,.86,1.17Zm-3.52,0H97.71v-3.19a.9.9,0,1,1,1.72,0Zm-3.51,0H94.19v-3.19a.9.9,0,1,1,1.73,0ZM94,123.81,95.05,122a3,3,0,0,1-.91,1.81Zm23.58,0a3,3,0,0,1-.9-1.81l1,1.81Zm-21.9,3.45a.9.9,0,1,1,1.73,0v3.19H95.67Zm3.52,0a.9.9,0,1,1,1.72,0v3.19H99.19Zm-1.43-10.65a.73.73,0,0,1,.48-.68.72.72,0,0,1,.48.68v2h-1Zm3,0a.73.73,0,0,1,.48-.68.71.71,0,0,1,.47.68v2h-1Zm3,0a.51.51,0,1,1,1,0v2h-1Zm3.42,0a.71.71,0,0,1,.47-.68.72.72,0,0,1,.48.68v2h-1Zm3,0a.51.51,0,1,1,1,0v2h-1Zm2.95,0a.51.51,0,1,1,1,0v2h-1Zm-17.36,2h-.87l1.5-2.56v2.56Zm.27.56h19.91c0,.84.11,3.38,1,4.62h-9.14a5.55,5.55,0,0,0-1.7-1.39h0l-.39-.1.14.13a5.37,5.37,0,0,0-1.67,1.37H94.9C95.79,122.57,95.89,120,95.9,119.19Zm6.8,8.07a1.23,1.23,0,0,1,.87-1.17,1.25,1.25,0,0,1,.86,1.17v3.19H102.7Zm1.16-1.65a3.77,3.77,0,0,1,2-2.62,3.79,3.79,0,0,1,2,2.62,1.78,1.78,0,0,0-1.12,1.65v3.19H105v-3.19A1.77,1.77,0,0,0,103.86,125.61Zm3.42,1.65a1.23,1.23,0,0,1,.87-1.17,1.25,1.25,0,0,1,.86,1.17v3.19h-1.73Zm3.52,0a.9.9,0,1,1,1.73,0v3.19H110.8Zm3.52,0a.9.9,0,1,1,1.72,0v3.19h-1.72Zm1.77-8.63h-.63v-2.56l1.49,2.56Zm1.12,11.82h-.61v-3.19a1.8,1.8,0,0,0-1.34-1.73H115l0,0a1.8,1.8,0,0,0-1.24,1.7v3.19h-.68v-3.19a1.8,1.8,0,0,0-1.33-1.73h-.32l.06,0a1.81,1.81,0,0,0-1.25,1.7v3.19h-.67v-3.19a1.77,1.77,0,0,0-1.16-1.66,3.22,3.22,0,0,0-.37-1.23h9.17v6.08Zm-.77-9.95c0-.5-.07-1-.07-1.31h.9l2.7,4.62h-1.61Zm-22-1.31h.91c0,.35,0,.81-.07,1.31l-1.93,3.31h-1.6Zm.06,5.88v-.7h9.18a2.9,2.9,0,0,0-.37,1.23,1.76,1.76,0,0,0-1.16,1.66v3.19h-.68v-3.19a1.8,1.8,0,0,0-1.24-1.7l.06,0H100a1.81,1.81,0,0,0-1.34,1.73v3.19H98v-3.19a1.79,1.79,0,0,0-1.24-1.7l.06,0h-.32a1.82,1.82,0,0,0-1.34,1.73v3.19H94.5Zm17.35-13.39a.72.72,0,0,1,.48.68v2h-1v-2A.72.72,0,0,1,111.85,111.68Zm-2.95,0a.72.72,0,0,1,.48.68v2h-1v-2A.72.72,0,0,1,108.9,111.68Zm-3.52.68a.72.72,0,0,1,.48-.68.7.7,0,0,1,.47.68v2h-1Zm-2.56-.68a.71.71,0,0,1,.47.68v2h-1v-2A.72.72,0,0,1,102.82,111.68Zm-3,0a.72.72,0,0,1,.48.68v2h-1v-2A.72.72,0,0,1,99.86,111.68Zm-6.07,7.51-2.69,4.62H89.5l2.69-4.62Zm29.71,13.93h-1.9l.93-1.36,0-.12h0V127h1.85v4.65l0,.11v0l.93,1.36Zm1.06-6.7h-2.13l-.81-1.07h3.75Zm-4-2.61-2.69-4.62h1.6l2.69,4.62Zm-24.35-8.87v0l-2.14,3.67h-1.6l2.15-3.69ZM124,119.19l2.68,4.62h-1.6l-2.68-4.62Zm3.32,4.62-2.68-4.62h1.6l2.68,4.62Zm1.17-4.62,2.68,4.62h-1.6l-2.68-4.62Zm-5.66,4.62-2.69-4.62h1.61l2.68,4.62Zm-5.26-5.18L115.46,115v0H117l2.15,3.69Zm-20.1-7.94v3.69H95l2.15-3.69Zm-12.68,8.5-2.69,4.62h-1.6l2.69-4.62Zm.2,4.62,2.69-4.62h1.6l-2.69,4.62Zm2-4.62-2.68,4.62h-1.6l2.68-4.62Zm32.2,17.91v-6.37a.29.29,0,0,0-.28-.28h-1.2v-5.1h3.16l1.08,1.44v4.74l-1.17,1.71h0v.05l-.08.23.05,0v2.58l-.57,1Zm13.31-10.68h-2.13l-.81-1.07h3.74Zm1.08-1.63H117.77v-.42h15.87Zm-1.81-1-2.68-4.62h1.59l2.69,4.62Zm-3-5.18-2.15-3.69h1.59l2.15,3.69Zm-6.74,0L120,114.94h1.6l2.14,3.69Zm-6.91-4.25h-1v-3.69h.34l2.15,3.69ZM114,110.13h-.86v-2l1.16,2Zm-15.32,0H97.47l1.16-2Zm-13.5,8.5h-1.6l2.15-3.69h1.6Zm-2.57.56-2.68,4.62h-1.6L81,119.19Zm-2.89,5.18H93.94v.42H78.07v-.42Zm2.42,1-.8,1.07H79.16l-.81-1.07Zm.84,10.73V133.5l0,0-.08-.26h0l-1.17-1.71v-4.74l1.08-1.44h2.86l1.09,1.44v4.74l-1.18,1.71h0v0l-.07.23,0,0v2.58l-.57,1H83.5Zm8-2.58,0,0-.08-.26h0l-1.17-1.71v-4.74l1.08-1.44h3.16v5.1h-1.2a.29.29,0,0,0-.28.28v6.37h-1l-.57-1Zm.62,4.16h28.63v6.08h-.61v-3.19a1.82,1.82,0,0,0-1.34-1.73h-.32l.06,0a1.8,1.8,0,0,0-1.24,1.7v3.19H116v-3.19a1.8,1.8,0,0,0-1.34-1.73h-.31l0,0a1.8,1.8,0,0,0-1.24,1.7v3.19h-.68v-3.19a1.8,1.8,0,0,0-1.33-1.73h-.32l.06,0a1.81,1.81,0,0,0-1.25,1.7v3.19h-2.5v-3h1.72a.28.28,0,0,0,.28-.28.29.29,0,0,0-.28-.28h-6.09a.28.28,0,0,0-.27.28.27.27,0,0,0,.27.28h1.73v3H102v-3.19a1.8,1.8,0,0,0-1.24-1.7l0,0h-.31a1.8,1.8,0,0,0-1.34,1.73v3.19h-.68v-3.19a1.8,1.8,0,0,0-1.24-1.7l.06,0H97a1.82,1.82,0,0,0-1.34,1.73v3.19H95v-3.19a1.81,1.81,0,0,0-1.25-1.7l.06,0h-.32a1.8,1.8,0,0,0-1.33,1.73v3.19h-.62v-6.08Zm30.68,17.55H111.15v-.81h10.69Zm16.84-7.46,1.17.84v5.25H131.9V148.6l1.18-.85Zm-7.62.49-.09.17v5.43h-.48v-5.41l-.09-.17v0l-.68-.49h2Zm-5.24-12.16V133.5l0,0-.09-.26h0L125,131.53v-4.74l1.08-1.44h2.86l1.09,1.44v4.74l-1.17,1.71h0l0,.05-.07.23,0,0v2.58l-.57,1h-1.45Zm5.29-3h-1.9l.93-1.36,0-.12h0V127h1.86v4.65l0,.11v0l.93,1.36Zm-7.15-14.49-2.15-3.69h1.6l2.15,3.69Zm-4.5,0-2.15-3.69h1.61l2.15,3.69ZM94,114.94l-2.15,3.69h-1.6l2.14-3.69Zm-2.47,4.25-2.69,4.62h-1.6l2.68-4.62Zm-2-4.25-2.14,3.69h-1.6l2.14-3.69Zm-4.49,0-2.14,3.69H81.3l2.15-3.69Zm-5.77,16.82,0-.12h0V127h1.85v4.65l0,.11v0l.93,1.36h-3.8Zm3.46,24.66V161h-.78v-4.28a.28.28,0,1,0-.55,0V161h-.72v-4.57l-.08-.17v0l-.68-.48h3.6l-.68.48ZM80.11,161h-5v-4.4l1.18-.84h2.62l1.18.84Zm-5.53-4.59V161h-.71v-4.28a.28.28,0,0,0-.28-.28.27.27,0,0,0-.28.28V161h-.78v-4.57l-.08-.17v0l-.68-.48h3.6l-.68.48ZM72,161H67v-4.4l1.18-.84h2.62l1.18.84Zm-5.53-4.59V161h-.81v-4.28a.28.28,0,0,0-.28-.28.27.27,0,0,0-.28.28V161h-.68v-4.57l-.09-.17v0l-.68-.48h3.61l-.68.48Zm62.42-19.32.45-.82,0-.1h0v-2.48h4.3v2.49l0,.1h0l.46.82ZM94.35,114.38H92.73l2.15-3.69H96.5Zm-2.26,0h-1.6l2.14-3.69h1.6Zm-4.49,0H86l2.14-3.69h1.6Zm-9.55,21.9,0-.1h0v-2.48h4.3v2.49l0,.1h0l.46.82H77.59ZM71.2,154.4H89.26l-.47,1v.25l.2.11,0,0h.53V161H83.27v-4.4l1.18-.84h3a.28.28,0,0,0,.28-.28.27.27,0,0,0-.28-.28H59.88v-.81H71.2Zm-8.56,1.37,1.18.84V161H59.88v-5.24ZM92,110.69l-2.15,3.69h-1.6l2.15-3.69Zm-4.49,0-2.15,3.69H83.77l2.15-3.69ZM91,141.83V144l-.55,1.15H71.56c0-.3,0-.79,0-1.64v-1.64H91Zm-49.64-13a1.87,1.87,0,0,1,.43-1.17h0v0a1.62,1.62,0,0,1,.19-.18h0a1.81,1.81,0,0,1,2.34,0h0a1.07,1.07,0,0,1,.19.18v0h0a1.87,1.87,0,0,1,.43,1.17v.4h0v1.2l-1.55-.71v-1.58a.28.28,0,1,0-.56,0v1.58l-1.55.72Zm59.77,32.44v-7.92h9.47v9.4h-9.47Zm46.77-.27v-4.4l1.18-.84h2.76V161Zm-6.13-12.77-.08.17v5.43h-.88v-5.41l-.08-.17,0,0-.68-.49h2.44ZM64.1,161.56h36.46v1.2H59.88v-1.2Zm47.05,1.2v-1.2h40.68v1.2ZM143,147.2H120.6v-1.53H143Zm-17.57-37.07h-1.58l-2.14-3.69h1.44l.09-.07Zm-2.22,0h-1.6l-2.15-3.69h1.6Zm-2.25,0h-1.6l-2.14-3.69h1.6Zm-2.24,0h-1.6L115,106.44h1.6Zm-2.25,0h-1.62l-1.8-3.1v-.59h1.28ZM98.63,107l-1.81,3.1H95.2l2.14-3.69h1.29Zm-4.07,3.1H93l2.14-3.69h1.6Zm-2.25,0h-1.6l2.15-3.69h1.6Zm-2.24,0h-1.6l2.14-3.69h1.6Zm-2.25,0H86.24l2.19-3.76.07,0,0,0H90ZM77.11,137.66H91v3.62H75.73v-3.62h1.38Zm-1.94-.28v.52c-2.93-1.37-10.49-4.82-11.65-5.35v-.8l11.82,5.4A.26.26,0,0,0,75.17,137.38Zm-12.11-7.56,0,0L63,130v2.61h0v1.86H53.81L50.71,133v-9l12.73,5.49Zm-12.9,3-4.59-2.09v-1.11c1.77.33,2.79.5,3,.5a1.24,1.24,0,0,0,0-2.48,19.17,19.17,0,0,0-1.9.29,18.65,18.65,0,0,0,1.79-.7,1.22,1.22,0,0,0,.58-.75,1.17,1.17,0,0,0,0-.32,1.26,1.26,0,0,0-.92-1.2,1.12,1.12,0,0,0-.32,0,1.23,1.23,0,0,0-.62.17q-.26.15-1.5,1.2,1-1.25,1.2-1.5a1.19,1.19,0,0,0,.17-.62,1.23,1.23,0,0,0-1.24-1.24,1.23,1.23,0,0,0-1.07.62,18.65,18.65,0,0,0-.7,1.79,19.17,19.17,0,0,0,.29-1.9,1.24,1.24,0,0,0-2.48,0,19.17,19.17,0,0,0,.29,1.9,18.65,18.65,0,0,0-.7-1.79,1.24,1.24,0,0,0-2.31.62,1.19,1.19,0,0,0,.17.62q.15.25,1.2,1.5a16.76,16.76,0,0,0-1.51-1.2,1.22,1.22,0,0,0-.61-.17,1.24,1.24,0,0,0-.33,0,1.27,1.27,0,0,0-.75.58,1.22,1.22,0,0,0-.16.62,1.17,1.17,0,0,0,0,.32,1.18,1.18,0,0,0,.58.75,17.5,17.5,0,0,0,1.79.7c-1.07-.19-1.71-.29-1.9-.29a1.24,1.24,0,1,0,0,2.48c.26,0,1.27-.17,3-.5v1.12l-4.59,2.12v-9.06l7-3,7,3ZM3.41,147h.86a6.55,6.55,0,0,0-3.7,3.26V147Z"/></g></g></svg>