<?xml version="1.0" encoding="UTF-8"?>
<svg id="Layer_1" data-name="Layer 1" xmlns="http://www.w3.org/2000/svg" viewBox="0 0 1920 1080">
  <defs>
    <style>
      .cls-1 {
        fill: #ebc848;
      }
    </style>
  </defs>
  <g>
    <polygon class="cls-1" points="484.59 1119.35 484.59 1117.9 294.02 1117.9 294.02 979.87 483.14 979.87 483.14 1119.35 484.59 1119.35 484.59 1117.9 484.59 1119.35 486.04 1119.35 486.04 976.97 291.13 976.97 291.13 1120.79 486.04 1120.79 486.04 1119.35 484.59 1119.35"/>
    <polygon class="cls-1" points="341.91 1119.35 341.91 1117.9 308.97 1117.9 308.97 979.87 340.46 979.87 340.46 1119.35 341.91 1119.35 341.91 1117.9 341.91 1119.35 343.35 1119.35 343.35 976.97 306.07 976.97 306.07 1120.79 343.35 1120.79 343.35 1119.35 341.91 1119.35"/>
    <polygon class="cls-1" points="472.7 1119.35 472.7 1117.9 439.76 1117.9 439.76 979.87 471.25 979.87 471.25 1119.35 472.7 1119.35 472.7 1117.9 472.7 1119.35 474.15 1119.35 474.15 976.97 436.86 976.97 436.86 1120.79 474.15 1120.79 474.15 1119.35 472.7 1119.35"/>
    <polygon class="cls-1" points="419.91 1119.35 419.91 1117.9 359.78 1117.9 359.78 979.87 418.47 979.87 418.47 1119.35 419.91 1119.35 419.91 1117.9 419.91 1119.35 421.36 1119.35 421.36 976.97 356.88 976.97 356.88 1120.79 421.36 1120.79 421.36 1119.35 419.91 1119.35"/>
    <polygon class="cls-1" points="341.91 978.42 341.91 976.97 294.02 976.97 294.02 934.85 340.46 934.85 340.46 978.42 341.91 978.42 341.91 976.97 341.91 978.42 343.35 978.42 343.35 931.95 291.13 931.95 291.13 979.87 343.35 979.87 343.35 978.42 341.91 978.42"/>
    <polygon class="cls-1" points="438.31 978.42 438.31 976.97 343.35 976.97 343.35 934.85 436.86 934.85 436.86 978.42 438.31 978.42 438.31 976.97 438.31 978.42 439.76 978.42 439.76 931.95 340.46 931.95 340.46 979.87 439.76 979.87 439.76 978.42 438.31 978.42"/>
    <polygon class="cls-1" points="484.59 1119.35 484.59 1117.9 294.02 1117.9 294.02 934.72 483.14 934.72 483.14 1119.35 484.59 1119.35 484.59 1117.9 484.59 1119.35 486.04 1119.35 486.04 931.82 291.13 931.82 291.13 1120.79 486.04 1120.79 486.04 1119.35 484.59 1119.35"/>
    <polygon class="cls-1" points="344.49 933.27 345.53 934.29 391.41 887.73 433.08 931.82 344.49 931.82 344.49 933.27 345.53 934.29 344.49 933.27 344.49 934.72 439.81 934.72 391.46 883.56 341.03 934.72 344.49 934.72 344.49 933.27"/>
    <polygon class="cls-1" points="438.31 933.27 439.34 934.29 461.08 912.23 479.6 931.82 438.31 931.82 438.31 933.27 439.34 934.29 438.31 933.27 438.31 934.72 486.32 934.72 461.12 908.06 434.84 934.72 438.31 934.72 438.31 933.27"/>
    <polygon class="cls-1" points="294.91 933.27 295.95 934.29 317.69 912.23 336.2 931.82 294.91 931.82 294.91 933.27 295.95 934.29 294.91 933.27 294.91 934.72 342.93 934.72 317.73 908.06 291.45 934.72 294.91 934.72 294.91 933.27"/>
    <polyline class="cls-1" points="304.97 884.9 472.7 884.9 472.7 882 304.97 882"/>
    <polyline class="cls-1" points="304.97 897.64 380.5 897.64 380.5 894.75 304.97 894.75"/>
    <polyline class="cls-1" points="400.54 897.64 472.7 897.64 472.7 894.75 400.54 894.75"/>
    <path class="cls-1" d="M321.92,883.23l1.44,.13c.26-2.94,1.05-10.44,4.02-19.23,2.97-8.79,8.11-18.83,17.04-26.89,12.18-11.02,28.35-16.67,44.39-16.67,11.53,0,22.98,2.92,32.84,8.81,12.21,7.3,19.79,17.88,24.4,27.11,4.62,9.23,6.25,17.07,6.58,18.78,.64,3.29,.91,6.08,1.03,8.05l1.45-.09,.03-1.45c-9.39-.16-18.78-.22-28.17-.22-25.65,0-51.28,.45-76.89,.45-9.38,0-18.75-.06-28.12-.22l-.03,1.45,1.44,.13-1.44-.13-.03,1.45c9.39,.16,18.78,.22,28.17,.22,25.65,0,51.28-.45,76.89-.45,9.38,0,18.75,.06,28.12,.22l1.57,.03-.1-1.57c-.13-2.06-.41-4.98-1.08-8.42-.36-1.85-2.05-9.95-6.83-19.52-4.78-9.56-12.69-20.63-25.51-28.3-10.34-6.19-22.31-9.22-34.32-9.22-16.72,0-33.57,5.87-46.33,17.41-9.4,8.5-14.76,19.01-17.84,28.11-3.08,9.11-3.89,16.86-4.16,19.9l-.14,1.55,1.56,.03,.03-1.45Z"/>
    <path class="cls-1" d="M323.36,831.07c.05-.57,.12-1.3,.21-2.17,.47-4.25,1.63-11.87,4.7-20.32,3.08-8.45,8.07-17.7,16.16-25.27,12.18-11.4,28.34-17.24,44.37-17.24,11.52,0,22.97,3.01,32.82,9.11,12.2,7.55,19.79,18.51,24.41,28.07,4.62,9.56,6.25,17.68,6.58,19.45,.43,2.27,.69,4.31,.85,6.02,.08,.86,.14,1.63,.18,2.32l2.89-.18c-.04-.71-.1-1.52-.19-2.42-.17-1.79-.44-3.91-.89-6.28-.36-1.91-2.04-10.29-6.82-20.18-4.78-9.89-12.67-21.33-25.5-29.27-10.34-6.41-22.32-9.55-34.34-9.55-16.73,0-33.59,6.08-46.35,18.02-8.52,7.98-13.72,17.65-16.9,26.4-3.19,8.75-4.38,16.6-4.86,20.99-.1,.9-.17,1.66-.22,2.24l2.89,.25h0Z"/>
    <polyline class="cls-1" points="379.1 810.09 398.98 810.09 398.98 807.19 379.1 807.19"/>
    <polyline class="cls-1" points="387.59 779.89 387.59 801.23 390.49 801.23 390.49 779.89"/>
    <polyline class="cls-1" points="477.59 819.15 497.48 819.15 497.48 816.25 477.59 816.25"/>
    <polyline class="cls-1" points="486.09 788.95 486.09 810.29 488.98 810.29 488.98 788.95"/>
    <polyline class="cls-1" points="280.66 819.15 300.55 819.15 300.55 816.25 280.66 816.25"/>
    <polyline class="cls-1" points="289.15 788.95 289.15 810.29 292.05 810.29 292.05 788.95"/>
    <polyline class="cls-1" points="387.59 851.29 387.59 872.62 390.49 872.62 390.49 851.29"/>
    <polyline class="cls-1" points="379.1 756.89 398.98 756.89 398.98 753.99 379.1 753.99"/>
    <polyline class="cls-1" points="387.59 726.7 387.59 748.03 390.49 748.03 390.49 726.7"/>
    <polyline class="cls-1" points="445.44 853.72 528.56 853.72 528.56 850.83 445.44 850.83"/>
    <polyline class="cls-1" points="451 865.79 528.56 865.79 528.56 862.9 451 862.9"/>
    <polyline class="cls-1" points="515.57 864.68 515.57 949.31 518.47 949.31 518.47 864.68"/>
    <polyline class="cls-1" points="503.5 864.35 503.5 951.06 506.4 951.06 506.4 864.35"/>
    <polyline class="cls-1" points="271.42 864.68 271.42 949.31 274.32 949.31 274.32 864.68"/>
    <polyline class="cls-1" points="259.35 864.35 259.35 951.06 262.25 951.06 262.25 864.35"/>
    <path class="cls-1" d="M457.73,852.28l1.43,.25c.22-1.27,.94-5.11,2.93-9.59,1.99-4.47,5.24-9.54,10.46-13.32,6.11-4.42,12.16-5.1,15.17-5.2h0c.16,0,.35,0,.57,0,1.42,0,4.01,.13,7.1,1.04,3.09,.91,6.68,2.58,10.14,5.68,4.32,3.87,6.86,8.54,8.34,12.55,1.48,4.01,1.9,7.32,2.02,8.43l1.44-.16v-1.45c-19.88,.11-39.74,.21-59.61,.32v1.45s1.44,.25,1.44,.25l-1.43-.25v1.45c19.88-.11,39.74-.21,59.61-.32h1.61s-.18-1.61-.18-1.61c-.14-1.23-.59-4.8-2.19-9.12-1.6-4.32-4.35-9.43-9.13-13.7-3.82-3.42-7.83-5.3-11.26-6.3-3.43-1.01-6.31-1.16-7.92-1.16-.25,0-.47,0-.65,0h0c-3.32,.11-10.03,.87-16.77,5.75-5.76,4.17-9.28,9.7-11.41,14.49-2.13,4.79-2.9,8.89-3.14,10.27l-.29,1.7h1.73s0-1.46,0-1.46Z"/>
    <path class="cls-1" d="M260.8,852.28l1.43,.25c.22-1.27,.94-5.11,2.93-9.59,1.99-4.47,5.24-9.54,10.46-13.32,6.11-4.42,12.16-5.1,15.17-5.2h0c.16,0,.35,0,.57,0,1.42,0,4.01,.13,7.1,1.04,3.09,.91,6.68,2.58,10.14,5.68,4.32,3.87,6.86,8.54,8.34,12.55,1.48,4.01,1.9,7.32,2.02,8.43l1.44-.16v-1.45c-19.88,.11-39.74,.21-59.61,.32v1.45s1.44,.25,1.44,.25l-1.43-.25v1.45c19.88-.11,39.74-.21,59.61-.32h1.61s-.18-1.61-.18-1.61c-.14-1.23-.59-4.8-2.19-9.12-1.6-4.32-4.35-9.43-9.13-13.7-3.82-3.42-7.83-5.3-11.26-6.3-3.43-1.01-6.31-1.16-7.92-1.16-.25,0-.47,0-.65,0h0c-3.32,.11-10.03,.87-16.77,5.75-5.76,4.17-9.28,9.7-11.41,14.49-2.13,4.79-2.9,8.89-3.14,10.27l-.29,1.7h1.73s0-1.46,0-1.46Z"/>
    <polygon class="cls-1" points="292.58 1119.35 292.58 1117.9 48.09 1117.9 48.09 979.87 291.13 979.87 291.13 1119.35 292.58 1119.35 292.58 1117.9 292.58 1119.35 294.02 1119.35 294.02 976.97 45.19 976.97 45.19 1120.79 294.02 1120.79 294.02 1119.35 292.58 1119.35"/>
    <polygon class="cls-1" points="190.02 1119.35 190.02 1117.9 135.55 1117.9 135.55 979.87 188.57 979.87 188.57 1119.35 190.02 1119.35 190.02 1117.9 190.02 1119.35 191.47 1119.35 191.47 976.97 132.65 976.97 132.65 1120.79 191.47 1120.79 191.47 1119.35 190.02 1119.35"/>
    <polygon class="cls-1" points="190.02 978.42 190.02 976.97 135.55 976.97 135.55 934.85 188.57 934.85 188.57 978.42 190.02 978.42 190.02 976.97 190.02 978.42 191.47 978.42 191.47 931.95 132.65 931.95 132.65 979.87 191.47 979.87 191.47 978.42 190.02 978.42"/>
    <polygon class="cls-1" points="239.35 978.42 239.35 976.97 191.47 976.97 191.47 934.85 237.9 934.85 237.9 978.42 239.35 978.42 239.35 976.97 239.35 978.42 240.8 978.42 240.8 931.95 188.57 931.95 188.57 979.87 240.8 979.87 240.8 978.42 239.35 978.42"/>
    <polyline class="cls-1" points="140.92 1000.75 182.74 1000.75 182.74 997.85 140.92 997.85"/>
    <polyline class="cls-1" points="196.6 1000.75 287.73 1000.75 287.73 997.85 196.6 997.85"/>
    <polyline class="cls-1" points="36 1000.75 134.1 1000.75 134.1 997.85 36 997.85"/>
    <polyline class="cls-1" points="62.71 999.3 62.71 1119.35 65.61 1119.35 65.61 999.3"/>
    <polyline class="cls-1" points="97.68 999.3 97.68 1119.35 100.58 1119.35 100.58 999.3"/>
    <polyline class="cls-1" points="140.92 1066.88 182.74 1066.88 182.74 1063.98 140.92 1063.98"/>
    <polyline class="cls-1" points="140.92 1076.42 182.74 1076.42 182.74 1073.53 140.92 1073.53"/>
    <polyline class="cls-1" points="106.35 1066.88 127.25 1066.88 127.25 1063.98 106.35 1063.98"/>
    <polyline class="cls-1" points="106.35 1076.42 127.25 1076.42 127.25 1073.53 106.35 1073.53"/>
    <polyline class="cls-1" points="196.6 1066.88 287.73 1066.88 287.73 1063.98 196.6 1063.98"/>
    <polyline class="cls-1" points="196.6 1076.42 287.73 1076.42 287.73 1073.53 196.6 1073.53"/>
    <polygon class="cls-1" points="48.75 976 49.78 977.02 90.72 935.49 127.64 974.56 48.75 974.56 48.75 976 49.78 977.02 48.75 976 48.75 977.45 134.36 977.45 90.76 931.32 45.29 977.45 48.75 977.45 48.75 976"/>
    <polygon class="cls-1" points="135.92 933.59 136.95 934.61 162.97 908.21 185.6 932.14 135.92 932.15 135.92 933.59 136.95 934.61 135.92 933.59 135.92 935.04 192.32 935.04 163.02 904.04 132.46 935.04 135.92 935.04 135.92 933.59"/>
    <polygon class="cls-1" points="191.45 933.27 192.48 934.29 214.22 912.23 232.74 931.82 191.45 931.82 191.45 933.27 192.48 934.29 191.45 933.27 191.45 934.72 239.46 934.72 214.26 908.06 187.98 934.72 191.45 934.72 191.45 933.27"/>
    <polygon class="cls-1" points="242.16 977.85 243.19 978.86 264.93 956.81 283.45 976.4 242.16 976.4 242.16 977.85 243.19 978.86 242.16 977.85 242.16 979.3 290.18 979.3 264.98 952.63 238.7 979.3 242.16 979.3 242.16 977.85"/>
    <polyline class="cls-1" points="330.54 850.83 247.41 850.83 247.41 853.72 330.54 853.72"/>
    <polyline class="cls-1" points="324.97 862.9 247.41 862.9 247.41 865.79 324.97 865.79"/>
    <path class="cls-1" d="M136.59,913.43c.36-20.14,11.89-38.07,29.39-45.77,6.47-2.85,12.77-3.87,18.52-3.87,13.87-.01,24.51,6.02,25.66,6.7h0c15.13,8.93,24.41,25.56,24.41,43.62,0,.42,0,.84-.02,1.27l2.9,.07c.01-.45,.02-.89,.02-1.34,0-19.05-9.78-36.64-25.83-46.12h0c-1.4-.82-12.42-7.1-27.13-7.11-6.09,0-12.81,1.09-19.69,4.12-18.6,8.19-30.75,27.15-31.12,48.37l2.9,.05h0Z"/>
    <polyline class="cls-1" points="175.63 854.23 195.52 854.23 195.52 851.33 175.63 851.33"/>
    <polyline class="cls-1" points="184.13 824.04 184.13 845.37 187.02 845.37 187.02 824.04"/>
    <polygon class="cls-1" points="483.4 1119.35 483.4 1120.79 730.79 1120.79 730.79 976.97 481.95 976.97 481.95 1120.79 483.4 1120.79 483.4 1119.35 484.85 1119.35 484.85 979.87 727.89 979.87 727.89 1117.9 483.4 1117.9 483.4 1119.35 484.85 1119.35 483.4 1119.35"/>
    <polygon class="cls-1" points="585.96 1119.35 585.96 1120.79 643.32 1120.79 643.32 976.97 584.51 976.97 584.51 1120.79 585.96 1120.79 585.96 1119.35 587.4 1119.35 587.4 979.87 640.43 979.87 640.43 1117.9 585.96 1117.9 585.96 1119.35 587.4 1119.35 585.96 1119.35"/>
    <polygon class="cls-1" points="585.96 978.42 585.96 979.87 643.32 979.87 643.32 931.95 584.51 931.95 584.51 979.87 585.96 979.87 585.96 978.42 587.4 978.42 587.4 934.85 640.43 934.85 640.43 976.97 585.96 976.97 585.96 978.42 587.4 978.42 585.96 978.42"/>
    <polygon class="cls-1" points="536.62 978.42 536.62 979.87 587.4 979.87 587.4 931.95 535.18 931.95 535.18 979.87 536.62 979.87 536.62 978.42 538.07 978.42 538.07 934.85 584.51 934.85 584.51 976.97 536.62 976.97 536.62 978.42 538.07 978.42 536.62 978.42"/>
    <polyline class="cls-1" points="635.06 997.85 593.24 997.85 593.24 1000.75 635.06 1000.75"/>
    <polyline class="cls-1" points="579.38 997.85 488.25 997.85 488.25 1000.75 579.38 1000.75"/>
    <polyline class="cls-1" points="739.98 997.85 641.87 997.85 641.87 1000.75 739.98 1000.75"/>
    <polyline class="cls-1" points="710.37 999.3 710.37 1119.35 713.27 1119.35 713.27 999.3"/>
    <polyline class="cls-1" points="675.4 999.3 675.4 1119.35 678.29 1119.35 678.29 999.3"/>
    <polyline class="cls-1" points="635.06 1063.98 593.24 1063.98 593.24 1066.88 635.06 1066.88"/>
    <polyline class="cls-1" points="635.06 1073.53 593.24 1073.53 593.24 1076.42 635.06 1076.42"/>
    <polyline class="cls-1" points="669.63 1063.98 648.72 1063.98 648.72 1066.88 669.63 1066.88"/>
    <polyline class="cls-1" points="669.63 1073.53 648.72 1073.53 648.72 1076.42 669.63 1076.42"/>
    <polyline class="cls-1" points="579.38 1063.98 488.25 1063.98 488.25 1066.88 579.38 1066.88"/>
    <polyline class="cls-1" points="579.38 1073.53 488.25 1073.53 488.25 1076.42 579.38 1076.42"/>
    <polygon class="cls-1" points="727.23 976 728.26 974.99 685.22 931.32 641.61 977.45 730.69 977.45 728.26 974.99 727.23 976 727.23 974.56 648.34 974.56 685.26 935.49 726.19 977.02 727.23 976 727.23 974.56 727.23 976"/>
    <polygon class="cls-1" points="640.06 933.59 641.09 932.58 612.96 904.04 583.65 935.04 643.52 935.04 641.09 932.58 640.06 933.59 640.06 932.15 590.38 932.15 613 908.21 639.03 934.61 640.06 933.59 640.06 932.15 640.06 933.59"/>
    <polygon class="cls-1" points="584.53 933.27 585.56 932.25 561.71 908.06 536.51 934.72 587.99 934.72 585.56 932.25 584.53 933.27 584.53 931.82 543.24 931.82 561.76 912.23 583.5 934.29 584.53 933.27 584.53 931.82 584.53 933.27"/>
    <polygon class="cls-1" points="533.82 977.85 534.85 976.83 511 952.63 485.8 979.3 537.28 979.3 534.85 976.83 533.82 977.85 533.82 976.4 492.53 976.4 511.04 956.81 532.78 978.86 533.82 977.85 533.82 976.4 533.82 977.85"/>
    <polyline class="cls-1" points="445.44 853.72 528.56 853.72 528.56 850.83 445.44 850.83"/>
    <polyline class="cls-1" points="451 865.79 528.56 865.79 528.56 862.9 451 862.9"/>
    <path class="cls-1" d="M642.29,913.38c-.38-21.21-12.52-40.18-31.12-48.37-6.87-3.03-13.6-4.12-19.69-4.12-14.71,.01-25.74,6.29-27.13,7.11-16.05,9.47-25.83,27.06-25.83,46.12,0,.44,0,.89,.02,1.34l2.9-.07c-.01-.42-.02-.85-.02-1.27,0-18.06,9.28-34.69,24.41-43.62,1.15-.69,11.79-6.72,25.66-6.7,5.75,0,12.05,1.02,18.52,3.87,17.5,7.69,29.03,25.62,29.39,45.77l2.9-.05h0Z"/>
    <polyline class="cls-1" points="600.34 851.33 580.46 851.33 580.46 854.23 600.34 854.23"/>
    <polyline class="cls-1" points="588.95 824.04 588.95 845.37 591.85 845.37 591.85 824.04"/>
  </g>
  <g>
    <polygon class="cls-1" points="882.88 1119.44 882.88 1118.08 783.22 1118.08 783.25 1117.42 783.25 1117.42 784.22 1097.95 785.56 1071.04 786.46 1053.17 787.8 1026.23 788.67 1008.88 790.01 981.99 790.96 962.99 792.3 936.05 792.3 936.04 793.14 919.28 793.14 919.27 794.59 890.32 796.63 849.49 797.67 828.53 798.84 805.36 799.88 784.31 800.94 763.1 801.92 743.65 804.3 695.82 805.17 678.56 806.12 659.66 806.97 642.33 807.84 625 808.65 608.97 810.82 565.29 811.57 550.59 812.17 538.31 812.91 523.53 814 501.85 814.91 483.45 815.18 478.2 815.18 478.19 816.1 459.58 816.54 450.9 842.56 450.9 843.42 465.62 844.46 483.46 845.54 501.86 845.66 504.01 846.58 519.72 847.15 529.52 848.06 545.3 850.11 580.56 851.11 597.61 852.01 613.04 853.08 631.39 853.98 646.94 855.06 665.37 857.44 706.19 858.66 727.11 859.75 745.9 861.1 745.82 859.74 745.82 859.74 745.84 859.74 745.88 861.06 768.4 862.16 787.3 863.47 809.9 867.14 872.6 868.62 898.07 869.98 897.99 868.62 897.99 868.62 898.01 868.62 898.05 869.58 914.64 871.07 940.14 872.06 957.27 873.44 980.72 874.56 1000.11 875.82 1021.77 877.15 1044.43 878.3 1064.25 879.18 1079.35 880.67 1104.78 881.52 1119.52 882.88 1119.44 882.88 1118.08 882.88 1119.44 884.23 1119.36 883.38 1104.63 881.9 1079.19 881.01 1064.09 879.86 1044.27 878.53 1021.62 877.27 999.95 876.15 980.56 874.77 957.11 873.78 939.98 872.3 914.48 871.33 897.93 869.98 898.01 871.34 898.01 871.34 897.99 871.34 897.95 869.85 872.44 866.19 809.74 864.87 787.14 863.77 768.24 862.46 745.76 861.1 745.84 862.46 745.84 862.46 745.82 862.46 745.78 861.37 726.95 860.15 706.03 857.77 665.21 856.7 646.78 855.79 631.23 854.72 612.88 853.82 597.45 852.83 580.4 850.77 545.14 849.86 529.37 849.29 519.56 848.37 503.85 848.25 501.7 847.17 483.31 846.13 465.46 845.12 448.19 813.96 448.19 813.39 459.44 812.47 478.06 812.47 478.06 812.2 483.32 811.29 501.71 810.2 523.39 809.45 538.17 808.85 550.46 808.11 565.16 805.93 608.84 805.13 624.86 804.26 642.2 803.41 659.52 802.46 678.42 801.59 695.68 799.21 743.51 798.23 762.96 797.17 784.17 796.13 805.22 794.96 828.4 793.92 849.35 791.88 890.19 790.42 919.2 790.42 919.21 789.59 935.97 789.59 935.98 788.25 962.86 787.3 981.85 785.96 1008.74 785.09 1026.1 783.75 1053.03 782.85 1070.91 781.5 1097.82 780.54 1117.29 780.54 1117.28 780.36 1120.79 884.32 1120.79 884.23 1119.36 882.88 1119.44"/>
    <polygon class="cls-1" points="789.82 559.89 789.82 561.25 867.37 561.25 853.19 585.04 806.17 585.04 790.99 559.21 789.82 559.89 789.82 561.25 789.82 559.89 788.65 560.58 804.61 587.75 854.74 587.75 872.15 558.54 787.45 558.54 788.65 560.58 789.82 559.89"/>
    <polygon class="cls-1" points="782.14 682.92 782.14 684.27 875.05 684.27 857.84 713.15 801.48 713.15 783.31 682.23 782.14 682.92 782.14 684.27 782.14 682.92 780.97 683.6 799.92 715.87 859.38 715.87 879.83 681.56 779.77 681.56 780.97 683.6 782.14 682.92"/>
    <polygon class="cls-1" points="773.31 823.8 773.31 825.16 883.87 825.16 863.18 859.89 796.09 859.89 774.48 823.11 773.31 823.8 773.31 825.16 773.31 823.8 772.14 824.49 794.54 862.61 864.72 862.61 888.66 822.44 770.94 822.44 772.14 824.49 773.31 823.8"/>
    <polyline class="cls-1" points="834.61 448.32 814.15 458.29 815.34 460.73 835.8 450.77"/>
    <polyline class="cls-1" points="844.26 464.28 813.31 476.87 814.34 479.38 845.29 466.8"/>
    <polyline class="cls-1" points="851.35 499.99 850.26 500.59 851.57 502.97 852.66 502.37"/>
    <polyline class="cls-1" points="847.33 518.43 810.2 537.03 811.42 539.46 848.54 520.85"/>
    <polyline class="cls-1" points="846.36 502.74 810.9 522.27 812.21 524.65 847.67 505.12"/>
    <polyline class="cls-1" points="847.85 528.26 809.56 549.34 810.87 551.72 849.16 530.64"/>
    <polyline class="cls-1" points="848.81 544.01 808.86 564.01 810.08 566.44 850.03 546.43"/>
    <polyline class="cls-1" points="850.74 579.34 806.55 607.76 808.02 610.04 852.21 581.62"/>
    <polyline class="cls-1" points="851.77 596.37 805.79 623.76 807.18 626.1 853.16 598.7"/>
    <polyline class="cls-1" points="852.65 611.8 804.9 641.11 806.33 643.43 854.08 614.12"/>
    <polyline class="cls-1" points="853.77 630.13 804.09 658.41 805.43 660.77 855.11 632.49"/>
    <polygon class="cls-1" points="856.41 665.29 855.74 664.11 804.43 693.34 805.14 679.27 854.12 649.21 855.06 665.37 856.41 665.29 855.74 664.11 856.41 665.29 857.77 665.21 856.56 644.52 802.5 677.71 801.46 698.16 857.82 666.05 857.77 665.21 856.41 665.29"/>
    <polygon class="cls-1" points="860.01 727.03 859.32 725.86 801.07 760.57 801.88 744.34 857.58 708.51 858.66 727.11 860.01 727.03 859.32 725.86 860.01 727.03 861.37 726.95 860.02 703.71 799.24 742.81 798.1 765.5 861.42 727.77 861.37 726.95 860.01 727.03"/>
    <polygon class="cls-1" points="862.41 768.32 861.74 767.14 798.96 802.88 799.85 785.02 859.88 748.18 861.06 768.4 862.41 768.32 861.74 767.14 862.41 768.32 863.77 768.24 862.33 743.49 797.2 783.46 796 807.69 863.82 769.08 863.77 768.24 862.41 768.32"/>
    <polygon class="cls-1" points="864.83 809.82 864.16 808.64 796.75 847.02 797.64 829.25 862.29 789.57 863.47 809.9 864.83 809.82 864.16 808.64 864.83 809.82 866.19 809.74 864.74 784.88 794.99 827.68 793.79 851.83 866.23 810.58 866.19 809.74 864.83 809.82"/>
    <polygon class="cls-1" points="799.03 483.38 799.03 484.74 858.56 484.74 850.87 500.43 810.98 500.43 800.19 482.68 799.03 483.38 799.03 484.74 799.03 483.38 797.87 484.09 809.45 503.14 852.56 503.14 862.91 482.02 796.61 482.02 797.87 484.09 799.03 483.38"/>
    <polygon class="cls-1" points="854.82 862.54 853.91 861.53 793.3 916.04 794.56 890.9 825.3 863.9 854.82 863.9 854.82 862.54 853.91 861.53 854.82 862.54 854.82 861.18 824.27 861.18 791.91 889.61 790.26 922.42 858.36 861.18 854.82 861.18 854.82 862.54"/>
    <polygon class="cls-1" points="869.98 897.99 868.62 897.99 868.62 898.01 869.98 898.01 869.12 896.95 791.11 959.96 792.3 936.05 792.3 936 790.95 936 791.81 937.05 867.29 875.26 868.62 898.07 869.98 897.99 868.62 897.99 869.98 897.99 871.33 897.91 869.69 869.79 789.59 935.36 789.59 935.98 788.1 965.89 871.34 898.66 871.34 897.99 871.34 897.95 871.33 897.91 869.98 897.99"/>
    <polygon class="cls-1" points="872.42 940.06 871.57 939 788.82 1005.85 789.98 982.59 869.74 917.3 871.07 940.14 872.42 940.06 871.57 939 872.42 940.06 873.78 939.98 872.14 911.82 787.33 981.25 785.81 1011.77 873.82 940.68 873.78 939.98 872.42 940.06"/>
    <polygon class="cls-1" points="874.79 980.64 873.94 979.58 786.61 1050.14 787.77 1026.83 871.02 958.69 872.14 958.63 873.44 980.72 874.79 980.64 873.94 979.58 874.79 980.64 876.15 980.56 874.7 955.75 869.98 956.03 785.12 1025.49 783.6 1056.07 876.19 981.26 876.15 980.56 874.79 980.64"/>
    <polygon class="cls-1" points="877.18 1021.69 876.32 1020.64 784.37 1094.92 785.53 1071.65 874.5 999.18 874.56 1000.11 875.82 1021.77 877.18 1021.69 876.32 1020.64 877.18 1021.69 878.53 1021.62 877.27 999.95 876.91 993.72 782.88 1070.31 781.35 1100.85 878.57 1022.31 878.53 1021.62 877.18 1021.69"/>
    <polygon class="cls-1" points="879.66 1064.17 878.8 1063.11 810.77 1118.08 783.22 1118.08 783.22 1118.03 876.99 1041.76 877.15 1044.43 878.3 1064.25 879.66 1064.17 878.8 1063.11 879.66 1064.17 881.01 1064.09 879.86 1044.27 879.39 1036.3 780.57 1116.68 780.36 1120.79 811.73 1120.79 881.05 1064.79 881.01 1064.09 879.66 1064.17"/>
    <polygon class="cls-1" points="882.03 1104.7 881.17 1103.65 863.31 1118.08 835.28 1118.08 879.34 1082 880.67 1104.78 882.03 1104.7 881.17 1103.65 882.03 1104.7 883.38 1104.63 881.74 1076.53 827.68 1120.79 864.27 1120.79 883.42 1105.32 883.38 1104.63 882.03 1104.7"/>
    <polygon class="cls-1" points="852.01 448.93 852.01 447.57 808.41 447.57 808.41 429.89 850.65 429.89 850.65 448.93 852.01 448.93 852.01 447.57 852.01 448.93 853.37 448.93 853.37 427.17 805.69 427.17 805.69 450.29 853.37 450.29 853.37 448.93 852.01 448.93"/>
    <polyline class="cls-1" points="830.89 427.04 830.89 407.32 828.17 407.32 828.17 427.04"/>
  </g>
  <g>
    <polygon class="cls-1" points="1201.95 650.7 1201.95 649.47 1065.8 649.47 1065.8 640.01 1200.73 640.01 1200.73 650.7 1201.95 650.7 1201.95 649.47 1201.95 650.7 1203.18 650.7 1203.18 637.55 1063.34 637.55 1063.34 651.93 1203.18 651.93 1203.18 650.7 1201.95 650.7"/>
    <polygon class="cls-1" points="1334.07 734.45 1334.07 733.22 930.82 733.22 930.82 723.76 1332.84 723.76 1332.84 734.45 1334.07 734.45 1334.07 733.22 1334.07 734.45 1335.3 734.45 1335.3 721.3 928.37 721.3 928.37 735.68 1335.3 735.68 1335.3 734.45 1334.07 734.45"/>
    <polygon class="cls-1" points="1323.99 746.37 1323.99 745.14 942.86 745.14 942.86 735.68 1322.76 735.68 1322.76 746.37 1323.99 746.37 1323.99 745.14 1323.99 746.37 1325.22 746.37 1325.22 733.22 940.4 733.22 940.4 747.6 1325.22 747.6 1325.22 746.37 1323.99 746.37"/>
    <polygon class="cls-1" points="1323.99 795.13 1323.99 793.91 942.86 793.91 942.86 781.23 1322.76 781.23 1322.76 795.13 1323.99 795.13 1323.99 793.91 1323.99 795.13 1325.22 795.13 1325.22 778.78 940.4 778.78 940.4 796.36 1325.22 796.36 1325.22 795.13 1323.99 795.13"/>
    <polygon class="cls-1" points="1334.07 758.29 1334.07 757.06 930.82 757.06 930.82 747.59 1332.84 747.59 1332.84 758.29 1334.07 758.29 1334.07 757.06 1334.07 758.29 1335.3 758.29 1335.3 745.14 928.37 745.14 928.37 759.51 1335.3 759.51 1335.3 758.29 1334.07 758.29"/>
    <polygon class="cls-1" points="1328.1 780.01 1328.1 778.78 936.68 778.78 936.68 759.51 1326.88 759.51 1326.88 780.01 1328.1 780.01 1328.1 778.78 1328.1 780.01 1329.33 780.01 1329.33 757.06 934.23 757.06 934.23 781.23 1329.33 781.23 1329.33 780.01 1328.1 780.01"/>
    <polygon class="cls-1" points="1262.8 677.05 1262.8 675.82 1005.58 675.82 1005.58 651.93 1261.58 651.93 1261.58 677.05 1262.8 677.05 1262.8 675.82 1262.8 677.05 1264.03 677.05 1264.03 649.47 1003.12 649.47 1003.12 678.28 1264.03 678.28 1264.03 677.05 1262.8 677.05"/>
    <polygon class="cls-1" points="1316.44 722.53 1316.44 721.3 950.37 721.3 950.37 678.28 1315.21 678.28 1315.21 722.53 1316.44 722.53 1316.44 721.3 1316.44 722.53 1317.67 722.53 1317.67 675.82 947.92 675.82 947.92 723.76 1317.67 723.76 1317.67 722.53 1316.44 722.53"/>
    <polygon class="cls-1" points="1091.58 638.1 1092.24 639.14 1132.79 613.41 1169.19 636.88 1091.58 636.88 1091.58 638.1 1092.24 639.14 1091.58 638.1 1091.58 639.33 1177.54 639.33 1132.8 610.5 1087.35 639.33 1091.58 639.33 1091.58 638.1"/>
    <path class="cls-1" d="M948.6,795.13h-1.23v313.26h130.03v-225.24h-1.23l1.2,.24c5.4-26.68,28.83-45.99,55.69-45.99,.1,0,.19,0,.27,0h.01c26.95,.14,50.31,19.68,55.5,46.48l1.21-.23h-1.23v225.23h130.03v-314.48h-1.23c-123.01-.17-246.03-.33-369.04-.49h-1.23s0,1.23,0,1.23h1.23v1.23c123.01,.16,246.02,.33,369.04,.49v-1.23s-1.23,0-1.23,0v312.03h1.23v-1.23h-127.58v1.23h1.23v-224.12l-.02-.12c-5.41-27.94-29.75-48.32-57.9-48.47v1.23s.01-1.23,.01-1.23c-.12,0-.22,0-.31,0-28.05,0-52.46,20.14-58.1,47.96l-.02,.12v224.14h1.23v-1.23h-127.57v1.23h1.23v-312.03h-1.23v1.23s0-1.23,0-1.23Z"/>
    <polygon class="cls-1" points="1328.1 918.51 1328.1 917.28 1204.94 917.28 1204.94 903.44 1326.88 903.44 1326.88 918.51 1328.1 918.51 1328.1 917.28 1328.1 918.51 1329.33 918.51 1329.33 900.98 1202.48 900.98 1202.48 919.74 1329.33 919.74 1329.33 918.51 1328.1 918.51"/>
    <polygon class="cls-1" points="1062.3 918.51 1062.3 917.28 939.14 917.28 939.14 903.44 1061.07 903.44 1061.07 918.51 1062.3 918.51 1062.3 917.28 1062.3 918.51 1063.53 918.51 1063.53 900.98 936.68 900.98 936.68 919.74 1063.53 919.74 1063.53 918.51 1062.3 918.51"/>
    <polygon class="cls-1" points="1029.99 902.21 1029.99 900.98 982.85 900.98 982.85 869.15 1028.76 869.15 1028.76 902.21 1029.99 902.21 1029.99 900.98 1029.99 902.21 1031.21 902.21 1031.21 866.69 980.39 866.69 980.39 903.44 1031.21 903.44 1031.21 902.21 1029.99 902.21"/>
    <polygon class="cls-1" points="1285.11 902.21 1285.11 900.98 1237.98 900.98 1237.98 869.15 1283.88 869.15 1283.88 902.21 1285.11 902.21 1285.11 900.98 1285.11 902.21 1286.34 902.21 1286.34 866.69 1235.52 866.69 1235.52 903.44 1286.34 903.44 1286.34 902.21 1285.11 902.21"/>
    <polygon class="cls-1" points="1285.11 1020.75 1285.11 1019.52 1237.98 1019.52 1237.98 940.36 1283.88 940.36 1283.88 1020.75 1285.11 1020.75 1285.11 1019.52 1285.11 1020.75 1286.34 1020.75 1286.34 937.91 1235.52 937.91 1235.52 1021.98 1286.34 1021.98 1286.34 1020.75 1285.11 1020.75"/>
    <polygon class="cls-1" points="1029.99 1020.75 1029.99 1019.52 982.85 1019.52 982.85 940.36 1028.76 940.36 1028.76 1020.75 1029.99 1020.75 1029.99 1019.52 1029.99 1020.75 1031.21 1020.75 1031.21 937.91 980.39 937.91 980.39 1021.98 1031.21 1021.98 1031.21 1020.75 1029.99 1020.75"/>
    <path class="cls-1" d="M1063,1107.16v-224.92h-1.23l1.22,.18c5.11-34.75,34.9-60.64,69.17-60.9,.18,0,.36,0,.53,0,35.51,0,66.28,27.56,70.1,63.83l1.22-.13h-1.23v223.71h2.46c0-72.52,0-151.19,0-223.71v-.13c-3.97-37.52-35.76-66.02-72.55-66.03-.19,0-.37,0-.55,0-35.51,.28-66.29,27.05-71.58,63v.09s-.01,.09-.01,.09v224.92h2.46Z"/>
    <polyline class="cls-1" points="983.13 919.7 996.77 919.7 996.77 917.24 983.13 917.24"/>
    <polyline class="cls-1" points="1190.06 919.7 1203.71 919.7 1203.71 917.24 1190.06 917.24"/>
    <path class="cls-1" d="M986.43,835.33h1.23c0-5.01,2.03-9.54,5.31-12.83,3.29-3.29,7.82-5.31,12.83-5.31,5.01,0,9.54,2.03,12.83,5.31,3.29,3.29,5.31,7.82,5.31,12.83,0,5.01-2.03,9.54-5.31,12.83-3.29,3.29-7.82,5.31-12.83,5.31-5.01,0-9.54-2.03-12.83-5.31-3.29-3.29-5.31-7.82-5.31-12.83h-2.46c0,11.38,9.22,20.6,20.6,20.6,11.38,0,20.6-9.22,20.6-20.6,0-11.38-9.22-20.6-20.6-20.6-11.38,0-20.6,9.22-20.6,20.6h1.23Z"/>
    <path class="cls-1" d="M1241.56,835.33h1.23c0-5.01,2.03-9.54,5.31-12.83,3.29-3.29,7.82-5.31,12.83-5.31,5.01,0,9.54,2.03,12.83,5.31,3.29,3.29,5.31,7.82,5.31,12.83,0,5.01-2.03,9.54-5.31,12.83-3.29,3.29-7.82,5.31-12.83,5.31-5.01,0-9.54-2.03-12.83-5.31-3.29-3.29-5.31-7.82-5.31-12.83h-2.46c0,11.38,9.22,20.6,20.6,20.6,11.38,0,20.6-9.22,20.6-20.6,0-11.38-9.22-20.6-20.6-20.6-11.38,0-20.6,9.22-20.6,20.6h1.23Z"/>
    <polyline class="cls-1" points="1204.21 1042.76 1318.31 1042.76 1318.31 1040.3 1204.21 1040.3"/>
    <polyline class="cls-1" points="948.75 1042.76 1062.86 1042.76 1062.86 1040.3 948.75 1040.3"/>
  </g>
  <g>
    <polygon class="cls-1" points="1919.04 1036.18 1919.04 1035.22 1336.88 1035.22 1336.88 1027.33 1918.08 1027.33 1918.08 1036.18 1919.04 1036.18 1919.04 1035.22 1919.04 1036.18 1920 1036.18 1920 1025.42 1334.97 1025.42 1334.97 1037.14 1920 1037.14 1920 1036.18 1919.04 1036.18"/>
    <polygon class="cls-1" points="1913.12 1045.98 1913.12 1045.03 1342.8 1045.03 1342.8 1037.14 1912.16 1037.14 1912.17 1045.98 1913.12 1045.98 1913.12 1045.03 1913.12 1045.98 1914.08 1045.98 1914.08 1035.22 1340.89 1035.22 1340.89 1046.94 1914.08 1046.94 1914.08 1045.98 1913.12 1045.98"/>
    <polygon class="cls-1" points="1919.04 1055.79 1919.04 1054.83 1336.88 1054.83 1336.88 1046.94 1918.08 1046.94 1918.08 1055.79 1919.04 1055.79 1919.04 1054.83 1919.04 1055.79 1920 1055.79 1920 1045.03 1334.97 1045.03 1334.97 1056.74 1920 1056.74 1920 1055.79 1919.04 1055.79"/>
    <polygon class="cls-1" points="1913.12 1065.59 1913.12 1064.63 1342.8 1064.63 1342.8 1056.74 1912.16 1056.74 1912.17 1065.59 1913.12 1065.59 1913.12 1064.63 1913.12 1065.59 1914.08 1065.59 1914.08 1054.83 1340.89 1054.83 1340.89 1066.55 1914.08 1066.55 1914.08 1065.59 1913.12 1065.59"/>
    <path class="cls-1" d="M1414.61,1026.38h.96c.24-16.46,2.84-44.73,17.04-74.36,24.2-50.51,65.83-73.34,80.38-80.46l-.42-.86h-.96v155.69h.96v-.96c-6.9-.05-13.8-.07-20.7-.07-18.86,0-37.71,.15-56.56,.15-6.9,0-13.8-.02-20.69-.07v.96s.95,.01,.95,.01h-.96s0,.94,0,.94c6.9,.05,13.81,.07,20.71,.07,18.86,0,37.71-.15,56.56-.15,6.9,0,13.8,.02,20.69,.07h.97s0-.96,0-.96v-157.22l-1.38,.68c-14.72,7.21-56.79,30.26-81.27,81.36-14.36,29.98-16.99,58.53-17.23,75.18v.96s.95,0,.95,0v-.96Z"/>
    <path class="cls-1" d="M1513.45,906.08c6.43-15.3,21.13-40.82,42.04-63.24,17.68-18.95,35.79-31.14,49.15-38.68l-.47-.83h-.96v13.76h1.92c0-4.59,0-9.17,0-13.76v-1.64l-1.43,.81c-13.49,7.61-31.77,19.91-49.61,39.04-21.1,22.62-35.87,48.26-42.41,63.8l1.77,.74h0Z"/>
    <path class="cls-1" d="M1531.88,1026.38l.96-.06c-.26-4.35-.45-9.62-.45-15.65,0-29.99,4.63-78.69,27.58-126.14,19.23-39.75,44.36-66.68,61.79-82.54l-.64-.71h-.96v224.49h.96l-.02-.96c-21.99,.45-45.44,.71-67.03,.71-7.68,0-15.12-.03-22.18-.1v.96s.95-.06,.95-.06l-.96,.06v.96c7.05,.07,14.5,.1,22.19,.1,21.6,0,45.07-.26,67.07-.71l.94-.02v-227.6l-1.6,1.46c-17.55,15.96-42.86,43.08-62.23,83.12-23.13,47.83-27.77,96.8-27.77,126.98,0,6.07,.19,11.38,.45,15.77l.05,.89h.89s0-.95,0-.95Z"/>
    <path class="cls-1" d="M1571.44,859.03c11.2,14.5,22.36,30.51,32.8,54.41,3.39,7.77,6.32,18.6,8.77,29.08,2.46,10.48,4.44,20.61,6.01,27.09l1.86-.45c-1.55-6.4-3.55-16.55-6.01-27.07-2.47-10.53-5.4-21.42-8.88-29.41-10.51-24.07-21.79-40.26-33.04-54.81l-1.52,1.17h0Z"/>
    <path class="cls-1" d="M1547.29,1026.67c14.64-10.33,29.64-21.45,44.88-33.44,9.85-7.75,19.32-15.47,28.4-23.13l-1.23-1.46c-9.07,7.65-18.52,15.35-28.35,23.09-15.21,11.96-30.18,23.07-44.8,33.38l1.1,1.57h0Z"/>
    <path class="cls-1" d="M1427.62,962.83c12.58,1.64,31.29,5.72,51.51,16.71,14.27,7.75,25.09,16.66,32.76,24.06l1.33-1.38c-7.77-7.49-18.73-16.52-33.18-24.36-20.49-11.13-39.44-15.26-52.18-16.92l-.25,1.9h0Z"/>
    <path class="cls-1" d="M1417.88,995.07c-6.62-2.96-15.81-6.27-27.16-8.1-6.39-1.03-12.27-1.39-17.42-1.39-2.77,0-5.33,.1-7.65,.27l-3.02,.21,2.59,1.57c6.09,3.68,15.62,10.59,23.16,22.22,3.65,5.63,5.94,12.35,7.45,16.9l1.82-.6c-1.52-4.57-3.84-11.44-7.66-17.34-7.75-11.96-17.54-19.05-23.78-22.82l-.5,.82,.07,.96c2.28-.16,4.8-.26,7.52-.26,5.06,0,10.83,.36,17.12,1.37,11.15,1.8,20.19,5.05,26.68,7.96l.78-1.75h0Z"/>
    <path class="cls-1" d="M1842.09,1026.38h.96c-.24-16.66-2.86-45.21-17.23-75.19-24.48-51.09-66.55-74.15-81.27-81.36l-1.38-.68v158.19h.97c6.9-.06,13.79-.08,20.69-.08,18.85,0,37.7,.15,56.56,.15,6.9,0,13.81-.02,20.71-.07h.96s-.01-.97-.01-.97h-.96s0-.94,0-.94c-6.9,.05-13.8,.07-20.69,.07-18.85,0-37.7-.15-56.56-.15-6.9,0-13.81,.02-20.71,.07v.96h.97v-155.69h-.96l-.42,.86c14.56,7.13,56.19,29.95,80.38,80.46,14.2,29.64,16.8,57.9,17.04,74.38h.96s0-.97,0-.97v.96Z"/>
    <path class="cls-1" d="M1745.01,905.34c-6.54-15.54-21.31-41.18-42.41-63.8-17.84-19.13-36.12-31.43-49.61-39.04l-1.43-.81v15.4h1.92c0-4.59,0-9.17,0-13.76h-.96l-.47,.83c13.36,7.54,31.48,19.73,49.15,38.68,20.91,22.41,35.61,47.93,42.04,63.24l1.77-.74h0Z"/>
    <path class="cls-1" d="M1724.81,1026.38l.96,.06c.26-4.39,.45-9.7,.45-15.76,0-30.18-4.64-79.15-27.77-126.98-19.37-40.04-44.68-67.16-62.23-83.12l-1.6-1.46v227.6l.94,.02c22,.45,45.47,.71,67.07,.71,7.69,0,15.13-.03,22.2-.1h.89s.05-.9,.05-.9l-.96-.06v-.96c-7.07,.07-14.51,.1-22.19,.1-21.59,0-45.04-.26-67.03-.71l-.02,.96h.96v-224.49h-.96l-.64,.71c17.43,15.85,42.57,42.78,61.79,82.54,22.95,47.45,27.58,96.16,27.58,126.14,0,6.03-.19,11.3-.45,15.65l.96,.06v-.96s0,.96,0,.96Z"/>
    <path class="cls-1" d="M1683.74,857.85c-11.25,14.55-22.53,30.74-33.04,54.81-3.49,7.99-6.42,18.88-8.88,29.41-2.46,10.52-4.46,20.68-6.01,27.07l1.86,.45c1.57-6.48,3.56-16.61,6.01-27.09,2.45-10.48,5.38-21.31,8.77-29.08,10.44-23.9,21.59-39.91,32.8-54.41l-1.52-1.17h0Z"/>
    <path class="cls-1" d="M1710.51,1025.11c-14.61-10.31-29.58-21.42-44.8-33.38-9.83-7.73-19.28-15.44-28.35-23.09l-1.23,1.47c9.09,7.66,18.55,15.38,28.4,23.13,15.24,11.98,30.24,23.11,44.88,33.44l1.1-1.56h0Z"/>
    <path class="cls-1" d="M1828.82,960.93c-12.74,1.66-31.69,5.79-52.18,16.92-14.45,7.85-25.41,16.87-33.18,24.36l1.33,1.38c7.67-7.4,18.5-16.31,32.76-24.06,20.22-10.99,38.93-15.06,51.51-16.71l-.25-1.9h0Z"/>
    <path class="cls-1" d="M1839.6,996.82c6.5-2.9,15.53-6.16,26.68-7.96,6.28-1.01,12.05-1.37,17.12-1.37,2.72,0,5.24,.1,7.52,.26l.07-.96-.5-.82c-6.24,3.77-16.03,10.86-23.78,22.82-3.82,5.9-6.14,12.77-7.66,17.34l1.82,.6c1.5-4.55,3.79-11.28,7.45-16.9,7.54-11.63,17.08-18.55,23.16-22.22l2.59-1.57-3.02-.21c-2.32-.16-4.88-.27-7.65-.27-5.15,0-11.03,.36-17.42,1.39-11.35,1.83-20.55,5.14-27.16,8.1l.78,1.75h0Z"/>
    <path class="cls-1" d="M1621.52,822.67h13.36v-1.91h-12.59c-.26,0-.51,0-.77,0v1.92h0Z"/>
    <polygon class="cls-1" points="1894.28 1099.27 1894.28 1098.31 1361.65 1098.31 1361.65 1066.55 1893.32 1066.55 1893.32 1099.27 1894.28 1099.27 1894.28 1098.31 1894.28 1099.27 1895.24 1099.27 1895.24 1064.63 1359.73 1064.63 1359.73 1100.22 1895.24 1100.22 1895.24 1099.27 1894.28 1099.27"/>
    <polygon class="cls-1" points="1822.99 1099.27 1822.99 1098.31 1745.09 1098.31 1745.09 1066.55 1822.03 1066.55 1822.03 1099.27 1822.99 1099.27 1822.99 1098.31 1822.99 1099.27 1823.95 1099.27 1823.95 1064.63 1743.17 1064.63 1743.17 1100.22 1823.95 1100.22 1823.95 1099.27 1822.99 1099.27"/>
    <polygon class="cls-1" points="1666.92 1099.27 1666.92 1098.31 1589.01 1098.31 1589.01 1066.55 1665.96 1066.55 1665.96 1099.27 1666.92 1099.27 1666.92 1098.31 1666.92 1099.27 1667.87 1099.27 1667.87 1064.63 1587.09 1064.63 1587.09 1100.22 1667.87 1100.22 1667.87 1099.27 1666.92 1099.27"/>
    <polygon class="cls-1" points="1509.59 1099.27 1509.59 1098.31 1431.68 1098.31 1431.68 1066.55 1508.63 1066.55 1508.63 1099.27 1509.59 1099.27 1509.59 1098.31 1509.59 1099.27 1510.55 1099.27 1510.55 1064.63 1429.77 1064.63 1429.77 1100.22 1510.55 1100.22 1510.55 1099.27 1509.59 1099.27"/>
  </g>
</svg>