<?xml version="1.0" encoding="UTF-8"?>
<svg id="Layer_1" data-name="Layer 1" xmlns="http://www.w3.org/2000/svg" viewBox="0 0 1920 1080">
  <defs>
    <style>
      .cls-1 {
        fill: #ebc848;
      }
    </style>
  </defs>
  <g>
    <g>
      <polygon class="cls-1" points="1333.24 650.29 1333.24 649.12 1299.47 649.12 1299.47 634.93 1332.07 634.93 1332.07 650.29 1333.24 650.29 1333.24 649.12 1333.24 650.29 1334.41 650.29 1334.41 632.59 1297.13 632.59 1297.13 651.46 1334.41 651.46 1334.41 650.29 1333.24 650.29"/>
      <polygon class="cls-1" points="1322.58 670.42 1322.58 669.25 1310.13 669.25 1310.13 626.8 1321.4 626.8 1321.4 670.42 1322.58 670.42 1322.58 669.25 1322.58 670.42 1323.75 670.42 1323.75 624.46 1307.79 624.46 1307.79 671.59 1323.75 671.59 1323.75 670.42 1322.58 670.42"/>
      <polygon class="cls-1" points="1243.76 650.29 1243.76 649.12 1209.99 649.12 1209.99 634.93 1242.59 634.93 1242.59 650.29 1243.76 650.29 1243.76 649.12 1243.76 650.29 1244.93 650.29 1244.93 632.59 1207.65 632.59 1207.65 651.46 1244.93 651.46 1244.93 650.29 1243.76 650.29"/>
      <polygon class="cls-1" points="1233.1 670.42 1233.1 669.25 1220.66 669.25 1220.66 626.8 1231.93 626.8 1231.93 670.42 1233.1 670.42 1233.1 669.25 1233.1 670.42 1234.27 670.42 1234.27 624.46 1218.31 624.46 1218.31 671.59 1234.27 671.59 1234.27 670.42 1233.1 670.42"/>
      <polygon class="cls-1" points="1154.29 650.29 1154.29 649.12 1120.52 649.12 1120.52 634.93 1153.11 634.93 1153.11 650.29 1154.29 650.29 1154.29 649.12 1154.29 650.29 1155.46 650.29 1155.46 632.59 1118.17 632.59 1118.17 651.46 1155.46 651.46 1155.46 650.29 1154.29 650.29"/>
      <polygon class="cls-1" points="1143.62 670.42 1143.62 669.25 1131.18 669.25 1131.18 626.8 1142.45 626.8 1142.45 670.42 1143.62 670.42 1143.62 669.25 1143.62 670.42 1144.8 670.42 1144.8 624.46 1128.84 624.46 1128.84 671.59 1144.8 671.59 1144.8 670.42 1143.62 670.42"/>
      <polygon class="cls-1" points="1064.81 650.29 1064.81 649.12 1031.04 649.12 1031.04 634.93 1063.64 634.93 1063.64 650.29 1064.81 650.29 1064.81 649.12 1064.81 650.29 1065.98 650.29 1065.98 632.59 1028.7 632.59 1028.7 651.46 1065.98 651.46 1065.98 650.29 1064.81 650.29"/>
      <polygon class="cls-1" points="1054.15 670.42 1054.15 669.25 1041.7 669.25 1041.7 626.8 1052.97 626.8 1052.97 670.42 1054.15 670.42 1054.15 669.25 1054.15 670.42 1055.32 670.42 1055.32 624.46 1039.36 624.46 1039.36 671.59 1055.32 671.59 1055.32 670.42 1054.15 670.42"/>
      <polygon class="cls-1" points="975.33 650.29 975.33 649.12 941.56 649.12 941.56 634.93 974.16 634.93 974.16 650.29 975.33 650.29 975.33 649.12 975.33 650.29 976.5 650.29 976.5 632.59 939.22 632.59 939.22 651.46 976.5 651.46 976.5 650.29 975.33 650.29"/>
      <polygon class="cls-1" points="964.67 670.42 964.67 669.25 952.23 669.25 952.23 626.8 963.5 626.8 963.5 670.42 964.67 670.42 964.67 669.25 964.67 670.42 965.84 670.42 965.84 624.46 949.88 624.46 949.88 671.59 965.84 671.59 965.84 670.42 964.67 670.42"/>
      <polygon class="cls-1" points="1007.08 1004.54 1007.08 1003.37 987.65 1003.37 987.65 939.01 1005.91 939.01 1005.91 1004.54 1007.08 1004.54 1007.08 1003.37 1007.08 1004.54 1008.25 1004.54 1008.25 936.67 985.3 936.67 985.3 1005.71 1008.25 1005.71 1008.25 1004.54 1007.08 1004.54"/>
      <polygon class="cls-1" points="1080.63 1004.54 1080.63 1003.37 1061.2 1003.37 1061.2 939.01 1079.46 939.01 1079.46 1004.54 1080.63 1004.54 1080.63 1003.37 1080.63 1004.54 1081.8 1004.54 1081.8 936.67 1058.86 936.67 1058.86 1005.71 1081.8 1005.71 1081.8 1004.54 1080.63 1004.54"/>
      <polygon class="cls-1" points="1154.19 1004.54 1154.19 1003.37 1134.76 1003.37 1134.76 939.01 1153.02 939.01 1153.02 1004.54 1154.19 1004.54 1154.19 1003.37 1154.19 1004.54 1155.36 1004.54 1155.36 936.67 1132.41 936.67 1132.41 1005.71 1155.36 1005.71 1155.36 1004.54 1154.19 1004.54"/>
      <polygon class="cls-1" points="1301.3 1004.54 1301.3 1003.37 1281.87 1003.37 1281.87 939.01 1300.12 939.01 1300.12 1004.54 1301.3 1004.54 1301.3 1003.37 1301.3 1004.54 1302.47 1004.54 1302.47 936.67 1279.52 936.67 1279.52 1005.71 1302.47 1005.71 1302.47 1004.54 1301.3 1004.54"/>
      <polygon class="cls-1" points="1226.29 1004.54 1226.29 1003.37 1206.86 1003.37 1206.86 939.01 1225.12 939.01 1225.12 1004.54 1226.29 1004.54 1226.29 1003.37 1226.29 1004.54 1227.46 1004.54 1227.46 936.67 1204.51 936.67 1204.51 1005.71 1227.46 1005.71 1227.46 1004.54 1226.29 1004.54"/>
      <path class="cls-1" d="M957.12,920.02l1,.61c.43-.71,3.77-5.97,9.94-11.13,6.17-5.16,15.13-10.2,26.9-10.62,.53-.02,1.06-.03,1.59-.03,15.81,0,30.64,8.51,38.88,22.38l1.01-.6h-1.17c0,35.73,0,71.47,0,107.2h1.17v-1.17c-26.44,0-52.87,0-79.31,0v1.17h1.17v-107.82h-1.17l1,.61-1-.61h-1.17c0,35.94,0,71.88,0,107.82v1.17h81.66v-108.69l-.16-.28c-8.65-14.58-24.24-23.53-40.89-23.53-.56,0-1.11,0-1.67,.03-12.42,.45-21.88,5.78-28.32,11.17-6.45,5.39-9.91,10.85-10.43,11.7l-.17,.28v.33h1.17Z"/>
      <path class="cls-1" d="M1251.34,920.02l1,.61c.43-.71,3.77-5.97,9.94-11.13,6.17-5.16,15.13-10.2,26.9-10.62,.53-.02,1.06-.03,1.59-.03,15.81,0,30.64,8.51,38.88,22.38l1.01-.6h-1.17c0,35.73,0,71.47,0,107.2h1.17v-1.17c-26.44,0-52.87,0-79.31,0v1.17h1.17v-107.82h-1.17l1,.61-1-.61h-1.17c0,35.94,0,71.88,0,107.82v1.17h81.66v-108.69l-.16-.28c-8.65-14.58-24.24-23.53-40.89-23.53-.56,0-1.11,0-1.67,.03-12.42,.45-21.88,5.78-28.32,11.17-6.45,5.39-9.91,10.85-10.43,11.7l-.17,.28v.33h1.17Z"/>
      <path class="cls-1" d="M1104.23,920.02l1,.61c.43-.71,3.77-5.97,9.94-11.13,6.17-5.16,15.13-10.2,26.9-10.62,.53-.02,1.06-.03,1.59-.03,15.81,0,30.64,8.51,38.88,22.38l1.01-.6h-1.17c0,35.73,0,71.47,0,107.2h1.17v-1.17c-26.44,0-52.87,0-79.31,0v1.17h1.17v-107.82h-1.17l1,.61-1-.61h-1.17c0,35.94,0,71.88,0,107.82v1.17h81.66v-108.69l-.16-.28c-8.65-14.58-24.24-23.53-40.89-23.53-.56,0-1.11,0-1.67,.03-12.42,.45-21.88,5.78-28.32,11.17-6.45,5.39-9.91,10.85-10.43,11.7l-.17,.28v.33h1.17Z"/>
      <polygon class="cls-1" points="1007.08 819.6 1007.08 818.43 987.65 818.43 987.65 754.07 1005.91 754.07 1005.91 819.6 1007.08 819.6 1007.08 818.43 1007.08 819.6 1008.25 819.6 1008.25 751.73 985.3 751.73 985.3 820.78 1008.25 820.78 1008.25 819.6 1007.08 819.6"/>
      <polygon class="cls-1" points="1080.63 819.6 1080.63 818.43 1061.2 818.43 1061.2 754.07 1079.46 754.07 1079.46 819.6 1080.63 819.6 1080.63 818.43 1080.63 819.6 1081.8 819.6 1081.8 751.73 1058.86 751.73 1058.86 820.78 1081.8 820.78 1081.8 819.6 1080.63 819.6"/>
      <polygon class="cls-1" points="1154.19 819.6 1154.19 818.43 1134.76 818.43 1134.76 754.07 1153.02 754.07 1153.02 819.6 1154.19 819.6 1154.19 818.43 1154.19 819.6 1155.36 819.6 1155.36 751.73 1132.41 751.73 1132.41 820.78 1155.36 820.78 1155.36 819.6 1154.19 819.6"/>
      <polygon class="cls-1" points="1301.3 819.6 1301.3 818.43 1281.87 818.43 1281.87 754.07 1300.12 754.07 1300.12 819.6 1301.3 819.6 1301.3 818.43 1301.3 819.6 1302.47 819.6 1302.47 751.73 1279.52 751.73 1279.52 820.78 1302.47 820.78 1302.47 819.6 1301.3 819.6"/>
      <polygon class="cls-1" points="1226.29 819.6 1226.29 818.43 1206.86 818.43 1206.86 754.07 1225.12 754.07 1225.12 819.6 1226.29 819.6 1226.29 818.43 1226.29 819.6 1227.46 819.6 1227.46 751.73 1204.51 751.73 1204.51 820.78 1227.46 820.78 1227.46 819.6 1226.29 819.6"/>
      <polygon class="cls-1" points="1358.96 1092.11 1358.96 1090.94 917.19 1090.94 917.19 672.04 1357.78 672.04 1357.78 1092.11 1358.96 1092.11 1358.96 1090.94 1358.96 1092.11 1360.13 1092.11 1360.13 669.7 914.85 669.7 914.85 1093.29 1360.13 1093.29 1360.13 1092.11 1358.96 1092.11"/>
      <polygon class="cls-1" points="1262.96 1092.11 1262.96 1090.94 1020.93 1090.94 1020.93 1080.19 1261.79 1080.19 1261.79 1092.11 1262.96 1092.11 1262.96 1090.94 1262.96 1092.11 1264.13 1092.11 1264.13 1077.85 1018.59 1077.85 1018.59 1093.29 1264.13 1093.29 1264.13 1092.11 1262.96 1092.11"/>
      <polygon class="cls-1" points="1253.36 1079.02 1253.36 1077.85 1028.37 1077.85 1028.37 1067.1 1252.18 1067.1 1252.18 1079.02 1253.36 1079.02 1253.36 1077.85 1253.36 1079.02 1254.53 1079.02 1254.53 1064.75 1026.03 1064.75 1026.03 1080.19 1254.53 1080.19 1254.53 1079.02 1253.36 1079.02"/>
      <polygon class="cls-1" points="1243.13 1065.93 1243.13 1064.75 1037.6 1064.75 1037.6 1054 1241.96 1054 1241.96 1065.93 1243.13 1065.93 1243.13 1064.75 1243.13 1065.93 1244.31 1065.93 1244.31 1051.66 1035.26 1051.66 1035.26 1067.1 1244.31 1067.1 1244.31 1065.93 1243.13 1065.93"/>
      <polygon class="cls-1" points="1227.95 1052.83 1227.95 1051.66 1054.7 1051.66 1054.7 1040.91 1226.78 1040.91 1226.78 1052.83 1227.95 1052.83 1227.95 1051.66 1227.95 1052.83 1229.13 1052.83 1229.13 1038.56 1052.36 1038.56 1052.36 1054 1229.13 1054 1229.13 1052.83 1227.95 1052.83"/>
      <polygon class="cls-1" points="1366.83 1039.74 1366.83 1038.56 910.02 1038.56 910.02 1029.01 1365.66 1029.01 1365.66 1039.74 1366.83 1039.74 1366.83 1038.56 1366.83 1039.74 1368 1039.74 1368 1026.67 907.67 1026.67 907.67 1040.91 1368 1040.91 1368 1039.74 1366.83 1039.74"/>
      <polygon class="cls-1" points="1366.83 862.18 1366.83 861.01 910.02 861.01 910.02 844.07 1365.66 844.07 1365.66 862.18 1366.83 862.18 1366.83 861.01 1366.83 862.18 1368 862.18 1368 841.73 907.67 841.73 907.67 863.35 1368 863.35 1368 862.18 1366.83 862.18"/>
      <polygon class="cls-1" points="1349.58 696.8 1349.58 695.62 925.23 695.62 925.23 691.32 1348.4 691.32 1348.4 696.8 1349.58 696.8 1349.58 695.62 1349.58 696.8 1350.75 696.8 1350.75 688.98 922.88 688.98 922.88 697.97 1350.75 697.97 1350.75 696.8 1349.58 696.8"/>
      <polygon class="cls-1" points="1366.83 690.15 1366.83 688.98 910.02 688.98 910.02 672.04 1365.66 672.04 1365.66 690.15 1366.83 690.15 1366.83 688.98 1366.83 690.15 1368 690.15 1368 669.7 907.67 669.7 907.67 691.32 1368 691.32 1368 690.15 1366.83 690.15"/>
      <path class="cls-1" d="M957.12,735.08l1,.61c.43-.71,3.77-5.97,9.94-11.13,6.17-5.16,15.13-10.2,26.9-10.62,.53-.02,1.06-.03,1.59-.03,15.81,0,30.64,8.51,38.88,22.38l1.01-.6h-1.17c0,35.73,0,71.47,0,107.2h1.17v-1.17c-26.44,0-52.87,0-79.31,0v1.17h1.17v-107.82h-1.17l1,.61-1-.61h-1.17c0,35.94,0,71.88,0,107.82v1.17h81.66v-108.7l-.16-.28c-8.65-14.58-24.24-23.53-40.89-23.53-.56,0-1.11,0-1.67,.03-12.42,.45-21.88,5.78-28.32,11.17-6.45,5.39-9.91,10.85-10.43,11.7l-.17,.28v.33h1.17Z"/>
      <path class="cls-1" d="M1251.34,735.08l1,.61c.43-.71,3.77-5.97,9.94-11.13,6.17-5.16,15.13-10.2,26.9-10.62,.53-.02,1.06-.03,1.59-.03,15.81,0,30.64,8.51,38.88,22.38l1.01-.6h-1.17c0,35.73,0,71.47,0,107.2h1.17v-1.17c-26.44,0-52.87,0-79.31,0v1.17h1.17v-107.82h-1.17l1,.61-1-.61h-1.17c0,35.94,0,71.88,0,107.82v1.17h81.66v-108.7l-.16-.28c-8.65-14.58-24.24-23.53-40.89-23.53-.56,0-1.11,0-1.67,.03-12.42,.45-21.88,5.78-28.32,11.17-6.45,5.39-9.91,10.85-10.43,11.7l-.17,.28v.33h1.17Z"/>
      <path class="cls-1" d="M1104.23,735.08l1,.61c.43-.71,3.77-5.97,9.94-11.13,6.17-5.16,15.13-10.2,26.9-10.62,.53-.02,1.06-.03,1.59-.03,15.81,0,30.64,8.51,38.88,22.38l1.01-.6h-1.17c0,35.73,0,71.47,0,107.2h1.17v-1.17c-26.44,0-52.87,0-79.31,0v1.17h1.17v-107.82h-1.17l1,.61-1-.61h-1.17c0,35.94,0,71.88,0,107.82v1.17h81.66v-108.7l-.16-.28c-8.65-14.58-24.24-23.53-40.89-23.53-.56,0-1.11,0-1.67,.03-12.42,.45-21.88,5.78-28.32,11.17-6.45,5.39-9.91,10.85-10.43,11.7l-.17,.28v.33h1.17Z"/>
    </g>
    <g>
      <polygon class="cls-1" points="585.94 922.14 585.94 921 1.73 921 1.73 909.83 584.79 909.83 584.79 922.14 585.94 922.14 585.94 921 585.94 922.14 587.08 922.14 587.08 907.53 -.57 907.53 -.57 923.29 587.08 923.29 587.08 922.14 585.94 922.14"/>
      <path class="cls-1" d="M421.71,908.68v-1.15H167.23v-16.89c0-13.67,5.54-26.03,14.49-34.98,8.96-8.95,21.32-14.49,34.98-14.49h154.39c13.67,0,26.03,5.54,34.98,14.49,8.95,8.96,14.49,21.32,14.49,34.98v18.04h1.15v0h1.15v-18.04c0-28.59-23.18-51.77-51.77-51.77H216.7c-28.59,0-51.77,23.18-51.77,51.77v19.19H422.86v-1.15h-1.15Z"/>
      <path class="cls-1" d="M566.56,908.68v-1.15h-136.17v-16.89c0-13.67,5.54-26.03,14.49-34.98,8.96-8.95,21.32-14.49,34.98-14.49h36.08c13.67,0,26.03,5.54,34.98,14.49,8.95,8.96,14.49,21.32,14.49,34.98v18.04h1.15v0h1.15v-18.04c0-28.59-23.18-51.77-51.77-51.77h-36.08c-28.59,0-51.77,23.18-51.77,51.77v19.19h139.62v-1.15h-1.15Z"/>
      <path class="cls-1" d="M157.46,908.51v-1.15H21.28v-16.89c0-13.67,5.54-26.03,14.49-34.98,8.96-8.95,21.32-14.49,34.98-14.49h36.08c13.67,0,26.03,5.54,34.98,14.49,8.95,8.96,14.49,21.32,14.49,34.98v18.04h1.15v0h1.15v-18.04c0-28.59-23.18-51.77-51.77-51.77h-36.08c-28.59,0-51.77,23.18-51.77,51.77v19.19H158.61v-1.15h-1.15Z"/>
      <polygon class="cls-1" points="162.52 908.68 162.52 778.3 423.77 778.3 423.77 908.68 426.07 908.68 426.07 776.01 160.23 776.01 160.23 908.68 162.52 908.68 162.52 908.68"/>
      <polygon class="cls-1" points="311.18 777.16 311.18 776.01 284.45 776.01 284.45 738.16 310.03 738.16 310.03 777.16 311.18 777.16 311.18 776.01 311.18 777.16 312.33 777.16 312.33 735.87 282.16 735.87 282.16 778.3 312.33 778.3 312.33 777.16 311.18 777.16"/>
      <polygon class="cls-1" points="299.92 737.02 299.92 735.87 292.76 735.87 292.76 714.46 298.77 714.46 298.77 737.02 299.92 737.02 299.92 735.87 299.92 737.02 301.07 737.02 301.07 712.17 290.47 712.17 290.47 738.16 301.07 738.16 301.07 737.02 299.92 737.02"/>
      <polygon class="cls-1" points="275.08 840.02 275.08 838.87 256.67 838.87 256.67 813 273.93 813 273.93 840.02 275.08 840.02 275.08 838.87 275.08 840.02 276.23 840.02 276.23 810.71 254.38 810.71 254.38 841.16 276.23 841.16 276.23 840.02 275.08 840.02"/>
      <polygon class="cls-1" points="267.18 811.86 267.18 810.71 262.5 810.71 262.5 796.37 266.03 796.37 266.03 811.86 267.18 811.86 267.18 810.71 267.18 811.86 268.33 811.86 268.33 794.08 260.21 794.08 260.21 813 268.33 813 268.33 811.86 267.18 811.86"/>
      <polygon class="cls-1" points="307.02 840.02 307.02 838.87 288.61 838.87 288.61 813 305.87 813 305.87 840.02 307.02 840.02 307.02 838.87 307.02 840.02 308.17 840.02 308.17 810.71 286.32 810.71 286.32 841.16 308.17 841.16 308.17 840.02 307.02 840.02"/>
      <polygon class="cls-1" points="299.12 811.86 299.12 810.71 294.44 810.71 294.44 796.37 297.97 796.37 297.97 811.86 299.12 811.86 299.12 810.71 299.12 811.86 300.27 811.86 300.27 794.08 292.14 794.08 292.14 813 300.27 813 300.27 811.86 299.12 811.86"/>
      <polygon class="cls-1" points="337.53 840.02 337.53 838.87 319.12 838.87 319.12 813 336.38 813 336.38 840.02 337.53 840.02 337.53 838.87 337.53 840.02 338.67 840.02 338.67 810.71 316.82 810.71 316.82 841.16 338.67 841.16 338.67 840.02 337.53 840.02"/>
      <polygon class="cls-1" points="329.63 811.86 329.63 810.71 324.95 810.71 324.95 796.37 328.48 796.37 328.48 811.86 329.63 811.86 329.63 810.71 329.63 811.86 330.77 811.86 330.77 794.08 322.65 794.08 322.65 813 330.77 813 330.77 811.86 329.63 811.86"/>
      <polygon class="cls-1" points="54.43 1043.24 54.43 1042.09 21.28 1042.09 21.28 923.29 53.28 923.29 53.28 1043.24 54.43 1043.24 54.43 1042.09 54.43 1043.24 55.58 1043.24 55.58 921 18.99 921 18.99 1044.38 55.58 1044.38 55.58 1043.24 54.43 1043.24"/>
      <polygon class="cls-1" points="45.11 1078.27 45.11 1077.12 30.17 1077.12 30.17 1044.38 43.96 1044.38 43.96 1078.27 45.11 1078.27 45.11 1077.12 45.11 1078.27 46.25 1078.27 46.25 1042.09 27.87 1042.09 27.87 1079.42 46.25 1079.42 46.25 1078.27 45.11 1078.27"/>
      <polygon class="cls-1" points="566.56 1043.24 566.56 1042.09 533.41 1042.09 533.41 923.29 565.41 923.29 565.41 1043.24 566.56 1043.24 566.56 1042.09 566.56 1043.24 567.71 1043.24 567.71 921 531.12 921 531.12 1044.38 567.71 1044.38 567.71 1043.24 566.56 1043.24"/>
      <polygon class="cls-1" points="557.23 1078.27 557.23 1077.12 542.3 1077.12 542.3 1044.38 556.09 1044.38 556.09 1078.27 557.23 1078.27 557.23 1077.12 557.23 1078.27 558.38 1078.27 558.38 1042.09 540 1042.09 540 1079.42 558.38 1079.42 558.38 1078.27 557.23 1078.27"/>
      <polygon class="cls-1" points="174.61 982.69 174.61 981.54 141.46 981.54 141.46 923.29 173.46 923.29 173.46 982.69 174.61 982.69 174.61 981.54 174.61 982.69 175.75 982.69 175.75 921 139.16 921 139.16 983.84 175.75 983.84 175.75 982.69 174.61 982.69"/>
      <polygon class="cls-1" points="165.5 1078.27 165.5 1077.12 150.56 1077.12 150.56 983.84 164.35 983.84 164.35 1078.27 165.5 1078.27 165.5 1077.12 165.5 1078.27 166.65 1078.27 166.65 981.54 148.27 981.54 148.27 1079.42 166.65 1079.42 166.65 1078.27 165.5 1078.27"/>
      <polygon class="cls-1" points="261.34 982.69 261.34 981.54 228.19 981.54 228.19 923.29 260.19 923.29 260.19 982.69 261.34 982.69 261.34 981.54 261.34 982.69 262.49 982.69 262.49 921 225.9 921 225.9 983.84 262.49 983.84 262.49 982.69 261.34 982.69"/>
      <polygon class="cls-1" points="252.23 1078.27 252.23 1077.12 237.3 1077.12 237.3 983.84 251.09 983.84 251.09 1078.27 252.23 1078.27 252.23 1077.12 252.23 1078.27 253.38 1078.27 253.38 981.54 235 981.54 235 1079.42 253.38 1079.42 253.38 1078.27 252.23 1078.27"/>
      <polygon class="cls-1" points="365.93 982.69 365.93 981.54 332.78 981.54 332.78 923.29 364.78 923.29 364.78 982.69 365.93 982.69 365.93 981.54 365.93 982.69 367.08 982.69 367.08 921 330.49 921 330.49 983.84 367.08 983.84 367.08 982.69 365.93 982.69"/>
      <polygon class="cls-1" points="356.83 1078.27 356.83 1077.12 341.89 1077.12 341.89 983.84 355.68 983.84 355.68 1078.27 356.83 1078.27 356.83 1077.12 356.83 1078.27 357.97 1078.27 357.97 981.54 339.59 981.54 339.59 1079.42 357.97 1079.42 357.97 1078.27 356.83 1078.27"/>
      <polygon class="cls-1" points="452.66 982.69 452.66 981.54 419.52 981.54 419.52 923.29 451.52 923.29 451.52 982.69 452.66 982.69 452.66 981.54 452.66 982.69 453.81 982.69 453.81 921 417.22 921 417.22 983.84 453.81 983.84 453.81 982.69 452.66 982.69"/>
      <polygon class="cls-1" points="443.56 1078.27 443.56 1077.12 428.62 1077.12 428.62 983.84 442.41 983.84 442.41 1078.27 443.56 1078.27 443.56 1077.12 443.56 1078.27 444.71 1078.27 444.71 981.54 426.33 981.54 426.33 1079.42 444.71 1079.42 444.71 1078.27 443.56 1078.27"/>
      <path class="cls-1" d="M457.25,962.77c7.47-12.54,21.02-20.22,35.56-20.22,.3,0,.61,0,.91,.01h0c14.84,.33,28.42,8.62,35.49,21.69l2.02-1.09c-7.46-13.79-21.79-22.54-37.46-22.89h0c-.32,0-.65-.01-.97-.01-15.35,0-29.65,8.11-37.53,21.34l1.97,1.17h0Z"/>
      <polygon class="cls-1" points="20.14 1043.24 20.14 1042.09 -30.79 1042.09 -30.79 1028.69 18.99 1028.69 18.99 1043.24 20.14 1043.24 20.14 1042.09 20.14 1043.24 21.28 1043.24 21.28 1026.39 -33.08 1026.39 -33.08 1044.38 21.28 1044.38 21.28 1043.24 20.14 1043.24"/>
      <polygon class="cls-1" points="29.02 1053.17 29.02 1052.02 -38.44 1052.02 -38.44 1044.38 27.87 1044.38 27.87 1053.17 29.02 1053.17 29.02 1052.02 29.02 1053.17 30.17 1053.17 30.17 1042.09 -40.74 1042.09 -40.74 1054.32 30.17 1054.32 30.17 1053.17 29.02 1053.17"/>
      <polygon class="cls-1" points="628.97 975.54 628.97 974.39 578.04 974.39 578.04 960.99 627.82 960.99 627.82 975.54 628.97 975.54 628.97 974.39 628.97 975.54 630.12 975.54 630.12 958.69 575.75 958.69 575.75 976.69 630.12 976.69 630.12 975.54 628.97 975.54"/>
      <polygon class="cls-1" points="637.85 985.47 637.85 984.32 570.39 984.32 570.39 976.69 636.7 976.69 636.7 985.47 637.85 985.47 637.85 984.32 637.85 985.47 639 985.47 639 974.39 568.1 974.39 568.1 986.62 639 986.62 639 985.47 637.85 985.47"/>
      <polygon class="cls-1" points="608.55 1084.53 608.55 1083.38 599.7 1083.38 599.7 986.62 607.4 986.62 607.4 1084.53 608.55 1084.53 608.55 1083.38 608.55 1084.53 609.69 1084.53 609.69 984.32 597.4 984.32 597.4 1085.68 609.69 1085.68 609.69 1084.53 608.55 1084.53"/>
      <polygon class="cls-1" points="-.9 1078.27 -.9 1077.12 -9.75 1077.12 -9.75 1054.32 -2.05 1054.32 -2.05 1078.27 -.9 1078.27 -.9 1077.12 -.9 1078.27 .25 1078.27 .25 1052.02 -12.05 1052.02 -12.05 1079.42 .25 1079.42 .25 1078.27 -.9 1078.27"/>
      <polyline class="cls-1" points="499.04 839.14 499.04 806.53 496.75 806.53 496.75 839.14"/>
      <polyline class="cls-1" points="89.95 839.14 89.95 806.53 87.65 806.53 87.65 839.14"/>
    </g>
    <g>
      <path class="cls-1" d="M707.72,473.32l-1.21,.16c16.16,122.76,23.04,226.41,25.92,306.23,.43,11.92,.79,23.95,.79,36.09,0,46.25-5.28,94.04-32.25,143.2-17.12,31.19-37.65,53.19-52.44,66.96l-2.27,2.11h236.03l-2.83-2.19c-13.91-10.74-37.41-31.85-54.77-66.04-3.18-6.26-6.55-13.84-9.96-24.74-3.41-10.9-6.86-25.11-10.19-44.61-7.14-41.9-8.43-77.72-8.43-98.68,0-8.68,.22-14.8,.34-17.77,5.04-127.59,19.19-281.26,21.07-301.42l.13-1.42-1.42,.09c-8.64,.54-17.29,1.08-25.93,1.62l-.79,.05-.28,.75c-1.89,5.13-3.78,10.27-5.67,15.4l1.14,.42,1.18-.3c-2.97-11.62-5.94-23.23-8.91-34.85l-.23-.92h-.95c-7.84,0-15.68,0-23.52,0h-.98l-.21,.96c-2.43,11.08-4.85,22.15-7.28,33.23l1.19,.26,1.14-.44c-1.89-4.86-3.78-9.73-5.67-14.59l-.3-.78h-.83c-10.54,0-21.07,0-31.61,0h-1.39l.18,1.38,1.21-.16v1.22h31.61v-1.22l-1.14,.44c1.89,4.86,3.78,9.73,5.67,14.59l1.46,3.77,.86-3.95c2.43-11.08,4.85-22.15,7.28-33.23l-1.19-.26v1.22h23.52v-1.22l-1.18,.3c2.97,11.62,5.94,23.23,8.91,34.85l.97,3.8,1.35-3.68c1.89-5.13,3.78-10.27,5.67-15.4l-1.14-.42,.08,1.22c8.64-.54,17.29-1.08,25.93-1.62l-.08-1.22-1.21-.11c-1.88,20.18-16.03,173.86-21.08,301.55-.12,2.98-.34,9.15-.34,17.87,0,21.06,1.29,57.01,8.46,99.09,3.34,19.58,6.81,33.91,10.26,44.93,3.45,11.03,6.89,18.76,10.11,25.11,17.58,34.62,41.38,56,55.45,66.87l.75-.97v-1.22c-76.45,0-152.9,0-229.36,0v1.22l.83,.89c14.92-13.89,35.63-36.08,52.92-67.57,27.25-49.63,32.56-97.96,32.55-144.37,0-12.19-.37-24.25-.8-36.18-2.88-79.89-9.78-183.61-25.94-306.46l-1.21,.16v0Z"/>
      <polygon class="cls-1" points="889.78 1093.73 889.78 1092.51 637.88 1092.51 637.88 1028.07 888.56 1028.07 888.56 1093.73 889.78 1093.73 889.78 1092.51 889.78 1093.73 891 1093.73 891 1025.63 635.44 1025.63 635.44 1094.95 891 1094.95 891 1093.73 889.78 1093.73"/>
      <polygon class="cls-1" points="878.73 1093.73 878.73 1092.51 865.98 1092.51 865.98 1028.07 877.51 1028.07 877.51 1093.73 878.73 1093.73 878.73 1092.51 878.73 1093.73 879.95 1093.73 879.95 1025.63 863.54 1025.63 863.54 1094.95 879.95 1094.95 879.95 1093.73 878.73 1093.73"/>
      <polygon class="cls-1" points="848.21 1093.73 848.21 1092.51 835.46 1092.51 835.46 1028.07 846.99 1028.07 846.99 1093.73 848.21 1093.73 848.21 1092.51 848.21 1093.73 849.43 1093.73 849.43 1025.63 833.02 1025.63 833.02 1094.95 849.43 1094.95 849.43 1093.73 848.21 1093.73"/>
      <polygon class="cls-1" points="817.7 1093.73 817.7 1092.51 804.95 1092.51 804.95 1028.07 816.48 1028.07 816.48 1093.73 817.7 1093.73 817.7 1092.51 817.7 1093.73 818.92 1093.73 818.92 1025.63 802.51 1025.63 802.51 1094.95 818.92 1094.95 818.92 1093.73 817.7 1093.73"/>
      <polygon class="cls-1" points="787.19 1093.73 787.19 1092.51 774.43 1092.51 774.43 1028.07 785.97 1028.07 785.97 1093.73 787.19 1093.73 787.19 1092.51 787.19 1093.73 788.41 1093.73 788.41 1025.63 772 1025.63 772 1094.95 788.41 1094.95 788.41 1093.73 787.19 1093.73"/>
      <polygon class="cls-1" points="756.67 1093.73 756.67 1092.51 743.92 1092.51 743.92 1028.07 755.45 1028.07 755.45 1093.73 756.67 1093.73 756.67 1092.51 756.67 1093.73 757.89 1093.73 757.89 1025.63 741.48 1025.63 741.48 1094.95 757.89 1094.95 757.89 1093.73 756.67 1093.73"/>
      <polygon class="cls-1" points="726.16 1093.73 726.16 1092.51 713.41 1092.51 713.41 1028.07 724.94 1028.07 724.94 1093.73 726.16 1093.73 726.16 1092.51 726.16 1093.73 727.38 1093.73 727.38 1025.63 710.97 1025.63 710.97 1094.95 727.38 1094.95 727.38 1093.73 726.16 1093.73"/>
      <polygon class="cls-1" points="695.64 1093.73 695.64 1092.51 682.89 1092.51 682.89 1028.07 694.42 1028.07 694.42 1093.73 695.64 1093.73 695.64 1092.51 695.64 1093.73 696.86 1093.73 696.86 1025.63 680.45 1025.63 680.45 1094.95 696.86 1094.95 696.86 1093.73 695.64 1093.73"/>
      <polygon class="cls-1" points="665.13 1093.73 665.13 1092.51 652.38 1092.51 652.38 1028.07 663.91 1028.07 663.91 1093.73 665.13 1093.73 665.13 1092.51 665.13 1093.73 666.35 1093.73 666.35 1025.63 649.94 1025.63 649.94 1094.95 666.35 1094.95 666.35 1093.73 665.13 1093.73"/>
      <polygon class="cls-1" points="774.33 1026.85 774.33 1025.63 754.71 1025.63 754.71 455.9 773.11 455.9 773.11 1026.85 774.33 1026.85 774.33 1025.63 774.33 1026.85 775.55 1026.85 775.55 453.46 752.27 453.46 752.27 1028.07 775.55 1028.07 775.55 1026.85 774.33 1026.85"/>
      <polygon class="cls-1" points="774.33 533.01 775.25 533.81 813.52 489.86 810.05 528.86 775.55 566.5 775.55 533.01 774.33 533.01 775.25 533.81 774.33 533.01 773.11 533.01 773.11 572.78 812.41 529.9 816.61 482.59 773.11 532.55 773.11 533.01 774.33 533.01"/>
      <polygon class="cls-1" points="774.33 599.39 775.3 600.12 807.87 556.69 804.91 595.3 775.55 632.51 775.55 599.39 774.33 599.39 775.3 600.12 774.33 599.39 773.11 599.39 773.11 639.54 807.29 596.23 810.94 548.53 773.11 598.98 773.11 599.39 774.33 599.39"/>
      <polygon class="cls-1" points="774.33 670.52 775.35 671.17 802.58 628.4 800.1 666.49 775.55 703.14 775.55 670.52 774.33 670.52 775.35 671.17 774.33 670.52 773.11 670.52 773.11 711.16 802.49 667.3 805.63 619.07 773.11 670.16 773.11 670.52 774.33 670.52"/>
      <polygon class="cls-1" points="774.33 736.25 775.4 736.83 798.04 694.86 795.91 732.84 775.55 768.31 775.55 736.25 774.33 736.25 775.4 736.83 774.33 736.25 773.11 736.25 773.11 777.46 798.31 733.56 801.09 684.07 773.11 735.94 773.11 736.25 774.33 736.25"/>
      <polygon class="cls-1" points="774.33 815.25 775.41 815.81 794.02 779.76 794.15 813.85 775.55 847.19 775.55 815.25 774.33 815.25 775.41 815.81 774.33 815.25 773.11 815.25 773.11 856.57 796.59 814.48 796.42 769.8 773.11 814.95 773.11 815.25 774.33 815.25"/>
      <polygon class="cls-1" points="774.33 889.11 775.39 889.72 796.94 851.8 801.3 885.67 775.55 921.92 775.55 889.11 774.33 889.11 775.39 889.72 774.33 889.11 773.11 889.11 773.11 929.57 803.84 886.3 798.43 844.26 773.11 888.79 773.11 889.11 774.33 889.11"/>
      <polygon class="cls-1" points="774.33 963.12 775.26 963.9 808.64 924.43 821.11 958.77 775.55 997.13 775.55 963.12 774.33 963.12 775.26 963.9 774.33 963.12 773.11 963.12 773.11 1002.37 823.99 959.54 809.49 919.64 773.11 962.67 773.11 963.12 774.33 963.12"/>
      <polygon class="cls-1" points="714.14 533.41 753.62 572.57 753.62 532.52 710.56 487.55 708.8 489.24 751.18 533.5 751.18 566.71 715.86 531.68 714.14 533.41 714.14 533.41"/>
      <polygon class="cls-1" points="721.16 601.9 753.62 639.28 753.62 598.95 718.66 556.57 716.78 558.12 751.18 599.83 751.18 632.75 723 600.3 721.16 601.9 721.16 601.9"/>
      <polygon class="cls-1" points="727.05 674.81 753.62 710.86 753.62 670.13 725.71 630.27 723.72 631.67 751.18 670.9 751.18 703.44 729.02 673.36 727.05 674.81 727.05 674.81"/>
      <polygon class="cls-1" points="730.96 741.23 753.62 777.1 753.62 735.91 730.66 697.22 728.56 698.46 751.18 736.58 751.18 768.67 733.03 739.93 730.96 741.23 730.96 741.23"/>
      <polygon class="cls-1" points="733.38 823.2 753.62 856.21 753.62 814.93 734.82 781.8 732.7 783.01 751.18 815.57 751.18 847.56 735.46 821.93 733.38 823.2 733.38 823.2"/>
      <polygon class="cls-1" points="731.4 857.49 731.4 857.5 731.4 857.85 751.18 889.47 751.18 922.21 727.98 892.5 726.06 894.01 753.62 929.29 753.62 888.77 733.66 856.85 732.62 857.5 733.84 857.5 733.84 857.49 731.4 857.49 731.4 857.49"/>
      <polygon class="cls-1" points="716.64 926.45 751.18 963.6 751.18 997.28 702.16 959.76 700.68 961.69 753.62 1002.22 753.62 962.64 718.43 924.79 716.64 926.45 716.64 926.45"/>
      <path class="cls-1" d="M775.31,1025.05l.76,.96,57.91-45.86-.76-.96-1.01,.68s4.08,6.08,9.81,13.54c5.73,7.46,13.08,16.31,19.77,21.97l13.1,11.08,.79-.93v-1.22s-100.35-.47-100.35-.47v1.22s.75,.96,.75,.96l-.76-.96v1.22s103.71,.48,103.71,.48l-2.56-2.17-13.1-11.08c-6.41-5.42-13.74-14.2-19.41-21.59-2.84-3.7-5.27-7.06-6.99-9.49-.86-1.21-1.54-2.2-2.01-2.88-.23-.34-.41-.6-.53-.78-.12-.18-.18-.27-.18-.27l-.74-1.09-61.67,48.84,3.48,.02v-1.22Z"/>
      <path class="cls-1" d="M751.6,1025.3l.78-.94-60.25-50.43-.75,1.13s-.06,.1-.19,.29c-.95,1.42-5.34,7.92-11,15.52-5.66,7.6-12.6,16.31-18.58,22.1-5.23,5.06-8.05,7.98-9.59,9.7-.77,.86-1.22,1.41-1.5,1.81-.14,.2-.24,.36-.33,.53-.04,.08-.08,.17-.12,.28-.03,.11-.07,.24-.07,.43,0,.13,.02,.3,.09,.48,.1,.27,.36,.54,.59,.65,.12,.06,.22,.09,.32,.11,.1,.02,.16,.02,.24,.02l103.7-.48-2.56-2.14-.78,.94v-1.22s-100.36,.47-100.36,.47h0v1.2l.33-1.16c-.13-.04-.22-.05-.33-.05v1.2l.33-1.16-.33,1.15,.97-.7c-.18-.25-.45-.4-.64-.45l-.33,1.15,.97-.7-.95,.68h1.17c0-.16-.04-.44-.22-.68l-.95,.68h.15l.97,.31c.02-.06,.04-.15,.05-.31h-1.02l.97,.31-.52-.16,.49,.24,.03-.08-.52-.16,.49,.24,.02-.04c.06-.1,.25-.37,.62-.81,1.11-1.34,3.87-4.3,10.3-10.53,6.58-6.37,14.08-15.92,19.96-23.91,5.88-7.98,10.14-14.39,10.15-14.4l-1.02-.68-.78,.94,59.2,49.55,.78-.94v-1.22s0,1.22,0,1.22Z"/>
    </g>
  </g>
  <g>
    <path class="cls-1" d="M1653.94,529.05l-.02,1.04c.28,0,.54,0,.8,0,1.13,0,2.07-.05,3.02-.05,.63,0,1.26,.02,1.97,.08l.09-1.04-.8,.66c1.8,2.17,3.98,4.69,6.68,7.08,3.89,3.45,7.37,6.3,10.78,8.22,.92,.52,1.8,1.04,2.58,1.65,1.08,.84,2.38,2.02,3.52,3.53,1.14,1.51,2.11,3.34,2.57,5.49,.19,.9,.28,1.82,.28,2.75,0,5.19-2.92,10.86-8.21,15.06-3.41,2.71-7.74,4.07-12.15,4.07h-18.26c-6.32,0-12.4-2.85-16.03-7.94-2.23-3.11-3.46-6.76-3.46-10.41,0-.75,.05-1.5,.16-2.24,.41-2.89,1.6-5.52,3.39-7.82,1.79-2.29,4.19-4.25,7.01-5.76,2.39-1.28,4.5-2.69,6.8-4.56,1.91-1.54,3.37-3.18,5.12-4.76,1.63-1.47,3.25-2.91,4.85-4.31l-.68-.79-.02,1.04,.02-1.04-.68-.79c-1.62,1.41-3.25,2.85-4.89,4.34-1.85,1.68-3.28,3.28-5.03,4.68-2.23,1.8-4.2,3.12-6.48,4.34-3.04,1.63-5.67,3.76-7.66,6.31-1.99,2.55-3.34,5.53-3.81,8.8-.12,.84-.18,1.69-.18,2.53,0,4.12,1.39,8.18,3.85,11.62,4.07,5.69,10.79,8.81,17.72,8.81h18.26c4.83,0,9.62-1.49,13.44-4.52,5.71-4.54,8.99-10.72,9-16.69,0-1.07-.11-2.14-.33-3.18-.53-2.51-1.66-4.62-2.94-6.32-1.28-1.7-2.72-2.99-3.9-3.91-.92-.71-1.89-1.29-2.84-1.82-3.18-1.78-6.58-4.55-10.42-7.97-2.58-2.29-4.69-4.71-6.46-6.86l-.28-.33-.43-.04c-.78-.07-1.48-.09-2.15-.09-1.02,0-1.95,.05-3.02,.05-.24,0-.49,0-.75,0h-.4s-.3,.25-.3,.25l.68,.79Z"/>
    <path class="cls-1" d="M1660.51,529.01v-1.04h-7.73c-1.01,0-1.82-.82-1.82-1.82v-.52c0-1.01,.82-1.82,1.82-1.82h7.73c1.01,0,1.82,.82,1.82,1.82v.52c0,1-.82,1.82-1.82,1.82v2.08c2.16,0,3.9-1.75,3.9-3.9v-.52c0-2.16-1.75-3.9-3.9-3.9h-7.73c-2.16,0-3.9,1.75-3.9,3.9v.52c0,2.15,1.75,3.9,3.9,3.9h7.73v-1.04Z"/>
    <path class="cls-1" d="M1659.27,522.77v-1.04h-3.66v-24.93c0-.61,.5-1.11,1.11-1.11h.39c.61,0,1.11,.5,1.11,1.11v25.97h1.04v0h1.04v-25.97c0-1.76-1.43-3.19-3.19-3.19h-.39c-1.76,0-3.19,1.43-3.19,3.19v27.01h6.78v-1.04h-1.04Z"/>
    <path class="cls-1" d="M1643.13,578.73h-1.04c0,3.73,0,7.47,0,11.2h1.04l-.82-.64c-3.23,4.16-6.46,8.31-9.69,12.47l-1.3,1.68h49.01l-1.18-1.64c-3.04-4.25-6.08-8.49-9.11-12.74l-.85,.61h1.04v-12.04h-1.04c-8.69,.03-17.37,.05-26.06,.07h-1.04v1.04h1.04v1.04c8.69-.02,17.37-.05,26.06-.07v-1.04h-1.04c0,3.67,0,7.33,0,11v.33l.19,.27c3.04,4.25,6.08,8.49,9.11,12.74l.85-.6v-1.04c-14.95,0-29.91,0-44.86,0v1.04l.82,.64c3.23-4.16,6.46-8.31,9.69-12.47l.22-.28v-11.56h-1.04v1.04s0-1.04,0-1.04Z"/>
    <path class="cls-1" d="M1626.09,602.15l.61-.84c-.2-.14-.74-.55-1.23-1.16-.49-.61-.91-1.38-.97-2.25,0-.1-.01-.21-.01-.31,0-1.14,.42-2.31,1.26-3.27,.85-.96,2.12-1.72,3.92-1.99l-.15-1.03-.13,1.03c.96,.11,2.05,.49,2.95,1.05,.9,.55,1.59,1.28,1.87,1.99,.22,.55,.33,1.13,.33,1.72,0,1.57-.76,3.18-2.18,4.23l.62,.83v-1.04c-2.29,0-4.59,0-6.88,0v1.04l.61-.84-.61,.84v1.04h7.23l.28-.21c1.94-1.45,3.02-3.66,3.02-5.9,0-.84-.15-1.69-.47-2.49-.52-1.29-1.54-2.27-2.71-2.99-1.17-.72-2.51-1.18-3.79-1.34l-.14-.02-.14,.02c-2.23,.33-3.99,1.33-5.17,2.67-1.18,1.34-1.78,3.01-1.78,4.65,0,.15,0,.3,.02,.45,.1,1.45,.76,2.6,1.42,3.42,.67,.82,1.36,1.34,1.63,1.54l.27,.2h.34v-1.04Z"/>
    <polygon class="cls-1" points="1630.41 591.22 1630.41 591.17 1630.41 587.19 1628.33 587.19 1628.33 591.17 1628.33 591.22 1630.41 591.22 1630.41 591.22"/>
    <path class="cls-1" d="M1653.33,602.15l.61-.84c-.2-.14-.74-.55-1.23-1.16-.49-.61-.91-1.38-.97-2.25,0-.1-.01-.21-.01-.31,0-1.14,.42-2.31,1.26-3.27,.85-.96,2.12-1.72,3.92-1.99l-.15-1.03-.13,1.03c.96,.11,2.05,.49,2.95,1.05,.9,.55,1.59,1.28,1.87,1.99,.22,.55,.33,1.13,.33,1.72,0,1.57-.76,3.18-2.18,4.23l.62,.83v-1.04c-2.29,0-4.59,0-6.88,0v1.04l.61-.84-.61,.84v1.04h7.23l.28-.21c1.94-1.45,3.02-3.66,3.02-5.9,0-.84-.15-1.69-.47-2.49-.52-1.29-1.54-2.27-2.71-2.99-1.17-.72-2.51-1.18-3.79-1.34l-.14-.02-.14,.02c-2.23,.33-3.99,1.33-5.17,2.67-1.18,1.34-1.78,3.01-1.78,4.65,0,.15,0,.3,.02,.45,.1,1.45,.76,2.6,1.42,3.42,.67,.82,1.36,1.34,1.63,1.54l.27,.2h.34v-1.04Z"/>
    <polygon class="cls-1" points="1657.65 591.22 1657.65 591.17 1657.65 587.19 1655.57 587.19 1655.57 591.17 1655.57 591.22 1657.65 591.22 1657.65 591.22"/>
    <path class="cls-1" d="M1678.84,602.15l.61-.84c-.2-.14-.74-.55-1.23-1.16-.49-.61-.91-1.38-.97-2.25,0-.1-.01-.21-.01-.31,0-1.14,.42-2.31,1.26-3.27,.85-.96,2.12-1.72,3.92-1.99l-.15-1.03-.13,1.03c.96,.11,2.05,.49,2.95,1.05,.9,.55,1.59,1.28,1.87,1.99,.22,.55,.33,1.13,.33,1.72,0,1.57-.76,3.18-2.18,4.23l.62,.83v-1.04c-2.29,0-4.59,0-6.88,0v1.04l.61-.84-.61,.84v1.04h7.23l.28-.21c1.94-1.45,3.02-3.66,3.02-5.9,0-.84-.15-1.69-.47-2.49-.52-1.29-1.54-2.27-2.71-2.99-1.17-.72-2.51-1.18-3.79-1.34l-.14-.02-.14,.02c-2.23,.33-3.99,1.33-5.17,2.67-1.18,1.34-1.78,3.01-1.78,4.65,0,.15,0,.3,.02,.45,.1,1.45,.76,2.6,1.42,3.42,.67,.82,1.36,1.34,1.63,1.54l.27,.2h.34v-1.04Z"/>
    <polygon class="cls-1" points="1683.16 591.22 1683.16 591.17 1683.16 587.19 1681.08 587.19 1681.08 591.17 1681.08 591.22 1683.16 591.22 1683.16 591.22"/>
    <path class="cls-1" d="M1668.93,622.11v-1.04h-4.03v1.04l.9-.53c-.87-1.47-1.98-2.78-3.3-3.8-1.32-1.01-2.85-1.73-4.54-2-.55-.09-1.11-.13-1.66-.13-4.06,0-7.98,2.24-10.31,5.89l.88,.56v-1.04h-4.06v1.04l1.03,.14c.07-.53,.2-1.12,.41-1.71,.4-1.13,.92-1.89,1.76-2.86,.84-.96,2.01-2.08,3.57-3.75l-.76-.71,.75,.72c.53-.55,1.14-1.23,1.82-2h0c1.75-2.02,2.72-4.62,2.72-7.3v-1.63h-1.04l-.04,1.04c2.37,.08,4.73,.16,7.09,.24l.04-1.04h-1.04v1.25c0,2.64,.94,5.18,2.64,7.19l.03,.03,.06,.06,.74-.73-.8,.67c2.48,2.94,3.88,4.94,4.68,6.28,.81,1.36,1,2.02,1.13,2.48h0c.08,.28,.2,.98,.28,1.76l1.03-.11v0l1.03-.12c-.1-.85-.2-1.58-.35-2.1h0c-.15-.56-.47-1.5-1.35-2.98-.89-1.49-2.35-3.56-4.88-6.56l-.03-.04-.06-.06-.74,.73,.79-.67c-1.39-1.64-2.15-3.7-2.15-5.85v-2.25l-1-.03c-2.36-.08-4.72-.16-7.09-.24l-1.07-.04v2.71c0,2.18-.78,4.29-2.21,5.93h0c-.68,.76-1.27,1.42-1.76,1.94h-.01c-1.51,1.64-2.66,2.74-3.6,3.81-.94,1.06-1.67,2.13-2.16,3.54-.26,.74-.43,1.47-.52,2.14l-.16,1.18h5.82l.31-.48c1.96-3.09,5.27-4.93,8.55-4.93,.45,0,.9,.03,1.34,.1,1.31,.2,2.51,.76,3.59,1.59,1.08,.83,2.02,1.94,2.77,3.21l.3,.51h5.78l-.13-1.15-1.03,.12Z"/>
    <path class="cls-1" d="M1694.85,622.11v-1.04h-4.09v1.04l.91-.51c-.85-1.5-1.93-2.82-3.24-3.83-1.31-1.01-2.86-1.72-4.58-1.98-.55-.09-1.1-.13-1.65-.13-4.02,0-7.75,2.26-9.99,5.91l.89,.55v-1.04h-3.98v1.04l1.03,.11c.06-.53,.19-1.14,.41-1.8h0c.42-1.17,.85-1.92,1.58-2.85,.73-.92,1.78-2.01,3.32-3.66l-.76-.71,.75,.72c.53-.55,1.14-1.23,1.82-2h0c1.75-2.02,2.72-4.62,2.72-7.3v-1.63h-1.04l-.04,1.04c2.37,.08,4.73,.16,7.09,.24l.04-1.04h-1.04v1.25c0,2.64,.94,5.18,2.64,7.19l.03,.03,.06,.06,.74-.73-.79,.67c2.48,2.94,3.88,4.93,4.68,6.28,.8,1.36,1,2.02,1.13,2.48h0c.11,.38,.24,1.03,.33,1.78l1.03-.13v0l1.03-.13c-.11-.84-.25-1.55-.39-2.07h0c-.15-.57-.46-1.51-1.35-2.99-.89-1.49-2.35-3.56-4.88-6.56l-.03-.04-.06-.06-.74,.73,.79-.67c-1.39-1.64-2.15-3.7-2.15-5.85v-2.25l-1-.03c-2.36-.08-4.72-.16-7.09-.24l-1.07-.04v2.71c0,2.18-.78,4.29-2.21,5.93h0c-.68,.76-1.27,1.42-1.76,1.94h-.01c-1.52,1.65-2.59,2.74-3.43,3.8-.84,1.05-1.44,2.1-1.92,3.46h0c-.27,.8-.44,1.56-.51,2.25l-.13,1.15h5.72l.3-.49c1.91-3.1,4.99-4.92,8.21-4.92,.44,0,.88,.03,1.33,.1,1.37,.21,2.57,.76,3.63,1.57,1.06,.82,1.97,1.91,2.7,3.21l.3,.53h5.88l-.15-1.17-1.03,.13Z"/>
    <path class="cls-1" d="M1642.47,622.11v-1.04h-4.14v1.04l.89-.54c-2.19-3.64-5.9-5.93-9.95-5.93-.4,0-.8,.02-1.2,.07h0c-1.81,.2-3.45,.88-4.85,1.91-1.39,1.03-2.55,2.39-3.45,3.97l.9,.52v-1.04h-3.95v1.04l1.03,.13c.12-.95,.32-1.78,.47-2.26l-.99-.31,.99,.32c.15-.45,.38-1.11,1.24-2.43,.86-1.32,2.35-3.25,4.95-6.09l-.77-.7,.73,.74,.03-.03,.02-.02,.02-.02c1.77-1.94,2.81-4.44,2.93-7.06h0s.06-1.24,.06-1.24l-1.04-.05v1.04c2.35,.02,4.72,.05,7.08,.06v-1.04s-1.03-.04-1.03-.04l-.07,1.63c0,.15-.01,.31,0,.46,0,2.52,.86,4.96,2.42,6.93h0c.65,.82,1.24,1.52,1.72,2.08,1.47,1.72,2.48,2.84,3.17,3.8,.69,.96,1.09,1.72,1.46,2.91h0c.15,.49,.25,.93,.29,1.33l1.03-.12v0l1.03-.12c-.07-.55-.19-1.11-.36-1.68h0c-.42-1.39-.97-2.45-1.77-3.54-.8-1.09-1.81-2.22-3.27-3.93-.47-.55-1.04-1.23-1.68-2.03h0c-1.27-1.6-1.97-3.59-1.97-5.63,0-.13,0-.25,0-.38l.11-2.71h-1.08c-2.36-.02-4.72-.04-7.08-.06h-1s-.1,2.24-.1,2.24h0c-.09,2.14-.94,4.17-2.38,5.75l.77,.7-.73-.74-.03,.03h-.01s-.02,.04-.02,.04c-2.65,2.9-4.2,4.91-5.15,6.36-.95,1.44-1.3,2.37-1.48,2.92h0c-.19,.62-.42,1.55-.55,2.64l-.14,1.17h5.72l.3-.52c.78-1.36,1.75-2.5,2.88-3.33,1.13-.83,2.4-1.36,3.84-1.52h0c.32-.04,.64-.05,.96-.05,3.24,0,6.3,1.83,8.16,4.92l.3,.5h5.9l-.14-1.16-1.03,.12Z"/>
    <path class="cls-1" d="M1669.12,622.11c-.06,.44-.08,.86-.07,1.25-.02-.42-.07-.85-.11-1.25h.18Z"/>
    <polygon class="cls-1" points="1645.45 621.73 1645.45 648.69 1667.79 648.69 1667.79 622.44 1665.71 622.44 1665.71 646.61 1647.53 646.61 1647.53 621.73 1645.45 621.73 1645.45 621.73"/>
    <polygon class="cls-1" points="1672.15 621.73 1672.15 648.69 1692.14 648.69 1692.14 622.44 1690.06 622.44 1690.06 646.61 1674.23 646.61 1674.23 621.73 1672.15 621.73 1672.15 621.73"/>
    <polygon class="cls-1" points="1619.61 621.73 1619.61 648.69 1639.6 648.69 1639.6 622.44 1637.52 622.44 1637.52 646.61 1621.69 646.61 1621.69 621.73 1619.61 621.73 1619.61 621.73"/>
    <polygon class="cls-1" points="1618.59 615.32 1607.51 624.18 1607.51 655.31 1609.59 655.31 1609.59 625.18 1619.89 616.94 1618.59 615.32 1618.59 615.32"/>
    <polygon class="cls-1" points="1691.76 616.95 1702.25 625.18 1702.25 656.27 1704.33 656.27 1704.33 624.17 1693.04 615.31 1691.76 616.95 1691.76 616.95"/>
    <path class="cls-1" d="M1652.11,655.54l.62-.84c-.26-.19-.93-.71-1.55-1.48-.62-.77-1.16-1.77-1.26-2.94-.01-.14-.02-.27-.02-.41,0-1.42,.63-2.94,1.83-4.24,1.2-1.29,2.94-2.34,5.09-2.8l-.22-1.02-.19,1.02c1.98,.38,3.63,1.32,4.78,2.55,1.15,1.22,1.79,2.71,1.8,4.17h0s0,.05,0,.05c0,1.23-.52,2.4-1.13,3.32-.61,.92-1.29,1.56-1.5,1.75l.7,.77-.04-1.04c-1.08,.04-2.13,.05-3.18,.05-.83,0-1.67,0-2.51,0-1.06,0-2.14,.01-3.26,.06l.04,1.04,.62-.84-.62,.84,.04,1.04c1.08-.05,2.13-.06,3.17-.06,.83,0,1.67,0,2.51,0,1.06,0,2.14,0,3.27-.05l.38-.02,.28-.25c.27-.25,1.08-1,1.83-2.13,.75-1.13,1.48-2.66,1.48-4.48v-.06s0,0,0,0c-.02-2.06-.91-4.02-2.37-5.57-1.46-1.55-3.5-2.71-5.9-3.16l-.21-.04-.2,.04c-2.56,.55-4.68,1.8-6.18,3.42-1.5,1.62-2.38,3.61-2.39,5.65,0,.2,0,.39,.03,.59,.15,1.71,.92,3.08,1.7,4.06,.79,.98,1.61,1.61,1.94,1.86l.29,.22,.36-.02-.04-1.04Z"/>
    <path class="cls-1" d="M1686.41,659.57l.62-.84c-.2-.15-.72-.55-1.19-1.14-.47-.59-.88-1.35-.95-2.22,0-.1-.01-.2-.01-.3,0-1.06,.48-2.22,1.4-3.21,.92-.99,2.26-1.8,3.93-2.16l-.22-1.02-.19,1.02c1.52,.29,2.79,1.02,3.67,1.96,.88,.94,1.36,2.06,1.37,3.16v.04c0,.92-.39,1.81-.86,2.52-.47,.71-1,1.21-1.15,1.35l.7,.77-.04-1.04c-.85,.04-1.68,.04-2.52,.04-.66,0-1.32,0-1.99,0-.84,0-1.7,0-2.59,.05l.04,1.04,.62-.84-.62,.84,.04,1.04c.85-.04,1.68-.04,2.51-.04,.66,0,1.32,0,1.99,0,.84,0,1.71,0,2.6-.04l.38-.02,.28-.25c.22-.2,.87-.81,1.49-1.73,.61-.92,1.21-2.17,1.21-3.67v-.05c-.02-1.7-.75-3.3-1.94-4.57-1.19-1.27-2.85-2.2-4.8-2.57l-.21-.04-.2,.04c-2.07,.45-3.8,1.46-5.02,2.78-1.22,1.32-1.95,2.95-1.95,4.63,0,.16,0,.32,.02,.48,.12,1.41,.76,2.54,1.4,3.34,.64,.8,1.31,1.31,1.58,1.52l.29,.22h.37s-.04-1.05-.04-1.05Z"/>
    <path class="cls-1" d="M1620.01,659.57l.62-.84c-.2-.15-.72-.55-1.19-1.14-.47-.59-.88-1.35-.95-2.22,0-.1-.01-.2-.01-.3,0-1.06,.48-2.22,1.4-3.21,.92-.99,2.26-1.8,3.93-2.16l-.22-1.02-.19,1.02c1.52,.29,2.79,1.02,3.67,1.96,.88,.94,1.36,2.06,1.37,3.16v.03c0,.92-.39,1.81-.86,2.52-.47,.71-1,1.21-1.15,1.35l.7,.77-.04-1.04c-.85,.04-1.68,.04-2.52,.04-.66,0-1.32,0-1.99,0-.84,0-1.7,0-2.59,.05l.04,1.04,.62-.84-.62,.84,.04,1.04c.85-.04,1.68-.04,2.51-.04,.66,0,1.32,0,1.99,0,.84,0,1.71,0,2.6-.04l.38-.02,.28-.25c.22-.2,.87-.81,1.49-1.73,.61-.92,1.21-2.17,1.21-3.67v-.05c-.02-1.7-.75-3.3-1.94-4.57-1.19-1.27-2.85-2.2-4.8-2.57l-.21-.04-.2,.04c-2.07,.45-3.8,1.46-5.02,2.78-1.22,1.32-1.95,2.95-1.95,4.63,0,.16,0,.32,.02,.48,.12,1.41,.76,2.54,1.4,3.34,.64,.8,1.31,1.31,1.58,1.52l.29,.22,.36-.02-.04-1.04Z"/>
    <path class="cls-1" d="M1701.18,673.45v-1.04h-23.88v1.04h1.04v-.81c0-2.2,.89-4.18,2.33-5.63,1.44-1.44,3.43-2.33,5.63-2.33h5.88c2.2,0,4.18,.89,5.63,2.33,1.44,1.44,2.33,3.43,2.33,5.63v.81h1.04v0h1.04v-.81c0-5.54-4.49-10.04-10.04-10.04h-5.88c-5.54,0-10.04,4.49-10.04,10.04v1.85h25.96v-1.04h-1.04Z"/>
    <polygon class="cls-1" points="1693.55 663.86 1693.55 662.82 1687.03 662.82 1687.03 660.61 1692.51 660.61 1692.51 663.86 1693.55 663.86 1693.55 662.82 1693.55 663.86 1694.59 663.86 1694.59 658.53 1684.95 658.53 1684.95 664.9 1694.59 664.9 1694.59 663.86 1693.55 663.86"/>
    <path class="cls-1" d="M1634.99,673.86v-1.04h-23.88v1.04h1.04v-.81c0-2.2,.89-4.18,2.33-5.63,1.44-1.44,3.43-2.33,5.63-2.33h5.88c2.2,0,4.18,.89,5.63,2.33,1.44,1.44,2.33,3.43,2.33,5.63v.81h1.04v0h1.04v-.81c0-5.54-4.49-10.04-10.04-10.04h-5.88c-5.54,0-10.04,4.49-10.04,10.04v1.85h25.96v-1.04h-1.04Z"/>
    <polygon class="cls-1" points="1627.36 663.86 1627.36 662.82 1620.84 662.82 1620.84 660.61 1626.32 660.61 1626.32 663.86 1627.36 663.86 1627.36 662.82 1627.36 663.86 1628.4 663.86 1628.4 658.53 1618.76 658.53 1618.76 664.9 1628.4 664.9 1628.4 663.86 1627.36 663.86"/>
    <path class="cls-1" d="M1671.16,673.45v-1.04h-29.26v-2.41c0-2.2,.89-4.18,2.33-5.63,1.44-1.44,3.43-2.33,5.63-2.33h12.31c2.2,0,4.18,.89,5.63,2.33,1.44,1.44,2.33,3.43,2.33,5.63v3.45h1.04v0h1.04v-3.45c0-5.54-4.49-10.04-10.04-10.04h-12.31c-5.54,0-10.04,4.49-10.04,10.04v4.49h32.38v-1.04h-1.04Z"/>
    <polygon class="cls-1" points="1661.48 660.76 1661.48 659.72 1652.92 659.72 1652.92 656.35 1660.44 656.35 1660.44 660.76 1661.48 660.76 1661.48 659.72 1661.48 660.76 1662.52 660.76 1662.52 654.27 1650.84 654.27 1650.84 661.8 1662.52 661.8 1662.52 660.76 1661.48 660.76"/>
    <path class="cls-1" d="M1677.86,687.05h1.04s0-.11,0-.11c0-2.78,1.05-5.39,2.79-7.34,1.74-1.95,4.15-3.25,6.91-3.45,.27-.02,.55-.03,.84-.03h.02s0,0,0,0h.02v-.07s0,.07,0,.07h0s0-.07,0-.07v.07c.28,0,.55,0,.81,.03,2.78,.18,5.21,1.46,6.97,3.42,1.76,1.96,2.82,4.58,2.82,7.38v28.31h-21.96v1.04h1.04c-.09-9.76-.18-19.51-.27-29.26h-1.04s-1.04,.02-1.04,.02c.09,9.75,.18,19.5,.27,29.25v1.03h25.08v-30.39c0-3.33-1.26-6.44-3.36-8.77-2.09-2.33-5.04-3.9-8.39-4.11-.31-.02-.63-.03-.95-.03h-.08s.03,1.04,.03,1.04v-1.04c-.34,0-.66,.01-.98,.04-3.32,.24-6.24,1.81-8.31,4.14-2.07,2.33-3.31,5.42-3.31,8.72v.12s1.04-.01,1.04-.01Z"/>
    <path class="cls-1" d="M1612.44,681.45l.87,.56c.1-.15,1.1-1.65,2.91-3.08,1.82-1.43,4.43-2.79,7.83-2.81h.03s0,0,0,0h.04c3.4,0,6,1.34,7.83,2.76,1.82,1.42,2.83,2.91,2.93,3.05l.87-.57h-1.04c0,11.64,0,23.28,0,34.93h1.04v-1.04c-7.67,0-15.33,0-23,0v1.04h1.04c-.11-11.63-.21-23.24-.32-34.86h-1.04s.87,.57,.87,.57l-.87-.56h-1.04c.11,11.63,.21,23.24,.32,34.86v1.03h25.08v-36.28l-.17-.26c-.18-.28-1.31-1.93-3.39-3.55-2.08-1.62-5.15-3.2-9.11-3.2h-.09s.02,1.04,.02,1.04v-1.04c-3.98,.02-7.04,1.62-9.11,3.26-2.08,1.64-3.19,3.3-3.38,3.59l-.17,.26v.31s1.04,0,1.04,0Z"/>
    <path class="cls-1" d="M1643.44,680.88l.85,.6c.11-.15,1.23-1.68,3.27-3.14,2.05-1.47,4.99-2.87,8.85-2.89h.03s-.01,0-.01,0h.05c3.85,0,6.8,1.39,8.86,2.84,2.05,1.45,3.18,2.97,3.28,3.11l.84-.61h-1.04c0,11.83,0,23.66,0,35.49h1.04v-1.04c-8.56,0-17.11,0-25.67,0v1.04h1.04c-.12-11.82-.24-23.62-.35-35.43h-1.04s.85,.61,.85,.61l-.85-.6h-1.04c.12,11.82,.24,23.62,.35,35.42v1.03h27.75v-36.87l-.2-.27c-.2-.28-1.46-1.96-3.77-3.6-2.31-1.63-5.69-3.23-10.06-3.22h-.09s.02,1.04,.02,1.04v-1.04c-4.38,.02-7.76,1.63-10.06,3.28-2.3,1.65-3.55,3.34-3.75,3.63l-.2,.27v.34s1.04-.01,1.04-.01Z"/>
    <path class="cls-1" d="M1609.82,674.22l-.88-.56c-2.5,3.92-4.99,7.84-7.49,11.76l-.16,.25v.3c0,13.08,0,26.16,0,39.25v1.04h109.82v-40.6l-.17-.26c-2.75-4.18-5.49-8.35-8.24-12.53l-.31-.47h-.57c-30.67,.26-61.34,.52-92.01,.77h-.57s-.3,.48-.3,.48l.88,.56v1.04c30.68-.26,61.35-.51,92.02-.77v-1.04s-.88,.57-.88,.57c2.75,4.18,5.49,8.35,8.24,12.53l.87-.57h-1.04c0,13.08,0,26.17,0,39.25h1.04v-1.04c-35.91,0-71.83,0-107.74,0v1.04h1.04v-39.25h-1.04l.88,.56c2.5-3.92,4.99-7.84,7.49-11.76l-.88-.56v1.04s0-1.04,0-1.04Z"/>
    <path class="cls-1" d="M1713.52,639.15l.48-.92c-.14-.07-1.51-.81-2.81-2.07-.65-.63-1.29-1.39-1.77-2.25-.48-.86-.8-1.81-.85-2.88,0-.11,0-.22,0-.33,0-2.03,.94-3.64,2.03-4.87,.54-.61,1.12-1.1,1.6-1.48,.24-.19,.46-.34,.64-.47,.18-.13,.33-.23,.45-.31,1.52-1.11,2.72-2.09,4.48-3.57,1.04-.87,2.11-1.78,3.03-2.67,.93-.89,1.71-1.72,2.21-2.56l-.9-.52-.88,.56c1.02,1.61,2.16,3.61,4.53,5.67,1.16,1.01,2.48,1.86,3.82,2.55,1.21,.63,2.06,1.16,3.13,2,1.81,1.43,2.95,3.65,2.94,5.93,0,3.04-1.97,5.9-4.99,7.1l.38,.97v-1.04c-5.85,.04-11.69,.08-17.53,.12v1.04s.49-.92,.49-.92l-.48,.92v1.04c5.85-.04,11.69-.08,17.53-.12h.2s.18-.07,.18-.07c3.78-1.51,6.3-5.09,6.3-9.04,0-2.98-1.45-5.75-3.73-7.56-1.16-.92-2.18-1.56-3.47-2.22-1.21-.62-2.4-1.39-3.4-2.27-2.12-1.85-3.08-3.54-4.14-5.22l-.92-1.44-.86,1.48c-.29,.51-.98,1.29-1.84,2.11-.87,.83-1.91,1.72-2.93,2.58-1.76,1.47-2.91,2.4-4.38,3.48-.06,.05-.22,.15-.42,.29-.7,.5-1.97,1.43-3.08,2.84-1.11,1.4-2.08,3.32-2.08,5.68,0,.14,0,.29,.01,.43,.07,1.43,.51,2.7,1.11,3.79,.91,1.63,2.19,2.86,3.27,3.72,1.08,.86,1.98,1.34,2.17,1.44l.23,.12h.26s0-1.04,0-1.04Z"/>
    <polygon class="cls-1" points="1731.31 644.41 1731.31 643.37 1714.56 643.37 1714.56 640.19 1730.27 640.19 1730.27 644.41 1731.31 644.41 1731.31 643.37 1731.31 644.41 1732.35 644.41 1732.35 638.11 1712.48 638.11 1712.48 645.45 1732.35 645.45 1732.35 644.41 1731.31 644.41"/>
    <polygon class="cls-1" points="1703.29 656.27 1704.08 656.94 1713.94 645.45 1731.18 645.45 1738.45 655.23 1703.29 655.23 1703.29 656.27 1704.08 656.94 1703.29 656.27 1703.29 657.31 1742.59 657.31 1732.22 643.37 1712.98 643.37 1701.03 657.31 1703.29 657.31 1703.29 656.27"/>
    <polyline class="cls-1" points="1705.5 656.91 1705.5 680.26 1707.58 680.26 1707.58 656.91"/>
    <polygon class="cls-1" points="1737.36 656.91 1737.36 680.87 1733.72 687.12 1710.49 687.12 1710.49 689.2 1734.91 689.2 1739.44 681.43 1739.44 656.91 1737.36 656.91 1737.36 656.91"/>
    <polygon class="cls-1" points="1734.04 725.22 1734.04 724.18 1711.11 724.18 1711.11 689.2 1733 689.2 1733 725.22 1734.04 725.22 1734.04 724.18 1734.04 725.22 1735.08 725.22 1735.08 687.12 1709.03 687.12 1709.03 726.26 1735.08 726.26 1735.08 725.22 1734.04 725.22"/>
    <path class="cls-1" d="M1717.96,675.61h1.04v-8.34c0-1.59,.57-3.11,1.63-4.28h0s.24-.26,.24-.26h0c.75-.79,1.48-1.44,2.15-1.96l-.64-.82-.53,.9c.68,.4,1.65,1.08,2.56,2.16l.03,.03h0c.9,1.08,1.37,2.5,1.37,3.96v8.41h1.04l-.02-1.04c-2.95,.06-5.91,.13-8.86,.19l.02,1.04h0l.02,1.04c2.95-.06,5.91-.13,8.86-.19l1.02-.02v-9.43c0-1.9-.6-3.8-1.85-5.3h0s-.02-.03-.02-.03c-1.1-1.31-2.27-2.13-3.1-2.62l-.61-.36-.56,.44c-.74,.58-1.55,1.3-2.38,2.18h0s-.24,.27-.24,.27h0c-1.41,1.57-2.16,3.59-2.16,5.68v9.4l1.06-.02-.02-1.04Z"/>
    <path class="cls-1" d="M1723.15,615.03v-18.31h-2.08v18c0,.1,0,.21,0,.31h2.08Z"/>
    <polyline class="cls-1" points="1719.28 611.27 1724.99 611.27 1724.99 609.19 1719.28 609.19"/>
    <path class="cls-1" d="M1599,639.15l.48,.92c.26-.14,1.77-.95,3.3-2.42,.76-.74,1.54-1.65,2.14-2.73,.61-1.09,1.04-2.36,1.11-3.79,0-.15,.01-.29,.01-.43,0-2.71-1.26-4.81-2.56-6.25-.65-.73-1.32-1.3-1.87-1.73-.28-.21-.52-.39-.72-.53-.2-.14-.36-.25-.42-.29-1.47-1.08-2.62-2.01-4.38-3.48-1.03-.86-2.07-1.75-2.93-2.58-.86-.82-1.56-1.6-1.84-2.11l-.86-1.48-.91,1.44c-1.06,1.68-2.02,3.37-4.14,5.22-1,.87-2.2,1.65-3.4,2.27-1.29,.66-2.31,1.3-3.47,2.22-2.28,1.81-3.73,4.59-3.73,7.56,0,3.94,2.52,7.53,6.3,9.04l.18,.07h.2c5.84,.04,11.68,.08,17.52,.12h.26s.23-.12,.23-.12l-.48-.92v-1.04c-5.83-.04-11.67-.08-17.52-.12v1.04s.38-.97,.38-.97c-3.02-1.2-4.99-4.06-4.99-7.1,0-2.28,1.14-4.5,2.94-5.93,1.07-.84,1.92-1.38,3.13-2,1.33-.69,2.66-1.54,3.82-2.55,2.37-2.06,3.51-4.06,4.53-5.67l-.88-.56-.9,.52c.5,.84,1.28,1.67,2.21,2.56,.93,.88,2,1.8,3.03,2.67,1.77,1.48,2.97,2.45,4.48,3.56,.12,.09,.27,.19,.45,.32,.64,.45,1.73,1.27,2.64,2.42,.91,1.16,1.63,2.61,1.63,4.39,0,.11,0,.22,0,.33-.05,1.06-.37,2.02-.85,2.88-.72,1.29-1.8,2.35-2.74,3.1-.94,.74-1.74,1.17-1.84,1.22l.48,.92v-1.04s0,1.04,0,1.04Z"/>
    <polygon class="cls-1" points="1581.21 644.41 1581.21 645.45 1600.04 645.45 1600.04 638.11 1580.17 638.11 1580.17 645.45 1581.21 645.45 1581.21 644.41 1582.25 644.41 1582.25 640.19 1597.96 640.19 1597.96 643.37 1581.21 643.37 1581.21 644.41 1582.25 644.41 1581.21 644.41"/>
    <polygon class="cls-1" points="1609.23 656.27 1610.02 655.59 1599.54 643.37 1580.3 643.37 1569.93 657.31 1611.5 657.31 1610.02 655.59 1609.23 656.27 1609.23 655.23 1574.07 655.23 1581.34 645.45 1598.58 645.45 1608.44 656.94 1609.23 656.27 1609.23 655.23 1609.23 656.27"/>
    <polyline class="cls-1" points="1604.94 656.91 1604.94 680.26 1607.02 680.26 1607.02 656.91"/>
    <polygon class="cls-1" points="1573.08 656.91 1573.08 681.43 1577.61 689.2 1602.03 689.2 1602.03 687.12 1578.8 687.12 1575.16 680.87 1575.16 656.91 1573.08 656.91 1573.08 656.91"/>
    <polygon class="cls-1" points="1578.48 725.22 1578.48 726.26 1603.49 726.26 1603.49 687.12 1577.44 687.12 1577.44 726.26 1578.48 726.26 1578.48 725.22 1579.52 725.22 1579.52 689.2 1601.41 689.2 1601.41 724.18 1578.48 724.18 1578.48 725.22 1579.52 725.22 1578.48 725.22"/>
    <path class="cls-1" d="M1594.56,675.61h1.04v-8.34c0-2.09-.75-4.11-2.16-5.67h0s-.24-.27-.24-.27h0c-.83-.89-1.64-1.61-2.38-2.19l-.56-.44-.61,.36c-.82,.48-2,1.3-3.1,2.62l-.02,.03h0c-1.25,1.51-1.85,3.4-1.85,5.3v9.43l1.02,.02c2.95,.06,5.91,.13,8.86,.19l1.06,.02v-1.06h-1.04l.02-1.04c-2.95-.06-5.91-.13-8.86-.19l-.02,1.04h1.04v-8.41c0-1.46,.47-2.88,1.37-3.97h0s.02-.02,.02-.02c.91-1.08,1.88-1.76,2.56-2.16l-.53-.9-.64,.82c.67,.52,1.4,1.17,2.15,1.97h0s.24,.26,.24,.26h0c1.05,1.16,1.62,2.68,1.63,4.27v8.34h1.04l.02-1.04-.02,1.04Z"/>
    <path class="cls-1" d="M1591.46,615.03v-18.31h-2.08v18c0,.1,0,.21,0,.31h2.08Z"/>
    <polyline class="cls-1" points="1593.24 609.19 1587.53 609.19 1587.53 611.27 1593.24 611.27"/>
    <polygon class="cls-1" points="1577.74 724.17 1566.88 737.86 1745.07 737.86 1734.87 724.31 1733.21 725.56 1740.9 735.78 1571.18 735.78 1579.37 725.46 1577.74 724.17 1577.74 724.17"/>
    <polygon class="cls-1" points="1568.11 736.33 1555.21 753.69 1555.21 800.1 1757.4 800.1 1757.4 754.14 1743.65 735.97 1741.99 737.22 1755.32 754.84 1755.32 798.02 1557.29 798.02 1557.29 754.38 1569.78 737.57 1568.11 736.33 1568.11 736.33"/>
    <polygon class="cls-1" points="1603.25 799.06 1603.25 798.02 1578.4 798.02 1578.4 767.2 1602.21 767.2 1602.21 799.06 1603.25 799.06 1603.25 798.02 1603.25 799.06 1604.29 799.06 1604.29 765.12 1576.32 765.12 1576.32 800.1 1604.29 800.1 1604.29 799.06 1603.25 799.06"/>
    <polygon class="cls-1" points="1636.35 799.06 1636.35 798.02 1611.5 798.02 1611.5 767.2 1635.31 767.2 1635.31 799.06 1636.35 799.06 1636.35 798.02 1636.35 799.06 1637.39 799.06 1637.39 765.12 1609.42 765.12 1609.42 800.1 1637.39 800.1 1637.39 799.06 1636.35 799.06"/>
    <polygon class="cls-1" points="1669.45 799.06 1669.45 798.02 1644.6 798.02 1644.6 767.2 1668.41 767.2 1668.41 799.06 1669.45 799.06 1669.45 798.02 1669.45 799.06 1670.49 799.06 1670.49 765.12 1642.52 765.12 1642.52 800.1 1670.49 800.1 1670.49 799.06 1669.45 799.06"/>
    <polygon class="cls-1" points="1702.55 799.06 1702.55 798.02 1677.7 798.02 1677.7 767.2 1701.51 767.2 1701.51 799.06 1702.55 799.06 1702.55 798.02 1702.55 799.06 1703.59 799.06 1703.59 765.12 1675.62 765.12 1675.62 800.1 1703.59 800.1 1703.59 799.06 1702.55 799.06"/>
    <polygon class="cls-1" points="1735.65 799.06 1735.65 798.02 1710.8 798.02 1710.8 767.2 1734.61 767.2 1734.61 799.06 1735.65 799.06 1735.65 798.02 1735.65 799.06 1736.69 799.06 1736.69 765.12 1708.72 765.12 1708.72 800.1 1736.69 800.1 1736.69 799.06 1735.65 799.06"/>
    <polygon class="cls-1" points="1602.4 766.16 1602.4 765.12 1580 765.12 1582.14 760.59 1598.66 760.59 1601.46 766.59 1602.4 766.16 1602.4 765.12 1602.4 766.16 1603.34 765.72 1599.99 758.51 1580.83 758.51 1576.72 767.2 1604.03 767.2 1603.34 765.72 1602.4 766.16"/>
    <polygon class="cls-1" points="1635.43 766.16 1635.43 765.12 1613.03 765.12 1615.17 760.59 1631.69 760.59 1634.48 766.59 1635.43 766.16 1635.43 765.12 1635.43 766.16 1636.37 765.72 1633.01 758.51 1613.85 758.51 1609.74 767.2 1637.06 767.2 1636.37 765.72 1635.43 766.16"/>
    <polygon class="cls-1" points="1668.53 766.16 1668.53 765.12 1646.13 765.12 1648.27 760.59 1664.79 760.59 1667.58 766.59 1668.53 766.16 1668.53 765.12 1668.53 766.16 1669.47 765.72 1666.11 758.51 1646.95 758.51 1642.84 767.2 1670.16 767.2 1669.47 765.72 1668.53 766.16"/>
    <polygon class="cls-1" points="1701.63 766.16 1701.63 765.12 1679.23 765.12 1681.37 760.59 1697.89 760.59 1700.68 766.59 1701.63 766.16 1701.63 765.12 1701.63 766.16 1702.57 765.72 1699.21 758.51 1680.05 758.51 1675.94 767.2 1703.26 767.2 1702.57 765.72 1701.63 766.16"/>
    <polygon class="cls-1" points="1734.73 766.16 1734.73 765.12 1712.33 765.12 1714.47 760.59 1730.99 760.59 1733.79 766.59 1734.73 766.16 1734.73 765.12 1734.73 766.16 1735.67 765.72 1732.31 758.51 1713.15 758.51 1709.04 767.2 1736.36 767.2 1735.67 765.72 1734.73 766.16"/>
    <path class="cls-1" d="M1583.21,798.76h1.04v-15.24c0-2.82,1.11-5.52,3.11-7.49h0s.23-.22,.23-.22h0c1.31-1.28,2.61-2.24,3.71-2.94l-.56-.88-.47,.93c.99,.51,2.34,1.34,3.67,2.66l.05,.05h0c1.89,1.89,2.89,4.54,2.89,7.26v15.87h1.04v-1.04c-1.05-.01-2.1-.02-3.16-.02-2.79,0-5.58,.03-8.36,.03-1.06,0-2.11,0-3.17-.02v1.04s1.03,0,1.03,0h-1.04v1.04c1.05,.01,2.12,.02,3.18,.02,2.79,0,5.58-.03,8.36-.03,1.05,0,2.1,0,3.15,.02h1.05s0-16.91,0-16.91c0-3.23-1.18-6.41-3.5-8.74h0s-.05-.05-.05-.05c-1.52-1.51-3.06-2.46-4.19-3.04l-.53-.27-.5,.32c-1.2,.76-2.61,1.81-4.04,3.21h0s-.23,.23-.23,.23h0c-2.4,2.37-3.73,5.61-3.73,8.97v16.26h1.03s.01-1.03,.01-1.03Z"/>
    <path class="cls-1" d="M1591.85,771.65v-2.02h-2.08v.76c0,.42,0,.84,0,1.26h2.08Z"/>
    <path class="cls-1" d="M1616.65,798.76h1.04v-15.24c0-2.82,1.11-5.52,3.11-7.49h0s.23-.22,.23-.22h0c1.31-1.28,2.61-2.24,3.71-2.94l-.56-.88-.47,.93c.99,.51,2.34,1.34,3.67,2.66l.05,.05h0c1.89,1.89,2.89,4.54,2.89,7.26v15.87h1.04v-1.04c-1.05-.01-2.1-.02-3.16-.02-2.79,0-5.58,.03-8.36,.03-1.06,0-2.12,0-3.17-.02v1.04s1.03,0,1.03,0h-1.04v1.04c1.05,.01,2.12,.02,3.18,.02,2.79,0,5.58-.03,8.36-.03,1.05,0,2.1,0,3.15,.02h1.05s0-16.91,0-16.91c0-3.23-1.18-6.41-3.5-8.74h0s-.05-.05-.05-.05c-1.52-1.51-3.06-2.46-4.19-3.04l-.53-.27-.5,.32c-1.2,.77-2.61,1.81-4.04,3.21h0s-.23,.22-.23,.22h0c-2.4,2.37-3.73,5.61-3.73,8.97v16.26h1.03s.01-1.03,.01-1.03Z"/>
    <path class="cls-1" d="M1625.28,771.65v-2.02h-2.08v.76c0,.42,0,.84,0,1.26h2.08Z"/>
    <path class="cls-1" d="M1649.16,798.76h1.04v-15.24c0-2.82,1.11-5.52,3.11-7.49h0s.23-.22,.23-.22h0c1.31-1.28,2.61-2.24,3.71-2.94l-.56-.88-.47,.93c.99,.51,2.34,1.34,3.67,2.66l.05,.05h0c1.89,1.89,2.89,4.54,2.89,7.26v15.87h1.04v-1.04c-1.05-.01-2.1-.02-3.16-.02-2.79,0-5.58,.03-8.36,.03-1.06,0-2.12,0-3.17-.02v1.04s1.03,0,1.03,0h-1.04v1.04c1.05,.01,2.12,.02,3.18,.02,2.79,0,5.58-.03,8.36-.03,1.05,0,2.1,0,3.15,.02h1.05s0-16.91,0-16.91c0-3.23-1.18-6.41-3.5-8.74h0s-.05-.05-.05-.05c-1.52-1.51-3.06-2.46-4.19-3.04l-.53-.27-.5,.32c-1.2,.76-2.61,1.81-4.04,3.21h0s-.23,.22-.23,.22h0c-2.4,2.37-3.73,5.61-3.73,8.97v16.26h1.03s.01-1.03,.01-1.03Z"/>
    <path class="cls-1" d="M1657.79,771.65v-2.02h-2.08v.76c0,.42,0,.84,0,1.26h2.08Z"/>
    <path class="cls-1" d="M1681.66,798.76h1.04v-15.24c0-2.82,1.11-5.52,3.11-7.49h0s.23-.22,.23-.22h0c1.31-1.28,2.61-2.24,3.71-2.94l-.56-.88-.47,.93c.99,.51,2.34,1.34,3.67,2.66l.05,.05h0c1.89,1.89,2.89,4.54,2.89,7.26v15.87h1.04v-1.04c-1.05-.01-2.1-.02-3.16-.02-2.79,0-5.58,.03-8.36,.03-1.06,0-2.11,0-3.17-.02v1.04s1.03,0,1.03,0h-1.04v1.04c1.05,.01,2.12,.02,3.18,.02,2.79,0,5.58-.03,8.36-.03,1.05,0,2.1,0,3.15,.02h1.05s0-16.91,0-16.91c0-3.23-1.18-6.41-3.5-8.74h0s-.05-.05-.05-.05c-1.52-1.51-3.06-2.46-4.19-3.04l-.53-.27-.5,.32c-1.2,.76-2.61,1.81-4.04,3.21h0s-.23,.23-.23,.23h0c-2.4,2.37-3.73,5.61-3.73,8.97v16.27h1.03s.01-1.03,.01-1.03Z"/>
    <path class="cls-1" d="M1690.3,771.65v-2.02h-2.08v.76c0,.42,0,.84,0,1.26h2.08Z"/>
    <path class="cls-1" d="M1714.17,798.76h1.04v-15.24c0-2.82,1.11-5.52,3.11-7.49h0s.23-.22,.23-.22h0c1.31-1.28,2.61-2.24,3.71-2.94l-.56-.88-.47,.93c.99,.51,2.34,1.34,3.67,2.66l.05,.05h0c1.89,1.89,2.89,4.54,2.89,7.26v15.87h1.04v-1.04c-1.05-.01-2.1-.02-3.16-.02-2.79,0-5.58,.03-8.36,.03-1.06,0-2.11,0-3.17-.02v1.04s1.03,0,1.03,0h-1.04v1.04c1.05,.01,2.12,.02,3.18,.02,2.79,0,5.58-.03,8.36-.03,1.05,0,2.1,0,3.15,.02h1.05s0-16.91,0-16.91c0-3.23-1.18-6.41-3.5-8.74h0s-.05-.05-.05-.05c-1.52-1.51-3.06-2.46-4.19-3.04l-.53-.27-.5,.32c-1.2,.76-2.61,1.81-4.04,3.21h0s-.23,.23-.23,.23h0c-2.4,2.37-3.73,5.61-3.73,8.97v16.26h1.03s.01-1.03,.01-1.03Z"/>
    <path class="cls-1" d="M1722.81,771.65v-2.02h-2.08v.76c0,.42,0,.84,0,1.26h2.08Z"/>
    <polygon class="cls-1" points="1553.63 799.06 1552.8 798.43 1544.18 809.73 1544.18 828.54 1769.22 828.54 1769.22 811.52 1759.67 798.02 1553.12 798.02 1552.8 798.43 1553.63 799.06 1553.63 800.1 1758.59 800.1 1767.14 812.18 1767.14 826.46 1546.26 826.46 1546.26 810.43 1554.46 799.69 1553.63 799.06 1553.63 800.1 1553.63 799.06"/>
    <polygon class="cls-1" points="1849.9 857.76 1849.9 856.72 1463.84 856.72 1463.84 828.54 1848.86 828.54 1848.86 857.76 1849.9 857.76 1849.9 856.72 1849.9 857.76 1850.94 857.76 1850.94 826.46 1461.76 826.46 1461.76 858.8 1850.94 858.8 1850.94 857.76 1849.9 857.76"/>
    <polygon class="cls-1" points="1903.42 924.3 1903.42 923.26 1409.58 923.26 1409.58 881.43 1902.38 881.43 1902.38 924.3 1903.42 924.3 1903.42 923.26 1903.42 924.3 1904.46 924.3 1904.46 879.35 1407.5 879.35 1407.5 925.34 1904.46 925.34 1904.46 924.3 1903.42 924.3"/>
    <polygon class="cls-1" points="1903.42 902.34 1903.42 901.3 1409.58 901.3 1409.58 881.43 1902.38 881.43 1902.38 902.34 1903.42 902.34 1903.42 901.3 1903.42 902.34 1904.46 902.34 1904.46 879.35 1407.5 879.35 1407.5 903.38 1904.46 903.38 1904.46 902.34 1903.42 902.34"/>
    <polygon class="cls-1" points="1903.42 880.39 1903.42 879.35 1413.74 879.35 1463.01 858.8 1849.69 858.8 1903.02 881.35 1903.42 880.39 1903.42 879.35 1903.42 880.39 1903.83 879.43 1850.12 856.72 1462.59 856.72 1403.34 881.43 1908.55 881.43 1903.83 879.43 1903.42 880.39"/>
    <polygon class="cls-1" points="1395.34 924.3 1395.34 925.34 1914.81 925.34 1900.52 939 1410.98 939 1396.08 923.57 1395.34 924.3 1395.34 925.34 1395.34 924.3 1394.59 925.02 1410.1 941.08 1901.35 941.08 1920 923.26 1392.89 923.26 1394.59 925.02 1395.34 924.3"/>
    <polygon class="cls-1" points="1901.79 1078.96 1901.79 1077.92 1411.58 1077.92 1411.58 941.08 1900.75 941.08 1900.75 1078.96 1901.79 1078.96 1901.79 1077.92 1901.79 1078.96 1902.83 1078.96 1902.83 939 1409.5 939 1409.5 1080 1902.83 1080 1902.83 1078.96 1901.79 1078.96"/>
    <path class="cls-1" d="M1453.31,1068.6h1.04v-56.07h-1.04l.57,.87c.81-.53,3.06-2.14,4.05-5.2,.2-.6,.29-1.21,.29-1.81,0-1.06-.28-2.08-.69-3.27-.42-1.2-.98-2.59-1.64-4.45-.84-2.36-1.5-4.25-1.95-5.77-.45-1.52-.67-2.66-.67-3.5,0-.44,.06-.79,.16-1.09,.22-.65,.63-1.42,1.6-2.28,.97-.85,2.52-1.77,5-2.58l.95-.31-.27-.96c-.16-.57-.23-1.13-.23-1.69,0-2.28,1.26-4.35,3.16-5.23,.69-.33,1.45-.49,2.22-.49,1.37,0,2.78,.51,3.92,1.49l1.34,1.16,.36-1.73c.49-2.38,2.24-4.27,4.48-4.87,.53-.14,1.03-.2,1.51-.2,1.11,0,2.09,.32,2.83,.67,.73,.35,1.2,.73,1.26,.78l.84,.7,.65-.88c.08-.11,1.06-1.39,2.76-2.61,1.7-1.23,4.07-2.39,7.01-2.39,.31,0,.62,.01,.93,.04h0c2.63,.22,4.68,1.3,6.15,2.41,1.47,1.12,2.33,2.25,2.54,2.54l.57,.77,.82-.5c.25-.16,1.82-1.09,3.89-1.08,.65,0,1.35,.09,2.08,.32,1.6,.5,2.69,1.44,3.43,2.33,.73,.89,1.08,1.7,1.15,1.87l.43,1.05,1.01-.52c.06-.04,1.52-.75,3.31-.74,1.01,0,2.12,.21,3.24,.86,2.05,1.2,3.31,3.46,3.31,5.91,0,.26-.01,.52-.04,.78l-.09,.86,.83,.25c.37,.11,1.45,.45,2.64,1.18,1.19,.74,2.45,1.85,3.26,3.5,.56,1.14,.83,2.41,.83,3.72,0,2.87-1.34,5.96-3.93,8.26l-.15,.13-.09,.17c-.34,.67-1.09,2.28-1.09,4.43,0,.46,.03,.94,.11,1.45,.34,2.12,1.36,3.72,2.33,4.81,.98,1.09,1.93,1.7,2.22,1.87l.54-.89h-1.04c0,18.64,0,37.28,0,55.92h1.04v-1.04c-5.61-.07-11.24-.1-16.86-.1-15.36,0-30.7,.2-46.04,.2-5.61,0-11.22-.03-16.83-.1v1.04s1.03,0,1.03,0h-1.04v1.04c5.61,.07,11.22,.1,16.84,.1,15.36,0,30.7-.2,46.04-.2,5.62,0,11.23,.03,16.85,.1h1.05s0-1.04,0-1.04v-56.51l-.5-.3c-.19-.12-.97-.61-1.76-1.49-.79-.88-1.57-2.11-1.83-3.75-.06-.39-.09-.76-.09-1.12,0-1.66,.59-2.95,.86-3.47l-.92-.48,.69,.78c3.02-2.68,4.63-6.3,4.63-9.82,0-1.61-.34-3.19-1.05-4.64-1.03-2.1-2.62-3.48-4.03-4.36-1.42-.88-2.69-1.28-3.14-1.41l-.29,1,1.03,.11c.04-.34,.05-.67,.05-1,0-3.16-1.63-6.11-4.34-7.7-1.47-.87-2.98-1.15-4.29-1.15-2.32,0-4.02,.85-4.27,.98l.48,.92,.96-.4c-.11-.27-.55-1.29-1.47-2.4-.92-1.11-2.35-2.35-4.41-2.99-.95-.3-1.86-.41-2.7-.41-2.68,0-4.58,1.15-4.98,1.39l.55,.89,.84-.61c-.27-.37-1.26-1.68-2.96-2.97-1.69-1.29-4.12-2.57-7.24-2.83h0c-.38-.03-.75-.05-1.12-.05-3.5,0-6.29,1.38-8.22,2.78-1.94,1.4-3.03,2.83-3.21,3.06l.84,.62,.66-.8c-.16-.13-.76-.6-1.69-1.05-.93-.45-2.21-.88-3.73-.88-.65,0-1.34,.08-2.06,.28-3.03,.82-5.33,3.33-5.98,6.46l1.02,.21,.68-.79c-1.51-1.31-3.4-2-5.28-2-1.06,0-2.12,.22-3.1,.68-2.69,1.26-4.35,4.08-4.35,7.11,0,.74,.1,1.5,.31,2.24l1-.28-.32-.99c-2.68,.87-4.49,1.91-5.73,3-1.24,1.08-1.88,2.23-2.2,3.18-.19,.55-.27,1.14-.27,1.76,0,1.18,.28,2.48,.75,4.09,.47,1.6,1.15,3.51,1.99,5.87,.67,1.9,1.25,3.32,1.63,4.43,.39,1.12,.58,1.92,.58,2.59,0,.39-.06,.75-.19,1.17-.75,2.36-2.56,3.67-3.21,4.1l-.47,.31v.56c0,18.35,0,37.72,0,56.07v1.03h1.03s.01-1.03,.01-1.03Z"/>
    <path class="cls-1" d="M1780.7,1068.6h1.04v-56.07h-1.04l.57,.87c.81-.53,3.06-2.14,4.05-5.2,.2-.6,.29-1.21,.29-1.81,0-1.06-.28-2.08-.69-3.27-.42-1.2-.98-2.59-1.64-4.45-.84-2.36-1.5-4.25-1.95-5.77-.45-1.52-.67-2.66-.67-3.5,0-.44,.06-.79,.16-1.09,.22-.65,.63-1.42,1.6-2.28,.97-.85,2.52-1.77,5-2.58l.95-.31-.27-.96c-.16-.57-.23-1.13-.23-1.69,0-2.28,1.26-4.35,3.16-5.23,.69-.33,1.45-.49,2.22-.49,1.37,0,2.78,.51,3.92,1.49l1.34,1.16,.36-1.73c.49-2.38,2.24-4.27,4.48-4.87,.53-.14,1.03-.2,1.51-.2,1.11,0,2.09,.32,2.83,.67,.73,.35,1.2,.73,1.26,.78l.84,.7,.65-.88c.08-.11,1.06-1.39,2.76-2.61,1.7-1.23,4.07-2.39,7.01-2.39,.31,0,.62,.01,.93,.04h0c2.63,.22,4.68,1.3,6.15,2.41,1.47,1.12,2.33,2.25,2.54,2.54l.57,.77,.82-.5c.25-.16,1.82-1.09,3.89-1.08,.65,0,1.35,.09,2.08,.32,1.6,.5,2.69,1.44,3.43,2.33,.73,.89,1.08,1.7,1.15,1.87l.43,1.05,1.01-.52c.06-.04,1.52-.75,3.31-.74,1.01,0,2.12,.21,3.24,.86,2.05,1.2,3.31,3.46,3.31,5.91,0,.26-.01,.52-.04,.78l-.09,.86,.83,.25c.37,.11,1.45,.45,2.64,1.18,1.19,.74,2.45,1.85,3.26,3.5,.56,1.14,.83,2.41,.83,3.72,0,2.87-1.34,5.96-3.93,8.26l-.14,.13-.09,.17c-.34,.67-1.09,2.28-1.09,4.43,0,.46,.03,.94,.11,1.45,.34,2.12,1.36,3.72,2.33,4.81,.98,1.09,1.93,1.7,2.22,1.87l.54-.89h-1.04c0,18.64,0,37.28,0,55.92h1.04v-1.04c-5.61-.07-11.24-.1-16.86-.1-15.36,0-30.7,.2-46.04,.2-5.61,0-11.22-.03-16.83-.1v1.04s1.03,0,1.03,0h-1.04v1.04c5.61,.07,11.22,.1,16.84,.1,15.36,0,30.7-.2,46.04-.2,5.62,0,11.23,.03,16.85,.1h1.05s0-1.04,0-1.04v-56.51l-.5-.3c-.19-.12-.97-.61-1.76-1.49-.79-.88-1.57-2.11-1.83-3.75-.06-.39-.09-.76-.09-1.12,0-1.66,.59-2.95,.86-3.47l-.92-.48,.69,.78c3.02-2.68,4.63-6.3,4.63-9.82,0-1.61-.34-3.19-1.05-4.64-1.03-2.1-2.62-3.48-4.03-4.36-1.42-.88-2.69-1.28-3.14-1.41l-.29,1,1.03,.11c.04-.34,.05-.67,.05-1,0-3.16-1.63-6.11-4.34-7.7-1.47-.87-2.98-1.15-4.29-1.15-2.32,0-4.02,.85-4.27,.98l.48,.92,.96-.4c-.11-.27-.55-1.29-1.47-2.4-.92-1.11-2.35-2.35-4.41-2.99-.95-.3-1.86-.41-2.7-.41-2.68,0-4.58,1.15-4.98,1.39l.55,.89,.84-.61c-.27-.37-1.26-1.68-2.96-2.97-1.69-1.29-4.12-2.57-7.24-2.83h0c-.38-.03-.75-.05-1.12-.05-3.5,0-6.29,1.38-8.22,2.78-1.94,1.4-3.03,2.83-3.21,3.06l.84,.62,.66-.8c-.16-.13-.76-.6-1.69-1.05-.93-.45-2.21-.88-3.73-.88-.65,0-1.34,.08-2.06,.28-3.03,.82-5.33,3.33-5.98,6.46l1.02,.21,.68-.79c-1.51-1.31-3.4-2-5.28-2-1.06,0-2.12,.22-3.1,.68-2.69,1.26-4.35,4.08-4.35,7.11,0,.74,.1,1.5,.31,2.24l1-.28-.32-.99c-2.68,.87-4.49,1.91-5.73,3-1.24,1.08-1.88,2.23-2.2,3.18-.19,.55-.27,1.14-.27,1.75,0,1.18,.28,2.48,.75,4.09,.47,1.6,1.15,3.51,1.99,5.87,.67,1.9,1.25,3.32,1.63,4.43,.39,1.12,.58,1.92,.58,2.59,0,.39-.06,.75-.19,1.17-.75,2.36-2.56,3.67-3.21,4.1l-.47,.31v.56c0,18.35,0,37.72,0,56.07v1.03h1.03s.01-1.03,.01-1.03Z"/>
    <path class="cls-1" d="M1687.81,1005.42l1.03-.14c-.06-.41-.08-.8-.08-1.17,0-1.74,.53-3.08,.77-3.61l-.95-.42,.75,.72c2.66-2.75,4.06-6.42,4.06-9.95,0-1.62-.29-3.21-.91-4.67-.89-2.12-2.3-3.55-3.56-4.45-1.26-.91-2.4-1.32-2.81-1.47l-.34,.98,1.04,.1c.03-.34,.05-.67,.05-1.01,0-3.16-1.39-6.15-3.82-7.81-1.32-.9-2.7-1.21-3.89-1.21-1.06,0-1.97,.23-2.64,.47-.68,.24-1.1,.48-1.24,.56l.54,.89,.98-.35c-.1-.27-.48-1.3-1.28-2.44-.81-1.14-2.07-2.41-3.94-3.09-.86-.31-1.69-.43-2.45-.43-2.44,0-4.15,1.2-4.51,1.46l.61,.85,.88-.56c-.37-.57-2.13-3.31-5.39-4.91l-.46,.93,.49-.92c-.45-.24-.91-.44-1.32-.65-.98-.49-1.73-1.55-1.96-2.69l-.73-3.64-1.27,3.49c-.3,.82-.83,1.56-1.51,2.11-.31,.25-.68,.48-1.09,.72-.07,.04-.24,.12-.46,.2l.37,.97-.36-.98c-2.05,.76-3.64,2.02-4.74,3.12-1.11,1.1-1.74,2.05-1.86,2.24l.88,.56,.72-.75c-.14-.13-.67-.62-1.51-1.09-.84-.47-2-.92-3.39-.93-.6,0-1.23,.09-1.88,.29h0c-1.38,.43-2.57,1.31-3.48,2.46-.91,1.15-1.55,2.57-1.83,4.14l1.02,.18,.74-.73c-1.34-1.35-3.05-2.09-4.78-2.09-.97,0-1.95,.24-2.84,.72-1.22,.66-2.18,1.72-2.83,2.97-.65,1.26-1.01,2.72-1.01,4.24,0,.74,.09,1.5,.27,2.25l1.01-.24-.37-.97c-2.38,.9-3.99,1.97-5.09,3.09-1.1,1.12-1.65,2.27-1.93,3.23-.16,.55-.23,1.13-.23,1.74,0,1.18,.24,2.5,.66,4.13,.41,1.63,1.01,3.58,1.75,5.99,.59,1.93,1.1,3.38,1.44,4.53,.34,1.15,.52,1.97,.52,2.7,0,.41-.05,.8-.17,1.24-.68,2.45-2.26,3.77-2.82,4.19l-.41,.31v.52c0,18.74,0,38.51,0,57.25v1.02l1.02,.02c4.95,.07,9.9,.1,14.84,.1,13.51,0,27-.2,40.48-.2,4.93,0,9.86,.03,14.79,.1l1.06,.02v-58.69l-.44-.31c-.16-.12-.84-.61-1.53-1.5-.69-.89-1.39-2.17-1.62-3.87l-1.03,.14-1.03,.14c.29,2.13,1.18,3.75,2.04,4.86,.86,1.11,1.71,1.74,1.97,1.92l.6-.85h-1.04c0,19.03,0,38.06,0,57.1h1.04l.02-1.04c-4.94-.07-9.89-.1-14.83-.1-13.51,0-27,.2-40.48,.2-4.94,0-9.88-.03-14.81-.1l-.02,1.04h1.04v-57.25h-1.04l.63,.83c.73-.55,2.71-2.21,3.57-5.3,.17-.61,.25-1.2,.25-1.8,0-1.05-.24-2.08-.6-3.29-.36-1.22-.86-2.64-1.44-4.54-.74-2.41-1.32-4.34-1.72-5.89-.4-1.56-.6-2.74-.59-3.62,0-.46,.05-.84,.15-1.17,.2-.68,.57-1.48,1.41-2.35,.84-.86,2.18-1.79,4.34-2.6l.86-.33-.21-.89c-.14-.59-.21-1.18-.21-1.76,0-1.19,.28-2.33,.78-3.27,.49-.94,1.18-1.68,1.98-2.11,.58-.32,1.21-.47,1.84-.47,1.13,0,2.32,.48,3.31,1.48l1.41,1.41,.35-1.97c.22-1.24,.72-2.35,1.41-3.21,.68-.86,1.54-1.47,2.48-1.77h0c.44-.14,.86-.2,1.25-.2,.92,0,1.75,.31,2.37,.66,.63,.35,1.03,.72,1.09,.78l.91,.87,.68-1.06c.05-.09,.61-.93,1.57-1.89,.96-.96,2.33-2.03,3.99-2.64h.01c.21-.09,.48-.18,.77-.35,.44-.26,.9-.54,1.34-.9,.98-.79,1.73-1.84,2.16-3.02l-.98-.35-1.02,.2c.35,1.72,1.43,3.3,3.05,4.13,.48,.24,.94,.45,1.29,.64h.01s.02,.02,.02,.02c2.67,1.3,4.27,3.71,4.54,4.15l.59,.93,.9-.64c.21-.16,1.57-1.07,3.29-1.07,.54,0,1.13,.09,1.75,.31,1.35,.48,2.3,1.43,2.95,2.34,.65,.91,.96,1.75,1.02,1.92l.43,1.21,1.09-.67s.34-.2,.85-.38c.51-.18,1.19-.35,1.95-.35,.85,0,1.77,.2,2.72,.85,1.76,1.18,2.91,3.53,2.91,6.09,0,.27-.01,.54-.04,.81l-.08,.82,.78,.27c.31,.11,1.24,.44,2.27,1.18,1.03,.74,2.14,1.87,2.86,3.57,.5,1.18,.75,2.5,.75,3.86,0,2.99-1.2,6.17-3.47,8.51l-.13,.13-.07,.17c-.3,.67-.95,2.3-.95,4.45,0,.46,.03,.95,.1,1.45l1.03-.14Z"/>
    <path class="cls-1" d="M1549.31,1068.75h1.04v-57.33h-1.04l.79,.68c.84-.97,2.67-3.36,3.09-6.93,.06-.49,.08-.96,.08-1.42,0-2.51-.77-4.63-1.6-6.17-.83-1.55-1.72-2.55-2-2.85l-.76,.7,.89-.53c-1.02-1.71-1.53-3.57-1.53-5.33,0-1.51,.37-2.94,1.12-4.17,1.09-1.79,2.71-2.71,3.61-3.12l.99-.45-.49-.97c-.43-.85-.62-1.72-.62-2.54,0-1.76,.87-3.28,2.09-3.93,.52-.28,1.12-.43,1.77-.43,.93,0,1.95,.31,2.85,.92l1.38,.93,.24-1.64c.15-1.07,.61-1.99,1.23-2.66,.62-.67,1.4-1.09,2.21-1.2,.15-.02,.29-.03,.42-.03,.64,0,1.22,.2,1.68,.43,.46,.23,.78,.49,.88,.58l1.19,1.01,.47-1.49c1.09-3.43,4.24-5.69,7.56-5.68,.23,0,.46,.01,.69,.03h0c3.16,.3,5.93,2.64,6.82,5.88l.43,1.55,1.24-1.03c.88-.73,1.9-1.06,2.84-1.06,.86,0,1.63,.28,2.18,.77,.43,.39,.69,.86,.84,1.36,.15,.49,.19,.98,.19,1.31,0,.21-.01,.34-.02,.39l-.18,1.87,1.68-.83c.72-.36,1.48-.53,2.23-.53,1.33,0,2.59,.54,3.44,1.5,.71,.81,1.09,1.87,1.09,2.98,0,.59-.11,1.2-.33,1.79l-.38,.99,.99,.36c2.29,.85,3.27,2.09,3.69,2.72,.74,1.11,1.13,2.49,1.13,4.05,0,2.8-1.28,6.13-3.89,9.04l-.13,.14-.07,.18c-.4,1.02-.94,2.77-.94,5,0,.42,.02,.86,.06,1.31,.41,4.2,2.65,6.94,3.51,7.91l.77-.69h-1.04c0,18.84,0,37.68,0,56.52h1.04v-1.04c-18.48,.04-36.96,.09-55.43,.13v1.04h0v1.04c18.48-.04,36.96-.09,55.43-.13h1.04v-57.96l-.27-.3c-.74-.82-2.65-3.19-2.99-6.73-.04-.38-.05-.75-.05-1.11,0-1.88,.46-3.38,.8-4.24l-.97-.38,.78,.69c2.9-3.25,4.41-7.01,4.41-10.43,0-1.9-.48-3.71-1.48-5.21-.57-.86-1.95-2.51-4.71-3.52l-.36,.98,.97,.37c.32-.82,.47-1.68,.47-2.53,0-1.58-.54-3.14-1.61-4.36-1.27-1.44-3.11-2.21-5-2.21-1.06,0-2.14,.24-3.16,.74l.46,.93,1.04,.1c0-.07,.03-.3,.03-.59,0-.47-.05-1.16-.28-1.92-.23-.76-.67-1.6-1.44-2.29-.98-.87-2.25-1.3-3.56-1.3-1.43,0-2.92,.51-4.17,1.54l.66,.8,1-.28c-1.12-4.05-4.56-7.01-8.63-7.4h0c-.3-.03-.6-.04-.9-.04-4.26,0-8.18,2.85-9.55,7.13l.99,.32,.67-.79c-.17-.14-.62-.51-1.29-.85-.67-.34-1.56-.65-2.62-.65-.23,0-.46,.02-.69,.05-1.34,.18-2.55,.86-3.46,1.85-.92,.99-1.55,2.3-1.77,3.78l1.03,.15,.58-.86c-1.22-.83-2.63-1.27-4.01-1.27-.95,0-1.91,.22-2.76,.68-2.01,1.1-3.17,3.34-3.17,5.76,0,1.15,.27,2.35,.84,3.49l.93-.47-.43-.95c-1.09,.5-3.11,1.62-4.52,3.93-.96,1.58-1.43,3.4-1.43,5.25,0,2.16,.63,4.38,1.83,6.4l.05,.09,.07,.08c.22,.23,.99,1.09,1.7,2.42,.71,1.33,1.36,3.11,1.35,5.19,0,.38-.02,.78-.07,1.18-.34,2.96-1.89,4.99-2.6,5.81l-.25,.29v.39c0,19.11,0,38.22,0,57.33v1.04h1.04s0-1.04,0-1.04Z"/>
    <path class="cls-1" d="M1708.55,1068.75h1.04v-57.33h-1.04l.79,.68c.84-.97,2.67-3.36,3.09-6.93,.06-.49,.08-.96,.08-1.42,0-2.51-.77-4.63-1.6-6.17-.83-1.55-1.72-2.55-2-2.85l-.76,.71,.89-.53c-1.02-1.71-1.53-3.57-1.53-5.33,0-1.51,.37-2.94,1.12-4.17,1.09-1.79,2.71-2.71,3.61-3.12l.98-.45-.49-.96c-.43-.85-.62-1.72-.62-2.55,0-1.76,.87-3.28,2.09-3.93,.52-.28,1.12-.43,1.77-.43,.93,0,1.95,.31,2.85,.92l1.38,.93,.24-1.64c.15-1.07,.61-1.99,1.23-2.66,.62-.67,1.4-1.09,2.21-1.2,.15-.02,.29-.03,.42-.03,.64,0,1.22,.2,1.68,.43,.46,.23,.78,.49,.88,.58l1.19,1.01,.47-1.49c1.09-3.43,4.24-5.69,7.56-5.68,.23,0,.46,.01,.69,.03h0c3.16,.3,5.93,2.64,6.82,5.88l.43,1.55,1.24-1.03c.88-.73,1.9-1.06,2.84-1.06,.86,0,1.63,.28,2.18,.77,.43,.39,.69,.86,.84,1.36,.15,.49,.19,.98,.19,1.31,0,.21-.01,.34-.02,.39l-.18,1.87,1.68-.83c.72-.36,1.48-.53,2.23-.53,1.33,0,2.59,.54,3.44,1.5,.71,.81,1.09,1.87,1.09,2.98,0,.59-.11,1.2-.33,1.79l-.38,.99,.99,.36c2.29,.85,3.27,2.09,3.69,2.72,.74,1.11,1.13,2.49,1.13,4.05,0,2.8-1.28,6.13-3.89,9.04l-.13,.14-.07,.18c-.4,1.02-.94,2.77-.94,5,0,.42,.02,.86,.06,1.31,.41,4.2,2.65,6.94,3.51,7.91l.77-.69h-1.04c0,18.84,0,37.68,0,56.52h1.04v-1.04c-18.48,.04-36.96,.09-55.43,.13v1.04h0v1.04c18.48-.04,36.96-.09,55.43-.13h1.04v-57.96l-.27-.3c-.74-.82-2.65-3.19-2.99-6.73-.04-.38-.05-.75-.05-1.11,0-1.88,.46-3.38,.8-4.24l-.97-.38,.78,.69c2.9-3.25,4.41-7.01,4.41-10.43,0-1.9-.48-3.71-1.48-5.21-.57-.86-1.95-2.51-4.71-3.52l-.36,.98,.97,.37c.32-.82,.47-1.68,.47-2.53,0-1.58-.54-3.14-1.61-4.36-1.27-1.44-3.11-2.21-5-2.21-1.06,0-2.14,.24-3.16,.74l.46,.93,1.04,.1c0-.07,.03-.3,.03-.59,0-.47-.05-1.16-.28-1.92-.23-.76-.67-1.6-1.44-2.29-.98-.87-2.25-1.3-3.56-1.3-1.43,0-2.92,.51-4.17,1.54l.66,.8,1-.28c-1.12-4.05-4.56-7.01-8.63-7.4h0c-.3-.03-.6-.04-.9-.04-4.26,0-8.18,2.85-9.55,7.13l.99,.32,.67-.79c-.17-.14-.62-.51-1.29-.85-.67-.34-1.56-.65-2.62-.65-.23,0-.46,.02-.69,.05-1.34,.18-2.55,.86-3.46,1.85-.92,.99-1.55,2.3-1.77,3.78l1.03,.15,.58-.86c-1.22-.83-2.63-1.27-4.01-1.27-.95,0-1.91,.22-2.76,.68-2.01,1.1-3.17,3.34-3.17,5.76,0,1.15,.27,2.35,.84,3.49l.93-.47-.43-.95c-1.09,.5-3.11,1.62-4.52,3.93-.96,1.58-1.43,3.4-1.43,5.25,0,2.16,.63,4.38,1.83,6.4l.06,.09,.07,.08c.22,.23,.99,1.09,1.7,2.42,.71,1.33,1.36,3.11,1.35,5.19,0,.38-.02,.78-.07,1.18-.34,2.96-1.89,4.99-2.6,5.81l-.25,.29v.39c0,19.11,0,38.22,0,57.33v1.04h1.04s0-1.04,0-1.04Z"/>
  </g>
</svg>