<svg xmlns="http://www.w3.org/2000/svg" xmlns:xlink="http://www.w3.org/1999/xlink" viewBox="0 0 93.3 93.3"><defs><style>.cls-1{fill:none;}.cls-2{clip-path:url(#clip-path);}.cls-3{fill:url(#linear-gradient);}.cls-4{clip-path:url(#clip-path-2);}.cls-5{fill:url(#linear-gradient-2);}</style><clipPath id="clip-path" transform="translate(21.65 21.65)"><path class="cls-1" d="M0,25A25,25,0,1,0,25,0,25,25,0,0,0,0,25"/></clipPath><linearGradient id="linear-gradient" x1="-1640.25" y1="2616.16" x2="-1639.25" y2="2616.16" gradientTransform="matrix(-50.01, 0, 0, 50.01, -81976.41, -130805.22)" gradientUnits="userSpaceOnUse"><stop offset="0" stop-color="#f7be67"/><stop offset="1" stop-color="#f6d068"/></linearGradient><clipPath id="clip-path-2" transform="translate(21.65 21.65)"><path class="cls-1" d="M24.37,19,13.64,29.74a.89.89,0,0,0,0,1.26.91.91,0,0,0,1.26,0L25,20.9,35.1,31a.91.91,0,0,0,1.26,0,.89.89,0,0,0,0-1.26L25.63,19a.87.87,0,0,0-1.26,0"/></clipPath><linearGradient id="linear-gradient-2" x1="-1686.21" y1="2618.12" x2="-1685.21" y2="2618.12" gradientTransform="translate(27732.46 -43012.05) scale(16.44)" gradientUnits="userSpaceOnUse"><stop offset="0" stop-color="#34393f"/><stop offset="1" stop-color="#26272b"/></linearGradient></defs><g id="Layer_2" data-name="Layer 2"><g id="Layer_2-2" data-name="Layer 2"><g class="cls-2"><rect class="cls-3" x="-9.15" y="-9.15" width="68.3" height="68.3" transform="translate(12.5 37.5) rotate(-30)"/></g><g class="cls-4"><rect class="cls-5" x="13.69" y="11.76" width="22.62" height="26.58" transform="translate(12.46 55.82) rotate(-60)"/></g></g></g></svg>