<svg xmlns="http://www.w3.org/2000/svg" xmlns:xlink="http://www.w3.org/1999/xlink" viewBox="0 0 93.3 93.3"><defs><style>.cls-1{fill:none;}.cls-2{clip-path:url(#clip-path);}.cls-3{fill:url(#linear-gradient);}.cls-4{clip-path:url(#clip-path-2);}.cls-5{fill:url(#linear-gradient-2);}</style><clipPath id="clip-path" transform="translate(21.65 21.65)"><path class="cls-1" d="M0,25A25,25,0,1,0,25,0,25,25,0,0,0,0,25"/></clipPath><linearGradient id="linear-gradient" x1="-1652.79" y1="2506.51" x2="-1651.79" y2="2506.51" gradientTransform="translate(-125321.84 -82603.43) rotate(-90) scale(50.01)" gradientUnits="userSpaceOnUse"><stop offset="0" stop-color="#f7be67"/><stop offset="1" stop-color="#f6d068"/></linearGradient><clipPath id="clip-path-2" transform="translate(21.65 21.65)"><path class="cls-1" d="M35.1,19,25,29.1,14.9,19a.89.89,0,1,0-1.26,1.26L24.37,31a.89.89,0,0,0,1.26,0L36.36,20.27a.89.89,0,0,0,0-1.26.87.87,0,0,0-.63-.26.85.85,0,0,0-.63.26"/></clipPath><linearGradient id="linear-gradient-2" x1="-1620.39" y1="2492.1" x2="-1619.39" y2="2492.1" gradientTransform="matrix(0, 16.44, 16.44, 0, -40940.51, 26650.53)" gradientUnits="userSpaceOnUse"><stop offset="0" stop-color="#34393f"/><stop offset="1" stop-color="#26272b"/></linearGradient></defs><g id="Layer_2" data-name="Layer 2"><g id="Layer_2-2" data-name="Layer 2"><g class="cls-2"><rect class="cls-3" x="-9.15" y="-9.15" width="68.3" height="68.3" transform="translate(12.5 55.8) rotate(-60)"/></g><g class="cls-4"><rect class="cls-5" x="11.71" y="13.65" width="26.58" height="22.62" transform="matrix(0.87, -0.5, 0.5, 0.87, 12.52, 37.49)"/></g></g></g></svg>