<svg xmlns="http://www.w3.org/2000/svg" xmlns:xlink="http://www.w3.org/1999/xlink" viewBox="0 0 75.13 75.13"><defs><style>.cls-1{fill:none;}.cls-2{clip-path:url(#clip-path);}.cls-3{fill:url(#linear-gradient);}.cls-4{clip-path:url(#clip-path-2);}.cls-5{fill:#ebc848;}</style><clipPath id="clip-path" transform="translate(17.43 17.43)"><path class="cls-1" d="M0,20.13A20.13,20.13,0,1,0,20.13,0,20.13,20.13,0,0,0,0,20.13"/></clipPath><linearGradient id="linear-gradient" x1="-1645.06" y1="3300.53" x2="-1644.06" y2="3300.53" gradientTransform="translate(-66201.01 132921.66) rotate(180) scale(40.27)" gradientUnits="userSpaceOnUse"><stop offset="0" stop-color="#34393f"/><stop offset="0.53" stop-color="#2a2c31"/><stop offset="1" stop-color="#26272b"/></linearGradient><clipPath id="clip-path-2" transform="translate(17.43 17.43)"><path class="cls-1" d="M15.3,11a.72.72,0,0,0,0,1l8.13,8.13L15.3,28.26a.72.72,0,0,0,1,1L25,20.64a.72.72,0,0,0,0-1L16.32,11a.72.72,0,0,0-1,0"/></clipPath></defs><g id="Layer_2" data-name="Layer 2"><g id="Layer_2-2" data-name="Layer 2"><g class="cls-2"><rect class="cls-3" x="-7.37" y="-7.37" width="55" height="55" transform="translate(10.06 44.93) rotate(-60)"/></g><g class="cls-4"><rect class="cls-5" x="11.01" y="9.5" width="18.18" height="21.34" transform="translate(10.04 30.18) rotate(-30)"/></g></g></g></svg>