<svg xmlns="http://www.w3.org/2000/svg" xmlns:xlink="http://www.w3.org/1999/xlink" viewBox="0 0 75.12 75.12"><defs><style>.cls-1{fill:none;}.cls-2{clip-path:url(#clip-path);}.cls-3{fill:url(#linear-gradient);}.cls-4{clip-path:url(#clip-path-2);}.cls-5{fill:#ebc848;}</style><clipPath id="clip-path" transform="translate(17.43 17.43)"><path class="cls-1" d="M0,20.13A20.13,20.13,0,1,0,20.13,0,20.13,20.13,0,0,0,0,20.13"/></clipPath><linearGradient id="linear-gradient" x1="293.56" y1="3300.68" x2="294.56" y2="3300.68" gradientTransform="matrix(0, 40.27, 40.27, 0, -132887.15, -11820.83)" gradientUnits="userSpaceOnUse"><stop offset="0" stop-color="#34393f"/><stop offset="0.53" stop-color="#2a2c31"/><stop offset="1" stop-color="#26272b"/></linearGradient><clipPath id="clip-path-2" transform="translate(17.43 17.43)"><path class="cls-1" d="M22.94,11,14.3,19.62a.72.72,0,0,0,0,1l8.64,8.63a.72.72,0,1,0,1-1l-8.14-8.13L24,12a.72.72,0,0,0-1-1"/></clipPath></defs><g id="Layer_2" data-name="Layer 2"><g id="Layer_2-2" data-name="Layer 2"><g class="cls-2"><rect class="cls-3" x="-7.37" y="-7.37" width="54.99" height="55" transform="translate(10.06 30.19) rotate(-30)"/></g><g class="cls-4"><rect class="cls-5" x="8.49" y="11.08" width="21.34" height="18.17" transform="translate(9.55 44.11) rotate(-60)"/></g></g></g></svg>