<svg id="Layer_2" data-name="Layer 2" xmlns="http://www.w3.org/2000/svg" viewBox="0 0 221.33 221.33"><defs><style>.cls-1{fill:#ebc848;}</style></defs><path class="cls-1" d="M121.81,154.86A11.15,11.15,0,1,0,104,163.73l.11.08v15.91h13.15V163.81l.11-.08A11.17,11.17,0,0,0,121.81,154.86ZM114.23,161l-.14-.25.14.25-1,.57v14.14H108.1V161.58l-1-.57a7.15,7.15,0,1,1,7.13,0Z"/><path class="cls-1" d="M77.4,80.69a11.13,11.13,0,1,0,3.27,7.88A11.15,11.15,0,0,0,77.4,80.69Zm-7.88,15a7.14,7.14,0,1,1,7.14-7.14A7.14,7.14,0,0,1,69.52,95.71Z"/><path class="cls-1" d="M159.69,80.69A11.13,11.13,0,1,0,163,88.57,11.15,11.15,0,0,0,159.69,80.69Zm-7.88,15A7.14,7.14,0,1,1,159,88.57,7.14,7.14,0,0,1,151.81,95.71Z"/><path class="cls-1" d="M118.54,80.69a11.13,11.13,0,1,0,3.27,7.88A11.13,11.13,0,0,0,118.54,80.69Zm-7.87,15a7.14,7.14,0,1,1,7.14-7.14A7.15,7.15,0,0,1,110.67,95.71Z"/><path class="cls-1" d="M169.26,59.69a40.72,40.72,0,0,0-28.88-12H81a40.84,40.84,0,0,0-31.78,66.52l.06.08v28.93A6.77,6.77,0,0,0,61,147.81l17-18.5h.14c1,.07,2,.11,2.88.11h4.86v6l-.17.08A11.15,11.15,0,0,0,79,145.72v32a11.16,11.16,0,0,0,11.14,11.14h41.15a11.16,11.16,0,0,0,11.14-11.14v-32a11.14,11.14,0,0,0-6.68-10.2l-.17-.08v-6h4.85a40.84,40.84,0,0,0,28.88-69.74Zm-30.88,86v32a7.14,7.14,0,0,1-7.14,7.14H90.09A7.14,7.14,0,0,1,83,177.72v-32a7.15,7.15,0,0,1,7.14-7.15h41.15A7.15,7.15,0,0,1,138.38,145.72Zm-16.61-29.4A15.72,15.72,0,0,0,95,127.43v7.14H89.81v-7.14a20.86,20.86,0,1,1,41.71,0v7.14h-5.14v-7.14A15.67,15.67,0,0,0,121.77,116.32Zm.33,13.11h.28v5.14H99v-5.14Zm-23-4,.07-.34a11.71,11.71,0,0,1,23,0l.07.34Zm41.26,0h-4.95l0-.26a24.85,24.85,0,0,0-49.49,0l0,.26H81c-1.17,0-2.36-.06-3.63-.18l-1-.1L58,145.1a2.72,2.72,0,0,1-2,.9,2.77,2.77,0,0,1-2.77-2.76V112.85l-.46-.55A36.84,36.84,0,0,1,81,51.71h59.43a36.86,36.86,0,1,1,0,73.72Z"/><path class="cls-1" d="M110.67,0A110.67,110.67,0,1,0,221.33,110.67,110.67,110.67,0,0,0,110.67,0Zm75.42,186.09a106.67,106.67,0,1,1,31.24-75.42A106.29,106.29,0,0,1,186.09,186.09Z"/></svg>