<svg xmlns="http://www.w3.org/2000/svg" viewBox="0 0 421 45.83"><defs><style>.cls-1{fill:#fff;}</style></defs><g id="Layer_2" data-name="Layer 2"><g id="Layer_2-2" data-name="Layer 2"><path class="cls-1" d="M0,0V45.83H45.82V0ZM41.49,17.93c-.35,0-.31-.26-.35-.46-.1-.56-.18-1.13-.32-1.68A3.7,3.7,0,0,0,38.14,13a12.62,12.62,0,0,0-3.86-.48c-.35,0-.51.17-.49.5V31.88c0,1.24.09,1.36,1.34,1.57.58.1,1.2.1,1.8.17.15,0,.27.16.41.25-.13.07-.26.21-.4.21-3.3,0-6.61,0-9.92,0-.13,0-.26-.14-.39-.22.12-.08.24-.22.38-.24.78-.11,1.57-.16,2.35-.31s.76-.33.8-1c0-.24,0-.48,0-.72q0-9.09,0-18.18c0-.88,0-.93-.88-.87a19,19,0,0,0-2.73.35,3.77,3.77,0,0,0-3,2.89c-.15.52-.24,1.06-.35,1.58,0,.22,0,.46-.35.46s-.3-.28-.33-.48c-.11-.67-.19-1.35-.3-2A2.63,2.63,0,0,0,20.07,13a23.12,23.12,0,0,0-8.21-.32c-.79.1-1,.36-1,1.11,0,2.53,0,5,0,7.59,0,.09,0,.18,0,.33,1.82,0,3.59.06,5.35,0a2.18,2.18,0,0,0,2-2.26c0-.36,0-.73,0-1.1s.08-.43.4-.42.47.05.47.41c0,2.66,0,5.31,0,8,0,.33-.13.41-.42.41s-.46-.07-.44-.4,0-.7,0-1.05A2.17,2.17,0,0,0,16.09,23c-1.73-.07-3.46,0-5.28,0v.56l0,8.07c0,1,.14,1.23,1.11,1.33a36,36,0,0,0,4.27.17,8.59,8.59,0,0,0,4.48-1.31,4.3,4.3,0,0,0,2.14-3.07c0-.07,0-.17.05-.22s.17-.21.24-.2.17.13.23.22a.65.65,0,0,1,0,.24c0,1.61,0,3.22,0,4.83,0,.37-.1.52-.5.52H4.74a.64.64,0,0,1-.24,0,2.1,2.1,0,0,1-.3-.22,1.89,1.89,0,0,1,.28-.23,1.32,1.32,0,0,1,.29,0c.26,0,.54,0,.8,0,1.38-.13,1.7-.44,1.7-1.8v-18c0-1.28-.07-1.36-1.34-1.64-.4-.08-.82-.09-1.23-.17a1.64,1.64,0,0,1-.49-.22,1.74,1.74,0,0,1,.48-.22,4.21,4.21,0,0,1,.71,0H41.05c.7,0,.7,0,.7.69v5.16C41.75,17.62,41.85,17.9,41.49,17.93Z"/><path id="path2" class="cls-1" d="M419,27.58a12.46,12.46,0,0,0-5.8-2.35,21,21,0,0,1-5.49-1.58,3.34,3.34,0,0,1-2-3.11A3.66,3.66,0,0,1,407,17.63a5.23,5.23,0,0,1,3.46-1.08,6.88,6.88,0,0,1,5.1,2.12,11.33,11.33,0,0,1,2.91,5.94h.45l0-8.7h-.34a6.26,6.26,0,0,1-.7,1.87,4,4,0,0,1-1.17,1.2,8,8,0,0,0-6.14-3,6.87,6.87,0,0,0-4.86,1.79,5.94,5.94,0,0,0-1.88,4.51,5.78,5.78,0,0,0,2,4.65,14,14,0,0,0,5.66,2.42,20,20,0,0,1,5.22,1.75,4.1,4.1,0,0,1,1.95,3.74A4.22,4.22,0,0,1,417.39,38,4.77,4.77,0,0,1,414,39.16a7.2,7.2,0,0,1-5.41-2.45,16,16,0,0,1-3.5-7.16h-.5l0,10.18H405a5.81,5.81,0,0,1,2.41-3.57q2.79,3.54,6.42,3.54a7.13,7.13,0,0,0,5.19-2,6.91,6.91,0,0,0,2-5.14A6.18,6.18,0,0,0,419,27.58ZM403.48,36l0-6h-.55c-.49,3.5-1.34,5.85-2.54,7s-3.12,1.67-6,1.69c-2.66,0-4-.16-4.12-.53A102.69,102.69,0,0,1,390,27.72h1.89a3.83,3.83,0,0,1,3.44,1.44q1,1.46,1,5h.53l-.05-13h-.53c0,2.32-.34,3.92-1.05,4.76s-2,1.27-3.9,1.28l-1.35,0c0-5.86.05-9,.23-9.34s.57-.4,1.38-.45h1.85q4.49,0,6.1,1.53c1.09,1,1.82,3.28,2.19,6.7h.57l0-8.81-10.47,0-5.07,0-5.37,0v.54c2.67,0,4.07.21,4.22.67a61.83,61.83,0,0,1,.25,7.71l0,5a52.22,52.22,0,0,1-.2,7.2c-.15.48-1.56.72-4.21.73v.71l9.71-.15,12.34.09Zm-26.85,2.15a5,5,0,0,1-.15-1.62c0-.9,0-1.72,0-2.48l-.05-12v-.81a15.16,15.16,0,0,1,.16-3.21c.1-.35,1.44-.53,4-.54v-.61h-3.7l-3,0h-2.39L366.62,33h-.27l-5.17-16.09-5.26,0-3.51,0v.57c1.6,0,2.65.32,3.17,1a6.29,6.29,0,0,1,.78,3.67L356.64,35v.15a4,4,0,0,1-.92,3,4.58,4.58,0,0,1-3.23.9v.54c.7,0,1.77,0,3.23-.11s2.56-.11,3.31-.12l2.9,0v-.51c-2,0-3.3-.49-3.94-1.46s-.77-2.52-.79-5.06L356.88,18h.56l6.93,21.38h1.17c.47-2.12,1.45-5.71,3-10.73l3.23-10.57h.52l.07,18.95c0,.9-.17,1.42-.54,1.55a18.63,18.63,0,0,1-3.86.22v.46l6.45,0,6.28.05v-.55C378.14,38.78,376.81,38.56,376.63,38.11Zm-25,.62c-2.62,0-4-.22-4.2-.7s-.29-3.91-.32-10.27c0-5.87,0-9.07.22-9.57s1.57-.75,4.2-.77v-.61c-.68,0-1.7,0-3.07.06s-2.15.06-2.38.06c0,0-1,0-2.87,0s-3.47,0-4.73,0v.6c2.63,0,4,.24,4.2.76a56.68,56.68,0,0,1,.29,7.7c0,3.74,0,6.62,0,8.66a23.84,23.84,0,0,1-.18,3.44c-.16.49-1.54.75-4.16.76v.64l6.5-.13,6.54.1ZM341.88,8,328.15,8l-13.45,0,.05,8.36H315c.47-3.86,1.25-4.29,2.37-5.55a6.5,6.5,0,0,1,4.37-1.95h3.43l.17,6.26q.1,20.81-.12,22a1.64,1.64,0,0,1-1.32,1.47,30.08,30.08,0,0,1-5,.27l-.22.53,19-.09-.24-.51a23.62,23.62,0,0,1-4.31-.32c-1.2-.21-1.82-.51-1.87-.9s-.09-4.25-.12-11.58l0-10.09.06-7.08H335q4.14,0,5.66,3.31c.38.84.77,1,1.16,4.24h.09ZM306.35,29.71v.2a10.26,10.26,0,0,1-2,6.67A6.63,6.63,0,0,1,299,39.05c-4.21,0-6.36-3.7-6.39-11.15,0-3.7.47-6.48,1.48-8.37a4.8,4.8,0,0,1,4.42-2.84c3.9,0,6.22,3.22,7,9.72h.6l0-10.65h-.51a10.18,10.18,0,0,1-.67,1.49c-.26.44-.55.9-.85,1.35h-.31a7.68,7.68,0,0,0-2.44-1.93,6.53,6.53,0,0,0-2.88-.57,9.14,9.14,0,0,0-7.28,3.46,13.28,13.28,0,0,0-2.85,8.84,11.89,11.89,0,0,0,2.83,8.28,9.49,9.49,0,0,0,7.41,3.06,7.88,7.88,0,0,0,6.27-2.65c1.49-1.76,2.23-4.21,2.21-7.38ZM284.65,38c-.19-.48-.29-3.9-.32-10.26q0-8.82.21-9.58c.17-.5,1.57-.75,4.22-.76V16.8c-.67,0-1.69,0-3.07.07l-2.37.06-2.88,0c-1.9,0-3.47,0-4.73,0v.61c2.62,0,4,.23,4.18.75a53.78,53.78,0,0,1,.3,7.7c0,3.75,0,6.63,0,8.66A21.87,21.87,0,0,1,280,38c-.14.49-1.52.74-4.16.75v.65l6.51-.14,6.52.1v-.67C286.23,38.73,284.83,38.51,284.65,38Zm-13.78.12a5.6,5.6,0,0,1-.13-1.63c0-.89,0-1.71,0-2.47l-.06-12v-.82a17.38,17.38,0,0,1,.15-3.21c.11-.35,1.44-.52,4-.53v-.62l-3.7,0-3,0h-2.37L260.87,33h-.27l-5.16-16.07h-8.78v.57c1.6,0,2.65.32,3.17,1a6.35,6.35,0,0,1,.78,3.67l.3,12.88v.14a4,4,0,0,1-.92,3,4.66,4.66,0,0,1-3.23.89v.54c.69,0,1.77,0,3.22-.1s2.57-.12,3.34-.12l2.89,0v-.5c-2,0-3.32-.49-3.94-1.47-.52-.83-.79-2.51-.8-5l-.34-14.32h.58l6.92,21.39h1.17c.45-2.14,1.45-5.71,3-10.74L266,18.12h.54l.06,19c0,.9-.18,1.42-.55,1.55a18.74,18.74,0,0,1-3.88.22v.47l6.46,0,6.28,0v-.54C272.4,38.81,271.06,38.59,270.87,38.14ZM247.15,22.5A10.92,10.92,0,0,0,244,18.32a9.35,9.35,0,0,0-6.12-2.27,9.78,9.78,0,0,0-7.17,3.05,12.18,12.18,0,0,0-2.64,4.12,13.21,13.21,0,0,0-.92,5,13,13,0,0,0,.82,4.44,11.67,11.67,0,0,0,2.27,3.76,10.53,10.53,0,0,0,3.39,2.47,9.34,9.34,0,0,0,3.93.87,10,10,0,0,0,7.61-3.48,11.9,11.9,0,0,0,3.14-8.39A12.65,12.65,0,0,0,247.15,22.5Zm-9.41,16.59q-2.7,0-4.26-3.05c-1.06-2-1.58-4.91-1.6-8.61q0-5.26,1.49-8a4.84,4.84,0,0,1,4.44-2.74c1.8,0,3.19,1,4.19,3.08s1.52,5,1.54,8.9Q243.58,39.06,237.74,39.09Zm-13-22.3-4.83-.05v.54c2,0,3.4.47,4.08,1.42s.84,2.35.85,4.61l0,9.32L212.71,16.84l-3.63,0-3.66-.06v.54a7.25,7.25,0,0,1,2.93.43,3.47,3.47,0,0,1,1.58,1.81l.32,12.88,0,1.13a6.34,6.34,0,0,1-.76,3.67c-.58.76-1.79,1.28-3.63,1.57v.63c.42,0,1.32,0,2.69-.09s2.36-.1,3-.1l4.24,0v-.61c-2,0-3.35-.41-4-1.28s-1-2.47-1-4.8l-.28-12.31,9.55,12.48c1.56,2,2.53,3.33,2.91,3.91.65.93,1.32,2,2,3.11h.68c0-.87-.05-2.32-.12-4.31s-.12-3.56-.13-4.67l0-7.74a10.92,10.92,0,0,1,.54-4.41c.54-1,1.74-1.44,3.63-1.45v-.48ZM207.15,22.5A11.44,11.44,0,0,0,204,18.32a9.36,9.36,0,0,0-6.12-2.27,9.78,9.78,0,0,0-7.19,3.06,12,12,0,0,0-2.63,4.11,13.38,13.38,0,0,0-.93,5,12.75,12.75,0,0,0,.83,4.44,11.25,11.25,0,0,0,2.28,3.76,10.24,10.24,0,0,0,3.37,2.47,9.52,9.52,0,0,0,3.92.87,10,10,0,0,0,7.63-3.48,11.85,11.85,0,0,0,3.14-8.38A12.81,12.81,0,0,0,207.15,22.5Zm-9.43,16.59c-1.78,0-3.21-1-4.26-3.05s-1.59-4.91-1.61-8.6q0-5.28,1.5-8a4.83,4.83,0,0,1,4.44-2.74c1.8,0,3.2,1,4.2,3.07s1.52,5.05,1.54,8.92Q203.56,39.06,197.72,39.09Zm-12.07-9.38v.2a10.21,10.21,0,0,1-2,6.67,6.68,6.68,0,0,1-5.34,2.48c-4.24,0-6.39-3.71-6.41-11.16q0-5.53,1.48-8.36a4.77,4.77,0,0,1,4.41-2.84q5.85,0,7,9.71h.6l0-10.66h-.52a10.81,10.81,0,0,1-.67,1.5c-.26.44-.55.89-.86,1.33H183a7.71,7.71,0,0,0-2.44-1.93,6.43,6.43,0,0,0-2.87-.57,9.11,9.11,0,0,0-7.27,3.46,13.31,13.31,0,0,0-2.86,8.84,12,12,0,0,0,2.83,8.28,9.51,9.51,0,0,0,7.41,3.06A7.85,7.85,0,0,0,184,37.08c1.49-1.75,2.22-4.21,2.22-7.38Zm-19.17,4.85,0-8.4h-.76q-1.05,7.35-3.59,9.86c-1.56,1.54-4.33,2.32-8.34,2.34-3.69,0-5.62-.22-5.76-.73-.21-.79-.35-5.65-.38-14.59h2.64c2.31,0,3.91.66,4.84,2s1.38,3.7,1.4,7.05h.75l-.08-18.26h-.75c0,3.27-.46,5.5-1.46,6.67s-2.8,1.78-5.45,1.78l-1.89,0q-.06-12.33.31-13.08c.16-.35.8-.56,1.94-.63l2.59,0c4.17,0,7,.7,8.55,2.15s2.53,4.58,3.06,9.39h.8L164.8,7.71l-14.63.07-7.1,0-7.53,0v.75c3.73,0,5.71.3,5.91.95s.34,4.23.36,10.79l0,7c0,6.07-.06,9.42-.28,10.08s-2.19,1-5.88,1v1l13.6-.21,17.27.12ZM127.06,36l0-6h-.54q-.75,5.25-2.57,7-1.67,1.66-6,1.68c-2.65,0-4-.16-4.11-.52-.16-.57-.25-4-.28-10.43h1.9a3.81,3.81,0,0,1,3.44,1.44c.66,1,1,2.64,1,5h.54l0-13h-.54c0,2.33-.34,3.93-1,4.76s-2,1.28-3.9,1.29l-1.35,0c0-5.86,0-9,.22-9.34s.58-.39,1.38-.45H117c3,0,5,.5,6.1,1.53s1.82,3.27,2.19,6.7h.57l0-8.82-10.44.05-5.07,0-5.39,0v.54c2.65,0,4.07.22,4.22.67a61.83,61.83,0,0,1,.25,7.71l0,5a52.23,52.23,0,0,1-.2,7.19c-.16.48-1.55.72-4.2.73v.71l9.71-.15,12.33.09Zm-23,2.71c-2.59,0-4-.19-4.13-.62s-.25-3.86-.27-10.32V25.66a58.8,58.8,0,0,1,.18-7.55q.21-.67,4.14-.69v-.67l-6.76.17-5.76-.12v.67c2.38,0,3.64.22,3.81.69a34,34,0,0,1,.26,5.64v1.51l0,1.9-10.16.05a80.41,80.41,0,0,1,.19-9.1c.28-.43,1.53-.67,3.77-.68v-.67L83.43,17l-6.62-.1v.67c2.65,0,4,.23,4.21.71a5.6,5.6,0,0,1,.17,1.81v5.87l0,5c0,2.15,0,3.82,0,5A13.75,13.75,0,0,1,81.11,38c-.15.5-1.56.76-4.2.78v.63l6.41-.13,6.07.11v-.68l-2.21-.19c-.94-.1-1.45-.28-1.54-.53s-.26-3.58-.28-9.68l10.15,0c0,6.18-.05,9.44-.23,9.75s-1.5.67-3.77.68v.65l6-.14,6.57.12ZM80.43,8,66.68,8H53.23l0,8.18h.23a8.3,8.3,0,0,1,2.37-5.37,6.59,6.59,0,0,1,4.37-1.95l3.44,0,.16,6.27q.09,20.81-.11,22a1.68,1.68,0,0,1-1.33,1.48,30,30,0,0,1-5,.27l-.25.52,19-.08L76,38.83a23.56,23.56,0,0,1-4.31-.31c-1.21-.22-1.83-.52-1.88-.91s-.09-4.25-.12-11.58L69.63,16l.07-7.08h3.86c2.75,0,4.64,1.09,5.65,3.32a10.55,10.55,0,0,1,1.16,4.05h.09Z"/></g></g></svg>