<svg xmlns="http://www.w3.org/2000/svg" viewBox="0 0 50.41 50.41"><defs><style>.cls-1{fill:#fff;}.cls-2{fill:#ebc848;}.cls-3{fill:#161139;}</style></defs><g id="Layer_2" data-name="Layer 2"><g id="Layer_2-2" data-name="Layer 2"><path class="cls-1" d="M50.41,25.19A25.21,25.21,0,1,0,25.49,50.41,25.22,25.22,0,0,0,50.41,25.19Z"/><path class="cls-2" d="M50.41,25.19A25.21,25.21,0,1,1,25.2,0,25.2,25.2,0,0,1,50.41,25.19ZM10.92,15,25.19,29.31,39.47,15ZM39.57,35.37l-9.13-9.14L25.18,31.5,20,26.32l-9.06,9ZM18.83,25.24l-9-9v18.1Zm21.79,9v-18l-9,9Z"/><polygon class="cls-3" points="38.7 15.36 11.69 15.36 25.19 28.86 38.7 15.36"/><polygon class="cls-3" points="25.18 31.95 20.02 26.77 11.73 35.05 38.8 35.05 30.44 26.69 25.18 31.95"/><polygon class="cls-3" points="10.1 16.96 10.1 33.52 18.38 25.24 10.1 16.96"/><polygon class="cls-3" points="40.3 33.46 40.3 16.98 32.06 25.21 40.3 33.46"/></g></g></svg>