<svg id="Layer_2" data-name="Layer 2" xmlns="http://www.w3.org/2000/svg" viewBox="0 0 221.33 221.33"><defs><style>.cls-1{fill:#ebc848;}</style></defs><path class="cls-1" d="M169.13,175.77v-35a4.15,4.15,0,0,0-4.11-4.13c-2,0-9.93,0-11.9,0a4.18,4.18,0,0,0-4.09,4.16c0,.2,0,.4,0,.6s0,.35,0,.52,0,.6,0,.91a2,2,0,0,1-.16.64l-.15.22a.46.46,0,0,1-.28.12c-.52.05-1.06.09-1.61.09a5.56,5.56,0,0,1-1-.07,1.06,1.06,0,0,1-.7-.51,3.34,3.34,0,0,1-.37-.65q-3.23-6.61-6.41-13.27c-.17-.35-.28-.7-.46-1.16l-.21-.54h3.85a6.57,6.57,0,0,0,6.7-6.48v-.07a6.52,6.52,0,0,0-6.62-6.58,2.53,2.53,0,0,1-.78-.09,1.08,1.08,0,0,1-.66-.55,1.64,1.64,0,0,1-.17-.65,4.53,4.53,0,0,0-.55-1.45c-1-1.92-10.14-20.11-13.77-27.28A4.35,4.35,0,0,0,121.8,82a4.43,4.43,0,0,0-3.7,2.14c-1.62,2.48-3.23,5-4.77,7.47a2.24,2.24,0,0,1-.49.62,1.07,1.07,0,0,1-.68.26,1.83,1.83,0,0,1-1-.42c-4.22-2.94-8.48-5.83-12.72-8.75A5.83,5.83,0,0,0,95.17,82,5.72,5.72,0,0,0,92,83.27c-4.21,2.9-8.44,5.78-12.64,8.69a1.67,1.67,0,0,1-.92.37,1,1,0,0,1-.62-.23,2,2,0,0,1-.44-.54c-1.46-2.37-3-4.7-4.49-7.07a4.9,4.9,0,0,0-2.44-2.22A4.43,4.43,0,0,0,68.84,82,4.25,4.25,0,0,0,65,84.46q-6,11.6-12,23.22a44.24,44.24,0,0,0-2.59,5.39,2.33,2.33,0,0,1-.72,1.15,2.13,2.13,0,0,1-1.25.34,6.55,6.55,0,0,0-3.56,1.09,6.67,6.67,0,0,0-2.28,2.92,6.74,6.74,0,0,0-.57,2.65,6.38,6.38,0,0,0,1.81,4.33,6.25,6.25,0,0,0,4.88,2.13h5.87l-.26.57c-.16.35-.23.53-.34.74a10.69,10.69,0,0,0-1.46,5.19,9.49,9.49,0,0,0,3.51,7.17q20.59,18.36,41.22,36.71a7.14,7.14,0,0,0,5.11,1.94l49.74-.1,12.72,0A4.14,4.14,0,0,0,169.13,175.77ZM54.23,113.83,68.8,85.57l.38.53c.31.43.53.71.74,1,2.25,3.51,4.52,7,6.74,10.54A1.39,1.39,0,0,0,77,98l.12.06a1.1,1.1,0,0,0,.51-.24C83,94.07,88.51,90.36,94,86.58a2.22,2.22,0,0,1,1.23-.47,2,2,0,0,1,1.17.44C101.88,90.39,107.44,94.16,113,98a1.13,1.13,0,0,0,.53.25l.15-.06a2.54,2.54,0,0,0,.31-.4c2.21-3.54,4.47-7.05,6.72-10.56.23-.36.48-.66.82-1.12l.38-.53,14.56,28.83H53.93Zm-4.7,10a4.3,4.3,0,0,1-2.57-.68,2.45,2.45,0,0,1-1-2v0a2.44,2.44,0,0,1,1-2,4.21,4.21,0,0,1,2.55-.68h91.71a6,6,0,0,1,.72,0,2.7,2.7,0,0,1,2.42,2.69v.05a2.7,2.7,0,0,1-2.4,2.64,5.74,5.74,0,0,1-.71,0ZM119.92,145v0a2,2,0,0,1-.26,1.1,1.94,1.94,0,0,1-.88.73,27,27,0,0,0-2.53,1.37,1.54,1.54,0,0,1-.74.24.82.82,0,0,1-.56-.2,1.65,1.65,0,0,1-.38-.48l-10.38-18.82a4,4,0,0,1-.22-.69l-.13-.48.5,0c.42,0,.72-.06,1-.06l13,0a2.38,2.38,0,0,1,.91.15,1.12,1.12,0,0,1,.59.7,2.4,2.4,0,0,1,.08.68S119.91,142.26,119.92,145ZM87.5,138l6.22,10.63-.8.58L70.13,128.46l.39-.7H87.4l-.18.53c-.09.29-.17.57-.29.86a10.11,10.11,0,0,0-.84,3.93A9.58,9.58,0,0,0,87.5,138Zm3.35-2a16.78,16.78,0,0,1-1-2.76l0-.08v-.08a6.18,6.18,0,0,1,1.59-3.69,5.16,5.16,0,0,1,3.82-1.79h.12a6.65,6.65,0,0,1,3.33.85,6.33,6.33,0,0,1,2.25,2.5q5,9.18,10.1,18.28a2.06,2.06,0,0,1,.32,1,1.06,1.06,0,0,1-.29.72,2.43,2.43,0,0,1-.69.49c-2.26,1.16-4.49,2.4-6.73,3.63a1.77,1.77,0,0,1-.85.27.92.92,0,0,1-.61-.21,2.2,2.2,0,0,1-.44-.54C98.11,148.35,94.45,142.19,90.85,136ZM149,175.36a1,1,0,0,1-.31.48,1.67,1.67,0,0,1-1.08.3H102.69a4.38,4.38,0,0,1-3.08-1.22c-12.7-11.33-40.22-35.75-41.23-36.71A5.87,5.87,0,0,1,56.47,134,5.42,5.42,0,0,1,58,130.16a5.54,5.54,0,0,1,4.05-1.78,6,6,0,0,1,4,1.62l33.49,30.51c.39.35.63.47.88.47a1.61,1.61,0,0,0,.75-.24q10.88-6,21.82-11.82a1.48,1.48,0,0,0,.61-.51,1.52,1.52,0,0,0,.16-.77l0-18.19c0-.46,0-.89.08-1.4l0-.37s7.16,0,8.63,0a.93.93,0,0,1,.46.16,1.75,1.75,0,0,1,.33.28,3.2,3.2,0,0,1,.47.68c2.33,4.78,8.24,17,8.85,18.37a.93.93,0,0,0,.31.43.78.78,0,0,0,.49.12h2.68c.44,0,.87,0,1.3,0h.21a2.06,2.06,0,0,1,.62.09,1.13,1.13,0,0,1,.49.32,1.76,1.76,0,0,1,.32,1.17v25.47A1.83,1.83,0,0,1,149,175.36Zm16.35-.77v0a2.11,2.11,0,0,1-.16.89,1,1,0,0,1-.67.55,2.1,2.1,0,0,1-.63.07h-9.59a1.74,1.74,0,0,1-.83-.16,1,1,0,0,1-.51-.66,1.9,1.9,0,0,1-.07-.6c0-5.77,0-27.69,0-32.88A1.8,1.8,0,0,1,153,141a1,1,0,0,1,.62-.51,2.12,2.12,0,0,1,.57-.07h0c1.64,0,9.72,0,9.72,0a2,2,0,0,1,.62.09,1,1,0,0,1,.48.33,1.65,1.65,0,0,1,.25,1Z"/><path class="cls-1" d="M66.49,53.05a4.64,4.64,0,0,0,2.1,3.76q5.55,3.87,11.13,7.67a2.31,2.31,0,0,1,.58.54,1.21,1.21,0,0,1,.23.74,2.1,2.1,0,0,1-.13.68c-1,2.88-2,5.78-3,8.68a38,38,0,0,0-1.5,4.65,4.43,4.43,0,0,0-.09.87A3.92,3.92,0,0,0,77.76,84a4,4,0,0,0,4.77-.06q5.81-4,11.54-8a1.87,1.87,0,0,1,1.1-.42,2,2,0,0,1,1.13.43c3.71,2.62,7.45,5.19,11.2,7.76a5.05,5.05,0,0,0,2.86,1,3.94,3.94,0,0,0,2.47-.87,4,4,0,0,0,1.64-3.29,5.82,5.82,0,0,0-.34-1.89c-1.37-4-2.74-8.09-4.15-12.12a2.27,2.27,0,0,1-.15-.74,1.32,1.32,0,0,1,.23-.74,2.11,2.11,0,0,1,.59-.56c3.67-2.5,7.32-5,11-7.56a4.47,4.47,0,0,0,2.22-3.69,4.61,4.61,0,0,0-.21-1.34A4,4,0,0,0,122,49.67a5.11,5.11,0,0,0-2.91-.78c-2.2,0-13.76,0-13.76,0a1.71,1.71,0,0,1-1.86-1.35Q101.41,41.25,99.2,35a4.14,4.14,0,0,0-4-2.94h0a4.15,4.15,0,0,0-4,3c-1.44,4.12-2.87,8.25-4.25,12.4a2.3,2.3,0,0,1-.67,1.12,1.94,1.94,0,0,1-1.28.39h-.13c-1,0-1.92,0-2.89,0H78.36l-4.54,0c-1,0-2,0-3,.09A5.39,5.39,0,0,0,68,50,3.91,3.91,0,0,0,66.49,53.05Zm4.4.23.17-.53s14.55,0,17.29,0h0a1,1,0,0,0,.67-.16,1.16,1.16,0,0,0,.35-.6c1.59-4.75,3.22-9.49,4.84-14.23A3,3,0,0,1,95,36.5l.43-.41.22.56c.13.34.27.69.4,1.06C97.72,42.48,99.37,47.25,101,52a1.14,1.14,0,0,0,.36.59,1.32,1.32,0,0,0,.68.12h17.32l.25.78-.22.17c-.27.21-.54.44-.85.65-4.25,2.95-8.5,5.91-12.79,8.82a1.83,1.83,0,0,0-.49.44.75.75,0,0,0-.12.39,1.81,1.81,0,0,0,.13.59c1.68,4.76,3.29,9.54,4.92,14.31.12.34.17.66.32,1.22l.25,1-.85-.52c-.54-.33-.85-.51-1.17-.73-4.29-3-8.59-5.91-12.85-8.91a1.21,1.21,0,0,0-.68-.29,1.15,1.15,0,0,0-.64.27c-4.29,3-8.61,6-12.93,9-.29.2-.59.36-.86.52l-.21.13-.69-.46s3.77-11.21,5.26-15.43a1.9,1.9,0,0,0,.14-.63.61.61,0,0,0-.11-.38,1.55,1.55,0,0,0-.47-.43c-4.29-2.91-8.54-5.88-12.79-8.83-.31-.21-.58-.44-.84-.64l-.22-.18Z"/><path class="cls-1" d="M110.67,0A110.67,110.67,0,1,0,221.33,110.67,110.67,110.67,0,0,0,110.67,0Zm75.42,186.09a106.67,106.67,0,1,1,31.24-75.42A106.29,106.29,0,0,1,186.09,186.09Z"/></svg>