<svg xmlns="http://www.w3.org/2000/svg" viewBox="0 0 50.44 50.41"><defs><style>.cls-1{fill:#ebc848;}.cls-2{fill:#161139;}</style></defs><g id="Layer_2" data-name="Layer 2"><g id="Layer_2-2" data-name="Layer 2"><path class="cls-1" d="M50.44,25.16A25.22,25.22,0,0,1,0,25.29C-.14,11.64,11.19.06,24.74,0A25.22,25.22,0,0,1,50.44,25.16Z"/><path class="cls-2" d="M21.54,15.45a38.89,38.89,0,0,0-.29,5.19c0,.38,0,.76-.07,1.23H16.24v5.7c1.4,0,2.73,0,4.06,0,.78,0,1,.25,1,1,0,3.93,0,7.86,0,11.79v1.12h6.13V27.57c1.34,0,2.56,0,3.77,0,.25,0,.67-.25.71-.44.32-1.7.57-3.41.86-5.26H27.41c0-1.6-.09-3.1.05-4.57a2.26,2.26,0,0,1,1-1.5,6.45,6.45,0,0,1,2.25-.59,16.69,16.69,0,0,1,2.13,0V10.45l-4.48-.22C24.82,10.05,22.22,11.93,21.54,15.45Z"/></g></g></svg>