<svg id="Layer_2" data-name="Layer 2" xmlns="http://www.w3.org/2000/svg" viewBox="0 0 221.33 221.33"><defs><style>.cls-1{fill:#ebc848;}</style></defs><path class="cls-1" d="M176.34,135c-1.84-3.5-3.66-7-5.49-10.5a11.35,11.35,0,0,0-.7-1.28,2,2,0,0,0-1.64-.89,2.34,2.34,0,0,0-1.2.36,1.7,1.7,0,0,0-.62.73,2.73,2.73,0,0,0-.24,1.08,1.68,1.68,0,0,0,.16.76c1.94,3.59,5.88,11.32,5.88,11.32s-1.78.91-2.43,1.27-1.31.75-2,1.12c-1.27.7-2.55,1.41-3.84,2.08a2.21,2.21,0,0,1-1,.27,1.88,1.88,0,0,1-1.67-1.05c-1.56-2.91-12.68-23.86-14.91-28.09a2.08,2.08,0,0,1-.28-1,1.29,1.29,0,0,1,.28-.82,2,2,0,0,1,.71-.56c1.24-.64,2.5-1.22,3.75-1.82,2.9-1.38,5.8-2.74,8.69-4.13a1.89,1.89,0,0,0,1.11-1.76v-.2a2.06,2.06,0,0,0-.69-1.43,2.09,2.09,0,0,0-1.35-.47,2.19,2.19,0,0,0-1,.22s-9.93,4.68-11.86,5.68a8,8,0,0,0-2.35,1.6,5.28,5.28,0,0,0-1.43,3.62,6.57,6.57,0,0,0,.26,1.75l0,.2a1.22,1.22,0,0,1-.15.56,1.05,1.05,0,0,1-.42.45,9.58,9.58,0,0,1-4.62,1.21,8.75,8.75,0,0,1-3.89-.93c-2.15-1.06-4.21-2.3-6.23-3.54a10.93,10.93,0,0,0-5.85-1.77h-11.2a7.58,7.58,0,0,0-4.35,1.34,3.45,3.45,0,0,1-.34.19,1.31,1.31,0,0,1-.48.11h-.17a16.52,16.52,0,0,0-3.32-.39,9.91,9.91,0,0,0-2,.19,31.4,31.4,0,0,0-5,1.26c-2.14.81-4.2,2-6.39,2.91a9.58,9.58,0,0,1-3.76.79,10.34,10.34,0,0,1-4.63-1.16,1.25,1.25,0,0,1-.44-.41,1.19,1.19,0,0,1-.22-.54,5.43,5.43,0,0,0-3-4.46c-2.24-1.15-4.55-2.2-6.85-3.3-2-1-3.95-1.91-5.94-2.82a2,2,0,0,0-.8-.18,2,2,0,0,0-1.8,1.25,2,2,0,0,0-.21.88,1.9,1.9,0,0,0,1.13,1.72l12.29,5.94a2.47,2.47,0,0,1,.78.54,1.31,1.31,0,0,1,.33.85,2.23,2.23,0,0,1-.31,1c-.79,1.52-14,26.47-14.83,28a2.55,2.55,0,0,1-.69.85,1.53,1.53,0,0,1-1,.33,2.43,2.43,0,0,1-1.11-.3c-1-.51-2-1.08-3-1.62l-5.26-2.9s3.36-6.31,4.18-7.9a42.86,42.86,0,0,0,1.89-3.94,1.16,1.16,0,0,0,.08-.42,1.84,1.84,0,0,0-.36-1,2.13,2.13,0,0,0-.9-.74,2.4,2.4,0,0,0-.89-.18,1.8,1.8,0,0,0-1.62.92c-1.33,2.46-2.64,4.93-3.94,7.39-1,1.89-2,3.75-2.94,5.64a2.84,2.84,0,0,0-.33,1.23,1.6,1.6,0,0,0,.25.87,2.54,2.54,0,0,0,.83.79c1.29.84,2.73,1.51,4.14,2.28,1.78,1,3.6,1.9,5.36,2.95A6.9,6.9,0,0,0,58,148a6.45,6.45,0,0,0,1.94-.32,6.91,6.91,0,0,0,4-3.86c1.15-2.25,12.13-23,13.22-25.07a1.61,1.61,0,0,1,.26-.38.8.8,0,0,1,.59-.26,1.23,1.23,0,0,1,.5.12h0a14.89,14.89,0,0,0,4.23,1.15,14.35,14.35,0,0,0,1.72.12A13.78,13.78,0,0,0,90,118.3c1.76-.77,3.48-1.65,5.26-2.45.86-.38,1.73-.62,2.54-.9l1.48-.52-.9,1.28a5.1,5.1,0,0,1-1.15,1.1c-2.6,2-5.22,3.89-7.81,5.86a19.91,19.91,0,0,0-1.83,1.47A5.16,5.16,0,0,0,86.32,126a5.45,5.45,0,0,0-.44,2,4.57,4.57,0,0,0,2.27,3.76A9.11,9.11,0,0,0,93,133L94,133a20.5,20.5,0,0,0,3.5-.3,17.22,17.22,0,0,0,4.08-1.26c1.5-.67,2.92-1.63,4.45-2.45a1.12,1.12,0,0,1,.57-.13,1.34,1.34,0,0,1,.66.16h0c2.84,1.53,37.75,20.77,41.33,22.68a4.43,4.43,0,0,1,1.41,1.15,3.33,3.33,0,0,1,.66,1.66,4.26,4.26,0,0,1,0,.61,2.47,2.47,0,0,1-.54,1.67,2.62,2.62,0,0,1-1.76.83,4.44,4.44,0,0,1-.63,0,7,7,0,0,1-3.21-.92l-17.22-9.08a4.39,4.39,0,0,0-1.89-.72,2,2,0,0,0-.41.05,2.41,2.41,0,0,0-1,.45,1.6,1.6,0,0,0-.53.83,3.66,3.66,0,0,0-.15.93,1.35,1.35,0,0,0,.5,1.12,13.75,13.75,0,0,0,2.32,1.41l-.11-.05.11.05h0s6.43,3.37,9.63,5.08a14.73,14.73,0,0,1,2.85,1.76,2.67,2.67,0,0,1,.88,2,2.54,2.54,0,0,1-.9,2,3.75,3.75,0,0,1-2.27.73,3.87,3.87,0,0,1-1.94-.5c-2.33-1.31-10.77-6.09-12.67-7.11a4.55,4.55,0,0,0-2-.79,1.85,1.85,0,0,0-.72.16,2.23,2.23,0,0,0-.88.62,1.78,1.78,0,0,0-.39.87,3.08,3.08,0,0,0,0,.51,1.86,1.86,0,0,0,.19.87,1.66,1.66,0,0,0,.63.67c1,.62,2.1,1.22,3.17,1.81,2.23,1.24,4.49,2.45,6.72,3.73a2.3,2.3,0,0,1,1,1.31,2.62,2.62,0,0,1,.07.62,3.09,3.09,0,0,1-.94,2.17,3.44,3.44,0,0,1-2.17,1.05h-.34a5.55,5.55,0,0,1-2.94-1s-5.59-3.31-8.37-5a2.75,2.75,0,0,0-1.43-.47,2.19,2.19,0,0,0-.36,0,2,2,0,0,0-1,.53,2,2,0,0,0-.52.86,2.86,2.86,0,0,0-.08.63,2,2,0,0,0,.93,1.72c1.82,1.12,3.67,2.19,5.53,3.26a5.51,5.51,0,0,1,1.27.93,2.48,2.48,0,0,1,.69,1.64v.22a3.41,3.41,0,0,1-.39,1.65,3.11,3.11,0,0,1-1.23,1.21,4.51,4.51,0,0,1-2.16.58,4.2,4.2,0,0,1-1.77-.41l.11.05-.11-.05h0c-.92-.44-1.74-1-2.56-1.48l-38.59-23a2.36,2.36,0,0,0-1.22-.33,2,2,0,0,0-1.6.73,2.28,2.28,0,0,0-.42,1.33,2,2,0,0,0,.84,1.67c3,1.8,34.51,20.55,34.51,20.55l.27.19c.17.12.42.29.74.49a29.68,29.68,0,0,0,2.62,1.49,18.13,18.13,0,0,0,7.67,2.15,7.84,7.84,0,0,0,3.81-.9,8,8,0,0,0,3.11-3.23c.07-.19.15-.35.2-.47a.61.61,0,0,0,.06-.23v-.12a1.4,1.4,0,0,1,.1-.54.89.89,0,0,1,.34-.42,1.47,1.47,0,0,1,.84-.21h.17c.51,0,1,.06,1.47.06a4.07,4.07,0,0,0,1-.1,8.37,8.37,0,0,0,3.69-1.77,6.69,6.69,0,0,0,2.08-3.48,1.45,1.45,0,0,1,.4-.7,1.07,1.07,0,0,1,.69-.24,1.93,1.93,0,0,1,.42.05,9.1,9.1,0,0,0,2,.25,5.83,5.83,0,0,0,1.18-.12l-.16,0,.16,0a7.58,7.58,0,0,0,3.21-1.44,6.12,6.12,0,0,0,1.94-2.86v0c.17-.49.31-1,.48-1.57l.12-.38.39,0a2.06,2.06,0,0,1,.52,0,11.64,11.64,0,0,0,3.35.59,8.51,8.51,0,0,0,1-.06,7.24,7.24,0,0,0,3.82-1.76,6.89,6.89,0,0,0,2.07-5.1,6,6,0,0,0-.57-2.66,3.27,3.27,0,0,1-.34-1.44,3.76,3.76,0,0,1,.14-1,8.16,8.16,0,0,1,4.27-5.27,1.87,1.87,0,0,1,.86-.23,2,2,0,0,1,1,.32l-.1-.07.1.07a5.58,5.58,0,0,0,2.84.8,5,5,0,0,0,1.43-.2,17.66,17.66,0,0,0,3.29-1.48q4.21-2.24,8.39-4.56a2.09,2.09,0,0,0,.8-.72,2,2,0,0,0,.28-1v0a2.61,2.61,0,0,0-.3-1.17C176.82,135.83,176.57,135.43,176.34,135Zm-19.79,5.86a11.48,11.48,0,0,0-5.93,6.63l-.19.54s-41.38-22.69-42.88-23.49a2,2,0,0,0-.91-.25,2.23,2.23,0,0,0-1.07.3c-1.94,1.08-3.86,2.26-5.88,3.27a11.93,11.93,0,0,1-3.23.95,11.07,11.07,0,0,1-2.14.2,12.44,12.44,0,0,1-2.84-.33,10.3,10.3,0,0,1-1.2-.44l-.83-.32,16.92-12.83a16.11,16.11,0,0,1,1.67-1.24,4.65,4.65,0,0,1,2-.67c1.42,0,9.59,0,10.74,0h.08a8.21,8.21,0,0,1,4.36,1.32c2.09,1.27,4.18,2.52,6.33,3.63a12.15,12.15,0,0,0,5.7,1.32c.44,0,.89,0,1.33,0a13.73,13.73,0,0,0,5.61-1.78l.45-.25L157,140.61Z"/><path class="cls-1" d="M192.81,123c0-.72,0-1.44,0-2.16a26.62,26.62,0,0,0-.17-3.24,6.92,6.92,0,0,0-6.78-5.82h-7.14a1.69,1.69,0,0,1-.52-.06.93.93,0,0,1-.54-.46,1.28,1.28,0,0,1-.14-.47,25,25,0,0,0-.71-3.38c-.67-2.36-1.41-4.7-2.18-7a2.13,2.13,0,0,1-.12-.65,1.14,1.14,0,0,1,.23-.71,1.88,1.88,0,0,1,.56-.45c1.87-1,3.71-2.14,5.64-3.14a7.28,7.28,0,0,0,3.76-6.24,5.57,5.57,0,0,0-.23-1.62,13.45,13.45,0,0,0-1.34-3c-1.24-2.19-2.43-4.4-3.84-6.42a6.72,6.72,0,0,0-5.22-2.75l-.5,0a10,10,0,0,0-5.07,1.76c-1.65,1-3.32,1.91-4.88,2.79l-.33.19-9.38-9.3s2-3.4,2.93-5a9.86,9.86,0,0,0,1.83-5.09,6.11,6.11,0,0,0,0-.73,6.78,6.78,0,0,0-3.42-5.34c-1.89-1.13-3.82-2.21-5.74-3.32a9.19,9.19,0,0,0-4.63-1.54l-.45,0a7,7,0,0,0-5.81,3.43c-1.17,1.88-2.27,3.82-3.38,5.77a1.84,1.84,0,0,1-.48.56,1.16,1.16,0,0,1-.72.24,1.83,1.83,0,0,1-.64-.13,59.14,59.14,0,0,0-10.72-2.81,1.06,1.06,0,0,1-.72-.42,1.26,1.26,0,0,1-.19-.75V48.77a6.48,6.48,0,0,0-1.19-3.72,7.23,7.23,0,0,0-6.14-3.26h-7a9.86,9.86,0,0,0-1.92.14,7.2,7.2,0,0,0-5.87,6.9c0,1,0,6.81,0,6.81a1.31,1.31,0,0,1-.26.85,1.33,1.33,0,0,1-.82.42c-1.93.39-3.86.8-5.76,1.3S89,59.32,87.09,59.9l-.37.11-.65-1.09c-1.27-2.11-2.43-4.26-3.79-6.24a6.83,6.83,0,0,0-5.7-2.87,7.66,7.66,0,0,0-3.83,1c-1.6.94-3.21,1.82-4.79,2.76s-2.91,1.51-3.86,2.78A7.52,7.52,0,0,0,62.59,61V61a7.92,7.92,0,0,0,1.46,4.12c1.12,1.81,2.16,3.66,3.15,5.35l.2.33L58,80.11l-5.21-3a9.94,9.94,0,0,0-5-1.74l-.41,0a7.11,7.11,0,0,0-5.92,3.49c-1.26,2-2.45,4.1-3.65,6.18a7.85,7.85,0,0,0-1.2,4,5.32,5.32,0,0,0,.05.79,7.16,7.16,0,0,0,1.26,3.4,7.62,7.62,0,0,0,2.78,2.34c1.81,1,3.55,2,5.31,3h0a1.68,1.68,0,0,1,.55.47,1.2,1.2,0,0,1,.21.67,2.28,2.28,0,0,1-.13.68c-.72,2.18-1.42,4.36-2,6.56-.39,1.42-.63,2.91-.94,4.41l-.08.39H35.8a7.13,7.13,0,0,0-2.92.54,6.63,6.63,0,0,0-4.21,5.26,20,20,0,0,0-.18,2.92c0,.68,0,1.37,0,2.06a3.26,3.26,0,0,0,.37,1.35,2,2,0,0,0,1.76.92,2.44,2.44,0,0,0,.48,0,2,2,0,0,0,1-.64,1.91,1.91,0,0,0,.48-1.08c.07-1.4.12-2.8.15-4.19a2.89,2.89,0,0,1,3-3h9.54a2.11,2.11,0,0,0,1.43-.49,2.22,2.22,0,0,0,.72-1.34c.35-1.93.71-3.86,1.14-5.78a54.43,54.43,0,0,1,2.86-8.94,3.18,3.18,0,0,0,.24-1.11,1.79,1.79,0,0,0-.89-1.59c-1.84-1.12-3.75-2.13-5.65-3.2-1-.55-2-1.07-3-1.7a2.84,2.84,0,0,1-1.05-3.93c1.22-2.18,2.53-4.3,3.76-6.46a3.36,3.36,0,0,1,1.81-1.6h0a2.86,2.86,0,0,1,1-.19,5.2,5.2,0,0,1,2.48.9c2.47,1.41,4.9,2.87,7.38,4.22a2.52,2.52,0,0,0,1.18.34,2.06,2.06,0,0,0,1.41-.61,24,24,0,0,0,1.65-1.9c1.28-1.43,2.51-3,4-4.32,1.83-1.72,3.78-3.28,5.68-4.87a2.39,2.39,0,0,0,.84-1.77,1.91,1.91,0,0,0-.26-1c-1.35-2.28-2.7-4.56-4-6.86a8.37,8.37,0,0,1-1.15-2.36,3.5,3.5,0,0,1-.08-.7A2.53,2.53,0,0,1,67.3,59a4.94,4.94,0,0,1,1.44-1.14q3-1.65,5.94-3.39a3.7,3.7,0,0,1,1.88-.53,3.08,3.08,0,0,1,2.74,1.59c.24.44,3.49,6,4.88,8.26a1.79,1.79,0,0,0,1.58.88,2.33,2.33,0,0,0,.68-.1c3-.94,6-2,9-2.78a57.18,57.18,0,0,1,6.16-1.19,2.53,2.53,0,0,0,1.49-.72,2.06,2.06,0,0,0,.53-1.47V49.07a3.3,3.3,0,0,1,.72-2,2.58,2.58,0,0,1,1.79-1c1.68-.12,3.36-.14,5-.15h.09c1.11,0,2.18.11,3.21.12a3.25,3.25,0,0,1,2.3.9,3.17,3.17,0,0,1,.87,2.31V58.5a2,2,0,0,0,.52,1.35,2.36,2.36,0,0,0,1.27.71c.81.18,1.69.24,2.6.45,2.52.57,5.07,1.13,7.59,1.81,1.83.5,3.58,1.2,5.33,1.77a1.88,1.88,0,0,0,2.14-.75c1.58-2.63,3.15-5.26,4.66-7.92a3.33,3.33,0,0,1,4.82-1.49c2,1.18,4.06,2.38,6.12,3.49a3.31,3.31,0,0,1,1.87,2.83,3.09,3.09,0,0,1-.51,1.66c-.43.69-.81,1.45-1.26,2.2-1.16,2-2.34,3.92-3.47,5.89a2.22,2.22,0,0,0-.31,1.1,1.81,1.81,0,0,0,.64,1.39c1.17,1,2.45,1.94,3.66,3s2.32,2.09,3.39,3.23c1.61,1.71,3.13,3.48,4.68,5.21a1.86,1.86,0,0,0,1.32.5,1.61,1.61,0,0,0,.73-.16c1.33-.71,2.65-1.47,4-2.22,1.55-.88,3.09-1.82,4.7-2.67h0a3.33,3.33,0,0,1,1.55-.41,3.16,3.16,0,0,1,2.72,1.71c1.16,2,2.35,3.91,3.51,5.88a4.16,4.16,0,0,1,.7,2.1,3,3,0,0,1-1.23,2.31,7.44,7.44,0,0,1-1.25.8c-2.47,1.4-5,2.76-7.4,4.19a2,2,0,0,0-1.07,1.76,2.4,2.4,0,0,0,.15.81c.33,1,.75,2,1.11,3a55.8,55.8,0,0,1,2.85,11.47,2.74,2.74,0,0,0,.88,1.87,2.94,2.94,0,0,0,1.84.49s7.42,0,9.18,0a3.19,3.19,0,0,1,1.92.62,2.59,2.59,0,0,1,1,1.76c.17,1.53.12,3,.17,4.52v.08c0,.12,0,.23,0,.31a.71.71,0,0,0,0,.19,2.2,2.2,0,0,0,2.14,1.43h.25a1.89,1.89,0,0,0,1.12-.6A1.76,1.76,0,0,0,192.81,123Z"/><path class="cls-1" d="M64.11,93.71l0,0,0,0a1.67,1.67,0,0,0-.36.46v0a1.93,1.93,0,0,0-.26,1,2,2,0,0,0,3.73,1l.25-.42.08,0,.56-.72c.47-.58,1-1.15,1.45-1.72s.78-.87,1.2-1.31.81-.87,1.24-1.3a54.8,54.8,0,0,1,77.46,0c.42.43.83.87,1.24,1.3s.8.86,1.19,1.31h0l0,0,0,0h0c.49.57,1,1.14,1.45,1.72l.57.72.06,0,.25.42a2,2,0,0,0,3.73-1,1.93,1.93,0,0,0-.26-1l0-.08a2.28,2.28,0,0,0-.3-.38l0,0-.64-.82c-.31-.39-1.11-1.34-1.11-1.34-.25-.3-.5-.6-.74-.87s-.41-.46-.62-.68-.64-.7-1-1c-.65-.68-1.31-1.35-2-2l-1-1,0,0-.81-.73c-.53-.46-1.05-.91-1.58-1.34q-.44-.36-.87-.69c-.75-.59-1.51-1.16-2.27-1.7-.27-.2-.56-.4-.84-.58h0c-.53-.37-1.05-.72-1.59-1.06,0,0-.61-.39-.92-.57a57.63,57.63,0,0,0-5.47-3c-.46-.22-.93-.44-1.38-.63h0l-.91-.39h0c-.42-.19-.85-.37-1.27-.53l-.1,0c-.43-.17-.85-.33-1.28-.48h0c-.44-.17-.89-.33-1.35-.49s-1-.34-1.57-.5c-.89-.27-1.77-.53-2.67-.75h0c-.4-.11-.81-.21-1.22-.3-.64-.15-1.27-.29-1.91-.41s-1.17-.23-1.76-.32h0c-.26-.06-.54-.1-.83-.14h0c-.47-.08-1-.13-1.44-.2l-1.25-.14-1.2-.11-1.06-.08c-.71,0-1.43-.08-2.14-.1s-1.13,0-1.7,0h-.09c-.56,0-1.13,0-1.69,0-.72,0-1.44.05-2.14.1l-1.07.08-1.19.11-1.25.14c-.49.07-1,.12-1.45.2h0c-.29,0-.57.08-.82.14h0c-.59.09-1.18.2-1.76.32h0c-.64.12-1.28.26-1.91.41-.42.09-.82.2-1.23.3-.9.24-1.79.48-2.67.75-.53.16-1.05.32-1.58.5s-.91.32-1.35.49h0l-1.27.48h0l-.08,0c-.43.16-.86.34-1.28.53h0l-.91.39h0c-.46.19-.92.41-1.38.63a59.05,59.05,0,0,0-5.48,3L79.1,80a58.06,58.06,0,0,0-7.17,5.38l-.77.7-1,1c-1.14,1.09-2.24,2.23-3.29,3.4-.35.38-.7.78-1,1.19L64.7,92.94Z"/><path class="cls-1" d="M221.33,110.67h0A110.67,110.67,0,1,0,110.67,221.33,110.66,110.66,0,0,0,221.33,110.67Zm-4,0a106.66,106.66,0,1,1-31.24-75.43,106.29,106.29,0,0,1,31.24,75.43h0Z"/></svg>