<svg id="Layer_2" data-name="Layer 2" xmlns="http://www.w3.org/2000/svg" viewBox="0 0 221.33 221.33"><defs><style>.cls-1{fill:#ebc848;}</style></defs><path class="cls-1" d="M171.6,84.58h-9.14V83.11a3.89,3.89,0,0,0-3.89-3.88h-17a1.63,1.63,0,1,0,0,3.25h17.26l.42.42v26.16a1.63,1.63,0,1,0,3.26,0V87.84h9.14a1,1,0,0,1,1,1v74.25a9.33,9.33,0,0,1-9.33,9.33H58a9.34,9.34,0,0,1-9.33-9.33V88.86a1,1,0,0,1,1-1h9.43v73.29a5,5,0,0,0,5,4.94h93.4a4.93,4.93,0,0,0,4.94-4.94v-43a1.63,1.63,0,1,0-3.25,0v31.12H124.27a15.05,15.05,0,0,0-11,4.75l-.86.91V126.13a1.63,1.63,0,0,0-3.26,0v28.79l-.86-.91a15.09,15.09,0,0,0-11-4.75H87.68a1.63,1.63,0,1,0,0,3.26h9.67a11.85,11.85,0,0,1,11.64,9.7l.1.59h-45a1.68,1.68,0,0,1-1.69-1.68v-8.61H78.6a1.63,1.63,0,1,0,0-3.26H62.42V82.9l.42-.42H80.1a1.63,1.63,0,1,0,0-3.25h-17a3.89,3.89,0,0,0-3.89,3.88v1.47H49.73a4.3,4.3,0,0,0-4.28,4.28v74.25A12.62,12.62,0,0,0,58,175.7H163.29a12.6,12.6,0,0,0,12.59-12.59V88.86a4.28,4.28,0,0,0-4.28-4.28Zm-59,77.64a11.85,11.85,0,0,1,11.64-9.7H159.2v8.61a1.69,1.69,0,0,1-1.69,1.68h-45Z"/><path class="cls-1" d="M81,58.71v.15a1.64,1.64,0,0,0,1.48,1.62h.15A1.63,1.63,0,0,0,84.25,59a26.68,26.68,0,1,1,48.38,17.88h0L119,98.16a1.62,1.62,0,0,0-.26.88v2.76a1.52,1.52,0,0,1-1.52,1.51h-.67l1.42-24h2.9a5.79,5.79,0,0,0,5.79-5.79v-.26a5.8,5.8,0,0,0-11.58-.34l-.18,3.14h-8.41l-.18-3.14a5.79,5.79,0,0,0-11.57.34v.26a5.77,5.77,0,0,0,5.79,5.79h2.89l1.42,24.08-.61-.09a1.51,1.51,0,0,1-1.29-1.49V99a1.62,1.62,0,0,0-.26-.88L89,76.89a26.41,26.41,0,0,1-4.18-9.34,1.62,1.62,0,0,0-1.58-1.27,1.47,1.47,0,0,0-.36,0,1.64,1.64,0,0,0-1.27,1.59,1.61,1.61,0,0,0,0,.37A29.86,29.86,0,0,0,86.3,78.74L99.65,99.51v2.29a4.78,4.78,0,0,0,2.85,4.36l.3.13v3.92a6.37,6.37,0,0,0,6.36,6.37h3.3a6.37,6.37,0,0,0,6.36-6.37v-3.92l.3-.13A4.78,4.78,0,0,0,122,101.8V99.52l13.35-20.78A29.94,29.94,0,1,0,81,58.71Zm37.3,14.39a2.53,2.53,0,0,1,5.06.15v.26a2.54,2.54,0,0,1-2.53,2.54h-2.71Zm-17.81,3A2.54,2.54,0,0,1,98,73.51v-.26A2.54,2.54,0,0,1,103,73.1l.17,3Zm13.65,3.25h.53l-1.42,24h-5.19l-1.41-24Zm1.42,30.91a3.11,3.11,0,0,1-3.11,3.11h-3.3a3.11,3.11,0,0,1-3.11-3.11v-3.64h9.52v3.64Z"/><path class="cls-1" d="M146.46,45.15a1.62,1.62,0,0,0,2.7,1.22l4.65-4.08a1.64,1.64,0,0,0,.55-1.22A1.58,1.58,0,0,0,154,40a1.61,1.61,0,0,0-1.22-.56,1.58,1.58,0,0,0-1.07.41L147,43.92A1.66,1.66,0,0,0,146.46,45.15Z"/><path class="cls-1" d="M151.66,63.81a1.58,1.58,0,0,0,1.07.41,1.61,1.61,0,0,0,1.22-.56,1.58,1.58,0,0,0,.41-1.07,1.64,1.64,0,0,0-.55-1.22l-4.65-4.08a1.62,1.62,0,0,0-2.7,1.22,1.66,1.66,0,0,0,.55,1.23Z"/><path class="cls-1" d="M72.46,46.37a1.63,1.63,0,0,0,1.07.41,1.61,1.61,0,0,0,1.22-.56,1.58,1.58,0,0,0,.41-1.07,1.63,1.63,0,0,0-.56-1.23L70,39.85a1.58,1.58,0,0,0-1.07-.41,1.63,1.63,0,0,0-1.63,1.63,1.6,1.6,0,0,0,.55,1.22Z"/><path class="cls-1" d="M75.16,58.51a1.58,1.58,0,0,0-.41-1.07,1.61,1.61,0,0,0-1.22-.56,1.63,1.63,0,0,0-1.07.41l-4.65,4.08a1.6,1.6,0,0,0-.55,1.22,1.63,1.63,0,0,0,1.63,1.63A1.58,1.58,0,0,0,70,63.81l4.64-4.07A1.63,1.63,0,0,0,75.16,58.51Z"/><path class="cls-1" d="M96.33,108.32H72.73a1.63,1.63,0,1,0,0,3.25h23.6a1.63,1.63,0,1,0,0-3.25Z"/><path class="cls-1" d="M96.33,121.6H72.73a1.63,1.63,0,1,0,0,3.25h23.6a1.63,1.63,0,1,0,0-3.25Z"/><path class="cls-1" d="M96.33,134.87H72.73a1.63,1.63,0,0,0,0,3.26h23.6a1.63,1.63,0,0,0,0-3.26Z"/><path class="cls-1" d="M148.89,108.32H125.28a1.63,1.63,0,1,0,0,3.25h23.61a1.63,1.63,0,0,0,0-3.25Z"/><path class="cls-1" d="M148.89,121.6H125.28a1.63,1.63,0,1,0,0,3.25h23.61a1.63,1.63,0,0,0,0-3.25Z"/><path class="cls-1" d="M148.89,134.87H125.28a1.63,1.63,0,1,0,0,3.26h23.61a1.63,1.63,0,0,0,0-3.26Z"/><path class="cls-1" d="M110.67,0A110.67,110.67,0,1,0,221.33,110.67,110.67,110.67,0,0,0,110.67,0Zm75.42,186.09a106.67,106.67,0,1,1,31.24-75.42A106.29,106.29,0,0,1,186.09,186.09Z"/></svg>