<svg xmlns="http://www.w3.org/2000/svg" viewBox="0 0 50.4 50.41"><defs><style>.cls-1{fill:#ebc848;}.cls-2{fill:#161139;}</style></defs><g id="Layer_2" data-name="Layer 2"><g id="Layer_2-2" data-name="Layer 2"><path class="cls-1" d="M25.23,0A25.21,25.21,0,1,1,0,25.16,25.19,25.19,0,0,1,25.23,0ZM11.91,18.84a13.14,13.14,0,0,0,.33,1.8,21.22,21.22,0,0,0,2,4.56,30.49,30.49,0,0,0,7.57,8.51,24.48,24.48,0,0,0,7.62,4.15,7.59,7.59,0,0,0,3.37.46,6.86,6.86,0,0,0,2.89-1,15.08,15.08,0,0,0,2.41-2.18A1,1,0,0,0,38.4,34a2,2,0,0,0-.37-.53c-.63-.66-1.28-1.29-1.92-1.94-.85-.85-1.69-1.7-2.54-2.54a1.08,1.08,0,0,0-1.27-.35,2,2,0,0,0-.58.43c-.81.81-1.6,1.62-2.4,2.43a2.29,2.29,0,0,1-3.1.25,33.49,33.49,0,0,1-7.51-7.38,2.28,2.28,0,0,1-.49-1.32A2.36,2.36,0,0,1,19,21.27c.86-.85,1.71-1.7,2.56-2.56a1.1,1.1,0,0,0,0-1.76L17.08,12.5a1.12,1.12,0,0,0-1.8,0L14,13.77A7.15,7.15,0,0,0,11.91,18.84Z"/><path class="cls-2" d="M11.91,18.84A7.15,7.15,0,0,1,14,13.77l1.28-1.28a1.12,1.12,0,0,1,1.8,0L21.53,17a1.1,1.1,0,0,1,0,1.76c-.85.86-1.7,1.71-2.56,2.56a2.36,2.36,0,0,0-.74,1.79,2.28,2.28,0,0,0,.49,1.32,33.49,33.49,0,0,0,7.51,7.38,2.29,2.29,0,0,0,3.1-.25c.8-.81,1.59-1.62,2.4-2.43a2,2,0,0,1,.58-.43,1.08,1.08,0,0,1,1.27.35c.85.84,1.69,1.69,2.54,2.54.64.65,1.29,1.28,1.92,1.94a2,2,0,0,1,.37.53,1,1,0,0,1-.25,1.11,15.08,15.08,0,0,1-2.41,2.18,6.86,6.86,0,0,1-2.89,1,7.59,7.59,0,0,1-3.37-.46,24.48,24.48,0,0,1-7.62-4.15,30.49,30.49,0,0,1-7.57-8.51,21.22,21.22,0,0,1-2-4.56A13.14,13.14,0,0,1,11.91,18.84Z"/></g></g></svg>