<svg id="Layer_2" data-name="Layer 2" xmlns="http://www.w3.org/2000/svg" viewBox="0 0 221.33 221.33"><defs><style>.cls-1{fill:#ebc848;}</style></defs><path class="cls-1" d="M189,124.68a2.4,2.4,0,0,1-.57-.15,1.58,1.58,0,0,1-.52-.33,2.32,2.32,0,0,1-.49-.79c-.45-1.11-12.4-29.32-17.86-42.33a1.91,1.91,0,0,1-.14-.73,3.69,3.69,0,0,1,.21-1.15,24,24,0,0,0,1.22-3.75,6.8,6.8,0,0,0,.06-.9,8.09,8.09,0,0,0-4.4-7,2.93,2.93,0,0,1-1.06-1c-1.09-1.64-2-3.32-3.12-4.76a17.82,17.82,0,0,0-10-6.51,24.27,24.27,0,0,0-6.16-.75,37,37,0,0,0-5.62.47c-4.25.67-8.48,1.7-12.79,2.55-2,.41-4.08.73-6.17,1.09l-.83.15-.28-.8c-.06-.16-.11-.27-.15-.41a2.75,2.75,0,0,1-.15-.48A17.66,17.66,0,0,0,117.65,51q-1.7-2.75-3.25-5.56c-.61-1.11-1-2.23-1.46-3.14a2.54,2.54,0,0,0-2.2-1.52,2.64,2.64,0,0,0-1.66.68,3.1,3.1,0,0,0-.59.75c-.19.34-.39.74-.61,1.15-1.3,2.38-2.47,4.9-3.93,7.3a18.53,18.53,0,0,0-2.7,6.3c-.07.37-.16.69-.24,1l-.25,1-1-.28-.59-.17c-3.83-.77-7.63-1.6-11.44-2.29-3.51-.63-7-1.28-10.49-1.59-.57-.05-1.14-.08-1.73-.08a38.53,38.53,0,0,0-5,.4,17,17,0,0,0-9.17,4.34,24.72,24.72,0,0,0-5.27,6.91,3.1,3.1,0,0,1-1.22,1.28,8.13,8.13,0,0,0-4.4,7.22A8.42,8.42,0,0,0,51.62,79a2.54,2.54,0,0,1,.32,1.31,2.32,2.32,0,0,1-.15.89c-.59,1.65-1.29,3.23-1.95,4.79-3.48,8.27-14.11,33.29-15.91,37.53a2.6,2.6,0,0,1-.23.43,1.71,1.71,0,0,1-.39.42,2,2,0,0,1-1,.35,1.93,1.93,0,0,0-1.7,1.91,1.87,1.87,0,0,0,.09.56,34.41,34.41,0,0,0,11.17,16.73,25.91,25.91,0,0,0,16.61,6.18c.89,0,1.8-.05,2.72-.14a25.56,25.56,0,0,0,8.48-2.38,29.43,29.43,0,0,0,9.47-7.19,38,38,0,0,0,7.46-12.93,2.41,2.41,0,0,0,.14-.8,1.87,1.87,0,0,0-.48-1.25,2.51,2.51,0,0,0-1.41-.74,2,2,0,0,1-.91-.47,2.15,2.15,0,0,1-.59-.78c-1.3-3-13.2-31.2-17.92-42.3a2.16,2.16,0,0,1-.19-.87,2.11,2.11,0,0,1,.14-.73,3,3,0,0,1,.28-.54,7.87,7.87,0,0,0,1.16-4.17A8.06,8.06,0,0,0,65.33,70a8.5,8.5,0,0,0-3.55-2.87l-1-.42.53-1.09a1.44,1.44,0,0,1,.17-.29A15.39,15.39,0,0,1,72,58.9a10.32,10.32,0,0,1,1.58-.18,2.2,2.2,0,0,1,.82.13,2.11,2.11,0,0,1,.73.46,7.72,7.72,0,0,1,1,1.39,53.49,53.49,0,0,0,12.2,13.08c6.56,5,13.73,7.69,21.69,7.7a37.38,37.38,0,0,0,3.92-.22,42.09,42.09,0,0,0,6.7-1.19c6.55-1.83,12-5.55,17-10.3a51.59,51.59,0,0,0,8-9.82,3.45,3.45,0,0,1,.45-.56,2.55,2.55,0,0,1,.65-.48,1.84,1.84,0,0,1,.7-.17,15.15,15.15,0,0,1,2.91.35A14.85,14.85,0,0,1,160,65.65l.53.78-.76.57-.13.11a1.4,1.4,0,0,1-.36.23,7.88,7.88,0,0,0-3.52,3.08,8.34,8.34,0,0,0-1.23,4.35,8.09,8.09,0,0,0,1.28,4.38,1.73,1.73,0,0,1,.27,1,2.08,2.08,0,0,1-.15.79s-15.7,37.2-17.91,42.36a2.58,2.58,0,0,1-.28.51,2.07,2.07,0,0,1-.48.52,1.31,1.31,0,0,1-.7.28,2,2,0,0,0-1.39.65,2.07,2.07,0,0,0-.51,1.41,3.17,3.17,0,0,0,.21,1.08c2.95,8,7.56,14.51,15,18.79a25,25,0,0,0,12.69,3.55,24.58,24.58,0,0,0,3.51-.25,27,27,0,0,0,14.17-6.58,35.84,35.84,0,0,0,10.43-15.94,2.49,2.49,0,0,0,.13-.77,1.85,1.85,0,0,0-.47-1.25A2,2,0,0,0,189,124.68ZM80.08,128.79h1.71L81,130.28c-.62,1.11-1.15,2.17-1.82,3.22a27.36,27.36,0,0,1-10.47,9.92A21.28,21.28,0,0,1,58.81,146c-.46,0-.91,0-1.37,0a22.5,22.5,0,0,1-12.21-4.68,30.55,30.55,0,0,1-8.86-11l-.72-1.45Zm-1.29-5.55.59,1.39H38.44l.17-1.15s0-.14,0-.28a1.72,1.72,0,0,1,.13-.56C40,119.76,54,86.73,55.13,84a4.06,4.06,0,0,1,.21-.49,1.68,1.68,0,0,1,.73-.68,1.78,1.78,0,0,1,.74-.15h.12c.47,0,1,0,1.45,0h3.28ZM61.33,71.68a3.66,3.66,0,0,1,1.34,2.83c0,.09,0,.17,0,.26a1.94,1.94,0,0,1,0,.24,3.76,3.76,0,0,1-1.21,2.62,3.94,3.94,0,0,1-2.69,1.16h-.07a4.24,4.24,0,0,1-2.91-1.16,3.92,3.92,0,0,1-1.18-2.88v0h0v-.06a3.94,3.94,0,0,1,1.2-2.83,4.08,4.08,0,0,1,2.78-1.09h.11A4.15,4.15,0,0,1,61.33,71.68Zm45.16-17.35c1.05-1.85,2.26-3.55,3.48-5.46l.93-1.44.8,1.52c1.4,2.66,3,5.22,4.14,8a5.76,5.76,0,0,1,.46,2.27A6.12,6.12,0,0,1,114,64a5.14,5.14,0,0,1-6.64,0,6,6,0,0,1-2-3,6.65,6.65,0,0,1-.28-1.94A9.72,9.72,0,0,1,106.49,54.33Zm33.26,7.09c-2,2.09-3.9,4.31-6.06,6.36a36.26,36.26,0,0,1-11.92,7.62,29.76,29.76,0,0,1-7.9,1.79c-1.14.11-2.26.17-3.38.17a30.54,30.54,0,0,1-14.75-3.72,38.32,38.32,0,0,1-9.9-7.6c-1.46-1.55-2.84-3.14-4.24-4.7l-.5-.55.91-1.5.7.15c2.38.5,4.73,1.05,7.08,1.49,3.57.68,7.17,1.26,10.77,1.93a2.11,2.11,0,0,1,1,.46,2.58,2.58,0,0,1,.63.72A11.94,11.94,0,0,0,105,67.35a9.4,9.4,0,0,0,3.88,1.76,10.78,10.78,0,0,0,2,.21,9.07,9.07,0,0,0,6.51-2.88,32.28,32.28,0,0,0,2-2.6,3.29,3.29,0,0,1,.56-.56,2.22,2.22,0,0,1,.9-.42c3.58-.66,7.15-1.24,10.69-1.9,2.37-.45,4.74-1,7.14-1.52l.65-.13,1.07,1.52Zm18.89,13.1a4.11,4.11,0,0,1,1.22-2.67,3.91,3.91,0,0,1,2.77-1.14h.15a4,4,0,0,1,4,4v.1a3.86,3.86,0,0,1-1.26,2.78,4.22,4.22,0,0,1-2.69,1.16l-.08,0h-.13a4.16,4.16,0,0,1-4-4v-.25Zm-16.08,48.69L159.1,84a2.16,2.16,0,0,1,.67-.92,1.86,1.86,0,0,1,1.1-.35,3.17,3.17,0,0,1,.53,0,9,9,0,0,0,1.43.13,3.54,3.54,0,0,0,.83-.08,3,3,0,0,1,.72-.09,1.78,1.78,0,0,1,.75.14,1.7,1.7,0,0,1,.62.42,3.13,3.13,0,0,1,.6,1c2.51,6,13.3,31.47,16.15,38.25.1.25.16.45.25.69l.48,1.34H142Zm42.47,7.1c-1,1.61-1.85,3.21-2.93,4.73a25.57,25.57,0,0,1-11.81,9.45,21.78,21.78,0,0,1-7.75,1.48,22.38,22.38,0,0,1-13.31-4.74,29.09,29.09,0,0,1-8.66-10.62,1.18,1.18,0,0,1-.12-.35l-.4-1.47H186Z"/><path class="cls-1" d="M144,166.07a7.34,7.34,0,0,0-4.89-1.82h-6.63a9,9,0,0,1-8.29-6,12.23,12.23,0,0,1-.61-4v-.08a2.08,2.08,0,0,0-.59-1.49,2.11,2.11,0,0,0-1.5-.6h-2.58V88.78l-4.14.58c0,.81,0,60.6,0,61.05a1.58,1.58,0,0,1-.26.77,1.83,1.83,0,0,1-.46.56,1.18,1.18,0,0,1-.76.3c-1,.05-2,0-3,0H106.8l-.07-.92c0-.29-.06-.53-.07-.87,0-1.64,0-58.92,0-61-.83,0-1.6-.18-2.31-.27l-1.9-.26v63.28H100a2.2,2.2,0,0,0-1.36.4,1.92,1.92,0,0,0-.7,1.17,22,22,0,0,0-.3,2.77,8.7,8.7,0,0,1-3,5.67,9.21,9.21,0,0,1-5.92,2.2s-2.08-.05-3-.05a45.63,45.63,0,0,0-5,.24,6.18,6.18,0,0,0-3.86,2.18A6.72,6.72,0,0,0,75,170.8c0,1.87-.06,3.75-.06,5.64v1.76a2.33,2.33,0,0,0,.59,1.75,2.56,2.56,0,0,0,1.83.58h66.82a2.29,2.29,0,0,0,1.4-.44,1.92,1.92,0,0,0,.69-1.18,3.91,3.91,0,0,0,.06-.73c0-.42,0-.9-.05-1.43v0c0-1.29.06-2.55.06-3.77,0-.78,0-1.54-.09-2.28A7,7,0,0,0,144,166.07Zm-1.74,9.37v1H81.16a2.88,2.88,0,0,1-.77-.08,1.63,1.63,0,0,1-.83-.45,1.55,1.55,0,0,1-.35-.57,2.29,2.29,0,0,1-.13-.76c0-.1,0-.21,0-.31,0-.31,0-.63,0-1,0-.51,0-1.73,0-1.73a3.18,3.18,0,0,1,3.25-3.23c.17,0,6,0,6.78,0a12.67,12.67,0,0,0,5.66-1.43A13.7,13.7,0,0,0,99.25,163,15.93,15.93,0,0,0,101.8,157l.18-.76h17l.26.62a42.93,42.93,0,0,0,2.24,5.3,12.37,12.37,0,0,0,4.59,4.61,13.5,13.5,0,0,0,6.36,1.62h6.44a3.36,3.36,0,0,1,2.39.9,3.31,3.31,0,0,1,1,2.39C142.23,172.12,142.22,174.62,142.22,175.44Z"/><path class="cls-1" d="M110.75,164.25h0a2.09,2.09,0,0,0-1.49.54,2,2,0,0,0-.54,1.44,2.2,2.2,0,0,0,.55,1.55,1.83,1.83,0,0,0,1.38.56,2.21,2.21,0,0,0,1.49-.56,2,2,0,0,0,.64-1.51v0a1.91,1.91,0,0,0-.62-1.46A2.1,2.1,0,0,0,110.75,164.25Z"/><path class="cls-1" d="M110.67,0A110.67,110.67,0,1,0,221.33,110.67,110.67,110.67,0,0,0,110.67,0Zm75.42,186.09a106.67,106.67,0,1,1,31.24-75.42A106.29,106.29,0,0,1,186.09,186.09Z"/></svg>